<svg xmlns="http://www.w3.org/2000/svg" viewBox="-22.4 21.5 28 28"><circle cx="-8.4" cy="35.5" r="13.5"/><path d="M-1.4 37.2c-.1 0-.4-.2-.4-.1-.5.2-.9.4-1.3.8.4-.7.8-1.3 1.4-1.8 0-.1-.1-.3-.1-.4-.8.4-1.4 1-2 1.7-.1-.7 1.1-2.2 1.7-2.6.1 0 0-.2-.1-.2h-.1c-1.2 1-1.7 2-2.4 3.3.2-1.8.9-2.9 1.8-4.3 0 0-.1-.1-.1-.2-.9.6-1.7 1.8-2 2.8-.1-1.2.5-2.1.9-3.2h-.2c-.7.8-1 2.1-1.1 3.1-.3-1.1-.1-2.2 0-3.2-.2.1-.6.4-.6.4-.1 1.6-.5 3.3-1.9 4.4-.1.1-.2.2-.1.3 0 .5.1 1.1.3 1.6-.3-.6-.5-1.4-.6-2 0-.1 0-.2.1-.3.8-.7 2-2.6 1.7-3.8 0 0-.1.3-.3.2-.6 2.3-2.1 3.4-2.3 3.4 0 0 .5 2.2.4 2.4-.6-.8-1-1.8-1-2.9 0-.1 0-.1.1-.1.8-.4 1.8-1.2 2-2-.9.7-1.5 1.2-2.5 1.7-.2.1-.4.3-.5.6-.1.3-.2.6-.2.9 0 .9.1 1.4.4 2.2-.2-.2-.3-.5-.4-.7-.4-1.1-.4-2.7.6-3.5-.5.2-1 .4-1.4.7l-.1.1c-.5.8-.2 2.1 0 3-.3-.5-.5-1.1-.6-1.7-.1-.5.1-1.3.2-1.8h.1c.2-.1.3-.2.5-.3h-.1c-.2-.4-3.3.7-4.4 1.9 1.5-1.8 3.3-2.5 4-2.6-3.5.2-4.5 1.8-4.5 1.8.4-.9.7-1 1.2-1.4.4-.3 1.1-.5 1.6-.6-2.4-.4-5.9.2-7.6 2.1 0 0 0 .1-.1 0v-.1c1.2-1.8 4.1-2.4 6-2.9-1.5 0-3.3.5-4.6-.6v-.1c4.2 1.5 8.7-2.6 12.8-3.5 2-.4 3.8-2.8 6.1-.8 5.8 5.1.3 8.6-1.4 13.4 0 .1 0 .1-.1.1 0 0-.2.1-.3-.3-.1.1-.2.3-.4.3-.1 0-.6.2-.7-.5 0-.1 0-.3.1-.4-.3.1-.5.5-.9.3-.3-.2-.2-.7-.1-.9.3-1.1 1.4-2.2 2.3-2.8.3-.2.5-.3.8-.4.3-.2.3-.3.4-.5z"/></svg>