<svg xmlns="http://www.w3.org/2000/svg" viewBox="-22.4 21.5 28 28"><circle cx="-8.4" cy="35.5" r="13.5"/><path d="M-17.3 28.5h.3c.3.1.6.1.9.2 1 .3 1.6.9 2.1 1.8.1.2.2.4.3.5.3-.2.6-.4.9-.5.3-.1.7-.3 1-.3.9-.1 1.9.1 2.8.3 1.1.2 2.1.6 3 1.2.3.2.3.2.6 0 .5-.4.9-.8 1.4-1.2.1-.1.2-.1.2 0l.2.2.7.7.9.9c.1.1.3.2.4.3l.1.1c0 .4-.2.7-.5 1 0 .2-.1.3-.3.4h.1c.7.2 1.3 0 1.7-.4.7-.7 1.4-1.5 2.1-2.2h.1c.2-.1.3 0 .3.1l.3 1.2V33.7c0 .1-.1.3-.1.4-.1.6-.5 1.2-.8 1.7v.1c-.4.3-.8.6-1.3.7-.4.1-.9.2-1.3.3-.5.2-.9.5-1 1.1-.1.5-.2 1-.4 1.5-.1.3-.2.6-.4.9-1.2 1.5-3.4 2.1-3.4 2-.4.1-.7.1-1.1.1-.8 0-1.7-.1-2.5-.2-.9-.1-1.8-.4-2.6-.8-.3-.1-.6-.2-.8-.4-.3-.2-.7-.3-1-.5-.6-.3-1.2-.6-1.7-1.1l-.1-.1c-.4-.3-.7-.7-1-1.1-.2-.3-.2-.4.2-.5.1-.7.4-1.4.6-2v.2c-.2.5-.2 1.1-.2 1.7 0 .1 0 .2.1.2.1.1.3.1.4.2 0-.2.1-.4.1-.6.1-.2.1-.4.2-.6v.1c0 .4.1.8.1 1.2 0 0 0 .1.1.1.9.4 1.7.9 2.6 1.3h.1c-.7-.7-1.4-1.4-1.9-2.4l-.3.9V38v-1c0-.3.1-.7.1-1v-.9c-.5.5-.9 1-1.1 1.7v-.1c.1-1 .5-1.8 1-2.6.1-.1.1-.3.1-.4h-.1c-.8.7-1.4 1.6-1.9 2.6 0-.1.1-.3.1-.4.4-1.2.8-2.3 1.7-3.2.1-.1.2-.3.3-.4.2-.2.3-.5.5-.7v-.1c-.1-1-.9-2.2-1.9-2.3-.6-.1-1.2-.1-1.7.4-.6.6-.7 1.2-.4 1.9.1.3.2.7.2 1-.9 1.4-1.5 0-1.5-.1-.1-.3.4-.8.5-1.1 0-.1.1-.2.1-.2 0-.3 0-.6.1-.9 0-.5.3-.8.6-1.1.1-.2.5-.5 1.1-.6zm-1.5 4c0-.4-.1-.5-.4-.5-.2 0-.5.3-.5.6 0 .2.2.4.5.4.2 0 .4-.2.4-.5z"/></svg>