<svg xmlns="http://www.w3.org/2000/svg" viewBox="0 0 556 536"><path d="M555.5 530.2c-.9-.7-6.8 1.1-7.9 1.3-8.2 1.3-16.6 2.1-24.9 2.8-36.9 2.9-74.2 2-111.1 0-31-1.7-61.9-5.2-92.9-6.5-30-1.2-63.4-7.8-90.2-21.7-13.2-6.8-26-15.5-38.1-24.1-6.4-4.6-12.8-9.3-19.3-13.8-2.5-1.8-4.6-3.6-7.7-3.8-4.2-.3-10 1.7-14.2 2.5-14 2.8-27.3 5.5-37 16.9-9.3 11-4.9 27.2 10.9 27.9 8.6.4 17.1-3.9 25.5-3.1 2.2.2 7.7.7 6.7 4.1-.8 2.9-7.8.3-9.9.3-8.1 0-15.4 4.2-23.6 4.1-7.4-.1-15.2-1.9-20.8-7-5.6-5-7-12.3-6.5-19.5.3-4 1.1-7.9 2.5-11.6.5-1.5 1.4-3 1.9-4.5.5-1.4.6-2.7.7-3.3.4-2 .3-5.2 3.5-6.1 2.5-.7 2.1 1.3 3.2 1 1.2-.3 3.1-2.5 3.4-3.4.2-.7-.8-1.6-.3-2.9.4-1 3.5-2.9 4.7-3.3 2-.6 1.8.3 3.6-.1 2.3-.6 4.7-2.6 6.8-3.7-1.1-1.6-4.4-.9-6-1.2-2.5-.3-2.8-1.2-4.8-2.1-4.6-1.9-8.4.9-13-.3-10.4-2.7-23.6.3-34.6 2.1-10.2 1.7-20.4 11.2-26.5 19-4.3 5.5-3.6 7.4-3.4 14.2.1 4.6-1.1 11.2-6.1 13.2-.7.3-5.7 1.2-5.1-1.3.5-2.3 1.9-.6 3.6-1.4 5.4-2.7 3-10.1 2.7-14.4-.7-10.9 11-22.2 18.8-28.3 20.4-15.8 45.3-18.2 70.2-16.8 7.5.4 15 .8 22.4 2.4 5.6 1.3 11.1 3.9 16.6 2 2.9-1.1 5.3-2.4 8.6-2.3 3 .1 4.6.8 8 .4 1.4-.2 3.8-.1 5-.6.8-.3 1.1-1.9 2.2-2.3 2.7-.9 5.6-.6 8.3-.6-4.3-5.1-11.4-9.1-16.6-13.3-6.5-5.2-12.9-9.8-20.1-13.9-14.3-8.3-28.7-14.7-44.3-20.2-7.9-2.8-15.6-4.5-24-4.7-2.2-.1-7.6-1-9.2.4-1.8 1.6-1.2 8.9-1 11 .6 5.7 2.9 14 9.9 14 5.1 0 12.6-7.7 6.5-11.9-1.7-1.1-11.9 1.9-6.9-3.3 4.2-4.3 11.6 1.3 12.7 5.7 2.8 10.3-12.3 23-21 16.8-.8-.6-1.5-2.5-3.4-2.9-.8-.1-2.3.6-2.7.4-2.1-.7-4.7-2.6-4.8-5.1-.1-2.3 2.1-2.3.4-4.7-1.5-2.2-3.2-.9-4.4-4.3-1-2.8 0-4.7.8-6.9.3-.8 1.7.1 1.9-1.8.2-1.6-.4-2.4-1.8-3-3.8-1.7-16.5 8.4-19.8 10.8-11.1 7.9-28.2 22.6-25.1 37.6 2 9.5.4 12.6-7.2 18.6-2.5 1.9-6.2 4.3-7 7.6-.9 3.9.8 3.7 2.7 1.1 4.3 4.2-9 8.2-6.2-1.9 2.1-7.4 11.3-10.9 13-18.4.8-3.5-.8-6.6-1.2-10-.5-4.4.8-8.1 2.5-12.1 1.5-3.6 3.4-6.9 5.5-10.1 2.4-3.7 6-6.7 8.3-10.2 1.3-1.9 1.2-4.1 2.8-6 .9-1 1.9-1.7 3-2.3.3-.2 1.7.6 2.1.3 2-1.6.8-2.4 1.7-4.3.5-1 2.5-3.5 3.5-4 1.6-.8 1.7.1 3.2-.2 3.8-.7 2-1.2 3.4-4.2.8-1.7 4.3-3.3 5.9-3.5 2.3-.2-.6 2.3 3.1.7 1.4-.6.7-.4 1.4-1.2.6-.6.1-2.1 1-3.2 1.4-1.5 5-.7 6.3-1.9 2.1-2 .7-6.4 3.5-8.5.5-.4 2.1.4 2.3.1 1.3-1.3 1.2-2 1.5-3.7.1-.3-1.2-1.1-1.1-1.4.2-1.6.9-2.7 1.6-4 1.7-2.8 3.8-5.6 6.5-7.2 1-.6 2 .6 3.5-1.2.8-1 .2-1.8.6-2.8 1.2-2.9 2.4-4.7 5.3-6.5.7-.4 2.4-1.5 3.4-1.6 1.8-.2 2.7 1.4 4.2 1.3 2.5-.2 4.3-2.4 5.9-3.9 2.7-2.5 5.1-4.3 9.2-3.8 1.8.2 4 2.2 5.5 2 2.6-.4 1.3-2 3.1-3.2 2.3-1.5 6.2-1.2 8.6-.3 2.7.9 3.5 3.7 6.1 3.6 2.7-.1 4.4-3.1 7.9-2.6 2.1.3 3.7 1.2 5.3 2.6.5.5.2 1.7.8 2.2 3.9 3.4 4.9 0 8.2-.7 2.2-.5 7 1.3 8.4 2.9 1.6 1.9 1.2 4 2.9 5.8 5.1 5.3 12.1 2.3 17.6 6.6 4.5 3.5 2.5 10.5 9.6 11.1 1.1.1 1.7-.8 3.2-.6 1.5.2 4 2.4 5.1 3.5 2.7 2.4 2.5 4.4 3.8 7.3.9 2.1 4.7 5.6 7 5.7.7 0 2.1-1.2 3.2-1.1 1.6.1 3.8 2.1 4.9 3.1 2.2 2 3.4 4.2 4.2 6.7.5 1.6-.4 1.9.8 3.7.5.8 3.5 3.3 4.6 3.5.8.2 2.3-1.5 3.9-1.3.9.1 2.7 1.4 3.3 1.7 2.2 1.4 4.6 3.3 5.4 5.9.1.2-.7 2.7-.5 3.2.7 1.5 2.3 3 3.7 4 1 .7 3.5 3.4 3.6.7.1-1.9-4-5.5-5.3-7.1-2.4-3-4.5-6-6.6-9.3-5-7.6-9.8-15.3-14.3-23.1-8.7-15.1-13.5-32.3-18-49-8.6-31.9-8.5-65.7-22.6-96-.7-1.5-1.3-3-2.1-4.4-1.6-2.8-2.1-3.7-5-3.9-3.9-.3-8.9 1.7-12.7 2.4-9.3 1.7-18.4 2.2-27.2-1.8-6.1-2.7-13.5-9.2-13.5-16.4 0-7.5 8.4-14.1 15-16 18.4-5.3 34.3 9.2 44.2 22.5 4.5 6.1 14.2 3.4 20.1 8.5 3.6 3.2 1.6 3.5-2 2.3-3.8-1.3-8.2-2.9-12.2-2.4 1.6 2.7 3.1 5.4 4.7 8.2.4.7.8 1.3 1.2 2 .4 2.2 1.3 2.6 2.7 1.3 1.5 1 1.9.8 2.8 2.7 1 2-.3 2.9-.2 4.1-1 .4-.9 1.1.1 1.9.2 1.5 1 2 2.4 1.6 1 1.2 2.2 1.9 2.4 3.8.3 2.4-1.5 3.3.1 5.5.9-.4 1.7-.3 2.4.3.7.8 1.2 1.8 1.4 2.9 1 3.4-1.5 4-.2 7.3.8 2.2 2.4 2 3.7 3.8 1.3 1.9.7 3.2.7 5.2.1 1.9-.4 2.9.9 5.1 1.1 1.8 1.8 2.4 2.2 4.5 1 5.2 2.2 9.8 4.1 14.8 7.8 21.3 16.6 42 29.4 60.9 5.7 8.4 11.8 16.6 18.2 24.4 3.6 4.4 6.9 9 11.3 12.7 2.9 2.5 8.6 8.9 12.2 9.4-13.1-23.2-21.4-47.5-22.8-74.3-.2-3.1-.3-6.3-.4-9.4-.1-1.8-.1-3.6-.2-5.4.7-1.9.2-3.1-1.5-3.5-.9-2.5-1.9-4.7-1.6-7.5.3-3.1 1.7-3.2 2.9-5.1 1.3-.1 1.7-1 1.1-2.7 1-1.7.7-2.7-1-2.7-1.1-2.3-2-2.2-2.1-5.5-.2-4.2.5-11.4 6-8.2.5-2 2.5-6.5 1.9-8.5-.5-1.7-2.6-1.7-3.5-3.6-1.5-3.1.6-9 2.8-11.3 2.6-2.8 8.3-1.5 7.7-6.9-.5-3.9-3.5-4.2-2.7-8.9.4-1.9 1.3-5.5 3-6.7 1.2-.8 2.4-.4 2.9-.6 2-1 5.2-5.4 3.9-9-1.4-3.6-3.2-2.5-1.3-8 .8-2.2 5.1-11.6 7.8-5.8.7-1.5 1.7-3.4 1.9-5.1.1-.3.2-.7.3-1 1.1-1.4.9-2.3-.6-2.6-.6-2.5-1-3.2-.1-6.5 1-3.4 2.1-5.2 3.7-7.7.5-.9 1.5-1 2-2.1 1.6-3.1-.2-3.2-1-5.6-.8-2.7-.9-5.5-.1-8.4.3-1.1.8-3 1.5-4 .4-.5 2.5-2 2.6-2.3 1.1-2.9-1-2.6-2.4-4.5-1.4-2-1.5-7.4 0-9.4.6-.8 1.5-1.1 2-1.7h1.4c0-.7.1-1.4.1-2.1 1.6-4.4-1-4.4-2-7.4-.9-2.7-.3-6.6.3-9.2.5-2 1.9-3.5.5-5.7-.6-1-2.2-.8-2.6-1.5-1.1-1.8-2.2-4.2-2.4-6.4-.3-3.6 2.2-3.5-1.4-5.1-2.3-1-5-.3-5.8-3.7-.6-2.5 1.7-4.6-1.2-6.5-1.9-1.2-4.7-.1-7-.7-1.9-.5-3.7-1.5-5.2-2.7-.8-.6-.6-2.2-1.6-2.8-3.3-1.9-4 .4-6.9 1-.9.2-4.1-.1-4.7-.3-1.2-.5-1.7-2-2.6-2.4-4.2-1.6-12.9 2-16.8 3.7-7 3.1-14.2 7.8-19.7 13.1-5 4.9-9.6 11.1-12.7 17.4-3.7 7.4 2.8 12.9 3.6 20.6.6 6.2-.8 13.9-7 16.7-8.5 3.8-11.1-4.9-11.6-11.6-.5-7.8 5.1-17.1 1.3-23.7-4.3-7.6-8.3-15.4-8-24.4.1-2.8.3-9.8 2.9-11.2 4.3-2.4 2 3.6 1.9 5.9-.4 8.9 3.4 17.2 9 23.9 7.9-12.3 13.6-23.4 25.9-32.1 12.1-8.5 28.3-13.7 43.1-11.6 13.9 2.1 29.2 9 38.7 19.6 4.5 5 8.5 10.4 11.2 16.5 1.7 3.8 3.3 7.6 4.4 11.6.2.9.2 2.5.8 3.3.8 1.1 2.5-1 3.9 1.6.8-1.9 3.1-5.1 2.6-7.2-.7-.5-1.5-1-2.3-1.5-.3-1.2-.3-2.4.1-3.6.6-3.6 3.4-10.8 7.7-7.5 1.1-1.4 2-3.8 2.3-5.5.7-3.9-.4-1.4-1.5-3.8-1.4-3-.9-11.1 2.6-13 2.2-1.2 3.3 1.1 4.3-2.1 1.3-4.3-1.4-.9-1.8-4.1-.3-2.4.4-5.3 1.4-7.5 1.4-2.8 3.5-3.1 4-6.1.5-3-1-2.9-1.4-5.6-.3-1.6.7-3.3 1.2-4.8.7-2.1.5 1.1 1.1-3 .2-1.2-.2-3.3-.3-4.4-.4-3.8-.9-7.6-2.1-11.3-4.1-12.8-13.5-18.1-26.4-13.5-10.9 3.9-21.9 11.3-27.8 21.5-2 3.4-6.3 12.2-1.2 14.9 4.6 2.4 12-3.5 14.9-6.5 1.9-2 8.4-10.6 3.1-12-1.7-.4-3.5 1.1-4.7 2.1-1.2 1-3.9 6-4.9 6.2-5.2 1-.1-7.2 1.1-8.6 2.8-3.2 8.7-6.9 13.1-5.2 11.4 4.5-.5 22.7-6.2 27.2-8.4 6.6-25.3 10-28.1-3.9-2.3-11.5 7.7-23.4 14.6-31.4 8.1-9.5 17.9-16.1 30-19.4 10.6-2.9 22.2 4.8 28.6 13 7.9 10.2 10.7 22.3 10.8 35 .1 27.9-7.5 55.1-16.3 81.3-4.8 14.3-10.3 28.3-16.6 42.1-3.2 7-6.6 14-9.9 21-3.2 6.8-4.6 13-6 20.3-3.1 15.5-7.3 30.8-10.5 46.3-1.6 8-3.1 16-3.5 24.1-.1 2.2-.6 21.7 1.5 21.9.6-2.8 2.1-6.6 2-9.5 1.2-1.7.9-2.7-.8-2.9-.6-.4-.9-.9-.7-1.7-.2-2.2.4-6.6 2-8.3 1.5-1.6 2.4-1.2 3.4-2.6.4-1.1.7-2.3 1.1-3.4 1.2-1.8.9-2.7-1-2.8-1-2.4-1.9-2-1.1-5.4.9-3.8 4.1-10.9 7.9-6.7.7-1.7 2.5-4 2.7-5.8.2-1.6.2-1.3 0-2.3 0-.2-1.4-.5-1.5-.9-.9-3.3 1.9-8.2 4.4-10.1 3.3-2.6 4.3 1.3 6.1-1.8 2-3.3-3-4.5.1-8.6 1.1-1.4 2.9-2.9 4.5-3.8 2-1.3 3.3-.6 4.9-1.2 4-1.3 1.1-5.3 3.1-8.7 1.2-2.1 6.3-6.6 8.8-7 2.6-.4 5.5 2.4 7.4-1.2.7-1.3-.2-3 .3-4.4.7-1.8 2.4-2.9 3.9-3.9 1.3-.9 3.8-2.8 5.4-2.9 1.9 0 2.3 1.7 3.8 1.9 1.3.1 5.2-1.6 5.8-2.9.7-1.4-.4-2.4.7-4.1 1.2-1.8 7.9-4.3 10-4 2.6.3 2.9 3.5 5.6 2.1 2.4-1.2.4-3.4 3.5-5.3 2.6-1.6 7.7-2.5 10.2-.6 1.1.8.4 1.9 1.6 2.6.9.5 4.4.1 5.3-.5.3-.2.2-2.2 1.4-3 1.6-1 5.8-.4 7.4-.3 5.7.5 2.9 4.7 7.1 5.6 3.8.9 1.3-1.1 3-2.6 1.9-1.7 4.2-1 6.4-.2 4.3 1.5 9.9 3.7 6.2 8.3.7.3 3.2 1.7 4 1.5 1.8-.4-.2-1.1 1.5-1.8 2.3-.9 3-.9 5.8.6 2.7 1.4 3.8 2.9 4.9 5.2.8 1.6-1.4.2-.2 2.4.5.9 5.9 5.5 6.8 5.7 1.5.3 1.5-1.9 3.9-.7.9.4 3.2 3 3.4 4 .1.7-.8 2.7-.8 2.6 1.4 5.5 7.3 11.2 9.1 17.7 7.6 27.6-20.2 66.5-49.8 46.7-11.7-7.8-8.4-24.6 3.7-30.2.5-.2 10.4-2.8 9 .7-.3.9-5.4.9-6.4 1.4-5.9 2.7-9.5 10.3-7.7 16.6 3.9 14.5 25.1 11.9 33.3 3.4 10.3-10.7 10.1-27.6 2.7-39.8-16.4-27-58.7-25.7-83.6-12.1-26.2 14.3-43.7 41.6-49.2 70.7-5.9 31.6-1.3 65.4 22.4 88.8 19.4 19.2 97.7 58.8 193.2 12.5-.1 45.7-.6 91.4-.6 137.1-.7-.5 0-74.9 0 0zm-307.9-90.7c.7-1.8-13.8-13.8-15.8-15.7-6.9-6.7-13.8-13.5-20.7-20.2-12.2-11.9-24.3-24.9-38.5-34.5-13.1-8.8-26.9-18.6-42.9-21-15.8-2.4-32.1.7-42.8 13.4-3.2 3.7-6.1 9.8 1.2 6 .6-.3.7-1.7 1.6-2.2 1.3-.7 4.7-.4 6-.1 1.1.2 2.1 0 3.2.5 1.3.6.4 2 2.5 2.3 1.4.2 3.8-1.6 5.4-1.9 3.1-.5 6.4.3 9 1.8 2.6 1.5 4 3.9 7.6 3.8 1.1 0 2.3-1.5 4.3-1.4 2 .2 4.6.9 6.1 2.2 1.5 1.2 1.2 2.5 3.3 3.3 2.5.9 4.6-.4 7.4.7 3.6 1.3 3.6 2.3 5.4 4.5.3.4-.4.9.2 1.5 1.7 1.7 3.5.6 5.5.9 3 .5 7.3 2.9 9.3 5.2 1.4 1.6.1 3.2 3 4.5 3.1 1.5 5-.2 8.5 1.5 3.1 1.5 5.6 3.7 6.8 6.8-.2.4-.5.9-.7 1.3.7 1.2 1.6 2.2 2.7 3.1 2.3 1.5 1.5.9 3.5 1.1 1.8.2 2.8-.5 4.8.2 1.7.6 4.3 2.5 5 4.2 1.4 3 .6 6.4 4.8 8.3 2.9 1.3 5.2-.3 8.5 1.5 1.4.7 3.2 2 3.9 3.5.5 1.1-.1 2.5.4 3.4 1.7 3.4 6.6 4.7 9.8 4.7 3.6-.1 7.4-1 10.3 2.9 0 0 2.1 3.9 1 3 1.7 1.1 8.3.7 10.4.9 0-.1-3.4-.4 0 0zm42.3 61.6c4.8.8 9.6 1.6 14.4 2.1-.2-1.4.2-2.6 1.5-3.2-17.4-8.5-35.1-15.9-51.9-25.6-3.8-2.2-7.6-5-11.7-6.8-4.3-1.9-9.6-2.3-14.3-3.1-9.5-1.5-19.5-2.4-29.2-2.4-.7 2.4 11.1 5.2 12.9 6.5 1.9 1.4 2.9 3.3 4.6 4.8 2.4 2.2 6 3.7 8.9 5.2 1.3-4.5 9.2-.3 10.9 2.1 1.8 2.5.3 2.6 2.9 4.7 2.3 1.9 6.1 3 8.7 4.3-.8-5 11.6.9 13.1 2.1.7.7.8 1.5.5 2.4 1.6.4 3.2.9 4.9 1.3 3.2.9 6.4 1.7 9.6 2.6-.3-4.9 13.8-2.2 14.2 3 4.9.8 0-.6 0 0zM177.2 203.7c-6.1-6.8-11.8-12.8-20.5-16.3-6.8-2.8-18.8-2.6-22.7 5-9.4 18.2 36.2 12.9 43.2 11.3-2.1-2.4-.7.1 0 0zm32.8-62c1.5-2.2 1.6-7.2.4-9.7-.8 3.1-1.2 6.2-.4 9.7z" fill="#0b4a61"/></svg>