<svg xmlns="http://www.w3.org/2000/svg" viewBox="0 0 198 93"><style>.st0{fill:#436c6f;}</style><path class="st0" d="M11.3 85c-1.8 1.6-3.6 2.3-6.4 2.3H.1l4-18.6h4c2.7 0 4 .3 5.4 1.4 1.2 1.1 1.8 2.9 1.8 5.4 0 3.2-1.9 7.6-4 9.5zm.8-12.9c-.9-1.4-2-1.7-4-1.7H5.9l-3.2 15h2c2.5 0 4.3-.6 5.4-1.9 1.8-2.3 2.8-5.6 2.8-7.7-.1-1.8-.3-2.9-.8-3.7zm13.7 7.5c-1.1 1.1-2.9 1.5-5.8 1.5-.5 0-1.1 0-1.7-.1-.1.6-.2 1.2-.2 1.7 0 1.9 1.2 2.9 2.7 2.9 1.7 0 2.7-.4 4-1.5l.9 1.3c-1.4 1.4-2.8 2-5.5 2-2.5 0-4.4-1.8-4.4-4.9 0-2.6 1-5.6 3-7.4 1.4-1.3 2.8-1.9 4.5-1.9 2.6 0 3.9 1.4 3.9 3.5-.1 1.3-.6 2.2-1.4 2.9zM22.9 75c-1.7 0-3.5 1.7-4.2 4.5h1.4c2.4 0 3.5-.4 4.2-1 .4-.4.7-1 .7-1.7-.1-1-.6-1.8-2.1-1.8zm9.3 12.3h-2.1l-2-13.5 2.1-.5 1.2 9.3c.1.9.2 1.7.2 2.3h.1c.3-.8.6-1.3 1.1-2.3l5-9h2.4l-8 13.7zm16.7-7.7c-1.1 1.1-2.9 1.5-5.8 1.5-.5 0-1.1 0-1.7-.1-.1.6-.2 1.2-.2 1.7 0 1.9 1.2 2.9 2.7 2.9 1.7 0 2.7-.4 4-1.5l.9 1.3c-1.4 1.4-2.8 2-5.5 2-2.5 0-4.4-1.8-4.4-4.9 0-2.6 1-5.6 3-7.4 1.4-1.3 2.8-1.9 4.5-1.9 2.6 0 3.9 1.4 3.9 3.5-.1 1.3-.6 2.2-1.4 2.9zM46 75c-1.7 0-3.5 1.7-4.2 4.5h1.4c2.4 0 3.5-.4 4.2-1 .4-.4.7-1 .7-1.7-.1-1-.7-1.8-2.1-1.8zm9.9-2.9l-2.6 12.1c-.1.4-.1.7-.1 1 0 .4.2.7.6.7.2 0 .4 0 .5-.1l.1 1.4c-.6.2-1.1.3-1.7.3-1.1 0-1.8-.5-1.8-1.6 0-.4.1-.7.1-1.2l2.7-12.6c.4-1.8.4-3.2.1-4.1l2.3-.9c.3 1.2.1 3.4-.2 5zm4.9 15.5c-2.9 0-4.6-1.8-4.6-4.9 0-5.4 3.2-9.4 7.5-9.4 3.2 0 4.6 2 4.6 4.9 0 5.2-3.1 9.4-7.5 9.4zM63.4 75c-3 0-4.8 3.4-4.8 7.8 0 2.1 1 3 2.7 3 3.1 0 4.8-3.7 4.8-7.8-.1-2.2-1.3-3-2.7-3zM79 85.1c-1.3 1.6-3.2 2.4-5 2.4-1.4 0-2.3-.2-3.2-.7l-1.2 5.6-2.2.4 3.3-15.3c.4-1.8.4-2.4.1-3.3l2-.9c.3.8.5 1.5.2 2.9 1.4-1.9 3.4-2.7 4.9-2.7 2.3 0 3.5 1.7 3.5 4.3 0 2.4-.9 5.6-2.4 7.3zm-1.9-9.8c-1.4 0-3 1.1-4.5 3L71.2 85c.7.6 1.7.8 2.8.8 1.2 0 2.7-.8 3.3-1.8 1-1.5 1.7-4.1 1.7-6.1.1-1.9-.6-2.6-1.9-2.6zm15.5 4.3c-1.1 1.1-2.9 1.5-5.8 1.5-.5 0-1.1 0-1.7-.1-.1.6-.2 1.2-.2 1.7 0 1.9 1.2 2.9 2.7 2.9 1.7 0 2.7-.4 4-1.5l.9 1.3c-1.4 1.4-2.8 2-5.5 2-2.5 0-4.4-1.8-4.4-4.9 0-2.6 1-5.6 3-7.4 1.4-1.3 2.8-1.9 4.5-1.9 2.6 0 3.9 1.4 3.9 3.5-.1 1.3-.6 2.2-1.4 2.9zM89.7 75c-1.7 0-3.5 1.7-4.2 4.5h1.4c2.4 0 3.5-.4 4.2-1 .4-.4.7-1 .7-1.7-.1-1-.6-1.8-2.1-1.8zm13.3.8c-.2-.1-.4-.1-.8-.1-1.3 0-2.7 1.1-4 3.1l-1.8 8.5h-2.1l2-9.2c.4-2 .5-2.9.2-3.8l2-.9c.4 1 .4 1.6.1 3.2 1.3-2 3.1-3.2 4.4-3.2.5 0 .7.1 1 .1l-1 2.3zm7.6-7.2h10.2l-.7 1.8h-7.6l-1.3 6.1h6.4l-.4 1.9h-6.4l-1.4 6.8h8.2l-.4 1.9h-10.5l3.9-18.5zm18.9 14.2c-.5 2.2-.2 2.7.4 3.6l-1.8 1.4c-.7-.7-1.1-1.4-1-2.9-1.3 1.7-2.8 2.5-4.8 2.5-2.6 0-3.8-1.6-3.8-4.5 0-2.7 1.1-5.5 3-7.5 1.3-1.3 3.2-2 4.7-2s2.3.2 3 .5l1.4-6.5 2.1.4-3.2 15zm-3.2-7.6c-1.1 0-2.4.6-3.3 1.5-1.2 1.3-2.1 4.3-2.1 6.3 0 1.7.7 2.6 2 2.6 1.6 0 3.3-.9 4.6-3.2l1.4-6.6c-.8-.5-1.3-.6-2.6-.6zm7.8 12h-2.3l2.9-13.5 2.3-.4-2.9 13.9zm2.7-16c-.9 0-1.7-.7-1.7-1.6 0-.9.7-1.7 1.7-1.7.9 0 1.7.7 1.7 1.7-.1.8-.8 1.6-1.7 1.6zm8.6 4.1h-2.9l-1.7 7.9c-.1.6-.2 1.1-.2 1.5 0 1 .4 1.3 1.4 1.3.6 0 1-.1 1.4-.3v1.4c-.8.4-1.5.5-2.5.5-1.6 0-2.4-.8-2.4-2.2 0-.5.1-1.3.2-2l1.7-8.2h-1.8l.3-1.6h1.8c.3-1.1.6-2.4.9-3.4l2.3-.5c-.4 1-.9 2.7-1.1 3.9h3.4l-.8 1.7zm1.6 11.9h-2.3l2.9-13.5 2.3-.4-2.9 13.9zm2.7-16c-.9 0-1.7-.7-1.7-1.6 0-.9.7-1.7 1.7-1.7.9 0 1.7.7 1.7 1.7-.1.8-.8 1.6-1.7 1.6zm5.4 16.4c-2.9 0-4.6-1.8-4.6-4.9 0-5.4 3.2-9.4 7.5-9.4 3.2 0 4.6 2 4.6 4.9 0 5.2-3.1 9.4-7.5 9.4zm2.5-12.6c-3 0-4.8 3.4-4.8 7.8 0 2.1 1 3 2.7 3 3.1 0 4.8-3.7 4.8-7.8-.1-2.2-1.3-3-2.7-3zm17.4 1.9l-2.2 10.3h-2.1l2-9.1c.2-.7.2-1.1.2-1.5 0-.9-.5-1.4-1.3-1.4-1.1 0-2.9.9-4.7 3.1l-1.9 8.8h-2.1l2.1-9.7c.4-1.7.4-2.3.1-3.3l2-.9c.3.9.5 1.6.1 3 1.5-2 3.5-2.9 5.2-2.9 1.7 0 2.7 1 2.7 2.7 0 .4 0 .6-.1.9zm22.6-55.7c-1.5 3.2-6.4 1.1-5-2.2 1.4-3.2 6.4-1.1 5 2.2-.2.3.1-.3 0 0zm-.5-2c-1.2-2.7-5.1-.9-4 1.8 1.1 2.8 5.1.9 4-1.8-.1-.3.1.3 0 0zm-1.7 2c-.1-.2-.4-.9-.7-.9 0 .3.1.8 0 1.1 0 .1-.2.6-.5.2-.2-.2 0-1.8 0-2.1 0-.9-.2-1 .8-1 .4 0 .8 0 1 .4.3.5 0 1.3-.6 1.3.4.2.7 1 .9 1.4-.6 0-.6.1-.9-.4zm.1-2.1c-.6-.5-1.1.1-.8.7.3.5 1.3-.2.8-.7zM26.7 10.4h-18v14.3h14.7v7.1H8.7v24.1H0V3.3h27.8l-1.1 7.1zm4.6-4.3C31.3 3 33.7.5 36.8.5c3 0 5.5 2.4 5.5 5.6 0 3-2.5 5.5-5.6 5.5-3.1.1-5.4-2.4-5.4-5.5zm1.2 49.7V18l8.4-1.5v39.3zm34.4-31.1c-.8-.3-1.4-.5-2.3-.5-3.5 0-6.5 2.6-7.2 5.7v26H49V28.7c0-4.9-.5-8-1.4-10.3l7.7-2c.9 1.7 1.4 4 1.4 6.1 3-4.2 6.1-6.2 9.8-6.2 1.2 0 2 .1 3 .6l-2.6 7.8zm10.6 14.2v.6c0 5.3 2 10.9 9.5 10.9 3.6 0 6.7-1.3 9.6-3.8l3.3 5.1c-4 3.4-8.7 5.1-13.8 5.1-10.9 0-17.7-7.8-17.7-20.1 0-6.8 1.4-11.2 4.8-15 3.1-3.6 6.9-5.2 11.8-5.2 3.8 0 7.3 1 10.6 4s5 7.7 5 16.7v1.7H77.5zm7.3-16.1c-4.7 0-7.3 3.7-7.3 9.9h14.2c.1-6.2-2.7-9.9-6.9-9.9zm39.4-15.3c-1.9-.9-3-1.4-4.6-1.4-2.9 0-4.7 2-4.7 5.4v5.8h10l-2.1 5.8H115v32.7h-8.3V23.2h-3.6v-5.8h3.7s-.2-2.1-.2-5.7c0-8 4.9-11.7 11.7-11.7 3.3 0 6 .7 8.7 2.2l-2.8 5.3zm33.4 29.3c0 12.4-6.6 20-17 20s-16.9-7.8-16.9-20.1 6.6-20.2 16.8-20.2c10.9 0 17.1 8.1 17.1 20.3zm-24.6-.7c0 11.2 2.8 14.4 7.8 14.4 4.9 0 7.7-4 7.7-13.7 0-10.9-3-14.1-7.9-14.1-5.4.1-7.6 4.1-7.6 13.4z"/><path class="st0" d="M182.7 55.8c-1.4-2.2-7.6-13-8.4-14.4-1.4 2.9-6.9 12.2-8.4 14.4h-10.6L169.7 35l-11.1-16.5 9-1.8c1.8 2.9 5.2 8.9 7 12.5 1.1-2.5 4.9-10.2 6.1-11.8h9.7l-11.3 17.5 14.1 21h-10.5z"/></svg>