<svg id="Layer_1" xmlns="http://www.w3.org/2000/svg" viewBox="233 -76.4 536 203"><style>.st0{fill:#002351;}</style><path class="st0" d="M260.3 8.3h-24.2v-81.5h24.2c22.7 0 40.6 17.9 40.6 40.7 0 11.3-4.3 21.8-12 29.4-7.5 7.3-17.8 11.4-28.6 11.4zm-20-4.3h20C270 4 279.2.4 286-6.2c6.9-6.8 10.7-16.1 10.7-26.3 0-10.1-3.8-19.4-10.7-26.2-6.8-6.7-16-10.3-25.7-10.3h-20V4zm18-11.6h-4.4v-49.7h4.4c13.7 0 23.7 10.5 23.7 24.9 0 14.3-10 24.8-23.7 24.8zm-.3-4.3h.2c11.4 0 19.5-8.5 19.6-20.6 0-12.2-8.1-20.7-19.6-20.7h-.2v41.3zm71.7 21.5c-15.5 0-28.1-12.4-28.1-27.6s12.6-27.7 28.1-27.7c7.9 0 14.6 2.5 19.5 7.3 5.2 5.1 7.9 12.3 7.9 20.9 0 2.6-.1 3.3-.1 3.7l-.3 1.7h-34.4c.6.8 1.6 1.6 3 2.1 5.5 2.3 13.9 1.2 15.7-.7l.9-1 15.5 5.8-1.3 2.2c-5.2 9.1-13.6 13.3-26.4 13.3zm0-50.9c-13.2 0-23.9 10.4-23.9 23.4 0 12.9 10.7 23.3 23.9 23.3 10 0 16.8-2.8 21.3-8.8l-8.2-3c-4.1 2.7-13.3 3.2-19.2.7-4.1-1.7-6.2-4.7-6.1-8.3l.1-2h35.5v-1.2c0-7.5-2.3-13.6-6.6-17.8-4.2-4.1-10-6.3-16.8-6.3zm11.9 19.4h-23.7l.1-2.2c.4-5.7 5.3-9.7 11.6-9.7 5.9 0 10.7 4 11.5 9.5l.5 2.4zm-18.8-4.3h13.4c-1.3-2.2-3.7-3.5-6.6-3.5-3.1 0-5.7 1.4-6.8 3.5zm69.8 34.5H379l-27.6-52.4h24.2L385.8-21 396-44.1h24.2L392.6 8.3zM381.5 4h8.6l23.1-43.9h-14.5l-12.9 29.2-12.9-29.2h-14.5L381.5 4z"/><path class="st0" d="M453.7 8.3h-21.9v-61.9h-17.7v-19.7h57.4v19.6h-17.7v62zM436 4h13.5v-61.9h17.8V-69h-49.1v11.1H436V4z"/><path class="st0" d="M490.5 9.6c-18 0-30.6-11.3-30.6-27.6 0-15.7 13.1-27.6 30.6-27.6 17.3 0 30.3 11.9 30.3 27.6 0 16.1-12.8 27.6-30.3 27.6zm0-50.9c-15.3 0-26.4 9.8-26.4 23.4 0 6.7 2.5 12.5 7.2 16.6 4.8 4.4 11.5 6.6 19.3 6.6 15.1 0 26.1-9.8 26.1-23.3-.1-13.2-11.3-23.3-26.2-23.3zm-.1 36.7c-7.7 0-13.2-5.5-13.2-13.4 0-7.7 5.7-13.5 13.2-13.5 7.4 0 13.1 5.8 13.1 13.5-.1 7.8-5.6 13.4-13.1 13.4zm0-22.6c-5.2 0-9 3.8-9 9.2 0 5.5 3.6 9.1 9 9.1 5.2 0 8.9-3.7 8.9-9.1 0-5.2-3.8-9.2-8.9-9.2zm64.5 36.8c-18 0-30.6-11.3-30.6-27.6 0-15.7 13.1-27.6 30.6-27.6 17.3 0 30.3 11.9 30.3 27.6 0 16.1-12.7 27.6-30.3 27.6zm0-50.9c-15.3 0-26.4 9.8-26.4 23.4 0 6.7 2.5 12.5 7.2 16.6 4.8 4.4 11.5 6.6 19.3 6.6 15.1 0 26.1-9.8 26.1-23.3-.1-13.2-11.3-23.3-26.2-23.3zm-.1 36.7c-7.7 0-13.2-5.5-13.2-13.4 0-7.7 5.7-13.5 13.2-13.5 7.4 0 13.1 5.8 13.1 13.5 0 7.8-5.5 13.4-13.1 13.4zm0-22.6c-5.2 0-9 3.8-9 9.2 0 5.5 3.6 9.1 9 9.1 5.2 0 8.9-3.7 8.9-9.1 0-5.2-3.8-9.2-8.9-9.2zm56.5 35.5h-20.8v-84.7h20.8V8.3zM594.7 4h12.5v-76.2h-12.5V4zm40.7 5.6c-12.1 0-19.4-6.8-19.7-7l-1.2-1.1 8.8-15 1.9 1.6c1.6 1.4 6.7 5.1 10.4 5.1 3 0 3-.6 3-1.3 0-.8-1.6-1.4-4.2-2.4-1.6-.6-3.4-1.2-5.2-2.2-5.3-2.8-10.7-6.8-10.7-15 0-10.8 8.7-17.6 22.7-17.6 9.6 0 16.6 3.8 16.9 4.1l1.8 1-7.2 14.6-1.9-1s-5.1-2.7-9.5-2.7c-2.4 0-2.9.3-3 .4v.4c0 .7 2.7 1.5 4.7 2.1.4.1.8.3 1.3.4 4.3 1.3 15.8 5 15.8 17.4-.2 15-13.6 18.2-24.7 18.2zM619.7.5c2.4 1.7 7.9 4.9 15.5 4.9 20.3 0 20.3-10.7 20.3-14.3 0-8.2-6.5-11.3-12.9-13.4-.4-.1-.8-.3-1.2-.4-3.7-1.2-7.6-2.4-7.6-6.2 0-5.1 5-5.1 7.2-5.1 3.6 0 7.4 1.3 9.6 2.3l3.5-7.1c-2.5-1-7.3-2.6-13-2.6-11.6 0-18.6 5-18.6 13.4 0 5.6 3.4 8.5 8.5 11.2 1.6.8 3.3 1.5 4.7 2 3.4 1.3 6.9 2.6 6.9 6.4 0 3.7-2.4 5.6-7.2 5.6-4.1 0-8.6-2.7-11.1-4.6L619.7.5zM276.3 102.6c-10.9 0-21.9-4.4-30.1-12.1-8.5-8-13.2-18.4-13.2-29.4 0-11.1 4.7-21.6 13.2-29.6 8.2-7.7 19.2-12.2 30.1-12.2 17.1 0 26 7.2 26.3 7.5l1.3 1.1-9.3 18.6-2-1.6c-.1 0-5.7-4.3-13.7-4.3-7.3 0-13.4 2.3-17.6 6.7-3.5 3.6-5.4 8.6-5.4 13.6s2 10 5.4 13.6c4.2 4.4 10.2 6.7 17.6 6.7 8 0 13.6-4.2 13.7-4.3l2-1.5 1.1 2.3 8.1 16.3-1.3 1.1c-.2.3-9.1 7.5-26.2 7.5zm0-79.1c-9.9 0-19.8 4-27.3 11.1-7.7 7.2-11.9 16.6-11.9 26.5 0 9.8 4.2 19.2 11.9 26.4 7.4 7 17.4 11 27.3 11 11.9 0 19.4-3.8 22.3-5.6l-5.5-11.1c-2.7 1.5-7.7 3.8-14.1 3.8-17.8 0-27.2-12.4-27.2-24.6 0-12.2 9.3-24.5 27.2-24.5 6.4 0 11.4 2.3 14.1 3.8l5.5-11.1c-2.9-1.9-10.4-5.7-22.3-5.7zm85.3 77.8h-20.3v-29c0-3.5-2.3-7.2-6.4-7.2-3.8 0-7.6 3.6-7.6 7.2v29h-21V17.7H327v34.5c3.4-2.5 7.4-3.9 11.6-3.9 5.4 0 10.8 1.5 14.8 4.1 5.3 3.5 8.1 8.8 8.1 15.4v33.5h.1zm-16.2-4.2h12V67.8c0-12.1-11.8-15.4-18.8-15.4-4.5 0-8.8 2.1-12.1 5.8l-3.6 4.1V21.8h-12.4V97H323V72.2c0-5.8 5.7-11.3 11.8-11.3 6.6 0 10.6 5.8 10.6 11.3v24.9zm45.9 5.6c-14.6 0-25.6-11.7-25.6-27.2 0-15.6 11-27.3 25.6-27.3 5.1 0 9.8 1.3 13.5 3.6v-2.3h20.3v51.7h-20.5v-2.8c-3.9 2.8-8.5 4.3-13.3 4.3zm0-50.4c-12.2 0-21.5 9.9-21.5 23.1 0 13.1 9.2 23 21.4 23 5.2 0 10.4-2.2 14-6l3.6-3.8V97H421V53.6h-12v7.6l-3.6-3.7c-3.3-3.3-8.3-5.2-14.1-5.2zm4.9 36.3c-7.7 0-13.2-5.4-13.2-13.2 0-7.6 5.7-13.3 13.2-13.3 7.4 0 13.1 5.7 13.1 13.3-.1 7.6-5.6 13.2-13.1 13.2zm0-22.3c-5.2 0-9 3.8-9 9.1 0 5.4 3.6 9 9 9 5.2 0 8.9-3.7 8.9-9s-3.8-9.1-8.9-9.1zm56.1 35H432V17.7h20.3v83.6zm-16.2-4.2h12V21.8h-12v75.3zm42.2 4.2h-20.8V17.7h20.8v83.6zm-16.7-4.2h12.5V21.8h-12.5v75.3zm135.5 4.2h-20.3v-29c0-3.5-2.3-7.2-6.4-7.2-3.8 0-7.6 3.6-7.6 7.2v29H542V49.6h20.8v3c2.8-2 7-4.2 11.5-4.2 5.4 0 10.8 1.5 14.8 4.1 5.3 3.5 8.1 8.8 8.1 15.4l-.1 33.4zM581 97.1h12V67.8c0-5.2-2.1-9.2-6.2-11.9-3.3-2.2-7.9-3.4-12.5-3.4-5 0-10.4 4.3-12.1 5.9l-3.5 3.5v-8.1h-12.5v43.4h12.5V72.4c0-5.8 5.7-11.3 11.8-11.3 6.6 0 10.6 5.8 10.6 11.3l-.1 24.7zm48.6 29.5c-14.6 0-23.8-4.9-28.2-15l-.8-1.8 16.8-8.3 1 1.6c.7 1.2 3.7 5.1 11.2 5.1.4 0 9.1-.1 9.6-8.3-4.2 2.3-9.3 2.7-13.6 2.7-14.6 0-25.7-11.7-25.7-27.2 0-15.6 11-27.3 25.6-27.3 5.3 0 9.9 1.3 13.7 3.9v-2.4h20.3v50.8c.2 16.1-11.3 26.2-29.9 26.2zm-23.4-14.9c4 7.3 11.5 10.7 23.5 10.7 16.2 0 25.9-8.2 25.9-22V53.7h-12v4.2H640l-.6-.6c-3.5-3.3-8.2-5-13.7-5-12.2 0-21.4 9.9-21.4 23.1 0 13.1 9.3 23 21.5 23 7.2 0 11.4-1.2 14.1-4.2l3.6-3.8v8.8c0 5.6-2.7 8.7-5 10.4-3.5 2.5-7.3 2.8-8.8 2.8-5.7 0-10.7-2-13.6-5.5l-9.9 4.8zm24.3-23.1c-7.7 0-13.2-5.4-13.2-13.2 0-7.6 5.7-13.3 13.2-13.3 7.4 0 13.1 5.7 13.1 13.3-.1 7.6-5.6 13.2-13.1 13.2zm0-22.3c-5.2 0-9 3.8-9 9.1 0 5.4 3.6 9 9 9 5.2 0 8.9-3.7 8.9-9s-3.8-9.1-8.9-9.1zm113.1 35h-20.3V49.6h20.3v3.5c2.7-2.4 6.9-4.9 12.4-4.9 6.7 0 11.3 3.2 11.5 3.4l1.5 1-8.8 17.9-2-1.8c-.1-.1-2.5-2.1-7.1-2.1-7.2 0-7.5 7.5-7.5 7.5v27.2zm-16.2-4.2h12v-23c0-2.5 2-11.7 11.7-11.7 3.3 0 5.9.9 7.6 1.7l4.9-10c-1.6-.8-4.3-1.7-7.6-1.7-8 0-12.7 7.2-12.7 7.2l-.6 1h-3.3v-6.8h-12v43.3zm-217.1 6c-15.5 0-28.1-12.2-28.1-27.2s12.6-27.3 28.1-27.3c7.9 0 14.6 2.5 19.5 7.2 5.2 5 7.9 12.1 7.9 20.6 0 2.6-.1 3.3-.1 3.7l-.3 1.7h-34.4c.6.8 1.6 1.6 3 2.1 5.5 2.3 13.9 1.2 15.7-.7l.9-1 15.5 5.7-1.3 2.2c-5.4 8.9-13.7 13-26.4 13zm0-50.2c-13.2 0-23.9 10.3-23.9 23.1 0 12.7 10.7 23 23.9 23 10 0 16.8-2.8 21.3-8.7l-8.2-3c-4.1 2.7-13.3 3.2-19.2.7-4.1-1.7-6.2-4.6-6.1-8.2l.1-2h35.4v-1.2c0-7.4-2.3-13.4-6.6-17.6-4.2-4.1-10-6.1-16.7-6.1zM522.1 72h-23.7l.1-2.2c.4-5.6 5.3-9.6 11.6-9.6 5.9 0 10.7 3.9 11.5 9.4l.5 2.4zm-18.8-4.2h13.4c-1.3-2.2-3.7-3.5-6.6-3.5-3.1 0-5.6 1.4-6.8 3.5zM691 103.3c-15.5 0-28.1-12.2-28.1-27.1 0-15 12.6-27.2 28.1-27.2 16.7 0 27.5 10.9 27.5 27.7 0 2.5-.1 3.2-.1 3.6l-.3 1.7h-34.6c.5.8 1.4 1.7 3.2 2.4 5.4 2.2 13.8 1.1 15.6-.8l.9-1 15.5 5.7-1.3 2.2c-5.2 8.6-13.8 12.8-26.4 12.8zm0-50.2c-13.2 0-23.9 10.3-23.9 23.1 0 12.7 10.7 23 23.9 23 10 0 16.8-2.8 21.3-8.8l-8.2-3c-4.2 2.8-13.2 3.3-19.1.9-4.1-1.7-6.3-4.7-6.2-8.5l.1-2h35.4v-1.1c0-14.6-8.9-23.6-23.3-23.6zm11.8 19.4h-23.7l.1-2.2c.4-5.6 5.3-9.6 11.6-9.6s10.7 3.6 11.5 9.5l.5 2.3zm-18.7-4.2h13.5c-1.5-3-4.7-3.5-6.7-3.5-3.1 0-5.6 1.4-6.8 3.5z"/></svg>