<?xml version="1.0" encoding="utf-8"?>
<!-- Generator: Adobe Illustrator 19.1.0, SVG Export Plug-In . SVG Version: 6.00 Build 0)  -->
<!DOCTYPE svg PUBLIC "-//W3C//DTD SVG 1.1//EN" "http://www.w3.org/Graphics/SVG/1.1/DTD/svg11.dtd">
<svg version="1.1" id="Layer_1" xmlns="http://www.w3.org/2000/svg" xmlns:xlink="http://www.w3.org/1999/xlink" x="0px" y="0px"
	 viewBox="233 -76.4 536 203" style="enable-background:new 233 -76.4 536 203;" xml:space="preserve">
<style type="text/css">
	.st0{fill:#000C1C;}
</style>
<path class="st0" d="M260.3,8.3h-24.2v-81.5h24.2c22.7,0,40.6,17.9,40.6,40.7c0,11.3-4.3,21.8-12,29.4
	C281.4,4.2,271.1,8.3,260.3,8.3z M240.3,4h20C270,4,279.2,0.4,286-6.2c6.9-6.8,10.7-16.1,10.7-26.3c0-10.1-3.8-19.4-10.7-26.2
	C279.2-65.4,270-69,260.3-69h-20V4z M258.3-7.6h-4.4v-49.7h4.4c13.7,0,23.7,10.5,23.7,24.9C282-18.1,272-7.6,258.3-7.6z M258-11.9
	h0.2c11.4,0,19.5-8.5,19.6-20.6c0-12.2-8.1-20.7-19.6-20.7H258C258-53.1,258-11.9,258-11.9z M329.7,9.6c-15.5,0-28.1-12.4-28.1-27.6
	s12.6-27.7,28.1-27.7c7.9,0,14.6,2.5,19.5,7.3c5.2,5.1,7.9,12.3,7.9,20.9c0,2.6-0.1,3.3-0.1,3.7l-0.3,1.7h-34.4
	c0.6,0.8,1.6,1.6,3,2.1c5.5,2.3,13.9,1.2,15.7-0.7l0.9-1l15.5,5.8l-1.3,2.2C350.9,5.4,342.5,9.6,329.7,9.6L329.7,9.6z M329.7-41.3
	c-13.2,0-23.9,10.4-23.9,23.4c0,12.9,10.7,23.3,23.9,23.3c10,0,16.8-2.8,21.3-8.8l-8.2-3c-4.1,2.7-13.3,3.2-19.2,0.7
	c-4.1-1.7-6.2-4.7-6.1-8.3l0.1-2h35.5v-1.2c0-7.5-2.3-13.6-6.6-17.8C342.3-39.1,336.5-41.3,329.7-41.3L329.7-41.3z M341.6-21.9
	h-23.7l0.1-2.2c0.4-5.7,5.3-9.7,11.6-9.7c5.9,0,10.7,4,11.5,9.5L341.6-21.9L341.6-21.9z M322.8-26.2h13.4c-1.3-2.2-3.7-3.5-6.6-3.5
	C326.5-29.7,323.9-28.3,322.8-26.2L322.8-26.2z M392.6,8.3H379l-27.6-52.4h24.2L385.8-21L396-44.1h24.2L392.6,8.3z M381.5,4h8.6
	l23.1-43.9h-14.5l-12.9,29.2l-12.9-29.2h-14.5L381.5,4L381.5,4z"/>
<path class="st0" d="M453.7,8.3h-21.9v-61.9h-17.7v-19.7h57.4v19.6h-17.7V8.3z M436,4h13.5v-61.9h17.8V-69h-49.1v11.1H436
	C436-57.9,436,4,436,4z"/>
<path class="st0" d="M490.5,9.6c-18,0-30.6-11.3-30.6-27.6c0-15.7,13.1-27.6,30.6-27.6c17.3,0,30.3,11.9,30.3,27.6
	C520.8-1.9,508,9.6,490.5,9.6z M490.5-41.3c-15.3,0-26.4,9.8-26.4,23.4c0,6.7,2.5,12.5,7.2,16.6c4.8,4.4,11.5,6.6,19.3,6.6
	c15.1,0,26.1-9.8,26.1-23.3C516.6-31.2,505.4-41.3,490.5-41.3z M490.4-4.6c-7.7,0-13.2-5.5-13.2-13.4c0-7.7,5.7-13.5,13.2-13.5
	c7.4,0,13.1,5.8,13.1,13.5C503.4-10.2,497.9-4.6,490.4-4.6z M490.4-27.2c-5.2,0-9,3.8-9,9.2c0,5.5,3.6,9.1,9,9.1
	c5.2,0,8.9-3.7,8.9-9.1C499.3-23.2,495.5-27.2,490.4-27.2z M554.9,9.6c-18,0-30.6-11.3-30.6-27.6c0-15.7,13.1-27.6,30.6-27.6
	c17.3,0,30.3,11.9,30.3,27.6C585.2-1.9,572.5,9.6,554.9,9.6z M554.9-41.3c-15.3,0-26.4,9.8-26.4,23.4c0,6.7,2.5,12.5,7.2,16.6
	c4.8,4.4,11.5,6.6,19.3,6.6c15.1,0,26.1-9.8,26.1-23.3C581-31.2,569.8-41.3,554.9-41.3z M554.8-4.6c-7.7,0-13.2-5.5-13.2-13.4
	c0-7.7,5.7-13.5,13.2-13.5c7.4,0,13.1,5.8,13.1,13.5C567.9-10.2,562.4-4.6,554.8-4.6z M554.8-27.2c-5.2,0-9,3.8-9,9.2
	c0,5.5,3.6,9.1,9,9.1c5.2,0,8.9-3.7,8.9-9.1C563.7-23.2,559.9-27.2,554.8-27.2z M611.3,8.3h-20.8v-84.7h20.8
	C611.3-76.4,611.3,8.3,611.3,8.3z M594.7,4h12.5v-76.2h-12.5V4L594.7,4z M635.4,9.6c-12.1,0-19.4-6.8-19.7-7l-1.2-1.1l8.8-15
	l1.9,1.6c1.6,1.4,6.7,5.1,10.4,5.1c3,0,3-0.6,3-1.3c0-0.8-1.6-1.4-4.2-2.4c-1.6-0.6-3.4-1.2-5.2-2.2c-5.3-2.8-10.7-6.8-10.7-15
	c0-10.8,8.7-17.6,22.7-17.6c9.6,0,16.6,3.8,16.9,4.1l1.8,1l-7.2,14.6l-1.9-1c0,0-5.1-2.7-9.5-2.7c-2.4,0-2.9,0.3-3,0.4v0.4
	c0,0.7,2.7,1.5,4.7,2.1c0.4,0.1,0.8,0.3,1.3,0.4c4.3,1.3,15.8,5,15.8,17.4C659.9,6.4,646.5,9.6,635.4,9.6L635.4,9.6z M619.7,0.5
	c2.4,1.7,7.9,4.9,15.5,4.9c20.3,0,20.3-10.7,20.3-14.3c0-8.2-6.5-11.3-12.9-13.4c-0.4-0.1-0.8-0.3-1.2-0.4c-3.7-1.2-7.6-2.4-7.6-6.2
	c0-5.1,5-5.1,7.2-5.1c3.6,0,7.4,1.3,9.6,2.3l3.5-7.1c-2.5-1-7.3-2.6-13-2.6c-11.6,0-18.6,5-18.6,13.4c0,5.6,3.4,8.5,8.5,11.2
	c1.6,0.8,3.3,1.5,4.7,2c3.4,1.3,6.9,2.6,6.9,6.4c0,3.7-2.4,5.6-7.2,5.6c-4.1,0-8.6-2.7-11.1-4.6L619.7,0.5L619.7,0.5z M276.3,102.6
	c-10.9,0-21.9-4.4-30.1-12.1c-8.5-8-13.2-18.4-13.2-29.4c0-11.1,4.7-21.6,13.2-29.6c8.2-7.7,19.2-12.2,30.1-12.2
	c17.1,0,26,7.2,26.3,7.5l1.3,1.1l-9.3,18.6l-2-1.6c-0.1,0-5.7-4.3-13.7-4.3c-7.3,0-13.4,2.3-17.6,6.7c-3.5,3.6-5.4,8.6-5.4,13.6
	s2,10,5.4,13.6c4.2,4.4,10.2,6.7,17.6,6.7c8,0,13.6-4.2,13.7-4.3l2-1.5l1.1,2.3l8.1,16.3l-1.3,1.1
	C302.3,95.4,293.4,102.6,276.3,102.6L276.3,102.6z M276.3,23.5c-9.9,0-19.8,4-27.3,11.1c-7.7,7.2-11.9,16.6-11.9,26.5
	c0,9.8,4.2,19.2,11.9,26.4c7.4,7,17.4,11,27.3,11c11.9,0,19.4-3.8,22.3-5.6l-5.5-11.1c-2.7,1.5-7.7,3.8-14.1,3.8
	c-17.8,0-27.2-12.4-27.2-24.6c0-12.2,9.3-24.5,27.2-24.5c6.4,0,11.4,2.3,14.1,3.8l5.5-11.1C295.7,27.3,288.2,23.5,276.3,23.5
	L276.3,23.5z M361.6,101.3h-20.3v-29c0-3.5-2.3-7.2-6.4-7.2c-3.8,0-7.6,3.6-7.6,7.2v29h-21V17.7H327v34.5c3.4-2.5,7.4-3.9,11.6-3.9
	c5.4,0,10.8,1.5,14.8,4.1c5.3,3.5,8.1,8.8,8.1,15.4v33.5L361.6,101.3z M345.4,97.1h12V67.8c0-12.1-11.8-15.4-18.8-15.4
	c-4.5,0-8.8,2.1-12.1,5.8l-3.6,4.1V21.8h-12.4V97H323V72.2c0-5.8,5.7-11.3,11.8-11.3c6.6,0,10.6,5.8,10.6,11.3L345.4,97.1
	L345.4,97.1z M391.3,102.7c-14.6,0-25.6-11.7-25.6-27.2c0-15.6,11-27.3,25.6-27.3c5.1,0,9.8,1.3,13.5,3.6v-2.3h20.3v51.7h-20.5v-2.8
	C400.7,101.2,396.1,102.7,391.3,102.7z M391.3,52.3c-12.2,0-21.5,9.9-21.5,23.1c0,13.1,9.2,23,21.4,23c5.2,0,10.4-2.2,14-6l3.6-3.8
	V97H421V53.6h-12v7.6l-3.6-3.7C402.1,54.2,397.1,52.3,391.3,52.3L391.3,52.3z M396.2,88.6c-7.7,0-13.2-5.4-13.2-13.2
	c0-7.6,5.7-13.3,13.2-13.3c7.4,0,13.1,5.7,13.1,13.3C409.2,83,403.7,88.6,396.2,88.6z M396.2,66.3c-5.2,0-9,3.8-9,9.1
	c0,5.4,3.6,9,9,9c5.2,0,8.9-3.7,8.9-9S401.3,66.3,396.2,66.3z M452.3,101.3H432V17.7h20.3L452.3,101.3L452.3,101.3z M436.1,97.1h12
	V21.8h-12V97.1L436.1,97.1z M478.3,101.3h-20.8V17.7h20.8V101.3L478.3,101.3z M461.6,97.1h12.5V21.8h-12.5V97.1L461.6,97.1z
	 M597.1,101.3h-20.3v-29c0-3.5-2.3-7.2-6.4-7.2c-3.8,0-7.6,3.6-7.6,7.2v29H542V49.6h20.8v3c2.8-2,7-4.2,11.5-4.2
	c5.4,0,10.8,1.5,14.8,4.1c5.3,3.5,8.1,8.8,8.1,15.4L597.1,101.3L597.1,101.3z M581,97.1h12V67.8c0-5.2-2.1-9.2-6.2-11.9
	c-3.3-2.2-7.9-3.4-12.5-3.4c-5,0-10.4,4.3-12.1,5.9l-3.5,3.5v-8.1h-12.5v43.4h12.5V72.4c0-5.8,5.7-11.3,11.8-11.3
	c6.6,0,10.6,5.8,10.6,11.3L581,97.1L581,97.1z M629.6,126.6c-14.6,0-23.8-4.9-28.2-15l-0.8-1.8l16.8-8.3l1,1.6
	c0.7,1.2,3.7,5.1,11.2,5.1c0.4,0,9.1-0.1,9.6-8.3c-4.2,2.3-9.3,2.7-13.6,2.7c-14.6,0-25.7-11.7-25.7-27.2c0-15.6,11-27.3,25.6-27.3
	c5.3,0,9.9,1.3,13.7,3.9v-2.4h20.3v50.8C659.7,116.5,648.2,126.6,629.6,126.6L629.6,126.6z M606.2,111.7c4,7.3,11.5,10.7,23.5,10.7
	c16.2,0,25.9-8.2,25.9-22V53.7h-12v4.2H640l-0.6-0.6c-3.5-3.3-8.2-5-13.7-5c-12.2,0-21.4,9.9-21.4,23.1c0,13.1,9.3,23,21.5,23
	c7.2,0,11.4-1.2,14.1-4.2l3.6-3.8v8.8c0,5.6-2.7,8.7-5,10.4c-3.5,2.5-7.3,2.8-8.8,2.8c-5.7,0-10.7-2-13.6-5.5L606.2,111.7
	L606.2,111.7z M630.5,88.6c-7.7,0-13.2-5.4-13.2-13.2c0-7.6,5.7-13.3,13.2-13.3c7.4,0,13.1,5.7,13.1,13.3
	C643.5,83,638,88.6,630.5,88.6z M630.5,66.3c-5.2,0-9,3.8-9,9.1c0,5.4,3.6,9,9,9c5.2,0,8.9-3.7,8.9-9S635.6,66.3,630.5,66.3z
	 M743.6,101.3h-20.3V49.6h20.3v3.5c2.7-2.4,6.9-4.9,12.4-4.9c6.7,0,11.3,3.2,11.5,3.4l1.5,1l-8.8,17.9l-2-1.8
	c-0.1-0.1-2.5-2.1-7.1-2.1c-7.2,0-7.5,7.5-7.5,7.5L743.6,101.3L743.6,101.3z M727.4,97.1h12v-23c0-2.5,2-11.7,11.7-11.7
	c3.3,0,5.9,0.9,7.6,1.7l4.9-10c-1.6-0.8-4.3-1.7-7.6-1.7c-8,0-12.7,7.2-12.7,7.2l-0.6,1h-3.3v-6.8h-12V97.1L727.4,97.1z
	 M510.3,103.1c-15.5,0-28.1-12.2-28.1-27.2s12.6-27.3,28.1-27.3c7.9,0,14.6,2.5,19.5,7.2c5.2,5,7.9,12.1,7.9,20.6
	c0,2.6-0.1,3.3-0.1,3.7l-0.3,1.7h-34.4c0.6,0.8,1.6,1.6,3,2.1c5.5,2.3,13.9,1.2,15.7-0.7l0.9-1l15.5,5.7l-1.3,2.2
	C531.3,99,523,103.1,510.3,103.1L510.3,103.1z M510.3,52.9c-13.2,0-23.9,10.3-23.9,23.1c0,12.7,10.7,23,23.9,23
	c10,0,16.8-2.8,21.3-8.7l-8.2-3c-4.1,2.7-13.3,3.2-19.2,0.7c-4.1-1.7-6.2-4.6-6.1-8.2l0.1-2h35.4v-1.2c0-7.4-2.3-13.4-6.6-17.6
	C522.8,54.9,517,52.9,510.3,52.9L510.3,52.9z M522.1,72h-23.7l0.1-2.2c0.4-5.6,5.3-9.6,11.6-9.6c5.9,0,10.7,3.9,11.5,9.4L522.1,72
	L522.1,72z M503.3,67.8h13.4c-1.3-2.2-3.7-3.5-6.6-3.5C507,64.3,504.5,65.7,503.3,67.8z M691,103.3c-15.5,0-28.1-12.2-28.1-27.1
	c0-15,12.6-27.2,28.1-27.2c16.7,0,27.5,10.9,27.5,27.7c0,2.5-0.1,3.2-0.1,3.6l-0.3,1.7h-34.6c0.5,0.8,1.4,1.7,3.2,2.4
	c5.4,2.2,13.8,1.1,15.6-0.8l0.9-1l15.5,5.7l-1.3,2.2C712.2,99.1,703.6,103.3,691,103.3L691,103.3z M691,53.1
	c-13.2,0-23.9,10.3-23.9,23.1c0,12.7,10.7,23,23.9,23c10,0,16.8-2.8,21.3-8.8l-8.2-3c-4.2,2.8-13.2,3.3-19.1,0.9
	c-4.1-1.7-6.3-4.7-6.2-8.5l0.1-2h35.4v-1.1C714.3,62.1,705.4,53.1,691,53.1L691,53.1z M702.8,72.5h-23.7l0.1-2.2
	c0.4-5.6,5.3-9.6,11.6-9.6s10.7,3.6,11.5,9.5L702.8,72.5z M684.1,68.3h13.5c-1.5-3-4.7-3.5-6.7-3.5
	C687.8,64.8,685.3,66.2,684.1,68.3z"/>
</svg>
