<svg id="Layer_1" xmlns="http://www.w3.org/2000/svg" viewBox="112 -121.5 298.7 293.5"><style>.st0{fill:#C0DCFF;} .st1{fill:#000B19;} .st2{fill:none;stroke:#000B19;stroke-width:8;stroke-linecap:round;stroke-linejoin:round;stroke-miterlimit:10;} .st3{opacity:0.2;fill:#000B19;enable-background:new ;} .st4{fill:#C0DCFF;stroke:#000B19;stroke-width:8;stroke-linecap:round;stroke-linejoin:round;stroke-miterlimit:10;}</style><path class="st0" d="M259.7 168C181 168 117 103.9 117 25.2s64-142.7 142.7-142.7 142.7 64 142.7 142.7c.1 78.7-64 142.8-142.7 142.8zm-1-227c-46.4 0-84.2 37.8-84.2 84.2s37.8 84.2 84.2 84.2 84.2-37.8 84.2-84.2S305.2-59 258.7-59z"/><path class="st1" d="M259.7-113.5c76.6 0 138.7 62.1 138.7 138.7s-62.1 138.7-138.7 138.7S121 101.9 121 25.2c0-76.6 62.1-138.7 138.7-138.7m-1 226.9c48.7 0 88.2-39.5 88.2-88.2S307.4-63 258.7-63s-88.2 39.5-88.2 88.2 39.5 88.2 88.2 88.2m1-234.9c-39.2 0-76 15.3-103.7 43S113-14 113 25.2s15.3 76 43 103.8c27.7 27.7 64.6 43 103.8 43s76-15.3 103.8-43c27.7-27.7 43-64.6 43-103.8s-15.3-76-43-103.8c-27.8-27.6-64.7-42.9-103.9-42.9zm-1 226.9c-44.2 0-80.2-36-80.2-80.2s36-80.2 80.2-80.2 80.2 36 80.2 80.2c0 44.3-35.9 80.2-80.2 80.2z"/><circle class="st2" cx="259" cy="25.2" r="110.1"/><path class="st3" d="M259.7-113.5C183.1-113.5 121-51.4 121 25.2s62.1 138.7 138.7 138.7 138.7-62.1 138.7-138.7-62-138.7-138.7-138.7zm-1.1 249.2c-61 0-110.5-49.5-110.5-110.5S197.6-85.2 258.6-85.2 369.1-35.7 369.1 25.3s-49.5 110.4-110.5 110.4z"/><path class="st4" d="M148 111l28-22 19.5 19-24.5 29m198.5-26l-28-22-19.5 19 24.5 29m-69.9-252.8l-3.9 37.9h-27.2l-3.3-34.8"/><path class="st1" d="M258.7-113.5c76.6 0 138.7 62.1 138.7 138.7s-62.1 138.7-138.7 138.7S120 101.8 120 25.2s62.1-138.7 138.7-138.7m0-8c-39.2 0-76 15.3-103.7 43S112-14 112 25.2s15.3 76 43 103.8c27.7 27.7 64.6 43 103.8 43s76-15.3 103.8-43c27.7-27.7 43-64.6 43-103.8s-15.3-76-43-103.8c-27.8-27.6-64.7-42.9-103.9-42.9z"/><path class="st1" d="M306.1-86.8c-3 0-5.5-2.5-5.5-5.5s2.5-5.5 5.5-5.5 5.5 2.5 5.5 5.5-2.5 5.5-5.5 5.5zm-52.2 238.5c0-5 6.6-7.5 9.8-3.5 3.1 3.9-.4 9.8-5.3 8.9-2.6-.5-4.5-2.8-4.5-5.4 0-3 0 3 0 0zm-45.2-4.7c-2.7-1.1-4-4.2-3-7 1-2.7 4-4.2 6.8-3.4 2.8.9 4.4 3.8 3.7 6.6-.8 3.3-4.4 5.1-7.5 3.8zm93.8-3.2c-1.9-4.5 2.7-9.1 7.2-7.2 4.6 1.9 4.3 8.7-.4 10.3-2.7.8-5.7-.6-6.8-3.1-1.3-2.8.8 2 0 0zM137.1 75.7c-1.1-2.7 0-5.8 2.6-7.1 2.6-1.3 5.8-.3 7.2 2.3 1.4 2.5.6 5.8-1.9 7.3-2.7 1.7-6.5.5-7.9-2.5zm236.4 1.9c-4.5-1.9-4.4-8.5.2-10.2 4.4-1.7 8.9 2.9 7 7.3-1.1 2.8-4.4 4.1-7.2 2.9-2.8-1.1.7.3 0 0zM126.4 25.3c0-4.9 6.1-7.4 9.4-3.9 3.3 3.4.8 9.3-3.9 9.3-2.9 0-5.4-2.4-5.5-5.4 0-3.1.1 3 0 0zm259.1 4.4c-5.1 0-7.4-6.7-3.4-9.8s9.9.6 8.8 5.5c-.6 2.5-2.8 4.3-5.4 4.3zM139.4-18.1c-2.7-1.1-4-4.2-3-6.9s4-4.2 6.8-3.4c2.8.9 4.4 3.8 3.7 6.6-.9 3.2-4.5 5-7.5 3.7-2.8-1.2.7.3 0 0zm231-3.7c-1.2-2.7.1-6 2.8-7.2 2.7-1.2 6 .1 7.2 2.8 1.1 2.6 0 5.7-2.5 7.1-2.7 1.4-6.2.1-7.5-2.7-1.2-2.8.9 2 0 0zM165.2-60.3c-2.1-2.1-2.3-5.9 0-7.9 2.1-1.8 3.8-1.3 5.6-.8 1.1.3 3.5 2.3 3.7 4.4.6 5-5.7 7.8-9.3 4.3-2.1-2.2 1.1 1 0 0zm178 0c-2.1-2-2.3-5.4-.4-7.6 1.9-2.2 5.2-2.6 7.5-.8 2.3 1.7 2.8 5.1 1.2 7.5-1.9 2.7-5.9 3.2-8.3.9zM205.1-89.4c-1.1-2.7.1-5.8 2.7-7.1 2.7-1.3 5.9-.2 7.3 2.5 1.3 2.5.4 5.7-2.1 7.2-2.9 1.7-6.7.5-7.9-2.6-1.2-2.8.8 2.1 0 0z"/><path class="st4" d="M382-13h21v78h-21zM398.7-36.7h-14c-4.4 0-8-3.6-8-8v-5.6c0-4.4 3.6-8 8-8h14c4.4 0 8 3.6 8 8v5.6c0 4.4-3.6 8-8 8zM398.7 106.7h-14c-4.4 0-8-3.6-8-8v-4.4c0-4.4 3.6-8 8-8h14c4.4 0 8 3.6 8 8v4.4c0 4.4-3.6 8-8 8zM398.7-14.7h-24c-4.4 0-8-3.6-8-8v-5.6c0-4.4 3.6-8 8-8h24c4.4 0 8 3.6 8 8v5.6c0 4.4-3.6 8-8 8zM398.7 85.7h-24c-4.4 0-8-3.6-8-8v-4.4c0-4.4 3.6-8 8-8h24c4.4 0 8 3.6 8 8v4.4c0 4.4-3.6 8-8 8z"/></svg>