<svg id="Layer_1" xmlns="http://www.w3.org/2000/svg" viewBox="0 0 293.5 293.5"><style>.st0{fill:#C0DCFF;} .st1{fill:#000B19;} .st2{fill:none;stroke:#000B19;stroke-width:8;stroke-linecap:round;stroke-linejoin:round;stroke-miterlimit:10;} .st3{opacity:0.2;fill:#000B19;} .st4{fill:#C0DCFF;stroke:#000B19;stroke-width:8;stroke-linecap:round;stroke-linejoin:round;stroke-miterlimit:10;}</style><path class="st0" d="M147.7 289.5C69 289.5 5 225.4 5 146.7 5 68 69 4 147.7 4c78.7 0 142.7 64 142.7 142.7.1 78.7-64 142.8-142.7 142.8zm-1-227c-46.4 0-84.2 37.8-84.2 84.2s37.8 84.2 84.2 84.2 84.2-37.8 84.2-84.2-37.7-84.2-84.2-84.2z"/><path class="st1" d="M147.7 8c76.6 0 138.7 62.1 138.7 138.7s-62.1 138.7-138.7 138.7S9 223.4 9 146.7C9 70.1 71.1 8 147.7 8m-1 226.9c48.7 0 88.2-39.5 88.2-88.2s-39.5-88.2-88.2-88.2S58.5 98 58.5 146.7s39.5 88.2 88.2 88.2m1-234.9C108.5 0 71.7 15.3 44 43 16.3 70.7 1 107.5 1 146.7s15.3 76 43 103.8c27.7 27.7 64.6 43 103.8 43s76-15.3 103.8-43c27.7-27.7 43-64.6 43-103.8s-15.3-76-43-103.8C223.8 15.3 186.9 0 147.7 0zm-1 226.9c-44.2 0-80.2-36-80.2-80.2s36-80.2 80.2-80.2 80.2 36 80.2 80.2c0 44.3-35.9 80.2-80.2 80.2z"/><circle class="st2" cx="147" cy="146.7" r="110.1"/><path class="st3" d="M147.7 8C71.1 8 9 70.1 9 146.7s62.1 138.7 138.7 138.7 138.7-62.1 138.7-138.7S224.4 8 147.7 8zm-1.1 249.2c-61 0-110.5-49.5-110.5-110.5S85.6 36.3 146.6 36.3s110.5 49.5 110.5 110.5-49.5 110.4-110.5 110.4z"/><path class="st4" d="M36 232.5l28-22 19.5 19-24.5 29M257.5 232.5l-28-22-19.5 19 24.5 29M164.6 5.7l-3.9 37.9h-27.2l-3.3-34.8"/><path class="st1" d="M146.7 8c76.6 0 138.7 62.1 138.7 138.7s-62.1 138.7-138.7 138.7S8 223.3 8 146.7 70.1 8 146.7 8m0-8C107.5 0 70.7 15.3 43 43 15.3 70.7 0 107.5 0 146.7s15.3 76 43 103.8c27.7 27.7 64.6 43 103.8 43s76-15.3 103.8-43c27.7-27.7 43-64.6 43-103.8s-15.3-76-43-103.8C222.8 15.3 185.9 0 146.7 0z"/><g><path class="st1" d="M194.1 34.7c-3 0-5.5-2.5-5.5-5.5s2.5-5.5 5.5-5.5 5.5 2.5 5.5 5.5-2.5 5.5-5.5 5.5zM141.9 273.2c0-5 6.6-7.5 9.8-3.5 3.1 3.9-.4 9.8-5.3 8.9-2.6-.5-4.5-2.8-4.5-5.4 0-3 0 3 0 0zm-45.2-4.7c-2.7-1.1-4-4.2-3-7 1-2.7 4-4.2 6.8-3.4 2.8.9 4.4 3.8 3.7 6.6-.8 3.3-4.4 5.1-7.5 3.8zm93.8-3.2c-1.9-4.5 2.7-9.1 7.2-7.2 4.6 1.9 4.3 8.7-.4 10.3-2.7.8-5.7-.6-6.8-3.1-1.3-2.8.8 2 0 0zM25.1 197.2c-1.1-2.7 0-5.8 2.6-7.1 2.6-1.3 5.8-.3 7.2 2.3 1.4 2.5.6 5.8-1.9 7.3-2.7 1.7-6.5.5-7.9-2.5zm236.4 1.9c-4.5-1.9-4.4-8.5.2-10.2 4.4-1.7 8.9 2.9 7 7.3-1.1 2.8-4.4 4.1-7.2 2.9-2.8-1.1.7.3 0 0zM14.4 146.8c0-4.9 6.1-7.4 9.4-3.9 3.3 3.4.8 9.3-3.9 9.3-2.9 0-5.4-2.4-5.5-5.4 0-3.1.1 3 0 0zm259.1 4.4c-5.1 0-7.4-6.7-3.4-9.8 4-3.1 9.9.6 8.8 5.5-.6 2.5-2.8 4.3-5.4 4.3zM27.4 103.4c-2.7-1.1-4-4.2-3-6.9s4-4.2 6.8-3.4c2.8.9 4.4 3.8 3.7 6.6-.9 3.2-4.5 5-7.5 3.7-2.8-1.2.7.3 0 0zm231-3.7c-1.2-2.7.1-6 2.8-7.2 2.7-1.2 6 .1 7.2 2.8 1.1 2.6 0 5.7-2.5 7.1-2.7 1.4-6.2.1-7.5-2.7-1.2-2.8.9 2 0 0zM53.2 61.2c-2.1-2.1-2.3-5.9 0-7.9 2.1-1.8 3.8-1.3 5.6-.8 1.1.3 3.5 2.3 3.7 4.4.6 5-5.7 7.8-9.3 4.3-2.1-2.2 1.1 1 0 0zm178 0c-2.1-2-2.3-5.4-.4-7.6 1.9-2.2 5.2-2.6 7.5-.8 2.3 1.7 2.8 5.1 1.2 7.5-1.9 2.7-5.9 3.2-8.3.9zM93.1 32.1c-1.1-2.7.1-5.8 2.7-7.1 2.7-1.3 5.9-.2 7.3 2.5 1.3 2.5.4 5.7-2.1 7.2-2.9 1.7-6.7.5-7.9-2.6-1.2-2.8.8 2.1 0 0z"/></g></svg>