<svg xmlns="http://www.w3.org/2000/svg" viewBox="0 0 175 170" class="lumi"><g><path class="st0" d="M90.1 11.1c3.2.3 3.4 6.6 6.1 8.1 5.1 2.9 5.9-2 7.8-5.6 1.9-3.5 7.1 12.6 6.7 12 4.2 5.1 7.8 3.2 12.4.2 2.4 3.7-.9 9.3 5 11.2 5.3 1.7 7-4.2 8 3.5.6 4.5-2.9 8.8 4.7 8.9 2.7 0 7.4-3.7 7 2.7-.2 2.3-5.1 3.5-4.2 6.8.9 3.1 3.2 1.9 5 3.7 5.9 5.8-.9 2.8-2.1 8.6-1.1 5.5 6.5 3.8 6 9.3-.5 5.3-9.5 4.7-7.1 10.9 1.9 5 7.3 2.4 4.1 8.1-1.2 2.1-4.2.3-5 3.6-.6 2.4 2.8 4.2 2.6 5.6-.7 3.9-5.6 4.7-7.2 8.7-.5 1.3.5 3.1-.2 5-1 2.4-2.8 4.1-4.6 5.2-1.1.6-3.4-.7-5 .2-3.2 1.8-1.5 5-3.1 6.4-1.3 1.2-6.1 3.4-8 3.2-2.6-.3-2-4-5.5-3.9-4.1.1-3.8 5.3-6.5 6.9-2.1 1.3-9.7 1.4-11.8.9-1.6-.4-1.9-3-4-2.7-2.4.4-4.7 3.7-6.5 3.6 0 0-10.2-.5-11.4-.8-4.2-1-3-2-5.7-3.8-4.3-2.8-4-1-8.5-1.2-2.1-.1-5-.5-7.2-2-5-3.5-2-1.3-3.5-6.9-1.1-4.2-2.3-6.3-6.9-6.3-5.9.1-4.5 4.2-8.5-1.4-4.2-5.8.3-3.8.7-10.2.4-7.5-4.5-4-8.5-5.3-2.4-.8-6.8-3.5-4.9-8.2 1.3-3.3 8-2.7 7.2-7.8-.7-4.4-7.6-4.5-9.1-7.5-4.8-9.6 13.9-5.9 11.5-14.7-.9-3.5-5.6-3.1-7.6-5.2-1.6-1.7-2.3-8.7-1.3-8.7 4.8-1.6 13.6 3.8 12.4-5.7-.5-4.1-9.4-9.1-.7-11 4.9-1.1 12.2 5 13-4.3.2-2.7-3.1-5.1-1.7-7.7.6-1.1 4.8-2.5 4.2-3.4 4.6 1.7 8.1 10.7 14.1 5.2 3.9-3.5-.6-6.8 1.1-10 .4-.9 6-4 7.1-3.6 3.8 1.4 3.8 8.5 9.4 8.8 8.2.3 3-9.4 10.2-9.4 2.3.2-1 0 0 0zm45.5 94.5c0 .1 3.8-9.3 4.1-11.5.6-4.1.2-8 .8-12 .8-4.6-.1-4.9-.8-8.7-.4-2.1-.8-2.5-1-4.6-.2-2.4.9-4.6.5-7.1-.7-4.6-2.7-4.6-4.9-7.7-1.2-1.7-.2-2.6-2-5.1-1.5-2.1-5-4.2-6.8-6-1.9-1.9-2.5-4.2-3.6-5.7-.9-1.2-3.6 1.2-4.9.4-.7-.4-1.5-1.8-2.1-2.4-.4-.4-.5-3.2-1.1-3.7-1.3-.9-3.6-.6-5.2-1.1-6.8-2.1-13.7-4.7-22.1-4.5-3.9.1-4.8 1.2-8.5 1.9-4.3.8-7.3-.6-11.5.6-8 2.4-12.7 6.5-19.4 11.7-4.3 3.4-7.9 7.1-10.6 12.1-3.8 7.2-2.3 10.2-2.4 17.8-.1 4.6-2.5 9.4-2.4 13.4.1 2.1 1.4 4.3 1.8 6.4.5 2.7-.1 5.4.4 8.1.7 4.1 5.6 7.5 8.4 11.2 2.1 2.8.9 3.6 4 5.8 1.5 1 3.8.7 5 1.8 1.9 1.7 2.3 4.7 4 6.1-.9-.8 4.2 1.4 4 1.4 2.6 1.2 4.4 3.6 7 4.5 3.7 1.4 7.9 1 11.8 1.8 8.3 1.6 17.4 1.7 24.9-.6 2.9-.9 6.4-.9 9.3-2 .4-.2 3.1-.2 3.4-.4 2.1-1.4 1-3 2.6-4.5 2.2-2 11.1-1.5 9.2-4.6 2.3-.7 3-2.5 4.3-4 1-1.3 2.6-2.6 3.2-4.3.7-1.2-1.2-3.7.6-4.5 0 .1-.2.1 0 0z"/><path class="st0" d="M18.1 88.1c.6-1.6 4.9-4.7 5.5-1.7-1.3.2-2.4.7-3.5 1.4 1.2 2 4.3 1.1 4.6 2.5-2 .7-6.6 1.5-6.6-2.2.9-2.4 0 .2 0 0zm37-69.2c2.4-3 6.7-1.5 6.2 2.6-1.7-.9-2-2.5-3.6-3.3-.7 1.7.4 3.5 1.1 5.1-2.3-.2-3.2-2.2-3.7-4.4.4-.5.4 2 0 0zM40.6 129.7c-4.4 0-.8-7.5 2.8-6.2-.9 1.7-3.1 2.3-3 4.4 0 .6 4.3-1.6 5-1.6-.1 2.1-3.1 3.3-4.8 3.4-1.6 0 1.9-.1 0 0zm-11.3-22.3c-.3.2-3.7 2.5-2.5 3.5 2 1.6 4.1-2.2 5.3-2.9 1.7 3.1-4.2 5.5-6.4 3.9-3-2.1 1.1-5.6 3.6-4.5-.6.5-.6-.2 0 0zm-9.5-40.9c2.3-2.5 1.9-2.2 4.6-2 1.1.1-3.1 2.4-2 1.8 2.6 1.2 3.4 0 5.8.6-1.4 3.9-7 2.1-8.4-.4.7-.7.4.6 0 0zm58.8-53.6c.8 1.5 1.1 3 1.1 4.6-2.3-.2-3.9-4.9-1.6-6 1.9-.9 5.9 3.7 4.6 4.6-2 1.4-2.4-4-4.1-3.2.3 1.3.1-.1 0 0zm37 7.6c-.4 1.8-1 3.5-1.8 5.1-4.9-10.8 10.9-3.2 1.8-.1-.1-1.4 1.4-4.7 0-5-.4 1.3.2 0 0 0zm-16.9-7.2c.1 1.3 0 2.6 0 3.9-2.4-.3-2.5-4.8-.1-5.2 4.1-.7 2.4 6 1.7 5.8-2-.4.3-4.6-1.6-4.5 0 1.1.1 0 0 0zm33.7 117.3c3.8-.8 3.8 3.4.5 3.3-6.3.1-.2-5.9-.5-3.3.6-.1 0 .1 0 0zM63 138.9c-1.2 1-1.7 2.3-1.6 3.7 2-.5 2.6-2.1 4.6-2.6-4.1 10.8-9.6-2.3-3-1.1-.6.9-.6-.1 0 0zM23.6 45.8c1.8-1.3 6.1-.4 5.9-.3-1 .6-2 .7-3.1.3-1.2 0 3 3.5 3.5 3.8-3.1 1.2-4.7-1.7-6.3-3.8.7-.5.1.1 0 0zm91 94.6c.1-1 .3-1.9.5-2.8 6.1 5.1-8.9 5.2-2.4-1 .5.8 1.1 3.9 1.9 3.8.1-.5-.2.1 0 0zm27-97.3c-.4-.6-.6-1.3-.7-2 5.9-.2-2.1 10.6-3.3 2.8 1.8.2 3.3 1.5 4-.8-.2-.3-.1.4 0 0zm8.4 63.6c-.5-.1-3.7-2.5-1.5-2.9.4-.1 6.2 0 6.6.2-1.3 2.2-2.7 2.1-5.1 2.7-1.4-.2 1.3-.4 0 0zM39.7 34.3c-3.7-2-1.8-7-.3-5.3-.3-.4.2 5 .3 5.3-.6-.3-.4-1.5 0 0zm111.8 21.6c3.9.7.1 5-3.1 3.4 2-.8 3.5-1 3.1-3.4.4.1.1.8 0 0zm-4.7 63.4c-1.4 0-4.5-3.4-3.4-3.5 1.4 0 4.2 2.5 3.4 3.5-1.9 0 .1-.1 0 0zM131 30.8c-2 .2 1.9-4.5 1.4 1.1 0 .7-1.4-.6-1.4-1.1-.3 0 0 .1 0 0zM89.8 146.7c.2-2.3 1.2-3.3 3-3.1-.2 1.8-1 3.5-3 3.1.5-1 1.7.4 0 0z"/></g><g><path class="st1" d="M86.6 170.3c.6-2.2 3.2-19 2.3-19.1 2.2.4 1.3 19.1-2.3 19.1.5-1.7.1 0 0 0zm88.7-78c-3.6.3-8.9-2.7-12.6-3.1-1-.1-5.4.2-5.9-.4 0-1.8 18.5 0 18.5 3.5-.9.1 0-.1 0 0zM99.5.2c.7.8 0 10.2 0 10.2-1.2-.1-2.6-10.2 0-10.2.5.4-.2 0 0 0zM.2 90.7c1.9-.9 8.5-4.1 10.4-2.1C10.2 90.1.2 91.2.2 90.7c.1-.1 0 .1 0 0zM101 122.8c2.9-.9 7.9-4.2 12.2-3.5-3-2.9 9.1-3.3 4.6-4.7 2.8-2.4 7.3-4.6 6-9.1 3-1 .1 0 1.3.4.2-.3 2-3.5 1.3-1.1 1-.2 1.8-5.6 1.5-5.8.2-.3 1.7-.6 1.5-.3.5-1.1-.4-2.8.3-3.7.8-1 .8-2.7 2.5-2.5 3.1.4 0 7.5-.2 8.5-2 7.3-5.9 10.4-12 16.2-1.5 1.4-3.6 2.6-5.1 3.9-2.2 1.9-3.8 2.5-6 3.2-1.4.5-14.5 3.4-14.1 4.1 0-.5.3-.9.7-1.1-2.6-2-6.3 1.3-8.6 1.4-3.5.1-7.8-1.8-11.2-3-.7-.2-1.8-1.1-2.3-1.3-.7-.2-2 .1-3.5-.1-2.5-.3-3.3-.1-5.5-1.1-.9-.4-2.1-1-3-1.9-.4-.4-.3-1.1-.6-1.5-.5-.7-1.2 0-2-1 2-3.3 8-.5 10.4.8 3.5 1.9 5.2 3.1 9.6 3.4 3.4.3 6.8-.1 10-.2s7.7 1.4 11.2.4c-.6-.3-1.3-.5-2-.7.1-1.4 3.1.3 3 .3.5-.1 0 .1 0 0zm12.8-4c.6.2 1 0 1.1-.6-.5.1-1 .3-1.1.6.3 0 0 0 0 0zm-11.2 3.7c0 .1 0 .1 0 0zm17.9-77.3c-.3 3.6 4.5 2.4 4.8 3.8-.3.4-.6.6-1 .8 1 .6.7.9-.3.7.4.6 3.7 4.2 4.6 4.7-.3.5-.7.8-1.3.9 2.5.7 2.2 2.7.4 2.9-.1 0-1.9-1.6-2.2-1.8-1.7-.8-2.3-2.7-4.4-4.5-.5-.4-2.1-.3-2.7-.9-1.3-1.2-.2-1.6-1-2.6-.9-1.1-5.2-6.4-5.1-6.5.2-.3.7-.1.8 0-2.3-3.5-6.5-5.2-10.4-5.6 1.9-1-1 .3-1.6-.3.2-.3.5-.4.9-.5-1.4-.4-3.7.8-4.5.1.7-.4.6-.7-.2-.8-1.5 1.8-12.5-2.3-4.1-3.3 3.9-.5 8.7 0 12.9 1.7 3.8 1.6 6.1 4.7 9.2 7.4 2 1.7 3.1 2.4 5.2 3.8zM44.3 55.7c.8.6-2.8 6.1-3.1 6.7C39.4 67 39 68 39 72.8c0 6.5-.8 10.7 1.4 16.5.6 1.6 3.1 5.2.3 5.9-2.4.6-1.8-2.4-2.2-2.9-2.7-3.2-1.2-5.9-1.7-10-.4-3.5-1-3.5.1-7.6.5-2 1.6-7.1-.3-8.8 1.6-.5 1.9-8.1 2.8-9.4 1-1.3 7.7-4.9 4.9-.8.2.1.4-.6 0 0zm-3 37.5c-.4-.3-.4.2 0 0-.1-.1-.1.1 0 0zm44.8-59.6c0 .1-12 4.1-12.9 4.2-1.9.2-12.2 2.7-13 2.1.5-3.3 9.5-5.4 11.5-5.8 1.9-.4 12.7-.9 12.8-1.9-.7-.2-1.3-.1-1.9-.5.4-.4 5.2.6 5.8 1.6-1 1.5-3.7-.5-3.8 0l1.5.3c-.1.6-.5-.1 0 0zm-1.6 0c.1 0 .1 0 0 0zm51.1 33.9c-.6 1.8 1 5.3.2 7.3-1.7 4.2-1.2 2.2-4 .9.2-.6.6-.8 1.2-.5.6-1.4-.5-5.8-1.9-6.4.5-.6 1.1-.8 1.8-.7-3.9-5.7 1.7-4.3 1.2-2.5.8-.6 1.6-.6 2.2-.1.2 1.3-3.1.2-.7 2-.2.5-1-.7 0 0zM56 45.1c2 .9-2.9 1.9-4.2 2.4-1.5.6-2.6 3.8-5.1 1.6-.1-2.7 7.1-8.6 10.3-5.5-.8 0-1.1.5-1 1.5.3.1.1-.5 0 0zm2.8 72.1c-.4.3-.7.5-1.1.8-.9-.3-10.8-6.5-8.5-8.3 3.9-3.2 7.5 6.9 9.6 7.5-.3.7-.4-.1 0 0zm104.6 15.2c-1.5 2.2-3.8-4.4-5.2-5.9-.9-.9-8.3-4.9-7.5-5.9 2.4-3 12.2 10.2 12.7 11.8-.1.2-.2-.8 0 0zm-27.1 6.7c-.2-.4-.2-.8-.1-1.1.6-.5 10.9 13.8 9 14.9.2-.2-9.4-12.2-8.9-13.8 0-.2-.2.5 0 0zm-83.2 22.2c.9-2 6.5-16.4 7.7-15.6 0 2.4-5.6 16.7-7.7 15.6.2-.7.8.4 0 0zm-8-56.9c-2.5 2.4-6.7-8.3-4.6-8.5 3-.2 3.9 6.7 4.6 8.5zm-9.4 31.1c-.7 1.7-9.6 13.1-10.7 12.3-.3-.2 8.2-12.8 10.7-12.3-.1.4-1.1-.2 0 0zm2.2-108.4c0 .4-10.1-8.2-9.6-8.9 1.9-2.2 9 7.3 9.6 8.9-.1.5-.1 0 0 0zM80 9.7c.7 1.3.5 2.2-.7 2.6-.5-.2-3.2-10.8-3.2-10.8 1.6-2.4 4.3 8.1 3.9 8.2 0 .7 0-.1 0 0zM11.4 37.9c.6-4 11.9 6 11.6 6.1-3.1.7-7.9-6.4-11.6-6.1.1-.7 1.3-.1 0 0zM158 104.8c1.4.8 14.8 6.3 13.4 7.4-.2.2-14.5-6.6-13.4-7.4.4.2-.2.1 0 0zm.3-34.1c1.7-.9 5.9-1.5 7.9-1.5 1.3-.1 6.7 1.4 6.5 1.5-1.6.4-13.6 1-14.4 0 .3-.1.7.9 0 0zm-156.1-5c1-2.2 12.4-1.9 13.8-.5-.1.6-12.9 1.6-13.8.5.5-.9.4.5 0 0zm167-17.1c-.2 1.7-12.6 6.7-14.5 6 1.4-.9 13.5-7.1 14.5-6 0 .4-.3-.3 0 0zm-51.5 105.3c-1 1.8-4.8-7.4-3.6-8.2 1.2-.8 3.6 7.9 3.6 8.2 0 .1-.1-.5 0 0zM55 5.2c-.8 1 2.9 7 1.1 7.3-1.9.4-3.9-9.1-1.1-7.3-.6.7-.6-.3 0 0zm20.6 42.5c-1.1.3-3.9-1.9-3.6-3.3 2.2-.4-.3 2 3 1.1.8-.2 3.9-2.3 4.8-1.7-.9 1.8-3.2 1.9-4.2 3.9-.6.2.2-.3 0 0zM121 7.4c-1.2 2-.1 6.4-2.3 7.6-.1.1-.7-9.5 2.3-7.6-.3.5-.9-.6 0 0zm5 118.3c.2-.3 6.8-4.7 7.3-4.1.9 1.2-6.6 4.8-7.3 4.1.1-.1.6.7 0 0zm-110-9.4c.1 1-4.3 6.7-5.2 6-1.5-1.3 4.5-5.7 5.2-6 .1.9-.2.1 0 0zm55.8-6.2c-1 2.1-6.7.9-6.3-.5.5-1.3 5.9-.4 6.3.5-.3.8-.2-.4 0 0zm71.7-70c2.2-1.9 5.7-5.3 8.7-5.8-.5 1.4-7.6 7.1-8.7 5.8.8-.6.5.6 0 0zM40.9 41.4c.5-.6 5.4-7.5 7.1-6-.2-.2-6 6.5-7.1 6 .2-.2.8.3 0 0zm79.4 32.2c.3-.8 2.1-1.2 3.1-1 1.8.3 1.4 4.5-3.1 1 .4-1 .8.6 0 0zm-75.2 30.8c1.3-.3 2.9 3.8 3.1 4.4-.3 1.3-3.7-2.4-3.1-4.4zm18-49.6c1.8.2-3 2.2-4.2 1.1.7-.6 3.9-4.1 4.9-3 .1.7-.2 1.4-.7 1.9.5 0 .3-.4 0 0zM140 17.9c-.3.6-2.8 7.7-3.9 7-.5-.3 1.8-8.2 3.9-7-.3.5-.3-.1 0 0zm-29.4 35.6c-.2.3-2.1 2.6-2.5 2.2-.4-.5.7-1.7.2-1.9-.4.6-.9.7-1.5.2.2-.3 3.6-5 3.9-3 .1.8-2.2 1.1-.1 2.5-.1.2-.3-.3 0 0zm-45.8-2.8c.5-.8 6.7-3 6.4-1.8-.2.9-1.2 2.4-2.2 1.9.2-.5.2-.9.2-1.4-1.5.9-2.7 1.9-4.4 1.3.1-.3.4.1 0 0zm56.4 41c.2-2.1.2-4 3.3-3-1 2.7-.9 3.2-3.3 3 0-.1.5 0 0 0zM51.1 64.5c-2.6-1.4.7-3.7 2.6-3.6 1.6.1-2 3.5-2.6 3.6-.3-.1.3 0 0 0z"/><path class="st1" d="M105.9 110.4c.4-1.1 4.2-3.5 5.5-2-.4 1.2-4.1 2.7-5.5 2 .1-.4.3.2 0 0zm8.5-50.9c-.7 0-3.7-.3-4.2-.8 1.4-1.6 5.4-.1 7.2 1.2-.6 1.7-3.2 1.1-3-.4-1 0 0 .4 0 0zM99.9 45.6c-1.4 1-6.9.1-5.4-1 1.1-.9 5.3.9 5.4 1zM54.4 96c-.9.2-3.4-2-2.4-3.2 1.4-1.5 4.7 3.2 2.4 3.2-.5.1.8 0 0 0zm80.2-8.2c1.1-.5.9 2.2.3 3-.9 1.6-3.7-5.3-.3-3 .3-.2-1.2-.9 0 0zm-13.9-52.7c-1.2 1-3.2-1.6-2.9-2.8.3-1 3.9 2.2 4.3 2.7-.4.3-.9.3-1.4.1 0 0 .6-.1 0 0zm-3 120.1c.7.9 3 5.9 1.4 7.2-.4-.3-2.2-6.9-1.4-7.2.2.1-.1 0 0 0zM29.9 95.5c.5.4 2.7 2.6 1.8 3.6-.8.9-2.8-1.7-3.4-2.1.1-.9 1.7 0 1.6-1.5.9.9 0 .9 0 0zm19.4-6.9c2-5 3.5 7.8 0 0 .3-.8.1.3 0 0zm66.1 15.4c-.4 1 1.3-5.3 2.7-3.2.6.9-1.4 3.9-2.7 3.2.4-1 .7.3 0 0zM59.5 41c-.9 1.1-3.9 3-4.2.5 1.7.3 2.4-2.5 4.2-.5-.1.2-.6-.6 0 0zm-16.9 73.9c-1.1 1-2.8 2.1-3.5-.5-.4-2 3.3.2 3.5.5-.2.2-.4-.5 0 0zM125 78.2c1.3 4-3.7.3-2-.1.1-.1 2.4-2.4 2 .1.2.4.1-.2 0 0zm18.6 17.9c1 .3 1.1.7.1 1.4-1 .3-1.1-2.4-2-3.3 1.6-1.5 2.4.8 1.9 1.9.3.2.2-.5 0 0zm-43.4-50.9c1.4.3 1.6.7 3.5 1.5-.6 1.8-4.5.8-3.5-1.5zm43.6 19.4c-2.1 2.7-3.2-3.3-2.7-3.2.9.1 1.9 2.5 2.7 3.2-.7.9-.3-.2 0 0zm-63.9 48.9c.4-1.2 2.8-1.9 3.7-.9-.8 1-2.3 2.7-3.7.9.3-.8.7.9 0 0zm14.6.8c.6-.8 4.5-1.7 3.5-.1-.7 1.1-2.8.8-3.5.1.2-.4.7.7 0 0zm-38.6 13.6c1.4.5 2.7-.8 3.7-.1-.9 1.2-4.1 3.1-3.7.1.3.1-.2 1.1 0 0zm-20.4 7.2c-.3-1.1 1.2-3.2 2.4-2.9 2 .5-3.1 3.3-2.4 2.9-.2-.7.7-.4 0 0zM14.4 88.2c.8-.5 1.6-.5 2.3 0-.1 1.6-4.1.4-5.1-.3 1-.8 1.9-.7 2.8.3.7-.2-1-1 0 0zm122.4 29.5c.1 1.1-.9 2.7-2.2 2.6-1.9-.2 2.1-2.6 2.2-2.6 0 .8-1.3.1 0 0zm-16.2-22c.5 7.5-4.2-6.4 0 0 .1 1.1 0-.1 0 0zm22.2 9.1c0 1.4-.6 2-1.9 1.7-1-.6 1.5-4.3 1.9-1.7-.1.6-.1-.3 0 0zm-89.3 19.9c.5.3 2.1 1.2 1.9 2.2-.5 1.9-4.4-2.3-1.9-2.2.2.2-.6 0 0 0zM29.2 89.3c-1.4-.1-1.4-.4-.1-.9.8 0 2.6 3.7 1 3.7-1-.7-1.3-1.6-.9-2.8-.3-.1.1.7 0 0zm108.5 26.5c-.1-1.2 2.3-3.7 2.2-2.6 0 .8-1.3 2.6-2.2 2.6-.1-.4.2 0 0 0zM28 82c4.3 1.4-2.9 5 0 0 .3 0-.4.6 0 0zm65.2 53.8c-.6 1.7-2.8 1.7-3.9.1 1.3-.4 2.6-.4 3.9-.1-.1.3-1.4-.4 0 0zm-46-60.5c1.3-3 3 1.7 1.2 1.7-.9-.2-1.3-.8-1.2-1.7 0 0 .1.5 0 0zm85.9 9.5c.6-4.9 4.4 3.7 0 0 .1-.8.2.2 0 0zm-83.5-.3c-.2.3-.4.6-.7 1-1 .1-1.9-2.1-.8-2.6 1-.1 1.5.5 1.5 1.6z"/><path class="st1" d="M134.3 82.9c-3.3 0 1.1-3.7.8-1.9-.2.9 1 1.8-.8 1.9-.6 0 .1 0 0 0zM54 59.2c.7.2 1.3.5 2 .7-.8 1.7-4.5-.5-2.9-1.9.8-.8.9.9.9 1.2.7.2 0-.2 0 0zm-3.6 62.5c1.4.4 2 1.2 1.7 2.4-1.4 1-2.4-1.3-1.7-2.4.8.3-.8 1.2 0 0zm93.2-41.3c.4.3.8 3.6-.3 3.5-1.8-.1.1-3.2.3-3.5zm0 0c-1-1.7 1.5-1.2.5-2.7 2.7-1.1.9 2.2-.5 2.7zM34.5 51.3c.7.7 1.1 3.7-1.1 2.2-.8-.6.7-2 1.1-2.2.3.3-.8.3 0 0zm105.6 57.8c-1.7-.8.3-.6.7-.5 1.3.3.8 2.6-.5 2.1-.5-.5-.6-1.1-.2-1.6-.3-.2-.1.2 0 0zm-37-85c-.7 0-1.1-.4-1-1.2.2-.3 3 1.9 3.5 2.2-1 .6-1.9.2-2.5-1-.2 0 .8 1.3 0 0zM26.7 77.6c1-1.5 3-1.3 2.1.8-.9.6-1.5.3-2.1-.8.3-.3.5.5 0 0zm112-23.2c.6 0 1 .2 1.5.5-.6 2.4-3.2-.9-3.2-1.1.2-.8 1.8-.4 1.7.6.5.2 0-.8 0 0zM55.9 88.2l1.2.3c-.4 1.3-1.2 1.5-2.2.8.4-.4.5-3.6 2.3-2.3-.4.6-.8 1-1.3 1.2.4.1.4-.5 0 0zm-39.7 27.9c-1.1-1.4 2.4-2.1 2.6-2.1-.4 1.3-1.2 2-2.6 2.1-.4-.6 1.4 0 0 0zm57.5 19.5c-1.5.1-2.2-.5-2-1.8.6-.9 4.3 1.6 2 1.8-.8 0 .1 0 0 0zm58.5-89.1c-.5-.3-.9-1.5.1-1.7 3-.5-.1 5.4-.1 1.7-.2-.1 0 .2 0 0zM10.9 123.4c-.2.5-1.1 2.8-2 2.4-1-.6.8-3.4 2-2.4 0 .2-.1-.1 0 0zm65.2 12.4c1.4-.4 2.4 0 3 1-.7 1.1-3.1.2-3-1 .8-.1 0 .5 0 0zM119.3 99c-.1.7-.5 1.1-1.4 1.1-1.3-.5-.1-2.4.9-2.1.1.3.3.6.5 1-.1.2 0-.6 0 0zm2.4-31.1c-3.3-.1.5-2.6.4-1.9 0-.2 1.2 2-.4 1.9-.6 0 .2 0 0 0zM58.2 15.5c-2.1 2-1.6-2.5-.9-2 .5.6.8 1.2.9 2-.2.2-.2-.6 0 0zM76.5 23c-1.2.7-2.5.9-3.9.7 1.1-1.1 2.4-1.7 3.9-.7-1.3.6-1-.7 0 0zm76.1 10.5c.7-1.1 1.3-2.6 2.8-1.9-.5 1.2-1.5 1.8-2.8 1.9.4-.6 1.3 0 0 0zm-131 78.6c-.2 1-1.7 2-2.7 1.3.4-1.2 1.8-2 2.7-1.3-.2.9-.5-.4 0 0zm41.6-76.9c.3-.5 2.9-1.3 3.2-.9-.4 1.2-2.3 1.9-3.2.9.5-.7.5.6 0 0zm68.3 8.3c-.5.8-3.5-.9-2.2-2 .6-.6 2.4 2.2 2.2 2 0 0-.4-.5 0 0zm-7 83.2c-.3 1.2-1 1.6-1.9 1.2-.9-1.2 1-1.9 1.9-1.2-.2.6-1.1-.8 0 0zm-.1-42.3c-1.1-.2-1.4-.7-1-1.4 1.2-1.4 3 1.5 1 1.4-.6-.1.4 0 0 0zm-85.7 26.9c0 1.5-2.7-.3-2-1.2.9-.3 1.6.1 2 1.2 0 .7 0-.5 0 0zm105.1-41.4c.1.5-.2.9-.8 1.1-1.2-.2-.6-2.2.1-2.4.8-.3.6 1.3.7 1.3 0 .1 0 0 0 0zm-24.7 60.6c.4-.5 3.3-.6 3.2.2-.2 1.3-2.6 0-3.2-.2.6-.8.5.1 0 0zm-85.4-25.3c.8-.8 2.7.3 2.2 1-1.1 1.4-1.7-.6-2.2-1zm0-49.7c0 1-.4 1.5-1.3 1.6-1.2-1 1.2-3.5 1.3-1.6 0 .5 0-.2 0 0zm-2.4 3.7c-1.7-.7.2-.7.5-.5.4.4.6 2.8-.5 2-.5-.4-.5-.9 0-1.5-.3-.1-.2.4 0 0zm9.1 57.5c.3.6-.5 2.5-1.5 2-1.6-.7 1.6-2.1 1.5-2 .1.2-1.3.4 0 0zm15.1-86.5c.7-1 2.2-1.7 3.4-1.8.3 1.1-2.8 1.8-3.4 1.8.7-1.1 1.2.1 0 0zm44.5 97.1c-.5 1.3-1.2 1.4-2.3.4-.9-1 2-.7 2.3-.4-.2.4-.1-.1 0 0zM45.7 52.2c0-1.2.8-2.7 2.3-1.6-.4.4-1.5 2-2.3 1.6 0-.6.4.2 0 0zm83.9 10.5c.1-.9.6-1.4 1.4-1.5.6 0 .8 2.5-1.4 1.5.3-.5.4.2 0 0zm-1.9-2.1c-.7.5 4.6-2.3 2.4.4-.9.3-1.7.2-2.4-.4.5-.3.5.2 0 0zm-66 42.2c-1 1-1.7.8-2.1-.7.8-.7 1.5-.4 2.1.7-.5.7-.4-.3 0 0zm2.8 2.4c-.9.8-1.8.9-2.7.1.1-1.3 2.2-.6 2.7-.1-.7.8-.6-.7 0 0zM55.3 59c.4-1 1.2-1.6 2.4-1.6.3 1.2-1.5 2.2-2.4 1.6.5-1 .7.5 0 0zm48.9 51.6c-.3 1.4-1.1 1.6-2.2.8 0-1 1.5-1.2 2.2-.8-.4 1.4-.5-.4 0 0zm-5.5 25c1.1-.3 2-.2 2.9.4-.8 1.1-1.8 1-2.9-.4 2.3 0 .6.7 0 0zm-32.9-28c-.3 1.2-2.9.4-1.8-.8.8-.3 1.4 0 1.8.8-.2.6-.3-.3 0 0zm35.7-84.2c-.5.5-3.6.8-3.5-.3 1-.8 2.2-.6 3.5.3-.6.5-1.1-.3 0 0zm25 105.7c-.1.8-.5 1.3-1.2 1.4-1.2-.2-.4-2.3 1.2-1.4-.2.4-.2-.1 0 0zm11.8-78.2c.5-.5 1-.5 1.5-.2 1.1 1.7-3.2.1-2.7.3.3-.6.7-.6 1.2-.1.3-.2-.8-.5 0 0zm-21.6-33.5c.4-.5.8-1.1 1.2-1.6 1.1 0 .6 3.1-1.2 1.6.4-.6.6.5 0 0zM81.6 23c1.2-.6 2.4-.8 3.7-.5-1.3.8-2.2.7-3.7.5.7-.6.4 0 0 0zM20 65.8c-.4.5-3.5.4-3.1-.6.2-.5 3.2.7 3.1.6-.4.6-.4-.4 0 0zm35.2 10.6c-.6 1.4-2.4 0-1.8-.7.8-.4 1.3-.2 1.8.7-.1.4-.2-.5 0 0zM67.7 25c-1 .9-2.1 1.3-3.4 1.2.7-.7 2.4-1.4 3.4-1.2-.9.9-.2 0 0 0zm55.6 10.7c.6.1 1 .5 1.1 1.1-.1 2-3.5-1.3-1.1-1.1zm-73.5-2.3c.4-1 1.8-1.9 2.5-1.7-.4 1.1-1.5 1.8-2.5 1.7zm94.1 52.5c-.1.6-.5 1-1 1.2-.6-.3-.8-.8-.5-1.4.6-.5 1.1-.4 1.5.2-.2.3-.2-.2 0 0zm-78.3 17.9c.7-.6 1.5-.9 2.4-.9 0 1.2-1.5 1.8-2.4.9.9-.4.5.5 0 0zm60-66.6c1 .3 1.9.8 2.6 1.5-1 .7-2.7-.4-2.6-1.5 1.1.2-.1.9 0 0zm-.5 3.3c-1.4 0-.9-1.6-.2-1.6 1.2.4 1.2.9.2 1.6zm-14.8 15.1c1.3-.8-.6-2.9 1.9-.1-.6.7-1.2.7-1.9.1.5-.3 1 .6 0 0zm23.3 24c.9-.5.7-1.9 2-1.2-.5.8-.8 2.4-2 1.2.2-.1.5.5 0 0zM61.7 37.5c-.5 1.1-1 1.3-1.9.8.2-1.2 1-1.5 1.9-.8zM92.4 110c-.3-.7-.2-1.4.4-1.9.5-.1 1.6 2.3-.4 1.9-.1-.5.9.2 0 0zm20.5 21.4c-.3 1.6-2.9.1-2.1-.3.8-.1 1.5 0 2.1.3-.1.6-.4-.3 0 0zM29.1 92.7c-.5 1.2-1 1.3-1.6.3 0-.6 1.6-1.6 1.6-.3zM141.9 126c-.3 1.1-.8 1.3-1.7.6 0-1.2.6-1.4 1.7-.6-.4 1.1-.4-.4 0 0zM49.1 72c-.4 0-.8-.3-.9-.7-.2-2.4 2.9.6.9.7zm76 67c-.7.6-1.6.8-2.4-.1.8-.6 1.6-.6 2.4.1-.3.2-1-.7 0 0zm-53-19.6c0-2.4 2.1 1.4.6 1.3-.6-.3-.8-.7-.6-1.3 0-.4 0 .4 0 0zM38 47.7c-.5 1.1-1.1 1.4-1.9.7-.1-1.4 1.3-1 1.9-.7-.4.4-.3-.2 0 0zm40.1 73.7c.3-.9 2.1-.2 2.7 0-.8 1-1.6 1-2.7 0 .2-.5.7.3 0 0zm-16.3 11.7c.2-1 .8-1.4 1.6-1.2.7.4-.6 1.8-1.6 1.2.3-.4.8.5 0 0zm80.5-5.8c.4-1 .9-1 1.6-.2-.5 1.2-1.1 1.2-1.6.2zM72.9 108c1.8.2-.3 2.4-.6 2-.2-.7 0-1.4.6-2 .7.1-.2.5 0 0zm62.9 6.2c.3-1 .9-1.3 1.7-.7-.2 1.2-.8 1.4-1.7.7.5-1.1.2.4 0 0zm-97.6-1.3c-1.1 1-1.8 1-2.1-.1.2-.6 1.9-.1 2.1.1-.6.7-.3-.3 0 0zm55.7-90.5c-.7.6-1.7.5-2.7-.4 1-.4 1.9.2 2.7.4zM44.1 97.6c-.9 1-2-.3-1.4-.7.6-.4 1.1-.1 1.4.7-.1.1 0-.5 0 0zm93.4 25.3c-.5 1-.9 1.1-1.8.2.4-1 .8-1.1 1.8-.2zm-3.6-95.4c.5-1.3 1-1.7 1.8-1.1-.2 1.2-.8 1.6-1.8 1.1.2-.7.4.4 0 0zM128.4 56c1.3-1.2 1.5.1 2.4.5-.8.8-1.3-.1-2.4-.5.7-.5.5.2 0 0zM51.6 30c-.7.4-2.1 0-1.9-.9.8-.3 1.4 0 1.9.9-.7.4-.4-.5 0 0zm45.3-6.5c-.8.7-1.3.6-1.6-.3.5-.9 1-.8 1.6.3-.2.5-.2-.5 0 0zM56.2 61.8c.9.5.8 1-.2 1.5-.8-.5-.7-1 .2-1.5zm41.7 75.9c.1-.1 2.3-.9 1.8-.3-.5 1-1.1 1.1-1.8.3.2-.2.3.5 0 0zm29.3-96c.2-.8.7-1.1 1.5-.9.7.6-.7 1.6-1.5.9.2-.2.7.6 0 0zm15 30.8c.4-.9 2.2-1.1 1.6-.1-.4.6-1 .6-1.6.1.2-.3.4.2 0 0zm-18.4 60.6c-.3.9-1 1-1.8.3.4-.8 1-.9 1.8-.3zm18-77.4c.1.7-1.6 1.4-1.7.5 0-.5 1.6-1.5 1.7-.5zm-26.9 8.6c.3-.9.9-1.3 1.7-1 .1 1-.4 1.3-1.7 1 .3-.4.7.4 0 0zM133 90.9c-.5.6-1.6.9-2.4.5.5-.7 1.7-1 2.4-.5zm-13.6-25.8c0-1.1 2.1-.6 1.6.1-.6.6-1.1.6-1.6-.1 0-.4.7.7 0 0zM143.6 76c-.9-.5-1-.9-.2-1.4 1 .5 1.1 1 .2 1.4zm-36.5 57.1c-.5.9-1.1 1-1.8.2.3-.8.9-.8 1.8-.2-.5.9-.5-.5 0 0zm32.1-13.8c-.6 1-1.1 1.1-1.5.2.1-.9.6-.9 1.5-.2-.3.5-.4-.4 0 0zM111 28.5c-.6.7-1.2.7-1.8 0-1.4-1 3.1.7 1.8 0-.3.5-.5-.2 0 0zm-82 52c-.7.6-1.2.6-1.5-.2 0-1.8 1.5.1 1.5.2-.5.6-.2-.3 0 0zm64.2-59.8c-.4.9-.8.9-1.4 0 .4-1 .9-1 1.4 0zm49.5 81.3c-.9-.4-1-.8-.1-1.3 1 .4 1.1.8.1 1.3zm-10.9-31.1c.2 1.1-.3 1.3-1.5.6.2-.9.7-1.1 1.5-.6-.1.3-.8-.5 0 0zm-7.9 71.4c.3-.9.8-1 1.4-.3-.1.9-.6 1-1.4.3 0-.4.5.4 0 0zM31.1 74.1c.1-.2.9-2 1.3-.5.4 1.3-1.1.7-1.3.5.1-.4.3.2 0 0zm88.2-11.2c.4-.9.9-.9 1.6 0-.4.8-.7.8-1.6 0zM89.9 23c-1.9-.5.6-1.6.9-.8-.1.5-.4.8-.9.8-.1-.1.2-.1 0 0zM36.7 44.1c.5-1.1 1-1.2 1.5-.4-.3.8-.8 1-1.5.4.1-.6.7.6 0 0zm7.2 75.3c-.2 1.3-2.1 0-2-.2.6-.5 1.2-.5 2 .2-.1.5-.6-.2 0 0zm1.9-38.8c.5-1 1-1.2 1.7-.5-.6.9-1 1-1.7.5zm75.6-.7c.5 0 .8.2 1.1.7.1 1.4-2.7-.7-1.1-.7.1 0-.4 0 0 0zm-6.5-13.5c-.6 1-1.2 1.2-2 .5.6-.6 1.2-.8 2-.5-.3.6-.5 0 0 0zm-53.7 67.9c-.6.7-1.1.7-1.7-.1-1.4-1.2 3.4 1 1.7.1-.2.5-.4-.2 0 0zm64.3 4.7c.8-.1 1.2.1 1.3.8-.7.7-1.1.4-1.3-.8.4-.2-.2.7 0 0zm13.6-11c.5-.6 1.1-.6 1.8 0-.4 1.3-1.4.3-1.8 0 .6-.6.2.2 0 0zM72.2 22.8c-.2 1.5-2 0-1.7-.3.6-.3 1.1-.2 1.7.3-.1.5-.4-.2 0 0zM28.8 86.1c.8.1 1.2.5 1 1.3-.9.2-1.3-.2-1-1.3.4.2-.2.6 0 0zm16.7 36.1c.5.2 1.1.5 1.6.7-.7 1.2-1.8.1-1.6-.7.6.2-.2.6 0 0zm74.3-91c.3-.9.7-1 1.6-.4-.4.9-.8 1-1.6.4zm-15.4 23.3c-.9.9-1.6 1-2 .2.5-.6 1.1-.7 2-.2-.5.6-.6-.3 0 0zM96.7 136c-.7.6-1.3.5-1.9-.2-1.3-.8 4 1.1 1.9.2-.3.5-.5-.3 0 0zm45.1-12c.4-.2.7-.5 1.1-.7.6 1 .2 1.3-1.1.7.4-.8.7.5 0 0zm-59.7 13.6c.4-.8.9-1 1.6-.6-.2 1-.7 1.2-1.6.6.4-.3.9.6 0 0zM26.3 95.8c.5-.9 1-1 1.4-.2-.3.7-.7.8-1.4.2.2-.7.5.3 0 0zm3.9 5.5c1 .6 1.1 1.1.1 1.5-.7-.4-.7-.9-.1-1.5.5.3-.2.4 0 0zM69 33.7c-.4.1-.8.3-1.2.4-.6-.5.4-1.6 1.2-.4-.3.6-.2-.4 0 0zm10.1 8.8c-.4.6-1 .8-1.6.6.2-1.1.7-1.3 1.6-.6-1.1.7-.3-.4 0 0zm38.5 28.3c.5-1 1.1-1.3 1.9-.9-.4.8-1.1 1.1-1.9.9.3-.6.9.2 0 0zM57.7 44.1s1.5-1.7 1.4-.5c-.2.8-.6 1-1.4.5.1-.2.4.4 0 0zm23.6 94.7c.2-.3 1.3-.9 1.3.1-.4.9-.9.8-1.3-.1.1-.1 0 .4 0 0zm41.8-62.6c-.6.8-1.1 1-1.8.7.5-.8 1.1-1 1.8-.7zM83.7 43.6c-.9.8-1.5.8-1.7 0 .6-.4 1.1-.4 1.7 0-.4.6-.4-.1 0 0zm4 93.4c-.4.8-1 .8-1.7.2.2-.8.8-.9 1.7-.2 0 .4-.4-.4 0 0zm48.8-21.8c-.5.8-.9.9-1.4.3.2-.7.7-.8 1.4-.3-.3.7-.4-.3 0 0zM26.3 86.6c.5-.7.9-.8 1.6-.2-.4.7-.7.8-1.6.2zm92.6 24.2c.7-.4 1.3-.7 2-.4-.4.8-1.1 1-2 .4zm-85.2-5.6c-.7.3-1.3.2-1.8-.4.2-1.2 1.8.4 1.8.4zm74.9-78.6c-.4.6-.9.6-1.5.1-.4-.4 1.3-1.3 1.5-.1-.2.2 0-.1 0 0zm-16.2 87.8c-.6.9-1.2.9-1.6.2.4-.6.9-.6 1.6-.2-.3.7-.4-.4 0 0zm-5.9-92.5c.3-.8 1.6-.9 1.4-.2-.4.7-.9.7-1.4.2.3-.8.3.1 0 0zm27.2 77.5c.5-.7.8-.7 1.6 0-.4.6-.8.7-1.6 0zm-56.9 33.1c-.4.9-.7 1-1.4.5.3-.8.6-.9 1.4-.5zm55.6-25.9c.3-.9.7-1 1.3-.3-.2.8-.6.9-1.3.3.2-.4.3.3 0 0zm-77.9 2.3c-3.1-1.3 3 0 0 0-.1 0 .2 0 0 0zm8-12.9c-.8-.4-.8-.7 0-1.1.9.3.9.7 0 1.1zm27.1 9.4c.9.4.9.7.1 1-1-.3-1.1-.6-.1-1 .4 0-.2.1 0 0zM54 80.1c.2-.9.6-1.1 1.2-.6 0 .9-.4 1.1-1.2.6.1-.3.3.4 0 0zm26.8 53.6c-.4.6-.8.6-1.2 0 .3-1 .7-.9 1.2 0-.1.1 0-.4 0 0zm15-25.7l-.9.9c-.8-1.2-.5-1.5.9-.9-.1.6-.4-.2 0 0zm33.1-63.4c.9.4.9.8.1 1.2-.8-.3-.8-.7-.1-1.2zm-62 61.2c-.5.8-.7.8-1.5.3.3-.7.7-.8 1.5-.3zm46.8-74.7c-.4 0-1.6-1-.5-1.2.8-.1.7.9.5 1.2-.5 0 0-.1 0 0zm-44.7-8c-.6.7-1 .6-1.6-.1.5-.5.8-.5 1.6.1zm47.8 49.8c-.8.4-1.3.2-1.5-.5.6-.3 1.1-.1 1.5.5-.4.4-.3-.2 0 0zm30.6 22c-.1.1-1.8.7-1.4-.3.2-.5 1.4-.1 1.4.3-.2.2 0-.1 0 0zm-27.1-49.8c.3-.8.8-.9 1.5-.3-.3.8-1.2.3-1.5.3zm-9 59.3c.4-.7.7-.7 1.5-.1-.4.7-.6.7-1.5.1zm-54-13.7c.3.3 1 1.1-.1 1.2-.7-.2-.7-.6.1-1.2.3.2-.3.2 0 0zm-3.5-9.5c.7-.5 1.2-.5 1.6.1-.3.7-.8.7-1.6-.1.5-.3.4.5 0 0zm5-20.7c.4.3.6.7.6 1.3-1.4.8-.8-.9-.6-1.3.2.4-.2.5 0 0zm45.7 74.3c-.4.5-.9.5-1.4 0-.3-.2 1.3-1 1.4 0-.2.1 0-.1 0 0zM53 74.2c-.6.5-.7.5-1.5-.1.3-.8.5-.8 1.5.1zM64.3 131c.7-.4.9-.4 1.5.2-.5.5-1 .5-1.5-.2zm53.2-16.2c-.4.1-.9.3-1.3.4-1.1-1.1 1.7-.3 1.3-.4-.6.7-.4-.1 0 0zm4.1-32c.3-.8.5-.8 1.3-.3-.3.8-.5.8-1.3.3zm-71.5-5.3c.4-.5.7-.5 1.5-.1-.3.7-.8.7-1.5.1zm19.2 23.2c-.1.2-1.5 1-1.6.2 0-.7 1.5-.4 1.6-.2-.3.6-.4-.6 0 0zm65-37.6c-1.1.2-1.7 0-2.3-.5.9-.1 1.6.2 2.3.5zm-32.2 58c-.9-.3-1-.7-.4-1.1.9.2 1 .6.4 1.1-.4 0 .1-.2 0 0zm18.5-32.7c-.3.2-1.2.5-1.2-.3.4-.7.8-.6 1.2.3-.1.1-.1-.5 0 0zm-12.1 44c1.1.4 1 .8-.2 1.2 0-.4.1-.8.2-1.2.4 0-.1.4 0 0zm-55.3-23.9c-.7.8-1.1.8-1.3 0 .3-.5.7-.5 1.3 0-.4.5-.4-.1 0 0zm61.3-78.3c.7.3 1.4.5 2 .8-1.7.2-2.4-.1-2-.8.6.2-.1 0 0 0zm-26.8 1.6c.6-.5 1-.5 1.3 0-.3.6-.8.6-1.3 0 .4-.4.4.5 0 0zM55.4 85.6c-.6.6-1.1.6-1.2-.1.4-.6.8-.2 1.2.1-.4.6-.2-.1 0 0zm-1.9-16c-.6.8-1 .8-1.3 0 .3-.4.8-.5 1.3 0-.3.4-.3-.1 0 0zm-4.3-10.8c.7-.7 1.1-.6 1.2.4-.4-.1-.8-.2-1.2-.4.2-.4.4.3 0 0zm91.9 1.8c-.7-.3-.7-.6 0-1 .8.4.8.7 0 1-.2 0 .4.1 0 0zm-47.7 51c.3-.6.7-.7 1.2-.1-.2.7-.6.8-1.2.1.1-.2.3.4 0 0zm21.8 18.9c.4-.4.9-.5 1.4-.3-.3.8-.8.9-1.4.3zM71 135.3c-.4.7-.6.8-1.2.3.5-.7.6-.7 1.2-.3zM57.7 65c-.7.2-.8.2-1.4-.4.6-.4 1-.3 1.4.4zm-27.5-2.1c-.8-.3-.8-.7-.2-1.1.8.3.8.7.2 1.1-.3-.2.2-.2 0 0zm15.4 16.9c-.4.7-.8.8-1.2.1.5-.6.9-.6 1.2-.1-.1.4-.1-.1 0 0zm66.9-19.2c-.6.5-.7.5-1.3.1.3-.8.4-.8 1.3-.1zm6 24.8c.4-.8.6-.8 1.2-.3-.4.6-.4.6-1.2.3zM61.7 52.6c-.6.2-1 .1-1.3-.4.5-.6.9-.4 1.3.4-.4 0-.2-.6 0 0zm8.4 55.6c-.8-.3-.9-.7-.3-1.1 1.1-.2.4 1 .3 1.1-.3-.2.2-.2 0 0zm5.1 24.6c-.3.5-.6.6-1.2.4.1-.8.5-.9 1.2-.4-.4.6-.2-.2 0 0zm-6.6-86.1c-.3.1-1.7-.1-1.7-.6.7-.4 1.2-.2 1.7.6-.8.3-.4-.5 0 0zm2.8 66.5c.2-.5.5-.7 1-.6.2.7-.2.9-1 .6.1-.2.5.3 0 0zm66.4-1.2c.1-.5.4-.7.9-.6.1.8-.2 1-.9.6.1-.2.5.3 0 0zM55.2 64c-.7.6-1.2-.3-1.3-.3.5-.2 1-.1 1.3.3-.1.1-.2-.2 0 0zm88.7 2.5c-.4.6-.8.6-1.2.2.2-.7.6-.8 1.2-.2-.3.3-.4-.2 0 0zm-83.6 63.6c-.8.4-1.2.3-1.1-.4.5-.2.9-.1 1.1.4-.5.3-.1-.1 0 0zM74 50.6c-.7-.4-.7-.7.1-1 .6.3.6.6-.1 1-.3-.3.2-.3 0 0zM30.6 64.8c.7.6.8 1 .2 1.2-.5-.3-.6-.7-.2-1.2.5.3-.1.3 0 0z"/><path class="st1" d="M137.4 124.4c-.4.4-.8.3-1.1-.2.4-.5.8-.4 1.1.2-.2.1-.1-.4 0 0zM56.8 39.6c-.5.5-.5.5-1.2.1.4-.6.7-.6 1.2-.1zm11.7 11.9c1.9 1.4-.9.7 0 0 .3.2-.3.3 0 0zM29.2 73.9c.6-1.7 1.7 1.2 0 0 0-.1.1.1 0 0zM122.9 48c-.7-.4-.7-.8-.1-1.1.7.3.7.7.1 1.1-.2-.3.2-.3 0 0zm27.2 63.6c.4.1.8.3 1.1.4-.1 1.4-1.1-.4-1.1-.4zm-75.6 25.7c-.6.7-.9.7-1.1 0 .3-.3.7-.3 1.1 0-.2.5-.3-.1 0 0zm-20-44.5c.5-.7 1-1 1.5-.9-.3.5-.9.7-1.5.9zm64.1-13.1c-.9 1.9-1.3-2.1 0 0-.1.1-.1 0 0 0zm31.5 31.9c-.5.1-.9-.1-1.1-.7 1.4-.1.5.2 1.1.7zM79.8 24.9c-.6.7-.8.7-1.3.1.3-.4.8-.2 1.3-.1zm-15.2 76.7c.8-.3 1.2-.1 1.2.4-.5.3-.8.1-1.2-.4.5-.3.3.2 0 0zm77.5-43.1c-.4.6-.8.5-1.1 0 .3-.5.7-.5 1.1 0-.3.3-.4-.1 0 0zm-59.3 63.8c-1.1 1.2-1.4-1.8 0 0-.3.3-.4-.5 0 0zm-23.3-9.5s-1.4.6-1 0c.4-.4.8-.5 1 0-.1.1 0-.1 0 0zm-6.4 17.4c-.4.3-.7.3-1.1-.1.5-.5.7-.5 1.1.1zM115.5 40c-.4.5-.7.4-1.1.1.3-.5.3-.5 1.1-.1zm2.7 53.3c.7-.4 1.1-.3 1.1.2-.4.4-.8.3-1.1-.2.4-.3.3.2 0 0zM50.6 125c-.4.5-.8.3-1.1 0 .3-.4.4-.4 1.1 0zm89.3-2.4c-.4.4-.7.2-1.1-.1.6-.4.6-.4 1.1.1zM40.8 85.8c-.7 1.3-1.4-.8 0 0-.2.3-.3-.2 0 0zm97.8 24.1c.7-1.4 1.6 1.2 0 0 .2-.3.3.3 0 0zM71 105.2c.6-.4.9-.2 1.2.2-.5.3-.8.1-1.2-.2zm70.8-12.6c-.6.4-.6.4-1-.1.3-.3.6-.2 1 .1zM82.3 45.2c-.4.4-.7.4-1.1.1.4-.5.7-.3 1.1-.1zM48.4 32.3c-.3.3-.6.2-.9 0 .4-.5.4-.5.9 0zm2.1 47.5c-.3.3-.5.5-.9.2.4-.6.4-.6.9-.2zm.6-51.7c-.6.5-.7.5-1.2.1.4-.4.7-.2 1.2-.1zm80.5 52.5h1c-.4.5-.7.5-1 0zm2.8-30.5c.6-.5 1.9.5 0 0 .5-.4.3.1 0 0zm-14.9 62.5c.4-.4.6-.3.8 0-.3.4-.5.3-.8 0zM55 91c-.4.2-.7.2-1-.1.4-.3.6-.2 1 .1zm87.6-1.2c.2.3.2.6-.1.8-.3-.2-.2-.5.1-.8zM78.8 48c1.4-.4.5.5 0 0 .3-.1.4.4 0 0zm29.6 58c1 0 0 .4 0 0 .1 0 0 0 0 0z"/></g></svg>