<?xml version="1.0" encoding="utf-8"?>
<svg xmlns="http://www.w3.org/2000/svg">
<symbol id="s_challenge_alarm-jellyfish" viewBox="-20 12 28 28"><circle cx="-6" cy="26" r="13.5"/><path fill="currentColor" d="M1.9 22.9c2-.8-3.8-6.6-4.6-4.6.8-2-7.3-2-6.5 0-.8-2-6.6 3.8-4.6 4.6-2-.8-2 7.3 0 6.5-2 .8 3.8 6.6 4.6 4.6-.8 2 7.3 2 6.5 0 .8 2 6.6-3.8 4.6-4.6 1.9.8 1.9-7.3 0-6.5zm-12.6 1.4c.7 0 .7 1.2 0 1.2-.8 0-.7-1.2 0-1.2zm0 3.5c-.7 0-.8-1.2 0-1.2.6 0 .7 1.2 0 1.2zm1.1 2c-.7 0-.9-1.2 0-1.2.6.1.7 1.2 0 1.2zm-.1-6.3c-.8 0-.6-1.2.1-1.2.8 0 .6 1.2-.1 1.2zm1.9 7.6c-.7 0-.9-1.1-.1-1.1s.9 1.1.1 1.1zm0-8.9c-.8 0-.6-1.1.1-1.1.8-.1.6 1.1-.1 1.1zm2.2 9.2c-.8 0-.6-1.3.2-1.1.7.2.5 1.1-.2 1.1zm.2-9.5c-.7 0-1-.9-.2-1.1.7-.2 1 1.1.2 1.1zm2 8.8c-.8 0-.6-1.2.1-1.2.8 0 .6 1.2-.1 1.2zm.1-8c-.7 0-.9-1.2-.1-1.2.7.1.9 1.2.1 1.2zm1.5.5c.7 0 .8 1.2 0 1.2-.7.1-.8-1.2 0-1.2zm-.1 5.8c-.8 0-.6-1.3.2-1.1.7.1.4 1.1-.2 1.1zm.6-2.2c-1.4 0 0-2.3.5-.8.2.7-.2.8-.5.8z"/>
</symbol>
<symbol id="s_challenge_anglerfish" viewBox="-22.4 21.5 28 28"><circle cx="-8.4" cy="35.5" r="13.5"/><path fill="currentColor" d="M-17.3 28.5h.3c.3.1.6.1.9.2 1 .3 1.6.9 2.1 1.8.1.2.2.4.3.5.3-.2.6-.4.9-.5.3-.1.7-.3 1-.3.9-.1 1.9.1 2.8.3 1.1.2 2.1.6 3 1.2.3.2.3.2.6 0 .5-.4.9-.8 1.4-1.2.1-.1.2-.1.2 0l.2.2.7.7.9.9c.1.1.3.2.4.3l.1.1c0 .4-.2.7-.5 1 0 .2-.1.3-.3.4h.1c.7.2 1.3 0 1.7-.4.7-.7 1.4-1.5 2.1-2.2h.1c.2-.1.3 0 .3.1l.3 1.2V33.7c0 .1-.1.3-.1.4-.1.6-.5 1.2-.8 1.7v.1c-.4.3-.8.6-1.3.7-.4.1-.9.2-1.3.3-.5.2-.9.5-1 1.1-.1.5-.2 1-.4 1.5-.1.3-.2.6-.4.9-1.2 1.5-3.4 2.1-3.4 2-.4.1-.7.1-1.1.1-.8 0-1.7-.1-2.5-.2-.9-.1-1.8-.4-2.6-.8-.3-.1-.6-.2-.8-.4-.3-.2-.7-.3-1-.5-.6-.3-1.2-.6-1.7-1.1l-.1-.1c-.4-.3-.7-.7-1-1.1-.2-.3-.2-.4.2-.5.1-.7.4-1.4.6-2v.2c-.2.5-.2 1.1-.2 1.7 0 .1 0 .2.1.2.1.1.3.1.4.2 0-.2.1-.4.1-.6.1-.2.1-.4.2-.6v.1c0 .4.1.8.1 1.2 0 0 0 .1.1.1.9.4 1.7.9 2.6 1.3h.1c-.7-.7-1.4-1.4-1.9-2.4l-.3.9V38v-1c0-.3.1-.7.1-1v-.9c-.5.5-.9 1-1.1 1.7v-.1c.1-1 .5-1.8 1-2.6.1-.1.1-.3.1-.4h-.1c-.8.7-1.4 1.6-1.9 2.6 0-.1.1-.3.1-.4.4-1.2.8-2.3 1.7-3.2.1-.1.2-.3.3-.4.2-.2.3-.5.5-.7v-.1c-.1-1-.9-2.2-1.9-2.3-.6-.1-1.2-.1-1.7.4-.6.6-.7 1.2-.4 1.9.1.3.2.7.2 1-.9 1.4-1.5 0-1.5-.1-.1-.3.4-.8.5-1.1 0-.1.1-.2.1-.2 0-.3 0-.6.1-.9 0-.5.3-.8.6-1.1.1-.2.5-.5 1.1-.6zm-1.5 4c0-.4-.1-.5-.4-.5-.2 0-.5.3-.5.6 0 .2.2.4.5.4.2 0 .4-.2.4-.5z"/>
</symbol>
<symbol id="s_challenge_bloop" viewBox="-20 12 28 28"><circle cx="-6" cy="26" r="13.5"/><path fill="currentColor" d="M5.1 30.7c-5.5 5.5-11.9 4.8-13.5 2.7-.5-.7-.8-1.4-.9-2.2 0-.1.1-.3.2-.4.6-.7 1.5-1 2.4-.7.7.2 1.3.6 2 .8 1.6.6 3.3.8 4.9.2 1.5-.5 2.4-1.6 2.7-3.1.2-.6.1-2.5 1.2-4l1-1c-.4 0-.8 0-1.1.1-1.5.3-2.4 1.3-2.9 2.7-.2.6-.7 3.8-.8 4-.3.6-.8.8-1.5.8-.9 0-1.7-.3-2.5-.6-1.1-.4-2.1-.8-3.3-1-.7-.1-1.7-.2-2 .1.2-.4.4-.8.7-1.2 2.4-3.7 6.5-.8 5.5.9-.3.5-.8.7-1.2.5-.4-.1-1.2-.7.1-1.3-.2-.2-.7 0-.9.3-.2.3-.1.7.2.9.5.4 1.1.4 1.6.1.8-.6 1.6-2 .3-3.3-5.2-4-7.7 3.6-7.7 3.6 0-.7.5-2.8 1.3-4.3.3-.7.7-1.4 1.2-2 2-2.7 1.8-5.4 1.5-6-.4-.9-1.1-1.1-2-.7-.6.3-1.1.7-1.4 1.3-.2.3-.2.6 0 .8.2.2.6.2.9.1.4-.1.7-.4.8-.8 0-.1 0-.4-.1-.4-.1-.1-.8 0-.8.5.1-.4.6-.5.7-.3 0 .5-.7.8-1 .7-.1 0-.1-.1-.1-.2s0-.2.1-.3c.4-.6 1-1 1.8-1 .3 0 .5.1.6.4.3 1.6-1.1 4.3-1.3 4.3 0 0-.2-.2-.2-.3-.2-1.4-1.5-2.3-2.7-2.3-1 0-1.8.4-2.4 1.2-.1.1-.1.2-.2.3h-.1c-.3-.4-.3-.9-.2-1.3h-.1c-.1.1-.1.2-.2.4-.1.4 0 .8.1 1.2v.5c0 .3-.1.6-.1.8 0 .1.1.4.2.4.2 0 .4-.1.5-.2.2-.3.2-.6.1-.9-.1-.3 0-.4.1-.6.5-.6 1.1-1 1.9-1.1 2.6.3 2 3.1 1.8 3.4-.8.8-3.7 5.3-2 10.4-2.5-1.6-1.8-7.1-3.4-8.7.3.2.4.3.7.2l-.5-.2c-.1-.1-.4-.4-.4-.5-.3-.5-.7-1-1.3-1.1-.1 0-.3-.1-.4-.1-.2 0-.5.2-.7.4 0 .1-.1.3-.1.5.1.2.2.4.4.6.5.3 1 .3 1.6.2.3 0 .4.1.5.4.3 1 .3 1.9.4 2.9.3 4.1.8 5.9 2.9 8.1.5.4.9.7 1.4 1 .3.2.6.3.9.4 1.2.4 2.4.6 3.8.6 4.9-.1 9.2-3.2 11-7.6zm-22.3-6.4c-.1-.1-.3-.3-.3-.4 0-.2.2-.3.4-.4.4-.1.7.1 1 .4.2.2.3.4.5.6-.6 0-1.2 0-1.6-.2z"/>
</symbol>
<symbol id="s_challenge_flashlight-fish" viewBox="-22.4 21.5 28 28"><circle cx="-8.4" cy="35.5" r="13.5"/><path fill="currentColor" d="M-13.2 32.7l1.9-1c.5-.2 1.3-.7 1.8-.7.8-.1 2.1 1.4 2.4 2.1 0 .2 0 .4.2.5.2.1.6-.1.8-.1.5-.1 1.2-.2 1.6-.5 1.2-.6 2.1-1.7 3.1-2.4.4-.3 1.2-1 1.8-.8.5.1.3.6.2 1.1-.3 1.4-1 1.9-2 2.8 1.1 0 1.8-.1 2.8.5.6.4 1.4.7 2 1.2-1.3 1.1-3.2 1-4.8 1-1.8 0-3.5-.1-5.3.4.6 0 .5.5.7 1 .3.5.6.7-.1 1.2-.8.4-1.8.5-2.7.8-.7.3-1.4.7-2.2 1-1.6.4-3.6.3-5.2 0-.6-.3-1.4-.6-1.8-1.2-.2-.1-.5-.5-.5-.7 0-.4 0-.3.3-.6-.4.2-.5-.1-.5-.5.3-2.9 3.3-3.9 5.5-5.1zm-4.5 5.3c-.1 1.4 2.8.7 2.7-.4.1-1.8-2.7-.6-2.7.4z"/>
</symbol>
<symbol id="s_challenge_hagfish" viewBox="-22.4 21.5 28 28"><circle cx="-8.4" cy="35.5" r="13.5"/><path fill="currentColor" d="M-12.5 35.1c2.2-.7 7.7-1.2 8.9-2.3.4-.2.8-.5 1.1-.8.7-1-.7-3-.8-3.1-.5-.4-.9-.8-1.2-1.4.6.3.9.9 1.5 1.1-.1-.4-.1-.3-.5-.6.4.1.5-.2.5-.6h.4c.1-.1.2-.3.3-.5 0 .1.1.1.2.1v-.1c-.1-.4-.3-.8-.5-1.2.2.4.5.9.8 1.2.1-.1.1-.2.1-.3.4.6.8 1.2 1.4 1.7 1.9 4.3.6 7.1-3.9 8.7-1.9.4-7.3 1.1-7.8 3.6-.6 3 8.4 5 8.5-1.3 0-1.9 6.1.5 1.6 5.4-.8.9-2.5 1.5-3.9 1.7-5.5.8-13.6-.9-11.6-6.7.8-2.6 3.3-3.9 4.9-4.6z"/>
</symbol>
<symbol id="s_challenge_humboldt-squid" viewBox="-20 12 28 28"><circle cx="-6" cy="26" r="13.5"/><path fill="currentColor" d="M-13.5 28.1c.8-.8 1.6-1.3 2.7-1.7 1.1-.3 1.4-1.1 1.6-2.2 0-.2.3-1.2.1-1.4-.2-.2-1.3 0-1.6.1-1 .2-1.7.9-2.1 1.8-.4 1-.5 2-1.2 2.9-2.7 3.4-.3 5.8.9 6.4-2.8-2.8-1.1-5.1-.4-5.9zM2 27.6c-.7-.9-.8-1.8-1.2-2.9-.4-.9-1.1-1.5-2.1-1.8-.3-.1-1.4-.3-1.6-.1-.2.2.1 1.2.1 1.4.2 1.1.5 1.8 1.6 2.2 1.1.3 1.9.8 2.7 1.7.7.8 2.4 3-.3 5.9 1.2-.6 3.6-3 .8-6.4z"/><path fill="currentColor" d="M-.4 30.8c1.2 2.3-1.8 3.7-2.6 1.7 1.6.9 2.2-.8 2.1-.7-1.3 1.3-2.3-.9-2.4-1.8-.1-1.1-1-1.9-.9-3 0-1.7.2-4.2.7-4.6.5-.5 1.1-.9 1.6-1.5s.9-.7.5-1.4c-.3-.6-4.2-4.8-4.6-4.8s-4.3 4.3-4.6 4.8c-.3.7 0 .8.5 1.4.5.5 1.1 1 1.6 1.5s.7 2.9.7 4.6c0 1.1-.8 2-.9 3-.1.9-1.1 3.1-2.4 1.8-.1-.1.5 1.6 2.1.7-.9 2-3.9.6-2.6-1.7-1.9 1.3.1 5.8 3.9 3.1-1 1.1-2.1 1.9-3.9 1.1 1.5 1.9 4.7.4 5-.4-.3 1-.6 1.6-1.7 2.3C-6.8 36.7-6 36-6 36h.1c.7 0 .7.7 2.2.9-1.1-.7-1.4-1.3-1.7-2.3.3.8 3.5 2.4 5 .4-1.8.8-2.9 0-3.9-1.1 3.8 2.7 5.9-1.9 3.9-3.1z"/>
</symbol>
<symbol id="s_challenge_nautilus" viewBox="-22.4 21.5 28 28"><circle cx="-8.4" cy="35.5" r="13.5"/><path fill="currentColor" d="M-12 35c-1.5.7-1.9 4.6-2.3 6.1-.2.6-.3 1.2-.5 1.8-.2.5-.5.9-.9 1.2 1 .6 2.5.3 3.6.3 2.6-.1 5.1-.9 7.1-2.6 2.1-1.7 3.8-3.8 4.4-6.5.4-2.8.5-4.9-1.4-7.7-1.3-2.1-4.6-3-6.8-2.1-2.1.9-2.6 1.8-2.9 2.4-.6 1.8-1.1 3.4.2 5.1.7.9 3 2.1 5 .2-1.2 1.4-1.5 1.6-2.6 1.8-.7.2-2.4-.2-2.9 0z"/>
</symbol>
<symbol id="s_challenge_orange-roughy" viewBox="-22.4 21.5 28 28"><circle cx="-8.4" cy="35.5" r="13.5"/><path fill="currentColor" d="M-11 30.2h1.1c-.3.2-.6.5-.9.8.5-.3.9-.6 1.5-.7h.1c.4.1.9.2 1.2.4-.3.1-.7.2-1 .4.5-.1 1-.1 1.4-.2h.1c.6.3 1.3 1.1 1.6 1.7 0 .1.1.2 0 .3v.1s0 .1-.1.1h-.3c-.1 0-.2.1-.3.1l.9.6c.6.2 1.7.2 2.3-.1 1.2-.5 3-3.1 4.6-2.5.3.1.6.2.9.4l.1.1c-.1.3-.1.3-.2.3-.3 0-1-.1-1.4 0 .3 0 .6.1.9.1-.1 0-.2.1-.3.1-.4.2-.9.3-1.4.4.3 0 .7-.1 1 0-.6.9-1.5 1.4-2.4 1.9 1.1.3 1.8.1 2.8.9-.2.1-.4.2-.7.3.3.2.5.3.8.2.1 0 .2-.1.4-.1h.1c.1 0 .2.1.4.1-.2.2-.4.4-.6.5.6-.2 1-.5 1.6-.4v.1c-.2.4-.8.9-1.2 1-1.7.6-3.5-.5-4.9-1.2-.4-.2-.7-.3-1.2-.3-.3 0-.9.3-1.2.6h.2c.3 0 .6.2.8.4.1.1.1.1.1.2 0 .3 0 .5-.1.8-.1.1-.1.2-.2.3-.4 0-.8-.1-1.2 0 .3.1.7.2 1 .3 0 .1-.1.1-.1.1 0 .1-.1.1-.1.1-.5-.1-1-.2-1.4-.2.4.2.8.4 1.3.5-.1.1-.2.1-.3.2h-.2c-.4-.1-1.4-.5-1.8-.6.3.2.6.4.9.5-.5 0-1-.2-1.5-.4H-8c-1.8.7-3.2.9-5.2.8.2.3.4.6.7.8h-.1l-.4-.1c-.3-.2-.6-.5-.9-.7 0 .6.7 1.7 1.1 2.1v.1c0 .1-.1.2 0 .4-.6-.2-.9-1-1.2-1.5 0 .4.4 1 .7 1.4-.1.1-.2.4-.3.5l-.3-.3c-.7-.9-.5-1.9-.8-2.9 0-.1 0-.1-.1-.1s-1.3-.4-1.7-.6c-.3-.1-.6-.3-.8-.6-.4-.4-.6-.9-.8-1.4 0 0 0-.1-.1-.1 0 0-.1 0-.1-.1-.1-.1 0-.2.2-.3.5.1.8.6 1.3.8-.4-.4-.7-.8-1.1-1.2-.1-.1 0-.1 0-.2 0-.2.1-.5.2-.7.2-.3.4-.6.6-.8.1-.1.1-.3.2-.4.1-.6 2.5-.8 2.9-1.1.5-.5 1.3-1.2 1.9-1.4l-.3.6v.1c.4-.5.9-1 1.4-1.3.4 0 0 0 0 0zm-5.9 6.4z"/>
</symbol>
<symbol id="s_challenge_vomiting-shrimp" viewBox="-22.4 21.5 28 28"><circle cx="-8.4" cy="35.5" r="13.5"/><path fill="currentColor" d="M-1.4 37.2c-.1 0-.4-.2-.4-.1-.5.2-.9.4-1.3.8.4-.7.8-1.3 1.4-1.8 0-.1-.1-.3-.1-.4-.8.4-1.4 1-2 1.7-.1-.7 1.1-2.2 1.7-2.6.1 0 0-.2-.1-.2h-.1c-1.2 1-1.7 2-2.4 3.3.2-1.8.9-2.9 1.8-4.3 0 0-.1-.1-.1-.2-.9.6-1.7 1.8-2 2.8-.1-1.2.5-2.1.9-3.2h-.2c-.7.8-1 2.1-1.1 3.1-.3-1.1-.1-2.2 0-3.2-.2.1-.6.4-.6.4-.1 1.6-.5 3.3-1.9 4.4-.1.1-.2.2-.1.3 0 .5.1 1.1.3 1.6-.3-.6-.5-1.4-.6-2 0-.1 0-.2.1-.3.8-.7 2-2.6 1.7-3.8 0 0-.1.3-.3.2-.6 2.3-2.1 3.4-2.3 3.4 0 0 .5 2.2.4 2.4-.6-.8-1-1.8-1-2.9 0-.1 0-.1.1-.1.8-.4 1.8-1.2 2-2-.9.7-1.5 1.2-2.5 1.7-.2.1-.4.3-.5.6-.1.3-.2.6-.2.9 0 .9.1 1.4.4 2.2-.2-.2-.3-.5-.4-.7-.4-1.1-.4-2.7.6-3.5-.5.2-1 .4-1.4.7l-.1.1c-.5.8-.2 2.1 0 3-.3-.5-.5-1.1-.6-1.7-.1-.5.1-1.3.2-1.8h.1c.2-.1.3-.2.5-.3h-.1c-.2-.4-3.3.7-4.4 1.9 1.5-1.8 3.3-2.5 4-2.6-3.5.2-4.5 1.8-4.5 1.8.4-.9.7-1 1.2-1.4.4-.3 1.1-.5 1.6-.6-2.4-.4-5.9.2-7.6 2.1 0 0 0 .1-.1 0v-.1c1.2-1.8 4.1-2.4 6-2.9-1.5 0-3.3.5-4.6-.6v-.1c4.2 1.5 8.7-2.6 12.8-3.5 2-.4 3.8-2.8 6.1-.8 5.8 5.1.3 8.6-1.4 13.4 0 .1 0 .1-.1.1 0 0-.2.1-.3-.3-.1.1-.2.3-.4.3-.1 0-.6.2-.7-.5 0-.1 0-.3.1-.4-.3.1-.5.5-.9.3-.3-.2-.2-.7-.1-.9.3-1.1 1.4-2.2 2.3-2.8.3-.2.5-.3.8-.4.3-.2.3-.3.4-.5z"/>
</symbol>
<symbol id="s_creature_dragonfish1" viewBox="0 0 809 254"><path d="M743 17.9c-.9 0-1.8.8-2.5-.2s-.6-2.2 0-3.3c.1-.2.2-.4.3-.7-1.4 0-2.7-.1-3-1.8-.1-.4.2-1.1.5-1.3 4.3-2.5 8.7-4.9 13.1-7.3 1.8-1 3.7-1.8 5.5-2.7h.3c.5.5.9 1.2 1.5 1.5 1.3.7 2.8 1.3 4.2 1.9-.1.4-.2.9-.3 1.5.9 0 1.6.1 2.4.1-.9 2.7-.2 4.5 2 5.9-.2 1.1-.6 2.1-.4 3 .3 1.1 1.6 1.3 2.7 1.4h2.4c-1.3 1.5-2.3 3-1.6 5.1.4 1.3 1 2.4 3 2.6-.9.8-1.5 1.3-2.1 1.9-.5.6-1 1.3-1.2 2-.6 1.5-.2 2.2 1.4 2.5.8.2 1.6.2 2.7.3-.7.6-1.2 1.2-1.8 1.7-2.7 2.3-4.2 5.2-4.4 8.8-.1.8-.4 1.1-1.1 1.4-3.1 1.5-6.3 3-9.3 4.7-2.6 1.5-3.5 1.5-5.1 0-1.7-1.6-1.9-3.6-.5-5.7-.4-.4-1.1-.7-1.2-1.1-.2-.6-.1-1.4.2-1.9.6-1 1.4-1.9 2.1-2.8.3-.3.6-.7.9-1-.1-.1-.1-.2-.2-.3-.7.3-1.5.5-2.2.8-1.8.6-3.6.2-5.1-.8-1.2-.8-1.4-3.1-.4-4.6.3-.5.6-.9 1-1.4-1.4-.1-1.7-1.1-1.5-2.2.2-1 .7-1.8 1.1-2.8-.2 0-.3 0-.5.1-2.1.8-3.4-.3-3.1-2.5.1-.9.5-1.8.7-2.6v-.3c-.4 0-.5.1-.5.1zm10.7 16.2s0-.1 0 0c-.1-.1-.1 0-.1 0s0 .1.1 0c-.1.1 0 0 0 0zM628.2 134c-3.6-.6-7.2-1-10.8-.8-.9.1-1.9.1-2.8.3-1.9.4-2.4 1.8-1.3 3.5.4.5.8 1 1.3 1.7-1.9-.5-3.6-1.2-5.3-1.3-2.8-.3-5.7-.2-8.6-.2-1.2 0-1.4.8-1.4 1.9 0 1.8 1 3 2.2 4.2-4.8-.8-9.6-1.7-14.3-2.4-1.5-.2-3.1-.2-4.6-.3-1.5 0-3 1.2-3.5 3-.4-.2-.7-.3-1.1-.4-3.9-1.9-7.7-4-11.2-6.5-3.9-2.8-8.2-5.2-12.3-7.8-.1-.1-.2-.2-.3-.6 4.1 1 8.1 1.9 12.4 3-.8-1.2-1.6-2.4-2.4-3.5.1-.2.2-.3.4-.5 1.3.5 2.5 1 3.8 1.4 3.3 1.1 6.6 2.2 9.9 3.2 1.2.4 1.5 0 1.2-1.3-.4-2.3-.2-3 2.2-3.5 2-.4 4-.3 6.1-.4 1.1 0 2.2.2 3.3.3 2.6.3 5.2.7 7.8 1.1.6.1 1.2.2 2 0-.4-.3-.9-.6-1.1-1-.4-.7-.8-1.6-.7-2.3.1-.5 1.1-1.1 1.7-1.1 1-.1 2.1.1 3.1.2 3.8.5 7.6 1 11.7 1.5-1-.8-1.8-1.3-2.4-2-1.8-2-1.1-4.2 1.5-4.8 1.1-.3 2.3-.3 3.5-.4.5-.1 1.1 0 1.1-.9 0-.3.5-.6.8-.8 3.3-1.6 6.8-1.5 10.3-1.2.9.1 1.8.1 2.7.2v-.3c-.3-.6-.6-1.1-.9-1.7.6-.3 1.1-.7 1.8-.8 4.9-.9 9.9-.7 14.8-.4 2 .2 4 .3 6.1.5-.8-2.6.1-4 2.6-4.3.4-.1.8-.4 1.2-.5 1.2-.4 2.3-.9 3.5-1 2.6-.3 5.3-.3 8-.5.1-2.3 2-2.9 3.9-3.3 2.9-.5 5.7-.7 8.7-1.1 1-2 2.1-4.3 4.7-5 2.3-.6 4.8-.7 7.4-1-.1.2 0 .1 0 .1-.6-2.7.5-4 3.9-4.3 1.9-.2 3.7-.3 5.6-.3h10.5l-1.6.8c-.8.4-1.8.8-1.6 2 0 .1-.1.3-.3.4-1.9 1.8-1.9 1.8-2 4.2-1.4.2-2.9.3-4.2.7-1.3.4-2.6 1-3.8 1.7-1 .6-1.8 1.5-1.4 2.8-2.6.2-5.1.3-7.5.7-1.1.2-2.2 1-3.1 1.8-.9.8-1.5 1.8-.6 3.1-2.6.2-5.1.4-7.5.5-2.5.1-4.4 1.5-6.2 2.9-.4.3-.6.9-1 1.5-3.5-1.1-7.1-.6-10.8-.3-.5 0-1.3.5-1.5.9-.3.8.3 1.4 1.1 1.7 1.2.4 2.4.9 3.5 1.4H658c-3.8 0-7.6.4-11.2 2-.7.3-1.4.8-2 1.4-1 1-1.1 1.7-.3 3l.4.8h-2.7c-2.9 0-3.4.8-2.5 3.5-2.5-.1-5-.4-7.4-.2-2.2.2-4.5.1-6.4 1.7-.4.3-.8.9-.7 1.3.1.4.7.8 1.1 1 .3.5 1.1.8 1.9 1.1zM616.1 33.9c-3 .3-6 .6-8.9.8-2.4.2-4.5-.6-6.5-1.8-.4-.3-.6-1-1-1.7-1.3 0-3.1.1-4.8 0-1.5-.1-2.9-.6-4.4-1-1.1-.3-1.7-1.1-1-2.5-3.1.7-6 .9-9-.5 7.6-2.6 15.1-4.5 22.9-5.7-.6.5-1.2.9-1.6 1.4-.7.7-.4 1.7.5 1.9 1.6.2 3.2.4 4.8.2 2.7-.3 5.4-.8 8.2-1.2.3 0 .5-.1.9-.2.7 1.7 2.3 1.5 3.7 1.7 1 .2 1.9.2 2.9.6-.6.3-1.2.6-1.9.9 5.7.5 11.3.4 17-1.2-.5.6-.8 1.1-1.1 1.5.5.3 1 1 1.5 1 3.1.2 6.1.3 9.2.3.9 0 1.8-.2 2.8-.4-1.3 1.4-1 2.8.6 3.5.7.3 1.6.4 2.4.6.5.1 1 .3 1.5.4 1.4.4 2.9.9 4.3 1.2 1.3.3 2.5.4 3.8.6.2 0 .5.1.7.3 2 2 4.6 2.7 7.3 2.6 2.7 0 5.4-.5 8-.8.5-.1 1-.1 1.5 0-3.2 1.6-6.5 3.2-9.7 4.8.7 1.8 2 .3 3.2 1.1-1.3.4-2.3 1-3.5 1.2-4.2.7-8.4 1.4-12.6 1.8-4.7.4-9.4.6-14.1.8-1.8.1-2.5-.9-2-2.6-.7-.2-1.5-.4-2.2-.7.2-.7.5-1.3.7-2-1.1-.6-3.2.3-3.8-1.9-1.1-.1-2.3-.1-3.4-.4-2-.5-2.2-1.1-.7-2.6l.6-.6h-1.1c-4.4.7-8.8.5-13.2-.1-.9-.1-2 0-2.5-1.3.1 0 .2 0 .2-.1-.1.1-.1.1-.2.1zm156.3 18.5c-.2.3-.4.5-.6.8.6.9.6.9 2.7.7 0 .1-.1.2-.1.3 1 .4 2 .9 3.2 1.4-.4 1.1.6 1.6 1.5 1.8 1.2.3 2.5.3 3.6.4.1 1-.3 2.5.3 3.2 1.1 1.4 2.5 2.7 4.1 3.3 2.1.9 4.4 1.6 6.8.9 0 .1.1.2.1.3-1.4 1.7-1.3 2 .7 3.1 2.3 1.3 4.6.5 7 .4.6 0 1.2-.1 1.9.1-.5.4-1.1.8-1.6 1.2-.8.6-1.3 1.5-.9 2.5.4 1.1 1.6 1.8 2.7 1.6.9-.1 1.9-.4 2.8-.6-.4.7-.7 1.3-1.1 2.2h3.2c-1.2 1.2-1.9 2.6-1.7 4 .1 1.4.8 2.7 1.2 4.2-1.2.2-2.6.6-4.1.8-3.9.7-7.7 1.5-11.6 2.1-2.7.5-5.4.8-8.1 1.1l-8.7.9c-.3 0-.8-.3-.9-.6-.7-3.1.1-5.3 2.6-7.6.3-.3.6-.5.9-.7-1.1-.4-2.2-.7-3.1-1.3-1.6-.9-1.7-1.8-.8-3.3.4-.6 1-1.1 1.3-1.5-1.6-.6-3.3-1.2-4.9-1.8-.2-.1-.4-.3-.6-.4-1.7-1.3-1.7-2.2-.2-3.6-4.6-2-5.3-3.1-3.4-6.2-2.2.8-4 .1-5.8-1-1.5-.9-1.5-1.3-.2-2.5l.4-.4c-1.8-.4-4 .6-5-2 1.9-.5 3.7-1 5.4-1.4 3.5-.9 6.9-1.8 10.4-2.7.2-.1.5 0 .7-.1-.2.3-.2.3-.1.4zm-260.7 84.2c-2.4-2.6-4.9-5.1-7.3-7.7-2-2.3-3.9-4.7-5.8-7l-1.5-2.1c2.4.5 2.8.1 2.3-2.4v-.3c.2.1.5.2.6.4 2.1 2.2 4.9 2.6 7.7 3.1.5.1 1.1.2 1.5.5 2.5 1.7 5.2 2.6 8.2 2.5.4 0 1 .2 1.3.5 2.4 2.6 4.6 5.3 7 7.9.7.8 1.5 1.5 2.3 2.3 2 2.2 4 4.3 6 6.5.3.3.4.9.3 1.2-.1.3-.7.5-1 .5-1.6.2-3.1-.2-4.4-1.2-1.7-1.3-3.5-2.2-5.9-2 .3.6.6 1.1.9 1.6l-.1.1c-2.3-1.7-4.7-3.5-7-5.2l-.4.4c.7 1.1 1.4 2.1 2.1 3.2l-.2.2c-2.5-2.1-5.1-4.1-7.6-6.2-.1.1-.2.1-.3.2.4.6.8 1.2 1.1 1.8l.6 1.2h-.4zm4.1-.8c0 .1.1.1.1.2l.1-.1c0-.1-.1-.1-.2-.1 0-.1-.1-.1-.2-.1.1 0 .2 0 .2.1zM277.6 253.7c-2.2-.3-4.6-.5-6.9-1-1.1-.3-2.3-1-3.1-1.9-1.4-1.4-1.2-3.1.5-4 1.8-1 3.8-1.7 5.8-2.2 5.4-1.2 10.9-1.4 16.2.6 1 .4 2 .9 2.7 1.7 1.5 1.8 1.2 3.2-.9 4.2-1.5.7-3.2 1.2-4.9 1.5-3 .6-6.1.8-9.4 1.1zm-130.8-84.6c-.4 1.2-1.4 1.4-2.4 1.4-1.7-.1-3.4-.5-5.1-.8-.3-.1-.7-.1-1-.2-.3 2.1-3 3-4.9 1.5-2.8-2.2-5.5-4.6-8.3-6.9-.1-.1-.2-.2-.2-.3 1-.3 2-.7 3-1 .2-.1.5.2.8.3 2 .3 4 1 6 .8 1.4-.1 2.7 0 4.1.1 1.1.1 2.2.1 3.2-.7.2-.2.7-.2 1-.1 4.9 2.1 9.8 4.3 14.6 6.5-1.8 1-5 .9-10.8-.6zm-142.2-29c-.6-.2-1.8-.5-2.9-.9-1.1-.5-1.6-1.9-1.1-3.2.5-1.3 1.2-2.5 2.6-3 2.1-.8 4.2-1.4 6.4-.9 1.5.4 2.4 1.3 2.7 2.8.3 1.4-.1 2.6-1.3 3.5-1.7 1.2-3.7 1.5-6.4 1.7zm468-29.3c0 1.4-1 2.4-2.3 2.4-1.6 0-2.7-1-2.8-2.6 0-1.8 1.1-2.8 2.9-2.8 1.1.1 2.1 1.5 2.2 3zm50.2-.4c0 1.4-1 2.4-2.4 2.3-1.6 0-2.7-1.1-2.7-2.6 0-1.8 1.1-2.8 3-2.7 1.1 0 2.1 1.5 2.1 3zm-60.8-.3c0 1.4-1 2.3-2.4 2.3-1.6 0-2.7-1.1-2.7-2.6 0-1.8 1.2-2.8 3-2.7 1.2.1 2.2 1.5 2.1 3zm-210.3 0c0 1.4-1 2.4-2.3 2.4-1.6 0-2.7-1-2.8-2.6 0-1.8 1-2.8 2.9-2.8 1.1 0 2.1 1.4 2.2 3zm8-.5c0 1.3-1 2.3-2.4 2.3-1.6 0-2.7-1.1-2.7-2.6 0-1.7 1-2.7 2.9-2.7 1.1 0 2.2 1.4 2.2 3zm275.6-.3c0 1.4-1 2.4-2.3 2.4-1.6 0-2.7-1-2.8-2.5 0-1.8 1-2.8 2.9-2.8 1.2 0 2.2 1.4 2.2 2.9zm-82.3 0c0 1.4-1 2.4-2.3 2.4-1.6 0-2.7-1-2.8-2.6 0-1.8 1.1-2.8 2.9-2.8 1.2.1 2.2 1.5 2.2 3zm-185.3-.4c0 1.3-1 2.3-2.4 2.3-1.6 0-2.7-1.1-2.7-2.6 0-1.7 1-2.7 2.9-2.7 1.1 0 2.2 1.4 2.2 3zm9.2-.3c0 1.4-1 2.4-2.3 2.4-1.6 0-2.7-1-2.8-2.6 0-1.8 1.1-2.8 2.9-2.8 1.2 0 2.2 1.4 2.2 3zm268.2-.3c0 1.4-1 2.4-2.3 2.4-1.6 0-2.7-1-2.8-2.6 0-1.8 1.1-2.8 3-2.8 1.1.1 2.1 1.5 2.1 3zm-259.7 0c0 1.4-1 2.4-2.3 2.4-1.6 0-2.7-1-2.8-2.5 0-1.8 1-2.8 2.9-2.8 1.2 0 2.2 1.4 2.2 2.9zm158.9-.2c0 1.4-1 2.3-2.4 2.3-1.6 0-2.7-1.1-2.7-2.6 0-1.8 1.2-2.8 3-2.7 1.1.1 2.1 1.5 2.1 3zm-150.6-.5c0 1.3-1 2.3-2.4 2.3-1.6 0-2.7-1.1-2.7-2.6 0-1.7 1-2.7 2.9-2.7 1.1 0 2.2 1.5 2.2 3zm8-.2c0 1.3-1 2.3-2.4 2.3-1.6 0-2.7-1.1-2.7-2.6 0-1.7 1-2.7 2.9-2.7 1.1 0 2.2 1.4 2.2 3zm133.8-.3c0 1.4-1 2.4-2.4 2.4-1.6 0-2.7-1.1-2.7-2.6 0-1.8 1.1-2.8 3-2.7 1.1 0 2.1 1.4 2.1 2.9zm-97 0c0 1.3-1 2.3-2.4 2.3-1.6 0-2.7-1.1-2.7-2.6 0-1.7 1-2.7 2.9-2.7 1.1 0 2.2 1.5 2.2 3zm173.8 3.7c0 1.4-1 2.4-2.3 2.4-1.6 0-2.7-1-2.8-2.6 0-1.8 1.1-2.8 3-2.8 1.1.1 2.1 1.5 2.1 3zm-268.4.2c0 1.4-1 2.4-2.3 2.4-1.6 0-2.7-1-2.8-2.5-.1-1.8 1-2.8 2.9-2.8 1.1 0 2.2 1.4 2.2 2.9zm238.9.6c0 1.3-1 2.3-2.4 2.3-1.6 0-2.7-1.1-2.7-2.6 0-1.8 1.2-2.8 3-2.7 1.1.1 2.1 1.5 2.1 3zm-245.9.5c0 1.3-1 2.3-2.4 2.3-1.6 0-2.7-1.1-2.7-2.6 0-1.7 1-2.7 2.9-2.7 1.1 0 2.2 1.4 2.2 3zm-7.3.8c0 1.3-1 2.3-2.4 2.3-1.6 0-2.7-1.1-2.7-2.6 0-1.7 1-2.7 2.9-2.7 1.2 0 2.3 1.4 2.2 3zm-7 .9c0 1.4-1 2.4-2.3 2.4-1.6 0-2.7-1-2.8-2.5-.1-1.8 1-2.8 2.9-2.8 1.2 0 2.2 1.4 2.2 2.9zm-6.5 1.5c0 1.4-1 2.4-2.3 2.4-1.6 0-2.7-1-2.8-2.6 0-1.8 1.1-2.8 2.9-2.8 1.2.1 2.2 1.5 2.2 3zm-9.3 3.7c-1.6 0-2.7-1-2.7-2.6 0-1.8 1.1-2.8 3-2.7 1.1 0 2.1 1.5 2.1 3-.1 1.2-1.1 2.3-2.4 2.3zm-4.4-1.4c0 1.3-1 2.3-2.4 2.3-1.6 0-2.7-1.1-2.7-2.6 0-1.7 1-2.7 2.9-2.7 1.1 0 2.2 1.5 2.2 3zm-8 1.2c0 1.4-1 2.4-2.3 2.4-1.6 0-2.7-1-2.8-2.6 0-1.8 1.1-2.8 2.9-2.8 1.1.1 2.2 1.5 2.2 3zm-57.6 21.5c0 1.4-1 2.4-2.3 2.4-1.6 0-2.7-1-2.8-2.6 0-1.8 1.1-2.8 2.9-2.8 1.2.1 2.2 1.5 2.2 3zm48.6-19.2c0 1.4-1 2.4-2.3 2.4-1.6 0-2.7-1-2.8-2.5 0-1.8 1-2.8 2.9-2.8 1.1-.1 2.1 1.3 2.2 2.9zm-41.9 16.4c-1.6 0-2.7-1-2.7-2.6 0-1.8 1.1-2.8 3-2.7 1.1 0 2.1 1.5 2.1 3-.1 1.3-1.1 2.3-2.4 2.3zm33.4-14.4c0 1.4-1 2.4-2.3 2.4-1.6 0-2.7-1-2.8-2.6 0-1.8 1-2.8 2.9-2.8 1.1 0 2.1 1.4 2.2 3zm-9.8 2.7c0 1.4-1 2.4-2.3 2.4-1.6 0-2.8-1-2.8-2.5 0-2.2.8-2.5 2.9-2.8 1.1-.1 2.2 1.3 2.2 2.9zm-10.3 3.8c0 1.4-1 2.3-2.4 2.3-1.6 0-2.7-1.1-2.7-2.6 0-1.8 1.2-2.8 3-2.7 1.1.1 2.2 1.5 2.1 3zm533.8-41.2c-1.6 0-2.7-1.1-2.7-2.6 0-1.8 1.1-2.8 3-2.7 1.1 0 2.1 1.5 2.1 3 0 1.3-1.1 2.3-2.4 2.3zm14.1-2.3c0 1.4-1 2.4-2.3 2.4-1.6 0-2.7-1-2.7-2.6 0-1.8 1.1-2.8 3-2.7 1-.1 2 1.4 2 2.9zm-24 1c0 1.3-1 2.3-2.4 2.3-1.6 0-2.7-1.1-2.7-2.6 0-1.8 1.2-2.8 3-2.7 1.1.1 2.1 1.5 2.1 3zm-14.9 2.8c-1.6 0-2.7-1.1-2.7-2.6 0-1.7 1-2.7 2.9-2.7 1.2 0 2.2 1.4 2.2 3 0 1.4-1.1 2.4-2.4 2.3zm-10.1-1c0 1.3-1 2.3-2.4 2.3-1.6 0-2.7-1.1-2.7-2.6 0-1.7 1-2.7 2.9-2.7 1.1-.1 2.2 1.4 2.2 3zm-12.3.9c0 1.4-1 2.4-2.3 2.4-1.6 0-2.7-1-2.8-2.6 0-1.8 1.1-2.8 2.9-2.8 1.2.1 2.2 1.5 2.2 3zm-10 1.3c0 1.4-1 2.4-2.3 2.4-1.6 0-2.7-1-2.8-2.6 0-1.8 1.1-2.8 2.9-2.8 1.2 0 2.2 1.5 2.2 3zm-8 1.5c0 1.4-1 2.4-2.3 2.4-1.6 0-2.7-1-2.8-2.6 0-1.8 1.1-2.8 2.9-2.8 1.2 0 2.2 1.4 2.2 3zm-8.2 1.5c0 1.4-1 2.4-2.3 2.4-1.6 0-2.7-1-2.8-2.6 0-1.8 1.1-2.8 2.9-2.8 1.1 0 2.1 1.4 2.2 3zm-8.6 1.9c0 1.4-1 2.4-2.3 2.4-1.6 0-2.7-1-2.8-2.5 0-1.8 1-2.8 2.9-2.8 1.2 0 2.2 1.4 2.2 2.9zm-8.2 1.6c0 1.3-1 2.3-2.4 2.3-1.6 0-2.7-1.1-2.7-2.6 0-1.7 1-2.7 2.9-2.7 1.2 0 2.2 1.4 2.2 3zm-8.3 1.8c0 1.3-1 2.3-2.4 2.3-1.6 0-2.7-1.1-2.7-2.6 0-1.7 1-2.7 2.9-2.7 1.2-.1 2.3 1.4 2.2 3zm-9.5 2.7c0 1.3-1 2.3-2.4 2.3-1.6 0-2.7-1.1-2.7-2.6 0-1.8 1.2-2.8 3-2.7 1.1.1 2.1 1.5 2.1 3zm-8.7 1.7c0 1.4-1 2.4-2.3 2.4-1.6 0-2.7-1-2.8-2.6 0-1.8 1-2.8 2.9-2.8 1.1.1 2.2 1.5 2.2 3zM329.2 107c0 1.4-1 2.4-2.3 2.4-1.6 0-2.8-1-2.8-2.5 0-2.2.8-2.5 2.9-2.8 1.1-.1 2.2 1.4 2.2 2.9zm-11.9 2.4c-1.6 0-2.7-1.1-2.7-2.6 0-1.7 1-2.7 2.9-2.7 1.2 0 2.2 1.4 2.2 3 0 1.4-1 2.4-2.4 2.3zm-6.9-2.3c0 1.4-1 2.4-2.3 2.4-1.6 0-2.7-1-2.8-2.6 0-1.8 1.1-2.8 3-2.8 1.1 0 2.1 1.5 2.1 3zm244.7-.5c0 1.3-1.1 2.3-2.4 2.3-1.6 0-2.7-1.1-2.7-2.6 0-1.7 1-2.7 2.9-2.7 1.2 0 2.2 1.5 2.2 3zm-128.8 0c0 1.4-1 2.4-2.3 2.4-1.6 0-2.7-1-2.8-2.6 0-1.8 1-2.8 2.9-2.8 1.1 0 2.2 1.4 2.2 3zm-9 0c0 1.4-1 2.4-2.3 2.4-1.6 0-2.7-1-2.8-2.6 0-1.8 1-2.8 2.9-2.8 1.1 0 2.2 1.4 2.2 3zm-60.1 0c0 1.4-1 2.4-2.3 2.4-1.6 0-2.7-1-2.8-2.6 0-1.8 1.1-2.8 3-2.8 1.1 0 2.1 1.5 2.1 3zm-9.7 0c0 1.3-1 2.3-2.4 2.3-1.6 0-2.7-1.1-2.7-2.6 0-1.7 1-2.7 2.9-2.7 1.1 0 2.2 1.5 2.2 3zm60-.5c0 1.4-1 2.3-2.4 2.3-1.6 0-2.7-1.1-2.7-2.6 0-1.8 1.1-2.8 3-2.7 1.1.1 2.1 1.5 2.1 3zm-19.8 0c0 1.4-1 2.4-2.3 2.4-1.6 0-2.7-1-2.7-2.6 0-1.8 1.1-2.8 3-2.7 1-.1 2 1.4 2 2.9zm-10 0c0 1.3-1 2.3-2.4 2.3-1.6 0-2.7-1.1-2.7-2.6 0-1.8 1.2-2.8 3-2.7 1.1.1 2.2 1.5 2.1 3zm-10.5 0c0 1.4-1 2.3-2.4 2.3-1.6 0-2.7-1.1-2.7-2.6 0-1.8 1.1-2.8 3-2.7 1.1.1 2.1 1.5 2.1 3zm30.6-.2c0 1.3-1 2.3-2.4 2.3-1.6 0-2.7-1.1-2.7-2.6 0-1.7 1-2.7 2.9-2.7 1.1 0 2.2 1.4 2.2 3zm166.6-.6c0 1.4-1 2.4-2.4 2.4-1.6 0-2.7-1-2.7-2.6 0-1.8 1.1-2.8 3-2.7 1 0 2.1 1.4 2.1 2.9zM715 86c0 1.4-1 2.5-2.4 2.4-1.4 0-2.8-1.4-2.8-2.6 0-1.2 1.4-2.4 2.7-2.5 1.5 0 2.5 1.1 2.5 2.7zm7-2.2c1.3 0 2.9 1.4 2.9 2.6 0 1.1-1.3 2.3-2.6 2.3-1.4 0-2.9-1.1-2.9-2.2.1-1.4 1.4-2.7 2.6-2.7zm-595.9 62.3c0-1.3 1.3-2.6 2.5-2.6 1.4 0 2.3.9 2.3 2.3s-1.4 2.6-2.9 2.6c-1.2-.1-1.9-.8-1.9-2.3zm606.1-57.4c-1.4 0-2.7-1-2.6-2 0-1 1.6-2.5 2.5-2.4 1.1.1 2.9 1.6 2.8 2.5-.1 1-1.3 1.9-2.7 1.9zm10.6.3c-1.6-.1-2.6-.8-2.5-1.8.1-1.2 1.6-2.2 3.2-2.1 1.1.1 2.2 1 2.1 1.9 0 1.2-1.3 2.1-2.8 2zm10.2-2.2c0 1.1-1 2.1-2.3 2.2-1.3 0-2.4-.6-2.4-1.5-.1-1 1.4-2.4 2.4-2.5 1.2 0 2.3.8 2.3 1.8z"/><path d="M772.3 52.2c.2-.1.4-.2.5-.2 0 .1.1.1.1.2-.2.1-.3.1-.5.2-.1-.1-.1-.1-.1-.2zm-260.4 84.3c0 .1.1.2.1.4l-.3-.3c.1 0 .1 0 .2-.1zm-15.1-17c.1.1.2.1.3.2-.1 0-.2-.1-.3-.2zm0 0c-.1 0-.1-.1-.2-.1.1 0 .2.1.2.1zM628.2 134v.1-.1zm-26.8 9.3l.1.1-.1-.1zM771.5 16c0-.1.1-.1.1-.2 0 .1 0 .1-.1.2zM743 17.9c.1 0 .1-.1.2-.1v.3c-.1-.1-.2-.1-.2-.2zm10.7 16.2s-.1.1 0 0h-.1s0-.1.1 0c0-.1 0 0 0 0zm-137.6-.2c.1 0 .1 0 .2-.1 0 .1-.1.2-.2.1.1.1 0 .1 0 0zM515.8 135.8c-.1 0-.1-.1-.2-.1.1 0 .2 0 .2.1zm.1 0c.1 0 .1 0 .2.1l-.1.1c-.1-.1-.1-.2-.1-.2-.1 0 0 0 0 0z"/>
</symbol></svg>