<?xml version="1.0" encoding="utf-8"?>
<svg xmlns="http://www.w3.org/2000/svg">
<symbol id="s_challenge_anglerfish" viewBox="-22.4 21.5 28 28"><circle cx="-8.4" cy="35.5" r="13.5"/><path fill="currentColor" d="M-17.3 28.5h.3c.3.1.6.1.9.2 1 .3 1.6.9 2.1 1.8.1.2.2.4.3.5.3-.2.6-.4.9-.5.3-.1.7-.3 1-.3.9-.1 1.9.1 2.8.3 1.1.2 2.1.6 3 1.2.3.2.3.2.6 0 .5-.4.9-.8 1.4-1.2.1-.1.2-.1.2 0l.2.2.7.7.9.9c.1.1.3.2.4.3l.1.1c0 .4-.2.7-.5 1 0 .2-.1.3-.3.4h.1c.7.2 1.3 0 1.7-.4.7-.7 1.4-1.5 2.1-2.2h.1c.2-.1.3 0 .3.1l.3 1.2V33.7c0 .1-.1.3-.1.4-.1.6-.5 1.2-.8 1.7v.1c-.4.3-.8.6-1.3.7-.4.1-.9.2-1.3.3-.5.2-.9.5-1 1.1-.1.5-.2 1-.4 1.5-.1.3-.2.6-.4.9-1.2 1.5-3.4 2.1-3.4 2-.4.1-.7.1-1.1.1-.8 0-1.7-.1-2.5-.2-.9-.1-1.8-.4-2.6-.8-.3-.1-.6-.2-.8-.4-.3-.2-.7-.3-1-.5-.6-.3-1.2-.6-1.7-1.1l-.1-.1c-.4-.3-.7-.7-1-1.1-.2-.3-.2-.4.2-.5.1-.7.4-1.4.6-2v.2c-.2.5-.2 1.1-.2 1.7 0 .1 0 .2.1.2.1.1.3.1.4.2 0-.2.1-.4.1-.6.1-.2.1-.4.2-.6v.1c0 .4.1.8.1 1.2 0 0 0 .1.1.1.9.4 1.7.9 2.6 1.3h.1c-.7-.7-1.4-1.4-1.9-2.4l-.3.9V38v-1c0-.3.1-.7.1-1v-.9c-.5.5-.9 1-1.1 1.7v-.1c.1-1 .5-1.8 1-2.6.1-.1.1-.3.1-.4h-.1c-.8.7-1.4 1.6-1.9 2.6 0-.1.1-.3.1-.4.4-1.2.8-2.3 1.7-3.2.1-.1.2-.3.3-.4.2-.2.3-.5.5-.7v-.1c-.1-1-.9-2.2-1.9-2.3-.6-.1-1.2-.1-1.7.4-.6.6-.7 1.2-.4 1.9.1.3.2.7.2 1-.9 1.4-1.5 0-1.5-.1-.1-.3.4-.8.5-1.1 0-.1.1-.2.1-.2 0-.3 0-.6.1-.9 0-.5.3-.8.6-1.1.1-.2.5-.5 1.1-.6zm-1.5 4c0-.4-.1-.5-.4-.5-.2 0-.5.3-.5.6 0 .2.2.4.5.4.2 0 .4-.2.4-.5z"/>
</symbol>
<symbol id="s_challenge_bloop" viewBox="-20 12 28 28"><circle cx="-6" cy="26" r="13.5"/><path fill="currentColor" d="M5.1 30.7c-5.5 5.5-11.9 4.8-13.5 2.7-.5-.7-.8-1.4-.9-2.2 0-.1.1-.3.2-.4.6-.7 1.5-1 2.4-.7.7.2 1.3.6 2 .8 1.6.6 3.3.8 4.9.2 1.5-.5 2.4-1.6 2.7-3.1.2-.6.1-2.5 1.2-4l1-1c-.4 0-.8 0-1.1.1-1.5.3-2.4 1.3-2.9 2.7-.2.6-.7 3.8-.8 4-.3.6-.8.8-1.5.8-.9 0-1.7-.3-2.5-.6-1.1-.4-2.1-.8-3.3-1-.7-.1-1.7-.2-2 .1.2-.4.4-.8.7-1.2 2.4-3.7 6.5-.8 5.5.9-.3.5-.8.7-1.2.5-.4-.1-1.2-.7.1-1.3-.2-.2-.7 0-.9.3-.2.3-.1.7.2.9.5.4 1.1.4 1.6.1.8-.6 1.6-2 .3-3.3-5.2-4-7.7 3.6-7.7 3.6 0-.7.5-2.8 1.3-4.3.3-.7.7-1.4 1.2-2 2-2.7 1.8-5.4 1.5-6-.4-.9-1.1-1.1-2-.7-.6.3-1.1.7-1.4 1.3-.2.3-.2.6 0 .8.2.2.6.2.9.1.4-.1.7-.4.8-.8 0-.1 0-.4-.1-.4-.1-.1-.8 0-.8.5.1-.4.6-.5.7-.3 0 .5-.7.8-1 .7-.1 0-.1-.1-.1-.2s0-.2.1-.3c.4-.6 1-1 1.8-1 .3 0 .5.1.6.4.3 1.6-1.1 4.3-1.3 4.3 0 0-.2-.2-.2-.3-.2-1.4-1.5-2.3-2.7-2.3-1 0-1.8.4-2.4 1.2-.1.1-.1.2-.2.3h-.1c-.3-.4-.3-.9-.2-1.3h-.1c-.1.1-.1.2-.2.4-.1.4 0 .8.1 1.2v.5c0 .3-.1.6-.1.8 0 .1.1.4.2.4.2 0 .4-.1.5-.2.2-.3.2-.6.1-.9-.1-.3 0-.4.1-.6.5-.6 1.1-1 1.9-1.1 2.6.3 2 3.1 1.8 3.4-.8.8-3.7 5.3-2 10.4-2.5-1.6-1.8-7.1-3.4-8.7.3.2.4.3.7.2l-.5-.2c-.1-.1-.4-.4-.4-.5-.3-.5-.7-1-1.3-1.1-.1 0-.3-.1-.4-.1-.2 0-.5.2-.7.4 0 .1-.1.3-.1.5.1.2.2.4.4.6.5.3 1 .3 1.6.2.3 0 .4.1.5.4.3 1 .3 1.9.4 2.9.3 4.1.8 5.9 2.9 8.1.5.4.9.7 1.4 1 .3.2.6.3.9.4 1.2.4 2.4.6 3.8.6 4.9-.1 9.2-3.2 11-7.6zm-22.3-6.4c-.1-.1-.3-.3-.3-.4 0-.2.2-.3.4-.4.4-.1.7.1 1 .4.2.2.3.4.5.6-.6 0-1.2 0-1.6-.2z"/>
</symbol>
<symbol id="s_challenge_flashlight-fish" viewBox="-22.4 21.5 28 28"><circle cx="-8.4" cy="35.5" r="13.5"/><path fill="currentColor" d="M-13.2 32.7l1.9-1c.5-.2 1.3-.7 1.8-.7.8-.1 2.1 1.4 2.4 2.1 0 .2 0 .4.2.5.2.1.6-.1.8-.1.5-.1 1.2-.2 1.6-.5 1.2-.6 2.1-1.7 3.1-2.4.4-.3 1.2-1 1.8-.8.5.1.3.6.2 1.1-.3 1.4-1 1.9-2 2.8 1.1 0 1.8-.1 2.8.5.6.4 1.4.7 2 1.2-1.3 1.1-3.2 1-4.8 1-1.8 0-3.5-.1-5.3.4.6 0 .5.5.7 1 .3.5.6.7-.1 1.2-.8.4-1.8.5-2.7.8-.7.3-1.4.7-2.2 1-1.6.4-3.6.3-5.2 0-.6-.3-1.4-.6-1.8-1.2-.2-.1-.5-.5-.5-.7 0-.4 0-.3.3-.6-.4.2-.5-.1-.5-.5.3-2.9 3.3-3.9 5.5-5.1zm-4.5 5.3c-.1 1.4 2.8.7 2.7-.4.1-1.8-2.7-.6-2.7.4z"/>
</symbol>
<symbol id="s_challenge_hagfish" viewBox="-22.4 21.5 28 28"><circle cx="-8.4" cy="35.5" r="13.5"/><path fill="currentColor" d="M-12.5 35.1c2.2-.7 7.7-1.2 8.9-2.3.4-.2.8-.5 1.1-.8.7-1-.7-3-.8-3.1-.5-.4-.9-.8-1.2-1.4.6.3.9.9 1.5 1.1-.1-.4-.1-.3-.5-.6.4.1.5-.2.5-.6h.4c.1-.1.2-.3.3-.5 0 .1.1.1.2.1v-.1c-.1-.4-.3-.8-.5-1.2.2.4.5.9.8 1.2.1-.1.1-.2.1-.3.4.6.8 1.2 1.4 1.7 1.9 4.3.6 7.1-3.9 8.7-1.9.4-7.3 1.1-7.8 3.6-.6 3 8.4 5 8.5-1.3 0-1.9 6.1.5 1.6 5.4-.8.9-2.5 1.5-3.9 1.7-5.5.8-13.6-.9-11.6-6.7.8-2.6 3.3-3.9 4.9-4.6z"/>
</symbol>
<symbol id="s_challenge_humboldt-squid" viewBox="-20 12 28 28"><circle cx="-6" cy="26" r="13.5"/><path fill="currentColor" d="M-13.5 28.1c.8-.8 1.6-1.3 2.7-1.7 1.1-.3 1.4-1.1 1.6-2.2 0-.2.3-1.2.1-1.4-.2-.2-1.3 0-1.6.1-1 .2-1.7.9-2.1 1.8-.4 1-.5 2-1.2 2.9-2.7 3.4-.3 5.8.9 6.4-2.8-2.8-1.1-5.1-.4-5.9zM2 27.6c-.7-.9-.8-1.8-1.2-2.9-.4-.9-1.1-1.5-2.1-1.8-.3-.1-1.4-.3-1.6-.1-.2.2.1 1.2.1 1.4.2 1.1.5 1.8 1.6 2.2 1.1.3 1.9.8 2.7 1.7.7.8 2.4 3-.3 5.9 1.2-.6 3.6-3 .8-6.4z"/><path fill="currentColor" d="M-.4 30.8c1.2 2.3-1.8 3.7-2.6 1.7 1.6.9 2.2-.8 2.1-.7-1.3 1.3-2.3-.9-2.4-1.8-.1-1.1-1-1.9-.9-3 0-1.7.2-4.2.7-4.6.5-.5 1.1-.9 1.6-1.5s.9-.7.5-1.4c-.3-.6-4.2-4.8-4.6-4.8s-4.3 4.3-4.6 4.8c-.3.7 0 .8.5 1.4.5.5 1.1 1 1.6 1.5s.7 2.9.7 4.6c0 1.1-.8 2-.9 3-.1.9-1.1 3.1-2.4 1.8-.1-.1.5 1.6 2.1.7-.9 2-3.9.6-2.6-1.7-1.9 1.3.1 5.8 3.9 3.1-1 1.1-2.1 1.9-3.9 1.1 1.5 1.9 4.7.4 5-.4-.3 1-.6 1.6-1.7 2.3C-6.8 36.7-6 36-6 36h.1c.7 0 .7.7 2.2.9-1.1-.7-1.4-1.3-1.7-2.3.3.8 3.5 2.4 5 .4-1.8.8-2.9 0-3.9-1.1 3.8 2.7 5.9-1.9 3.9-3.1z"/>
</symbol>
<symbol id="s_challenge_nautilus" viewBox="-22.4 21.5 28 28"><circle cx="-8.4" cy="35.5" r="13.5"/><path fill="currentColor" d="M-12 35c-1.5.7-1.9 4.6-2.3 6.1-.2.6-.3 1.2-.5 1.8-.2.5-.5.9-.9 1.2 1 .6 2.5.3 3.6.3 2.6-.1 5.1-.9 7.1-2.6 2.1-1.7 3.8-3.8 4.4-6.5.4-2.8.5-4.9-1.4-7.7-1.3-2.1-4.6-3-6.8-2.1-2.1.9-2.6 1.8-2.9 2.4-.6 1.8-1.1 3.4.2 5.1.7.9 3 2.1 5 .2-1.2 1.4-1.5 1.6-2.6 1.8-.7.2-2.4-.2-2.9 0z"/>
</symbol>
<symbol id="s_challenge_orange-roughy" viewBox="-22.4 21.5 28 28"><circle cx="-8.4" cy="35.5" r="13.5"/><path fill="currentColor" d="M-11 30.2h1.1c-.3.2-.6.5-.9.8.5-.3.9-.6 1.5-.7h.1c.4.1.9.2 1.2.4-.3.1-.7.2-1 .4.5-.1 1-.1 1.4-.2h.1c.6.3 1.3 1.1 1.6 1.7 0 .1.1.2 0 .3v.1s0 .1-.1.1h-.3c-.1 0-.2.1-.3.1l.9.6c.6.2 1.7.2 2.3-.1 1.2-.5 3-3.1 4.6-2.5.3.1.6.2.9.4l.1.1c-.1.3-.1.3-.2.3-.3 0-1-.1-1.4 0 .3 0 .6.1.9.1-.1 0-.2.1-.3.1-.4.2-.9.3-1.4.4.3 0 .7-.1 1 0-.6.9-1.5 1.4-2.4 1.9 1.1.3 1.8.1 2.8.9-.2.1-.4.2-.7.3.3.2.5.3.8.2.1 0 .2-.1.4-.1h.1c.1 0 .2.1.4.1-.2.2-.4.4-.6.5.6-.2 1-.5 1.6-.4v.1c-.2.4-.8.9-1.2 1-1.7.6-3.5-.5-4.9-1.2-.4-.2-.7-.3-1.2-.3-.3 0-.9.3-1.2.6h.2c.3 0 .6.2.8.4.1.1.1.1.1.2 0 .3 0 .5-.1.8-.1.1-.1.2-.2.3-.4 0-.8-.1-1.2 0 .3.1.7.2 1 .3 0 .1-.1.1-.1.1 0 .1-.1.1-.1.1-.5-.1-1-.2-1.4-.2.4.2.8.4 1.3.5-.1.1-.2.1-.3.2h-.2c-.4-.1-1.4-.5-1.8-.6.3.2.6.4.9.5-.5 0-1-.2-1.5-.4H-8c-1.8.7-3.2.9-5.2.8.2.3.4.6.7.8h-.1l-.4-.1c-.3-.2-.6-.5-.9-.7 0 .6.7 1.7 1.1 2.1v.1c0 .1-.1.2 0 .4-.6-.2-.9-1-1.2-1.5 0 .4.4 1 .7 1.4-.1.1-.2.4-.3.5l-.3-.3c-.7-.9-.5-1.9-.8-2.9 0-.1 0-.1-.1-.1s-1.3-.4-1.7-.6c-.3-.1-.6-.3-.8-.6-.4-.4-.6-.9-.8-1.4 0 0 0-.1-.1-.1 0 0-.1 0-.1-.1-.1-.1 0-.2.2-.3.5.1.8.6 1.3.8-.4-.4-.7-.8-1.1-1.2-.1-.1 0-.1 0-.2 0-.2.1-.5.2-.7.2-.3.4-.6.6-.8.1-.1.1-.3.2-.4.1-.6 2.5-.8 2.9-1.1.5-.5 1.3-1.2 1.9-1.4l-.3.6v.1c.4-.5.9-1 1.4-1.3.4 0 0 0 0 0zm-5.9 6.4z"/>
</symbol>
<symbol id="s_challenge_vomiting-shrimp" viewBox="-22.4 21.5 28 28"><circle cx="-8.4" cy="35.5" r="13.5"/><path fill="currentColor" d="M-1.4 37.2c-.1 0-.4-.2-.4-.1-.5.2-.9.4-1.3.8.4-.7.8-1.3 1.4-1.8 0-.1-.1-.3-.1-.4-.8.4-1.4 1-2 1.7-.1-.7 1.1-2.2 1.7-2.6.1 0 0-.2-.1-.2h-.1c-1.2 1-1.7 2-2.4 3.3.2-1.8.9-2.9 1.8-4.3 0 0-.1-.1-.1-.2-.9.6-1.7 1.8-2 2.8-.1-1.2.5-2.1.9-3.2h-.2c-.7.8-1 2.1-1.1 3.1-.3-1.1-.1-2.2 0-3.2-.2.1-.6.4-.6.4-.1 1.6-.5 3.3-1.9 4.4-.1.1-.2.2-.1.3 0 .5.1 1.1.3 1.6-.3-.6-.5-1.4-.6-2 0-.1 0-.2.1-.3.8-.7 2-2.6 1.7-3.8 0 0-.1.3-.3.2-.6 2.3-2.1 3.4-2.3 3.4 0 0 .5 2.2.4 2.4-.6-.8-1-1.8-1-2.9 0-.1 0-.1.1-.1.8-.4 1.8-1.2 2-2-.9.7-1.5 1.2-2.5 1.7-.2.1-.4.3-.5.6-.1.3-.2.6-.2.9 0 .9.1 1.4.4 2.2-.2-.2-.3-.5-.4-.7-.4-1.1-.4-2.7.6-3.5-.5.2-1 .4-1.4.7l-.1.1c-.5.8-.2 2.1 0 3-.3-.5-.5-1.1-.6-1.7-.1-.5.1-1.3.2-1.8h.1c.2-.1.3-.2.5-.3h-.1c-.2-.4-3.3.7-4.4 1.9 1.5-1.8 3.3-2.5 4-2.6-3.5.2-4.5 1.8-4.5 1.8.4-.9.7-1 1.2-1.4.4-.3 1.1-.5 1.6-.6-2.4-.4-5.9.2-7.6 2.1 0 0 0 .1-.1 0v-.1c1.2-1.8 4.1-2.4 6-2.9-1.5 0-3.3.5-4.6-.6v-.1c4.2 1.5 8.7-2.6 12.8-3.5 2-.4 3.8-2.8 6.1-.8 5.8 5.1.3 8.6-1.4 13.4 0 .1 0 .1-.1.1 0 0-.2.1-.3-.3-.1.1-.2.3-.4.3-.1 0-.6.2-.7-.5 0-.1 0-.3.1-.4-.3.1-.5.5-.9.3-.3-.2-.2-.7-.1-.9.3-1.1 1.4-2.2 2.3-2.8.3-.2.5-.3.8-.4.3-.2.3-.3.4-.5z"/>
</symbol>
<symbol id="s_creature_anglerfish1" viewBox="0 0 424 784"><path d="M12.5 16.2c12.4 2.4 23.8 7.8 34.7 14.1 3.5 2 26.4 14.9 20.6 21.1.8.7 7.7 5.6 7.4 6.9-.1.7-8.8-6.8-9.9-7.4-9.4-4.9-18.9-7.6-29.5-9-5.1-.7-10.6-.1-15.1-2.8-1.5-.9-2.1-2.4-4-3.8-1.4-1.1-3.6-1.4-4.6-3.1-1.6-2.5-1.6-6.2-3.1-9-2.6-5-3.5-7 3.5-7 .8.1-1.6 0 0 0zm62.3 43.3c3.2-2 5 6 2.5 4.6-2.2-1.4-1.5-2.5-2.5-4.6.6-.4.2.2 0 0z"/><path d="M192.3 397.8c-.4 2.2-1.4 3.9-1.6 5.4-.4 2.6-.2 4.9-1.3 7.2-.8 1.8-3.6 4.2-4.8 5.9-.1.1.7.9 0 1.6-1.8 1.9-6.5 3.5-9 4.1-7.5 1.7-15-1.2-22.5.8-2.4.6-21 11.3-20.9 11.4-.6-.6 6.6-10.1 7.6-11.2 4.5-5.4 10.4-10.3 16.3-14.1 10.5-6.7 23.6-11.1 36.2-11.1 0 .3-.1 0 0 0zm-63.6 40.6c5-5.3 0 3.2 0 0 .4-.4 0 .1 0 0z"/><path d="M130.8 435.7c.6-.6.8-.6 1.5 0-.5.6-.9.6-1.5 0z"/>
</symbol>
<symbol id="s_creature_bristlemouth1" viewBox="0 0 368 50"><path d="M351.4 22.3c0 .9 1 1 1 0s-1-.9-1 0zM312.4 20c0 .9-1.4.9-1.4 0 0-.8 1.4-.9 1.4 0zM263.2 16.3c0 1-1.3 1-1.3 0s1.3-1 1.3 0z"/><!--<g id="_x34_gMkcz.tif">--><path d="M159.4 2.3c1.3 2.1-2.4 3.9-3.3 1.5-.7-2 2.2-3.3 3.3-1.5zM173.7 1.3c1 0 1.6 1.1 1.4 2-.2 1-1.6 1.4-2.4 1.1-2-.6-.6-3.1 1-3.1zM6.4 48c-1-.1-2.3.1-3.1-.5-.6-.5-1-1.5-.3-2.1.6-.6 1.8.3 2.5.4 1 .1 2-.1 2.9-.5.9-.5 1.6-1.5 2.6-1.8.8-.3 1.6.6 1.3 1.5-.3.9-1.8 1.6-2.6 2-1.1.5-2.2.8-3.3 1-.9-.1 2-.3 0 0zM140.4 5.1c-1.8-1.8 2.1-4 3.6-2.1.7.9.4 2-.5 2.6-1 .7-2.2.3-3.1-.5zM96.3 9.8c-2.8 0-2.1-4.1.5-3.8 2.4.3 1.8 3.8-.5 3.8zM111 8c-2.6 0-2.4-3.8.2-3.6 1.1.1 1.8.9 1.8 2s-.9 1.6-2 1.6zM128 7.7c-2.6 0-2.2-3.5.2-3.5 1 0 1.7.8 1.7 1.8 0 1.1-.8 1.7-1.9 1.7zM79.1 26.7c1.2.2 2.2.7 3 1.5.4.4.7.8 1 1.3.4.8.2 1 .1 1.8-1.1-.5-1.8-1.1-2.6-1.9-.8-.8-1.6-1.5-2.2-2.5.2 0 .5-.1.7-.2.4.1-.2.1 0 0zM68.5 22.5c1-.8 2.3-.5 3.4-.2.9.3 2.6 1 2.9 2 .6 1.7-2 .4-2.5.1-1.3-.6-2.6-1.2-3.8-1.9.8-.7.4.3 0 0zM189.3 4.9c-.9 0-1.6-.7-1.6-1.6-.1-.9.6-1.4 1.4-1.6 2.3-.4 2.6 3.1.2 3.2zM83.5 42.9c0-.6.9-1.4 1.4-1.5.9-.2 1.4.8 1.3 1.6-.1.6-.5 1.6-1.3 1.6-.7 0-1.4-1-1.4-1.7zM199.5 2c1.9 0 1.8 2.8-.1 2.6-1.5-.2-1.4-2.6.1-2.6zM79.7 44.5c1.7-.1 1 2.4-.5 2.4-2 0-.9-2.4.5-2.4.8-.1-.6 0 0 0zM207.5 4.1c-1.6.1-1.7-2.5 0-2.4 1.4.2 1.5 2.4 0 2.4zM317.6 17.4c-1.5 0-1-2.3.3-2.1 1.4.1 1.1 2.1-.3 2.1-.6 0 .7 0 0 0zM4 39.2c0 1.3-2.1 2-2.1.4.1-1.1 2.1-2 2.1-.4zM250.8 9.7c0 1.2-2.5.9-2.1-.5.4-1.4 2.1-.8 2.1.5 0 .5 0-.8 0 0zM256.7 11.3c-1.3-.2-1.1-2.2.4-2 1.4.2 1 2.1-.4 2-.5-.1.7.1 0 0zM6.3 34.8c1.3 0 .6 2.1-.4 2.2-1.5.1-.9-2.2.4-2.2.4 0-.7 0 0 0zM74.1 48.5c-1.4 0-.8-2.3.6-1.9.5.2 1 .8.7 1.4-.1.5-.8.5-1.3.5-.3 0 .9 0 0 0zM292.7 15.5c-1.5 0-1.2-2.2.2-2 1.3.2 1.1 2.1-.2 2zM304.2 16.4c-1.1 0-.7-2.2.7-2 1.5.3.5 2-.7 2-.3 0 .9 0 0 0zM322.3 16.6c.1-1.3 2.1-1.1 1.9.3-.1 1.4-1.9 1-1.9-.3.1-.5 0 .7 0 0zM243.1 6.4c1.4.2 1.2 2.1-.2 1.9-.6-.1-1-.5-.9-1.1.1-.6.6-.7 1.1-.8.6.1-.6.1 0 0zM298.3 15.9c-1.3.1-1.4-1.8-.2-1.9 1.4-.3 1.4 2.1.2 1.9-.7 0 .7.1 0 0zM218.6 2.8c0 1.2-1.9 1.4-2.1.3-.2-1.2 2-1.7 2.1-.3 0 .7-.1-.7 0 0zM235.8 6c-.1 1.1-2.2.8-1.9-.3.2-1.4 1.9-1 1.9.3-.1.4 0-.7 0 0zM346.2 18.3c0 .5-.1.9-.5 1.1-.4.2-.9.1-1.1-.3-.2-.4-.1-1 .2-1.3.6-.3 1 .2 1.4.5.1.9-.1-.1 0 0z"/><path d="M258.1 15.9c0 1-1.5 1-1.5 0-.1-1 1.5-1 1.5 0zM268.5 16.7c0 1-1.5 1-1.5 0 0-.9 1.5-.9 1.5 0zM274 17.1c0 .9-1.4.9-1.4 0-.1-.9 1.4-.9 1.4 0zM280.3 18.3c0 1-1.3 0-1.3 0 .1-1 1.3-1 1.3 0zM287.2 18.3c0 1-1.2 1-1.2 0s1.2-1 1.2 0zM287.1 14.3c0 1-1.8 1-1.8 0s1.8-1 1.8 0zM280.3 12.8c0 1.4-2.1 1.3-2.1 0 .1-1.3 2.1-1.4 2.1 0zM274.6 12c0 1.3-2.1 1.3-2.1 0s2.1-1.3 2.1 0zM268.8 11.3c0 2-1.9 2-1.9 0 .1-1 1.9-1 1.9 0zM263.9 11c0 1.3-2.1 1.3-2.1 0 .1-1.3 2.1-1.4 2.1 0zM227.5 4.3c0 1-1.8 1-1.8 0s1.8-1 1.8 0zM69.9 49.2c0 1-1.5 1-1.5 0-.1-.9 1.5-.9 1.5 0zM15 42.3c0 1-1.6 1-1.6 0s1.6-1 1.6 0zM294 19.3c0 1-1.2 1-1.2 0s1.2-1 1.2 0zM299.5 19.3c0 1-1.3 1-1.3 0s1.3-1 1.3 0zM1.7 43c0 .9-1.4.9-1.4 0-.1-.9 1.4-.9 1.4 0zM311.9 16.3c0 1-2 1-2 0s2-1 2 0zM319.1 20.2c0 .9-1.4.9-1.4 0s1.4-.9 1.4 0zM305.5 19.7c0 .9-1.4.9-1.4 0 .1-.9 1.4-.9 1.4 0zM325.1 20.3c0 1-1.1.8-1.1 0-.1-.9 1.1-1 1.1 0zM332.3 20.3c0 1-1.1.8-1.1 0s1.1-1 1.1 0zM332.3 17.3c0 1-1.9 1-1.9 0s1.9-1 1.9 0zM339.5 18.3c0 1-2 1-2 0 0-2 2-2 2 0zM339.9 21.3c0 1-1.1 1-1.1 0s1.1-1 1.1 0zM346.3 21.3c0 1-.8.8-.8 0s.8-1 .8 0zM358 19.3c0 1-1.8 1-1.8 0s1.8-1 1.8 0zM352.6 19.3c0 1-1.7 1-1.7 0s1.7-1 1.7 0zM363.1 19.3c0 1-1.3 1-1.3 0s1.3-1 1.3 0zM367.9 19.3c0 1-1.3 1-1.3 0s1.3-1 1.3 0z"/>
</symbol>
<symbol id="s_creature_dragonfish1" viewBox="0 0 809 254"><path d="M743 17.9c-.9 0-1.8.8-2.5-.2s-.6-2.2 0-3.3c.1-.2.2-.4.3-.7-1.4 0-2.7-.1-3-1.8-.1-.4.2-1.1.5-1.3 4.3-2.5 8.7-4.9 13.1-7.3 1.8-1 3.7-1.8 5.5-2.7h.3c.5.5.9 1.2 1.5 1.5 1.3.7 2.8 1.3 4.2 1.9-.1.4-.2.9-.3 1.5.9 0 1.6.1 2.4.1-.9 2.7-.2 4.5 2 5.9-.2 1.1-.6 2.1-.4 3 .3 1.1 1.6 1.3 2.7 1.4h2.4c-1.3 1.5-2.3 3-1.6 5.1.4 1.3 1 2.4 3 2.6-.9.8-1.5 1.3-2.1 1.9-.5.6-1 1.3-1.2 2-.6 1.5-.2 2.2 1.4 2.5.8.2 1.6.2 2.7.3-.7.6-1.2 1.2-1.8 1.7-2.7 2.3-4.2 5.2-4.4 8.8-.1.8-.4 1.1-1.1 1.4-3.1 1.5-6.3 3-9.3 4.7-2.6 1.5-3.5 1.5-5.1 0-1.7-1.6-1.9-3.6-.5-5.7-.4-.4-1.1-.7-1.2-1.1-.2-.6-.1-1.4.2-1.9.6-1 1.4-1.9 2.1-2.8.3-.3.6-.7.9-1-.1-.1-.1-.2-.2-.3-.7.3-1.5.5-2.2.8-1.8.6-3.6.2-5.1-.8-1.2-.8-1.4-3.1-.4-4.6.3-.5.6-.9 1-1.4-1.4-.1-1.7-1.1-1.5-2.2.2-1 .7-1.8 1.1-2.8-.2 0-.3 0-.5.1-2.1.8-3.4-.3-3.1-2.5.1-.9.5-1.8.7-2.6v-.3c-.4 0-.5.1-.5.1zm10.7 16.2s0-.1 0 0c-.1-.1-.1 0-.1 0s0 .1.1 0c-.1.1 0 0 0 0zM628.2 134c-3.6-.6-7.2-1-10.8-.8-.9.1-1.9.1-2.8.3-1.9.4-2.4 1.8-1.3 3.5.4.5.8 1 1.3 1.7-1.9-.5-3.6-1.2-5.3-1.3-2.8-.3-5.7-.2-8.6-.2-1.2 0-1.4.8-1.4 1.9 0 1.8 1 3 2.2 4.2-4.8-.8-9.6-1.7-14.3-2.4-1.5-.2-3.1-.2-4.6-.3-1.5 0-3 1.2-3.5 3-.4-.2-.7-.3-1.1-.4-3.9-1.9-7.7-4-11.2-6.5-3.9-2.8-8.2-5.2-12.3-7.8-.1-.1-.2-.2-.3-.6 4.1 1 8.1 1.9 12.4 3-.8-1.2-1.6-2.4-2.4-3.5.1-.2.2-.3.4-.5 1.3.5 2.5 1 3.8 1.4 3.3 1.1 6.6 2.2 9.9 3.2 1.2.4 1.5 0 1.2-1.3-.4-2.3-.2-3 2.2-3.5 2-.4 4-.3 6.1-.4 1.1 0 2.2.2 3.3.3 2.6.3 5.2.7 7.8 1.1.6.1 1.2.2 2 0-.4-.3-.9-.6-1.1-1-.4-.7-.8-1.6-.7-2.3.1-.5 1.1-1.1 1.7-1.1 1-.1 2.1.1 3.1.2 3.8.5 7.6 1 11.7 1.5-1-.8-1.8-1.3-2.4-2-1.8-2-1.1-4.2 1.5-4.8 1.1-.3 2.3-.3 3.5-.4.5-.1 1.1 0 1.1-.9 0-.3.5-.6.8-.8 3.3-1.6 6.8-1.5 10.3-1.2.9.1 1.8.1 2.7.2v-.3c-.3-.6-.6-1.1-.9-1.7.6-.3 1.1-.7 1.8-.8 4.9-.9 9.9-.7 14.8-.4 2 .2 4 .3 6.1.5-.8-2.6.1-4 2.6-4.3.4-.1.8-.4 1.2-.5 1.2-.4 2.3-.9 3.5-1 2.6-.3 5.3-.3 8-.5.1-2.3 2-2.9 3.9-3.3 2.9-.5 5.7-.7 8.7-1.1 1-2 2.1-4.3 4.7-5 2.3-.6 4.8-.7 7.4-1-.1.2 0 .1 0 .1-.6-2.7.5-4 3.9-4.3 1.9-.2 3.7-.3 5.6-.3h10.5l-1.6.8c-.8.4-1.8.8-1.6 2 0 .1-.1.3-.3.4-1.9 1.8-1.9 1.8-2 4.2-1.4.2-2.9.3-4.2.7-1.3.4-2.6 1-3.8 1.7-1 .6-1.8 1.5-1.4 2.8-2.6.2-5.1.3-7.5.7-1.1.2-2.2 1-3.1 1.8-.9.8-1.5 1.8-.6 3.1-2.6.2-5.1.4-7.5.5-2.5.1-4.4 1.5-6.2 2.9-.4.3-.6.9-1 1.5-3.5-1.1-7.1-.6-10.8-.3-.5 0-1.3.5-1.5.9-.3.8.3 1.4 1.1 1.7 1.2.4 2.4.9 3.5 1.4H658c-3.8 0-7.6.4-11.2 2-.7.3-1.4.8-2 1.4-1 1-1.1 1.7-.3 3l.4.8h-2.7c-2.9 0-3.4.8-2.5 3.5-2.5-.1-5-.4-7.4-.2-2.2.2-4.5.1-6.4 1.7-.4.3-.8.9-.7 1.3.1.4.7.8 1.1 1 .3.5 1.1.8 1.9 1.1zM616.1 33.9c-3 .3-6 .6-8.9.8-2.4.2-4.5-.6-6.5-1.8-.4-.3-.6-1-1-1.7-1.3 0-3.1.1-4.8 0-1.5-.1-2.9-.6-4.4-1-1.1-.3-1.7-1.1-1-2.5-3.1.7-6 .9-9-.5 7.6-2.6 15.1-4.5 22.9-5.7-.6.5-1.2.9-1.6 1.4-.7.7-.4 1.7.5 1.9 1.6.2 3.2.4 4.8.2 2.7-.3 5.4-.8 8.2-1.2.3 0 .5-.1.9-.2.7 1.7 2.3 1.5 3.7 1.7 1 .2 1.9.2 2.9.6-.6.3-1.2.6-1.9.9 5.7.5 11.3.4 17-1.2-.5.6-.8 1.1-1.1 1.5.5.3 1 1 1.5 1 3.1.2 6.1.3 9.2.3.9 0 1.8-.2 2.8-.4-1.3 1.4-1 2.8.6 3.5.7.3 1.6.4 2.4.6.5.1 1 .3 1.5.4 1.4.4 2.9.9 4.3 1.2 1.3.3 2.5.4 3.8.6.2 0 .5.1.7.3 2 2 4.6 2.7 7.3 2.6 2.7 0 5.4-.5 8-.8.5-.1 1-.1 1.5 0-3.2 1.6-6.5 3.2-9.7 4.8.7 1.8 2 .3 3.2 1.1-1.3.4-2.3 1-3.5 1.2-4.2.7-8.4 1.4-12.6 1.8-4.7.4-9.4.6-14.1.8-1.8.1-2.5-.9-2-2.6-.7-.2-1.5-.4-2.2-.7.2-.7.5-1.3.7-2-1.1-.6-3.2.3-3.8-1.9-1.1-.1-2.3-.1-3.4-.4-2-.5-2.2-1.1-.7-2.6l.6-.6h-1.1c-4.4.7-8.8.5-13.2-.1-.9-.1-2 0-2.5-1.3.1 0 .2 0 .2-.1-.1.1-.1.1-.2.1zm156.3 18.5c-.2.3-.4.5-.6.8.6.9.6.9 2.7.7 0 .1-.1.2-.1.3 1 .4 2 .9 3.2 1.4-.4 1.1.6 1.6 1.5 1.8 1.2.3 2.5.3 3.6.4.1 1-.3 2.5.3 3.2 1.1 1.4 2.5 2.7 4.1 3.3 2.1.9 4.4 1.6 6.8.9 0 .1.1.2.1.3-1.4 1.7-1.3 2 .7 3.1 2.3 1.3 4.6.5 7 .4.6 0 1.2-.1 1.9.1-.5.4-1.1.8-1.6 1.2-.8.6-1.3 1.5-.9 2.5.4 1.1 1.6 1.8 2.7 1.6.9-.1 1.9-.4 2.8-.6-.4.7-.7 1.3-1.1 2.2h3.2c-1.2 1.2-1.9 2.6-1.7 4 .1 1.4.8 2.7 1.2 4.2-1.2.2-2.6.6-4.1.8-3.9.7-7.7 1.5-11.6 2.1-2.7.5-5.4.8-8.1 1.1l-8.7.9c-.3 0-.8-.3-.9-.6-.7-3.1.1-5.3 2.6-7.6.3-.3.6-.5.9-.7-1.1-.4-2.2-.7-3.1-1.3-1.6-.9-1.7-1.8-.8-3.3.4-.6 1-1.1 1.3-1.5-1.6-.6-3.3-1.2-4.9-1.8-.2-.1-.4-.3-.6-.4-1.7-1.3-1.7-2.2-.2-3.6-4.6-2-5.3-3.1-3.4-6.2-2.2.8-4 .1-5.8-1-1.5-.9-1.5-1.3-.2-2.5l.4-.4c-1.8-.4-4 .6-5-2 1.9-.5 3.7-1 5.4-1.4 3.5-.9 6.9-1.8 10.4-2.7.2-.1.5 0 .7-.1-.2.3-.2.3-.1.4zm-260.7 84.2c-2.4-2.6-4.9-5.1-7.3-7.7-2-2.3-3.9-4.7-5.8-7l-1.5-2.1c2.4.5 2.8.1 2.3-2.4v-.3c.2.1.5.2.6.4 2.1 2.2 4.9 2.6 7.7 3.1.5.1 1.1.2 1.5.5 2.5 1.7 5.2 2.6 8.2 2.5.4 0 1 .2 1.3.5 2.4 2.6 4.6 5.3 7 7.9.7.8 1.5 1.5 2.3 2.3 2 2.2 4 4.3 6 6.5.3.3.4.9.3 1.2-.1.3-.7.5-1 .5-1.6.2-3.1-.2-4.4-1.2-1.7-1.3-3.5-2.2-5.9-2 .3.6.6 1.1.9 1.6l-.1.1c-2.3-1.7-4.7-3.5-7-5.2l-.4.4c.7 1.1 1.4 2.1 2.1 3.2l-.2.2c-2.5-2.1-5.1-4.1-7.6-6.2-.1.1-.2.1-.3.2.4.6.8 1.2 1.1 1.8l.6 1.2h-.4zm4.1-.8c0 .1.1.1.1.2l.1-.1c0-.1-.1-.1-.2-.1 0-.1-.1-.1-.2-.1.1 0 .2 0 .2.1zM277.6 253.7c-2.2-.3-4.6-.5-6.9-1-1.1-.3-2.3-1-3.1-1.9-1.4-1.4-1.2-3.1.5-4 1.8-1 3.8-1.7 5.8-2.2 5.4-1.2 10.9-1.4 16.2.6 1 .4 2 .9 2.7 1.7 1.5 1.8 1.2 3.2-.9 4.2-1.5.7-3.2 1.2-4.9 1.5-3 .6-6.1.8-9.4 1.1zm-130.8-84.6c-.4 1.2-1.4 1.4-2.4 1.4-1.7-.1-3.4-.5-5.1-.8-.3-.1-.7-.1-1-.2-.3 2.1-3 3-4.9 1.5-2.8-2.2-5.5-4.6-8.3-6.9-.1-.1-.2-.2-.2-.3 1-.3 2-.7 3-1 .2-.1.5.2.8.3 2 .3 4 1 6 .8 1.4-.1 2.7 0 4.1.1 1.1.1 2.2.1 3.2-.7.2-.2.7-.2 1-.1 4.9 2.1 9.8 4.3 14.6 6.5-1.8 1-5 .9-10.8-.6zm-142.2-29c-.6-.2-1.8-.5-2.9-.9-1.1-.5-1.6-1.9-1.1-3.2.5-1.3 1.2-2.5 2.6-3 2.1-.8 4.2-1.4 6.4-.9 1.5.4 2.4 1.3 2.7 2.8.3 1.4-.1 2.6-1.3 3.5-1.7 1.2-3.7 1.5-6.4 1.7zm468-29.3c0 1.4-1 2.4-2.3 2.4-1.6 0-2.7-1-2.8-2.6 0-1.8 1.1-2.8 2.9-2.8 1.1.1 2.1 1.5 2.2 3zm50.2-.4c0 1.4-1 2.4-2.4 2.3-1.6 0-2.7-1.1-2.7-2.6 0-1.8 1.1-2.8 3-2.7 1.1 0 2.1 1.5 2.1 3zm-60.8-.3c0 1.4-1 2.3-2.4 2.3-1.6 0-2.7-1.1-2.7-2.6 0-1.8 1.2-2.8 3-2.7 1.2.1 2.2 1.5 2.1 3zm-210.3 0c0 1.4-1 2.4-2.3 2.4-1.6 0-2.7-1-2.8-2.6 0-1.8 1-2.8 2.9-2.8 1.1 0 2.1 1.4 2.2 3zm8-.5c0 1.3-1 2.3-2.4 2.3-1.6 0-2.7-1.1-2.7-2.6 0-1.7 1-2.7 2.9-2.7 1.1 0 2.2 1.4 2.2 3zm275.6-.3c0 1.4-1 2.4-2.3 2.4-1.6 0-2.7-1-2.8-2.5 0-1.8 1-2.8 2.9-2.8 1.2 0 2.2 1.4 2.2 2.9zm-82.3 0c0 1.4-1 2.4-2.3 2.4-1.6 0-2.7-1-2.8-2.6 0-1.8 1.1-2.8 2.9-2.8 1.2.1 2.2 1.5 2.2 3zm-185.3-.4c0 1.3-1 2.3-2.4 2.3-1.6 0-2.7-1.1-2.7-2.6 0-1.7 1-2.7 2.9-2.7 1.1 0 2.2 1.4 2.2 3zm9.2-.3c0 1.4-1 2.4-2.3 2.4-1.6 0-2.7-1-2.8-2.6 0-1.8 1.1-2.8 2.9-2.8 1.2 0 2.2 1.4 2.2 3zm268.2-.3c0 1.4-1 2.4-2.3 2.4-1.6 0-2.7-1-2.8-2.6 0-1.8 1.1-2.8 3-2.8 1.1.1 2.1 1.5 2.1 3zm-259.7 0c0 1.4-1 2.4-2.3 2.4-1.6 0-2.7-1-2.8-2.5 0-1.8 1-2.8 2.9-2.8 1.2 0 2.2 1.4 2.2 2.9zm158.9-.2c0 1.4-1 2.3-2.4 2.3-1.6 0-2.7-1.1-2.7-2.6 0-1.8 1.2-2.8 3-2.7 1.1.1 2.1 1.5 2.1 3zm-150.6-.5c0 1.3-1 2.3-2.4 2.3-1.6 0-2.7-1.1-2.7-2.6 0-1.7 1-2.7 2.9-2.7 1.1 0 2.2 1.5 2.2 3zm8-.2c0 1.3-1 2.3-2.4 2.3-1.6 0-2.7-1.1-2.7-2.6 0-1.7 1-2.7 2.9-2.7 1.1 0 2.2 1.4 2.2 3zm133.8-.3c0 1.4-1 2.4-2.4 2.4-1.6 0-2.7-1.1-2.7-2.6 0-1.8 1.1-2.8 3-2.7 1.1 0 2.1 1.4 2.1 2.9zm-97 0c0 1.3-1 2.3-2.4 2.3-1.6 0-2.7-1.1-2.7-2.6 0-1.7 1-2.7 2.9-2.7 1.1 0 2.2 1.5 2.2 3zm173.8 3.7c0 1.4-1 2.4-2.3 2.4-1.6 0-2.7-1-2.8-2.6 0-1.8 1.1-2.8 3-2.8 1.1.1 2.1 1.5 2.1 3zm-268.4.2c0 1.4-1 2.4-2.3 2.4-1.6 0-2.7-1-2.8-2.5-.1-1.8 1-2.8 2.9-2.8 1.1 0 2.2 1.4 2.2 2.9zm238.9.6c0 1.3-1 2.3-2.4 2.3-1.6 0-2.7-1.1-2.7-2.6 0-1.8 1.2-2.8 3-2.7 1.1.1 2.1 1.5 2.1 3zm-245.9.5c0 1.3-1 2.3-2.4 2.3-1.6 0-2.7-1.1-2.7-2.6 0-1.7 1-2.7 2.9-2.7 1.1 0 2.2 1.4 2.2 3zm-7.3.8c0 1.3-1 2.3-2.4 2.3-1.6 0-2.7-1.1-2.7-2.6 0-1.7 1-2.7 2.9-2.7 1.2 0 2.3 1.4 2.2 3zm-7 .9c0 1.4-1 2.4-2.3 2.4-1.6 0-2.7-1-2.8-2.5-.1-1.8 1-2.8 2.9-2.8 1.2 0 2.2 1.4 2.2 2.9zm-6.5 1.5c0 1.4-1 2.4-2.3 2.4-1.6 0-2.7-1-2.8-2.6 0-1.8 1.1-2.8 2.9-2.8 1.2.1 2.2 1.5 2.2 3zm-9.3 3.7c-1.6 0-2.7-1-2.7-2.6 0-1.8 1.1-2.8 3-2.7 1.1 0 2.1 1.5 2.1 3-.1 1.2-1.1 2.3-2.4 2.3zm-4.4-1.4c0 1.3-1 2.3-2.4 2.3-1.6 0-2.7-1.1-2.7-2.6 0-1.7 1-2.7 2.9-2.7 1.1 0 2.2 1.5 2.2 3zm-8 1.2c0 1.4-1 2.4-2.3 2.4-1.6 0-2.7-1-2.8-2.6 0-1.8 1.1-2.8 2.9-2.8 1.1.1 2.2 1.5 2.2 3zm-57.6 21.5c0 1.4-1 2.4-2.3 2.4-1.6 0-2.7-1-2.8-2.6 0-1.8 1.1-2.8 2.9-2.8 1.2.1 2.2 1.5 2.2 3zm48.6-19.2c0 1.4-1 2.4-2.3 2.4-1.6 0-2.7-1-2.8-2.5 0-1.8 1-2.8 2.9-2.8 1.1-.1 2.1 1.3 2.2 2.9zm-41.9 16.4c-1.6 0-2.7-1-2.7-2.6 0-1.8 1.1-2.8 3-2.7 1.1 0 2.1 1.5 2.1 3-.1 1.3-1.1 2.3-2.4 2.3zm33.4-14.4c0 1.4-1 2.4-2.3 2.4-1.6 0-2.7-1-2.8-2.6 0-1.8 1-2.8 2.9-2.8 1.1 0 2.1 1.4 2.2 3zm-9.8 2.7c0 1.4-1 2.4-2.3 2.4-1.6 0-2.8-1-2.8-2.5 0-2.2.8-2.5 2.9-2.8 1.1-.1 2.2 1.3 2.2 2.9zm-10.3 3.8c0 1.4-1 2.3-2.4 2.3-1.6 0-2.7-1.1-2.7-2.6 0-1.8 1.2-2.8 3-2.7 1.1.1 2.2 1.5 2.1 3zm533.8-41.2c-1.6 0-2.7-1.1-2.7-2.6 0-1.8 1.1-2.8 3-2.7 1.1 0 2.1 1.5 2.1 3 0 1.3-1.1 2.3-2.4 2.3zm14.1-2.3c0 1.4-1 2.4-2.3 2.4-1.6 0-2.7-1-2.7-2.6 0-1.8 1.1-2.8 3-2.7 1-.1 2 1.4 2 2.9zm-24 1c0 1.3-1 2.3-2.4 2.3-1.6 0-2.7-1.1-2.7-2.6 0-1.8 1.2-2.8 3-2.7 1.1.1 2.1 1.5 2.1 3zm-14.9 2.8c-1.6 0-2.7-1.1-2.7-2.6 0-1.7 1-2.7 2.9-2.7 1.2 0 2.2 1.4 2.2 3 0 1.4-1.1 2.4-2.4 2.3zm-10.1-1c0 1.3-1 2.3-2.4 2.3-1.6 0-2.7-1.1-2.7-2.6 0-1.7 1-2.7 2.9-2.7 1.1-.1 2.2 1.4 2.2 3zm-12.3.9c0 1.4-1 2.4-2.3 2.4-1.6 0-2.7-1-2.8-2.6 0-1.8 1.1-2.8 2.9-2.8 1.2.1 2.2 1.5 2.2 3zm-10 1.3c0 1.4-1 2.4-2.3 2.4-1.6 0-2.7-1-2.8-2.6 0-1.8 1.1-2.8 2.9-2.8 1.2 0 2.2 1.5 2.2 3zm-8 1.5c0 1.4-1 2.4-2.3 2.4-1.6 0-2.7-1-2.8-2.6 0-1.8 1.1-2.8 2.9-2.8 1.2 0 2.2 1.4 2.2 3zm-8.2 1.5c0 1.4-1 2.4-2.3 2.4-1.6 0-2.7-1-2.8-2.6 0-1.8 1.1-2.8 2.9-2.8 1.1 0 2.1 1.4 2.2 3zm-8.6 1.9c0 1.4-1 2.4-2.3 2.4-1.6 0-2.7-1-2.8-2.5 0-1.8 1-2.8 2.9-2.8 1.2 0 2.2 1.4 2.2 2.9zm-8.2 1.6c0 1.3-1 2.3-2.4 2.3-1.6 0-2.7-1.1-2.7-2.6 0-1.7 1-2.7 2.9-2.7 1.2 0 2.2 1.4 2.2 3zm-8.3 1.8c0 1.3-1 2.3-2.4 2.3-1.6 0-2.7-1.1-2.7-2.6 0-1.7 1-2.7 2.9-2.7 1.2-.1 2.3 1.4 2.2 3zm-9.5 2.7c0 1.3-1 2.3-2.4 2.3-1.6 0-2.7-1.1-2.7-2.6 0-1.8 1.2-2.8 3-2.7 1.1.1 2.1 1.5 2.1 3zm-8.7 1.7c0 1.4-1 2.4-2.3 2.4-1.6 0-2.7-1-2.8-2.6 0-1.8 1-2.8 2.9-2.8 1.1.1 2.2 1.5 2.2 3zM329.2 107c0 1.4-1 2.4-2.3 2.4-1.6 0-2.8-1-2.8-2.5 0-2.2.8-2.5 2.9-2.8 1.1-.1 2.2 1.4 2.2 2.9zm-11.9 2.4c-1.6 0-2.7-1.1-2.7-2.6 0-1.7 1-2.7 2.9-2.7 1.2 0 2.2 1.4 2.2 3 0 1.4-1 2.4-2.4 2.3zm-6.9-2.3c0 1.4-1 2.4-2.3 2.4-1.6 0-2.7-1-2.8-2.6 0-1.8 1.1-2.8 3-2.8 1.1 0 2.1 1.5 2.1 3zm244.7-.5c0 1.3-1.1 2.3-2.4 2.3-1.6 0-2.7-1.1-2.7-2.6 0-1.7 1-2.7 2.9-2.7 1.2 0 2.2 1.5 2.2 3zm-128.8 0c0 1.4-1 2.4-2.3 2.4-1.6 0-2.7-1-2.8-2.6 0-1.8 1-2.8 2.9-2.8 1.1 0 2.2 1.4 2.2 3zm-9 0c0 1.4-1 2.4-2.3 2.4-1.6 0-2.7-1-2.8-2.6 0-1.8 1-2.8 2.9-2.8 1.1 0 2.2 1.4 2.2 3zm-60.1 0c0 1.4-1 2.4-2.3 2.4-1.6 0-2.7-1-2.8-2.6 0-1.8 1.1-2.8 3-2.8 1.1 0 2.1 1.5 2.1 3zm-9.7 0c0 1.3-1 2.3-2.4 2.3-1.6 0-2.7-1.1-2.7-2.6 0-1.7 1-2.7 2.9-2.7 1.1 0 2.2 1.5 2.2 3zm60-.5c0 1.4-1 2.3-2.4 2.3-1.6 0-2.7-1.1-2.7-2.6 0-1.8 1.1-2.8 3-2.7 1.1.1 2.1 1.5 2.1 3zm-19.8 0c0 1.4-1 2.4-2.3 2.4-1.6 0-2.7-1-2.7-2.6 0-1.8 1.1-2.8 3-2.7 1-.1 2 1.4 2 2.9zm-10 0c0 1.3-1 2.3-2.4 2.3-1.6 0-2.7-1.1-2.7-2.6 0-1.8 1.2-2.8 3-2.7 1.1.1 2.2 1.5 2.1 3zm-10.5 0c0 1.4-1 2.3-2.4 2.3-1.6 0-2.7-1.1-2.7-2.6 0-1.8 1.1-2.8 3-2.7 1.1.1 2.1 1.5 2.1 3zm30.6-.2c0 1.3-1 2.3-2.4 2.3-1.6 0-2.7-1.1-2.7-2.6 0-1.7 1-2.7 2.9-2.7 1.1 0 2.2 1.4 2.2 3zm166.6-.6c0 1.4-1 2.4-2.4 2.4-1.6 0-2.7-1-2.7-2.6 0-1.8 1.1-2.8 3-2.7 1 0 2.1 1.4 2.1 2.9zM715 86c0 1.4-1 2.5-2.4 2.4-1.4 0-2.8-1.4-2.8-2.6 0-1.2 1.4-2.4 2.7-2.5 1.5 0 2.5 1.1 2.5 2.7zm7-2.2c1.3 0 2.9 1.4 2.9 2.6 0 1.1-1.3 2.3-2.6 2.3-1.4 0-2.9-1.1-2.9-2.2.1-1.4 1.4-2.7 2.6-2.7zm-595.9 62.3c0-1.3 1.3-2.6 2.5-2.6 1.4 0 2.3.9 2.3 2.3s-1.4 2.6-2.9 2.6c-1.2-.1-1.9-.8-1.9-2.3zm606.1-57.4c-1.4 0-2.7-1-2.6-2 0-1 1.6-2.5 2.5-2.4 1.1.1 2.9 1.6 2.8 2.5-.1 1-1.3 1.9-2.7 1.9zm10.6.3c-1.6-.1-2.6-.8-2.5-1.8.1-1.2 1.6-2.2 3.2-2.1 1.1.1 2.2 1 2.1 1.9 0 1.2-1.3 2.1-2.8 2zm10.2-2.2c0 1.1-1 2.1-2.3 2.2-1.3 0-2.4-.6-2.4-1.5-.1-1 1.4-2.4 2.4-2.5 1.2 0 2.3.8 2.3 1.8z"/><path d="M772.3 52.2c.2-.1.4-.2.5-.2 0 .1.1.1.1.2-.2.1-.3.1-.5.2-.1-.1-.1-.1-.1-.2zm-260.4 84.3c0 .1.1.2.1.4l-.3-.3c.1 0 .1 0 .2-.1zm-15.1-17c.1.1.2.1.3.2-.1 0-.2-.1-.3-.2zm0 0c-.1 0-.1-.1-.2-.1.1 0 .2.1.2.1zM628.2 134v.1-.1zm-26.8 9.3l.1.1-.1-.1zM771.5 16c0-.1.1-.1.1-.2 0 .1 0 .1-.1.2zM743 17.9c.1 0 .1-.1.2-.1v.3c-.1-.1-.2-.1-.2-.2zm10.7 16.2s-.1.1 0 0h-.1s0-.1.1 0c0-.1 0 0 0 0zm-137.6-.2c.1 0 .1 0 .2-.1 0 .1-.1.2-.2.1.1.1 0 .1 0 0zM515.8 135.8c-.1 0-.1-.1-.2-.1.1 0 .2 0 .2.1zm.1 0c.1 0 .1 0 .2.1l-.1.1c-.1-.1-.1-.2-.1-.2-.1 0 0 0 0 0z"/>
</symbol>
<symbol id="s_creature_gulper-eel1" viewBox="0 0 115 87"><path d="M114.8 83.2c-5.9 5.3-33.5 3.9-46.1 2.6-14-1.4-26.2-8.5-37.4-16.8-6.3-4.7-12.4-9.8-17.9-15.4C8.1 48.1-1.2 37.9.1 34c1.8 0 2.6 1.1 3.3 2 9.1 12.4 20.3 22.6 33.9 29.9C58.6 77.4 81.5 82.8 105.7 82c2.9-.1 10.5 0 9.1 1.2z"/>
</symbol>
<symbol id="s_creature_viperfish1" viewBox="0 0 439.6 285.1"><path d="M63.4 0c.8.3 1.5.3 2.2.8.7.7 1.4 1.5 2 2.2 1.3 1.5 2 3.3 3.1 5 1 1.7 2.2 3.3 3.4 4.9 1.2 1.6 2.4 3.2 3.9 4.6 2.8 2.6 6 4.9 9 7.3 3.2 2.6 6.8 4.4 10.2 6.7 6.9 4.6 14.4 8.1 22.4 10.4 4.1 1.1 8 2.5 12.1 3.5s8.3 1.7 12.4 2.5c4.7 1 9.6 1.6 14.4 1.9 2.5.2 4.9.4 7.4.7 1.1.2 2.3.1 3.4.3.9.2 1.7.9 2.6.9-.4 2-2.6 1.7-4.2 1.3-.5-.1-1.1-.4-1.6-.4s-.9.1-1.4.1c-1.3.1-2.5-.1-3.8-.3-4.9-.7-9.7-1-14.6-1.8-4.7-.7-9.5-1.5-14.1-2.9-4.5-1.4-8.9-3.3-13.4-4.8-4.6-1.5-9.2-2.7-13.9-4-4.6-1.3-9.2-2.8-13.7-4.4-4.5-1.6-8.7-3.9-12.9-6.2-2-1.1-4.1-2.1-6-3.4-1.9-1.3-3.5-2.8-5.3-4.1-1.9-1.4-3.8-2.6-5.1-4.6-1.3-1.9-2.4-4.1-3.2-6.2-.8-2.3-1.1-5-.5-7.3.3-1.1.7-1.9 1.7-2.5.9-.4 2.2-.2 3.5-.2.7.3-.9 0 0 0zM0 218.6c.6-.9 1.4-1.6 2.5-1.5 1 .1 1.8.8 1.6 1.8-.2 1-1.2 1.7-2.2 1.7-.5 0-1-.2-1.4-.5-.6-.5-.5-.8-.5-1.5.9-1.4 0 .3 0 0zM170.6 222.7c1.4-.2 2.2 1.7 2.2 2.8 0 1.3-1.4 2.7-2.7 2.6-1.4-.1-2.3-1.6-2.3-2.9 0-1.5 1.5-2.5 2.8-2.5 1.3-.2-1.5 0 0 0zM182.7 231.7c-1.3 0-2.3-.4-2.6-1.8-.3-1.4.6-3.2 2.2-3.4 1-.1 2.2 1.2 2.7 2.1.3.6.3 1.3-.1 1.9-.6.9-1.3 1.1-2.2 1.2-1.8 0 .3 0 0 0zM217.6 240.8c0 3.2-5 2.3-4.7-.6.1-1.4 1.5-2.2 2.8-2 1.3.3 1.9 1.3 1.9 2.6zM206.6 236.6c0 3.1-4.9 2.9-4.7-.1.1-1.3 1.6-2.4 2.9-2.3 1.3.1 1.8 1.2 1.8 2.4zM192.9 234.9c-1.3 0-2.4-.8-2.2-2.1.2-1.2 1.2-2.4 2.5-2.4 2.7.2 2.5 4.5-.3 4.5-1.3 0 1.3 0 0 0zM224.8 245c-2.8 0-3.3-4.5-.3-4.3 2.6.1 3.3 4.3.3 4.3-1.3 0 1.3 0 0 0zM172.2 53.2c.4-.7 1.1-1 2-1.1.5 0 1.3.2 1.7-.1.3-.4 0-.4.5-.5.5-.1 1 0 1.5 0 1.1 0 2.3.1 3.4.5-.5 1.5-1.4 1.8-2.9 1.7-2.1-.3-4.1-.2-6.2-.5.7-1.1.3.1 0 0zM158.8 223.6c-1.1 0-2.3-.7-2.2-2 .1-1.1 1-1.9 2.1-2 2.7-.1 2.9 4 .1 4zM149.6 217.8c.4 2.3-4.1 2.5-4.2.1-.2-2.8 4.2-2.9 4.2-.1.2 1.1 0-1.2 0 0zM134.7 216c-2.8 0-2-4.2.7-3.7 1 .2 1.4.8 1.4 1.8.1 1.2-.9 1.9-2.1 1.9zM372.1 253.2c-.1-2.3 3.3-2.8 3.9-.5.5 2-3.9 3.3-3.9.5-.1-1.3 0 .9 0 0zM93.8 208.8c-2.5-.1-1.7-3.3.4-3.4.9-.1 2 .7 1.9 1.7-.2 1.1-1.4 1.8-2.3 1.7zM407.3 278.5c0 1.1-.6 1.8-1.7 1.8s-1.7-.7-1.7-1.7c0-1.2.8-1.9 1.9-1.8 1.2 0 1.5.7 1.5 1.7zM233.3 242.7c2.8 0 1.7 4.3-.4 3.4-1-.4-1.4-1.3-1.2-2.3.2-.9.7-1.1 1.6-1.1zM122.6 213.3c-2 0-2.2-3.4-.1-3.4 2.3 0 2.5 3.4.1 3.4zM85.3 208.5c-.8 0-1.8-1.1-1.6-1.9.1-.7 1.2-1.4 1.9-1.5 1-.1 1.7.9 1.7 1.8 0 1-1 1.6-2 1.6zM378.5 269.9c0-2.6 3.7-1.7 3.2.7-.2.9-1 1.2-1.8 1.2-1-.1-1.4-.9-1.4-1.9 0-.9 0 1.3 0 0zM398.9 276.1c0 2.1-3.7 2.5-3.6 0 .1-1.9 3.6-1.9 3.6 0 0 .9 0-.8 0 0zM102.9 206.1c2.4 0 2 3.2-.2 3.2-.8 0-1.7-.9-1.7-1.7 0-.9 1-1.5 1.9-1.5zM71 204.7c2.3 0 1.7 3.1-.3 3.2-2.3.2-1.8-3.2.3-3.2zM373.9 267.5c.4 1.9-3.3 2-3.2-.1 0-2 3.2-2 3.2.1.1.9 0-1 0 0zM45 209.4c0 .8-.8 1.7-1.5 1.8-.8.2-1.8-.6-1.7-1.4.3-1.7 3.1-2.7 3.2-.4zM16.7 217.5c-.8 0-2-.7-1.8-1.6.2-.8 1.3-1.4 2.1-1.3 2 .2 1.6 2.9-.3 2.9zM110.7 209.8c0-1.7 2.7-2.5 3.2-.6.4 2.1-3.2 2.7-3.2.6zM191.2 52.1c.6 0 1.2 0 1.9.1s.8.3.4.9c-.6.9-1.7.9-2.7.8-.6-.1-.8-.4-1.3-.7-.2-.1-.7 0-.8-.2-.2-.4.6-.8.8-.9.5-.1 1.2 0 1.7 0 .7-.1-.6 0 0 0zM36.9 212.8c-.7 0-1.4-.9-1.4-1.5.1-.7 1.1-1.5 1.8-1.5s1.4.9 1.4 1.6c0 .8-1.1 1.4-1.8 1.4zM415.6 280.4c0 2.1-3.3 1.7-3-.3.4-1.8 3-1.5 3 .3 0 .9 0-1 0 0zM423.3 283.3c-2.1 0-2-2.8 0-2.9 2.1 0 2 3 0 2.9zM78.2 204.9c.8 0 1.8.5 1.7 1.4-.1.8-1.2 1.3-1.9 1.3-2.1 0-1.7-2.7.2-2.7zM64.3 207.7c-.8 0-1.7-.4-1.8-1.3-.1-.8.7-1.5 1.5-1.5.7 0 1.6.3 1.7 1.1.1.7-.6 1.8-1.4 1.7zM56.9 208.5c-2.2 0-1.5-3.1.3-2.9 1.8.2 1.6 2.9-.3 2.9-.8 0 1.1 0 0 0zM31.3 211.4c1.9 0 2 2.7 0 2.7-1.9-.1-1.8-2.8 0-2.7zM49.8 209.7c-1.8-.1-.8-2.8.7-2.7.8.1 1.3.9 1.1 1.7-.2.8-1.1 1-1.8 1-.5 0 1.2 0 0 0zM388.4 274.5c-1.7 0-1.8-3.1-.2-2.9 1.6.3 2.1 2.9.2 2.9zM431.6 283.9c-1.6 0-1.4-2.6.2-2.5 1.6 0 1.3 2.5-.2 2.5zM184.2 53.2c1.1-1.5 2.5-.6 3.8-.4-.6 1.4-1.5 1.5-3.8.4zM26.3 212.8c1.3-.1 1.3 2.3-.2 2.2-1.5-.2-1.4-2.2.2-2.2.7-.1-.8 0 0 0zM439.6 284.2c.2 1.3-2.2 1.2-1.9-.2.2-1.4 1.9-1.2 1.9.2.1.7 0-.7 0 0z"/>
</symbol>
<symbol id="s_dish_dragonfish" viewBox="0 0 16 7"><path d="M13.5 6.6c-3.4 0-7.3-.4-10.4-2C1.9 3.9.2 2.8 0 1.3-.2-.3 1.5 0 2.6.3c1.6.5 3.1 1.1 4.8 1.4 1.7.3 3.4.3 5.1.4 1.4.1 3.3.2 3.4 2 0 1.5-1.2 1.9-2.4 2.5-.9 0 .4-.2 0 0z"/>
</symbol>
<symbol id="s_dish_flashlight-fish" viewBox="0 0 33 26"><path d="M.1 8.3c.3-2.5 1.2-4.8 3.3-6.5C4.5.9 6.2-.2 10 0c2.9.2 5.6 1.3 8.3 2.4 4.5 1.8 8.4 4.5 11.9 7.8 2.4 2.3 3.4 4.9 2.4 8.4-1.3 4.4-5.9 7.2-9.9 7.4-2.9.1-5.6-.7-8.3-1.7-2.5-.9-5-1.9-7.4-3.1-3.6-1.8-7.7-5-6.9-12.9z"/>
</symbol>
<symbol id="s_github" viewBox="0 0 120.8 117.8"><path d="M60.4 0C27 0 0 27 0 60.4c0 26.7 17.3 49.3 41.3 57.3 3 .6 4.1-1.3 4.1-2.9 0-1.4-.1-6.2-.1-11.2-16.8 3.6-20.3-7.2-20.3-7.2-2.7-7-6.7-8.8-6.7-8.8-5.5-3.7.4-3.7.4-3.7 6.1.4 9.3 6.2 9.3 6.2 5.4 9.2 14.1 6.6 17.6 5 .5-3.9 2.1-6.6 3.8-8.1-13.4-1.4-27.5-6.6-27.5-29.8 0-6.6 2.4-12 6.2-16.2-.6-1.5-2.7-7.7.6-16 0 0 5.1-1.6 16.6 6.2 4.8-1.3 10-2 15.1-2s10.3.7 15.1 2C87 23.4 92.1 25 92.1 25c3.3 8.3 1.2 14.5.6 16 3.9 4.2 6.2 9.6 6.2 16.2 0 23.2-14.1 28.3-27.6 29.8 2.2 1.9 4.1 5.5 4.1 11.2 0 8.1-.1 14.6-.1 16.6 0 1.6 1.1 3.5 4.1 2.9 24-8 41.3-30.6 41.3-57.3C120.8 27 93.7 0 60.4 0z"/><path d="M22.9 86.7c-.1.3-.6.4-1 .2s-.7-.6-.5-.9c.1-.3.6-.4 1-.2s.6.6.5.9zm-.8-.5M25.3 89.4c-.3.3-.9.1-1.2-.3-.4-.4-.5-1-.2-1.3.3-.3.8-.1 1.2.3.4.5.5 1.1.2 1.3zm-.6-.6M27.7 92.9c-.4.3-1 0-1.3-.5-.4-.5-.4-1.2 0-1.4.4-.3 1 0 1.3.5.4.5.4 1.1 0 1.4zm0 0M31 96.3c-.3.4-1 .3-1.6-.2-.5-.5-.7-1.2-.3-1.5.3-.4 1-.3 1.6.2.5.4.6 1.1.3 1.5zm0 0M35.5 98.2c-.1.5-.8.7-1.5.5-.7-.2-1.1-.8-1-1.2.1-.5.8-.7 1.5-.5.7.2 1.1.7 1 1.2zm0 0M40.4 98.6c0 .5-.6.9-1.3.9-.7 0-1.3-.4-1.3-.9s.6-.9 1.3-.9c.7 0 1.3.4 1.3.9zm0 0M45 97.8c.1.5-.4 1-1.1 1.1-.7.1-1.3-.2-1.4-.7-.1-.5.4-1 1.1-1.1.7-.1 1.3.2 1.4.7zm0 0"/>
</symbol>
<symbol id="s_icon_crew" viewBox="0 0 20 23"><path d="M10 0C8.5 0 7.4 1.2 7.4 2.6c0 1 .6 2 1.6 2.4v2.3H1.8v1.4h7.1l-.2 9.2c0 .2 0 2.3-2.8.8-2.8-1.4-1.2-3.1-1-3.1-1.7-.5-3.2-2-4.4-3.4-1.2 2.6.9 5.4 1.1 5.8.3-.3.6-.2.9-.2 2.7 4.5 6.5 4 7.5 5.2 1-1.2 4.8-.7 7.7-5.2.2 0 .6-.1.9.2.1-.4 2.3-3.2 1.1-5.8-1.2 1.5-2.7 2.9-4.4 3.4.2 0 1.8 1.7-1 3.1-2.8 1.4-2.8-.6-2.8-.8l-.2-9.2h7.1V7.3h-7.1V5c.9-.4 1.6-1.3 1.6-2.4C12.6 1.2 11.5 0 10 0z"/>
</symbol>
<symbol id="s_icon_ending" viewBox="-24 16 20 20"><path d="M-12.7 17.8l2.3 4.6 5.1.7c1.2.2 1.7 1.7.8 2.5l-3.7 3.6.9 5.1c.2 1.2-1.1 2.1-2.1 1.6l-4.5-2.4-4.5 2.4c-1.1.6-2.4-.4-2.1-1.6l.9-5.1-3.7-3.6c-.9-.9-.4-2.3.8-2.5l5.1-.7 2.3-4.6c.3-1.1 1.9-1.1 2.4 0z"/>
</symbol>
<symbol id="s_icon_sharing" viewBox="0 0 20 20"><path d="M16 12v3.9c0 1.9-1.5 3.1-3.4 3.1H4.1C2.2 19 1 17.8 1 15.9V7.4C1 5.5 2.2 4 4.1 4H8m2-3h6.1C18 1 19 2 19 3.9V10M5.7 14.3L18.5 1.5"/>
</symbol>
<symbol id="s_spotify" viewBox="0 0 40 40"><path d="M20 0C9 0 0 9 0 20s9 20 20 20 20-9 20-20S31.1 0 20 0zm9.2 28.9c-.4.6-1.1.8-1.7.4-4.7-2.9-10.6-3.5-17.6-1.9-.7.2-1.3-.3-1.5-.9-.2-.7.3-1.3.9-1.5 7.6-1.7 14.2-1 19.4 2.2.7.3.8 1.1.5 1.7zm2.4-5.5c-.5.7-1.4 1-2.1.5-5.4-3.3-13.6-4.3-19.9-2.3-.8.2-1.7-.2-1.9-1-.2-.8.2-1.7 1-1.9 7.3-2.2 16.3-1.1 22.5 2.7.6.3.9 1.3.4 2zm.2-5.6c-6.4-3.8-17.1-4.2-23.2-2.3-1 .3-2-.3-2.3-1.2-.3-1 .3-2 1.2-2.3 7.1-2.1 18.8-1.7 26.2 2.7.9.5 1.2 1.7.7 2.6-.5.7-1.7 1-2.6.5z"/>
</symbol>
<symbol id="s_toggle_bg" viewBox="0 0 53 24"><path d="M11.7 22.4H41c5.9 0 10.7-4.8 10.7-10.7C51.7 5.8 46.9 1 41 1H11.7C5.8 1.1 1 5.9 1 11.8c0 5.8 4.8 10.6 10.7 10.6z"/>
</symbol>
<symbol id="s_toggle_icon_animation" viewBox="0 0 24 24"><circle cx="16" cy="12" r="3"/><path d="M10.6 12.1H6.7c-.4 0-.7-.2-.7-.6s.3-.6.7-.6h3.9c.4 0 .7.2.7.6s-.3.6-.7.6zm0-2.4H5.5c-.4 0-.7-.2-.7-.6 0-.4.3-.6.7-.6h5.1c.4 0 .7.2.7.6 0 .4-.3.6-.7.6zm0 4.7H8.2c-.4 0-.7-.2-.7-.6s.3-.6.7-.6h2.5c.4 0 .7.2.7.6s-.4.6-.8.6z"/>
</symbol>
<symbol id="s_toggle_icon_audio" viewBox="0 0 24 24"><path d="M16.3 7.8c0-1-.7-1.4-1.4-1.4l-6 1.5c-.5.1-.7.5-.7 1v5.6s-.4-.1-.5-.1c-1.1 0-2 .9-2 2s.9 2 2 2c2.8 0 2.5-2.8 2.5-2.8v-6l4-1V13c-1 .1-1.8.9-1.8 1.9 0 1.1.9 2 1.9 2s2-.9 2-2c.1-.2 0-7.1 0-7.1z"/>
</symbol>
<symbol id="s_toggle_nob" viewBox="0 0 24 24"><circle cx="12" cy="12" r="11"/>
</symbol></svg>