<?xml version="1.0" encoding="utf-8"?>
<svg xmlns="http://www.w3.org/2000/svg">
<symbol id="s_challenge_flashlight-fish" viewBox="-22.4 21.5 28 28"><circle cx="-8.4" cy="35.5" r="13.5"/><path fill="currentColor" d="M-13.2 32.7l1.9-1c.5-.2 1.3-.7 1.8-.7.8-.1 2.1 1.4 2.4 2.1 0 .2 0 .4.2.5.2.1.6-.1.8-.1.5-.1 1.2-.2 1.6-.5 1.2-.6 2.1-1.7 3.1-2.4.4-.3 1.2-1 1.8-.8.5.1.3.6.2 1.1-.3 1.4-1 1.9-2 2.8 1.1 0 1.8-.1 2.8.5.6.4 1.4.7 2 1.2-1.3 1.1-3.2 1-4.8 1-1.8 0-3.5-.1-5.3.4.6 0 .5.5.7 1 .3.5.6.7-.1 1.2-.8.4-1.8.5-2.7.8-.7.3-1.4.7-2.2 1-1.6.4-3.6.3-5.2 0-.6-.3-1.4-.6-1.8-1.2-.2-.1-.5-.5-.5-.7 0-.4 0-.3.3-.6-.4.2-.5-.1-.5-.5.3-2.9 3.3-3.9 5.5-5.1zm-4.5 5.3c-.1 1.4 2.8.7 2.7-.4.1-1.8-2.7-.6-2.7.4z"/>
</symbol>
<symbol id="s_challenge_nautilus" viewBox="-22.4 21.5 28 28"><circle cx="-8.4" cy="35.5" r="13.5"/><path fill="currentColor" d="M-12 35c-1.5.7-1.9 4.6-2.3 6.1-.2.6-.3 1.2-.5 1.8-.2.5-.5.9-.9 1.2 1 .6 2.5.3 3.6.3 2.6-.1 5.1-.9 7.1-2.6 2.1-1.7 3.8-3.8 4.4-6.5.4-2.8.5-4.9-1.4-7.7-1.3-2.1-4.6-3-6.8-2.1-2.1.9-2.6 1.8-2.9 2.4-.6 1.8-1.1 3.4.2 5.1.7.9 3 2.1 5 .2-1.2 1.4-1.5 1.6-2.6 1.8-.7.2-2.4-.2-2.9 0z"/>
</symbol></svg>