<svg id="Layer_1" xmlns="http://www.w3.org/2000/svg" viewBox="379 -233 827.5 517.5"><style>.st0{opacity:0.1;} .st1{fill:#022550;} .st2{opacity:0.5;} .st3{opacity:0.7;fill:url(#SVGID_1_);enable-background:new ;} .st4{opacity:0.7;fill:url(#SVGID_2_);enable-background:new ;} .st5{opacity:0.5;fill:#022550;enable-background:new ;}</style><g id="blobby_shading_detail" class="st0"><path class="st1" d="M734.3 37c8-1.8 14.6-12.4 23.3-5.1 1.4 1.1 2.3 2.5 2.9 4.1.5 1.2.5 3.5 1.5 4.5 2.4 2.3 6.9-.8 9.8-.2 2.5.5 8.4 6.6 9.2 9.1 1.4 4.3-7 2.3-9.3 2-4.9-.6-9.8-1.3-14.8-1.8-5-.6-10 0-14.9-.7-4.1-.5-7.4-2.8-11.7-2.6-5 .3-9.6-.4-14.6-1.3-9.2-1.7-17.3-6.2-26.1-9.4-2.8-1-8.6-1.7-10-4.8-1.5-3.5 1.1-10.5 1.7-14.1.5-2.9.4-10.5 3.4-12.2 3.3-1.9 7.5 2.7 11.3 1.6 4.4-1.3 6.6-2.6 8.2 2.8.7 2.6 3 8.7 5.5 10.1 2.5 1.4 3.3-1.2 2.7-3.8-.3-1.3-1.8-2.1-2.1-3.3-.4-1.7 1-3.2 2.9-2.6 1.5.5 1.9 2.2 2.1 3.6 3.5-1.5 8-1.4 10.7 1.5 3.7 3.8 1.6 7.4-.7 11.1-1.8 2.8-.3 6.4 1.8 9 1.4 1.8 5.2 3.8 7.2 2.5zm387.3 126.6c-.3 5.2-1.1 9.7-2.8 14.6-1 2.9-1.3 6.9-3.3 9.2-2 2.2-5.5 2.2-8.1 3.7-2.6 1.5-4.6 2.5-7.8 2.1-3.1-.4-6.4-1.7-8.6-4-2.5-2.6-3.6-5.8-6.8-7.7-6.6-3.9-13.8-6.9-18.1-13.7-3.7-5.9-6.9-13.7-.8-18.7 3.1-2.5 5.9-2.2 9.6-3.4 4.2-1.5 7.1-2.6 11.5-1 1.7.6 3.6 2.4 5.4 2.7 1.8.3 3.2-.7 4.9-.8 3.8-.3 8.3 1.1 11.9 2.3 3.8 1.3 6.2 3.2 9.2 5.8 3.3 2.6 3.8 4.4 3.8 8.9-.3 4.9 0-1 0 0zm-21.9 11.8c0 4.4 1.2 9.9 6.8 6.3 4.2-2.8 6-9.1 6.2-13.8.1-3.7-1.8-10.7-6.8-8.6-4.9 2.1-6.6 11.6-6.2 16.1 0 .9-.3-3.7 0 0zm-589-28.7c1.6.8 3.7-.2 5.4.2 1.3.3 2.6 1 3.7 1.9 2.6 2.1 3.5 5.1 4.1 8.2 1.3 6.4-7.7 12.9-12 16.7-5.4 4.7-11.6 7.7-16 13.4-2.8 3.7-3 5.3-8.1 5.1-4.1-.1-8.2-1-11.9-2.9-3.2-1.6-6.3-3.5-7.3-7.1-1-3.5-.6-7.3-1.8-10.9-1.3-3.9-2.9-6.7-1.5-10.9 1-3.2 2.6-6 4.8-7.9.5 0 .9-.1 1.3-.2.4-.4.7-.9 1-1.4 1.2-.8 1.6-1.5 3.2-1.9 3.3-1 7.2-.7 10.6-1.2 8.2-1.2 16.1-.6 24.5-1.1 1.3.7-2.4.2 0 0zm-35.4 19.7c.6 5.8 2.5 10.8 6.7 15 1.4 1.4 3.7 3.3 5.6 2 2.2-1.5 1.1-5 .9-7.2-.7-5.8-1.9-8.3-5.9-12.3-1.2-1.2-2.6-4.4-4.7-3.9-2.2.5-2.5 4.7-2.6 6.4.3 3.1.1-2.2 0 0zm95.5-12.5c-3.6-.2-8.6-.4-11.9.8-2.8 1-1.2 2.9-3.6 4-2.8 1.2-4.6-2-4.9-3.9-.6-3.3 1.3-4.4 3.5-6.7 2.3-2.5 3-6.6 7.2-6.4 1.9.1 3.3 1.3 5 2 2.1.9 4.3.5 6.5 1.4 3.4 1.4 4.4 3.4 6.6-.7 1.3-2.5 4-5.7 6.7-2.1 1.4 1.8.2 3.4.2 5.4.1 2.5 1.1 4.5.9 7.1-.1 1.7-.2 9.9 1.2 10.4 1.1.4 3-3.4 3.6-4 1.4-1.5 3-2.7 5-3.3 4.7-1.5 9.4 1.4 12.9 4.5 3.7 3.2 3.3 6.1-1.3 7.5-4.7 1.4-9.4 2-13.7 4.6-2.9 1.8-5.2 4.3-8.7 4.8-4.2.7-8.1-3.4-11.4-5.9-2.1-1.6-4.1-3.2-6.2-4.7-1.9-1.3-4.4-2.1-6.1-3.6-3-2.6-1.1-6.2 1.8-8.1 1.6-1 3.3-1.6 5.2-1.2 2.2.4 4.7 3.4 7 3.1 2-.3-.2-2.6-1.2-3.6-1.5-2-1.9-1.9-4.3-1.4-.3 0 1.4-.3 0 0zm64.5 56.1c.5 5.9-3.1 12.6-8.4 15.2-5 2.4-9.3 5-15 3.3-4.8-1.5-11.5-4.8-15.2-8.2-3.6-3.3-7.8-11.2-6.3-16.3.7-2.3 2.7-3.1 4.1-5.1 1.6-2.4 2.3-5.2 4.1-7.4 3.3-3.9 9.8-7.8 14.8-8.2 6.6-.5 11.3 2 14.8 7.6 3.5 5.7 7.5 12.2 7.1 19.1.2 2.9.2-3.8 0 0zm-10-4.7c-3.1-4.7-4.8-11.9-12-10.9-5.1.8-12.9 6.3-11.5 12 1.1 4.4 6.4 14.4 11.5 13 4.4-1.1 18-8.7 12-14.1zm399.8-44.5c-2.3 5.9-7.5 8.1-12.6 11.5-3.4 2.2-6.7 5-10.4 6.8-2.5 1.2-7 .4-7.7-3-.6-3.1 4.4-3.2 4.2-6.1-.1-1.9-4.3-2-5.5-3.7-.6-.9-1.7-6.6-3.4-5.4-1.2.8-.4 5.3-2.3 6.9-5.3 4.5-12.5-2.6-9-8.2 1.3-2 4.4-3.5 6.2-5.3 3.1-3.1 4.9 0 8.2-1.2 1.6-.6 2.8-2.2 4.4-2.9 1.5-.6 3-.9 4.6-.9 3.9-.2 6 2.4 9.3 2.8 1.8.2 3.6-.8 5.5-.6 1.1.1 2.9 1.3 3.9.4 2.2-2-.8-6.2 3.6-7 1.8-.4 3.4.9 5.2.5 1.7-.4 3-1.7 4.8-2 2.7-.4 7.3 1.2 7.6 4.4.3 2.9-4 6.8-6 8.6-3.2 3.1-6.1 4.4-10.6 4.4-1.7 4.2.6 0 0 0zM676.4-137.1c0-3.2-.3-5.9 1.7-8.5 2-2.6 4.8-5.1 7.3-7.2 4.5-3.9 9.5-6.5 13.9-.9 1.8 2.3 3 5.8 3 8.7 0 1.4-2.1 6.1.6 6 4.6-.1-2.5-13.5 6-9.7 1.9.8 2.8 3.3 4.3 4.6 2 1.9 4.3 3.2 3.9 6.5-.3 2.4-3 5.5-4.3 7.3-1.6 2.4-3.6 2.4-6.6 3-6.6 1.4-13.9 3.4-20.7 2.8-3.2-.3-6.9-.5-8.3-3.8-.4-.8-1.5-8.8-.8-8.8 0-1.5 0 0 0 0zm298.9 323.8c5.8-.5 11.5 1.8 15.7 6 4.1 4.1 4.2 11.6 3.5 17-.8 6.3-5.7 9.1-9.4 13.6-1.5 1.8-1.3 5.1-3.1 6.3-1.9 1.3-6 .9-8.1.3-2.7-.7-5.1-2.2-7.8-3s-5.1-1.7-7.2-3.7c-4.1-4-5.7-10.4-6.4-15.8-.6-5.2 2-10.7 5.3-14.8 4.3-5.4 10.9-6.8 17.5-5.9.9 0-.6 0 0 0zm-2.2 5.7c-3.3 0-6.2 1.5-8.2 4.1-1.7 2.3-4.7 4.9-5 7.9-.7 7.1 4.2 13.5 10.8 15.3 6.6 1.8 15-5.8 15.6-12.5.7-6.7-7.5-13-13.2-14.8-2.1 0 .6.2 0 0zm-503.6-75.2c-.4-4.5-3.5-2.8-5-6-.7-1.5-.4-4-.6-5.7-.2-1.5-.7-2.9-.6-4.4.2-5.5 3.8-4.4 7.6-2.7 4 1.7 3.8-.1 5.7-3.1 2.2-3.5 5.8-3.4 6.4 1.3.3 2 .3 3.3 1 5.3.5 1.5.8 2.4.5 4-.2 1-2.4 3.4-2 4.4.5 1.1 2.9 1 3.9 1.5 3.7 1.7 2.4 4.8 4.6 7.3 1.5 1.7 1.8.9 3.4-.1 1.7-1.1 2.7-1.9 4.6-2.8 2.7-1.1 5.1-5 8.2-3 3.4 2.3 0 6.3-1 9-1.3 3.4-2.7 6.7-7 5.9-2.6-.5-6.6-5.4-8.7-.9-.6 1.4.6 2.6-.9 3.4-.9.5-3.1-1.5-3.8-1.9-3.5-1.9-7.2-2.6-10.8-4.2-1.7-.7-3.7-1.5-4.8-3.1-.6-.6-1.6-4.2-.7-4.2-.1-.7-.1 0 0 0zM853.7 46c-2.2 0-6.5.9-7.9-1.1-1.6-2.2.6-5.4 1.5-7.4 1.3-2.9.8-2.9-1.5-4.8-2.1-1.8-4.2-4.2-4.7-7-2.3-11.3 14.7-16 20.1-6.9 1.4 2.3.9 4.9 1.9 7 1.1 2.4 2.6 1.8 5 2.3 4.7.9 8.4 3.8 11.1 7.7 1.1 1.7 3.4 4.5 2.1 6.3-1.1 1.6-7.2 1.7-9.1 2-1.7.3-18.4 2.7-18.5 1.9-2.1 0 0 .1 0 0zm-68.9-255.6c7.4 1.3 15.3 1.6 22.9 2 1.7.1 3.5.3 5.2-.2 1.4-.4 2.6-1.7 4-1.9 2.6-.4 6 2.5 7.8 4 1.1.9 4.9 3.8 4.2 5.5-.7 1.9-5.8 1.7-7.3 1.9-3.6.5-7.2.9-10.9 1.3-4.2.5-7.7-.2-11.9-.4-7.9-.5-15.9-.1-23.7-.1h-12c-2.3 0-7.6.7-9.6-1-4-3.4 7.4-8.6 10.2-9.5 3.4-.9 7.2-.6 10.7-.6 3.6 0 7-1.4 10.4-1 5.3.9-1.5-.2 0 0zm120.1 360.3c-4.3-1.9-5.4-4.2-8.1-7.9-2.4-3.3-2-7.8 3.1-6.7 3.4.7 7.4 3.8 10.8 4 3.3.2 4.7-4.7 8.4-4.7 2.8 0 6.9 2.7 7.2-2.2.2-3.2-2.9-4.6-5.3-2.7-1.2 1-1.2 3.5-3.4 3.2-1.7-.3-1.8-1.7-1.9-3 0-.5.2-5 .5-5.2 1.2-1 5.1.4 6.5.7 3 .8 6.4 2.8 7.8 5.9 1 2.3-.2 6.6-.7 9-1.7 7.9-10.3 13-16.7 16.5-4.2 2.3-8.7 4-13.3 5.2-1.3.4-12.4 3.4-10.5-.6.4-.9 3-1.2 3.9-1.8 1.5-1 2.6-2.5 3.7-3.9 2.7-3.4 4-4.5 8-5.8-1.1-.5-.8.2 0 0zM895.5 25c2.7 6.1-.3 10.3-7.1 8.2-6.1-1.9-11.7-.9-14.7-7.8-2.4-5.5-.2-11.4 5.1-14 2-1 5.4-.8 6.9-2.5 1.3-1.5.8-5.1.8-6.9 1.6-2.4 5-9.6 8.8-9.2 3.5.4 3.9 9.8 4.4 12.4 1.2 5.5 2.8 11.1 3.5 16.7.7 5.9-3.5 4.6-7.7 3.1zM961.3.4c2.9 2.2 3.1 2.9 4.8 6 .9 1.6 2.9 4.6 5 4.2 1.2-.2 2.1-2.1 3.1-2.7 1.4-.8 2.6-1 4.2-.9 1.7.2 3.3 1.1 5 1.2 1.1.1 2.5-.5 3.6 0 2.4 1.1 3 4.4 1 6.3-1.8 1.8-7.1 2.1-9.5 2.3-3.3.3-7.1.3-10.2 1.5-3.5 1.3-4.6 3.1-8.6 1.8-1.4-.5-2.3-1.3-3.8-1.5-1.9-.3-3.5.5-5.5-.4-2.8-1.2-4.2-4.7-3.6-7.7.6-2.9 2.6-3.8.1-6.5-2.7-2.9-3.4-3.9-4.1-8.1-.7-4-.1-5.5 3.8-3.3 2.8 1.5 4.7 1.7 7.8 1.1 2.3-.4 5.5-2.6 7.6-1 3 2.3.8 5.7-.7 7.7.4.3.3-.4 0 0zm-59.2-138.9c-1.2-2.8-6.9-3.5-7.1-6.3-.2-2.9 5.8-5.6 8.1-4.7 7.4 2.7 3.8 16.7 3.9 22 0 4-1.4 3.9-5.1 3.2-3.5-.6-8.3-.8-11.5-2.1-.8-.4-1.5-.9-2.1-1.4-.3.3-.7.6-1 1-2 .7-2.8 1.6-5.3 1.4-2-.2-4.1-.6-5.7-1.8-1.8-1.4-1.7-2.3-4.4-1.7-1.6.4-2.8 1.8-4.4 2-1.7.2-3.9-.8-5.4-1.5-3.1-1.4-4.7-3.8-2.1-6.8 2.8-3.2 6.1-1.7 9.5-1.1 3.5.6 7.5-1 10.5 1.3 1.6 1.2 2.4 4.2 4.2 1.6 2.5-3.7-5.9-8.3-.2-11.1 2.4-1.2 8 .9 9.9 2.8 1.3 1.3 1.4 3 3.2 3.7.9.3 4.4.3 5-.5-.6-1.3-.2.2 0 0zM625.4-9.3c.5-2.5.7-6 4.1-6 3.1 0 3.2 2.9 4.1 5 1.2 3.1 2.1 4.4 1.9 7.7-.2 3.5-.6 6.8-1 10.3-.5 4.1.8 12.9-4.9 13.3-2.5.2-5.9-1.4-8.4-1.7-3.3-.4-6.6-.6-9.8-1.1-2.6-.4-12.9-1.6-9.9-6.3 1.1-1.8 4.6-2.5 6.3-3.7 2.1-1.5 3.7-2.9 6.4-2.1 1.4.4 3.8 3.5 4.9 2.8.8-.5-.8-5.4-.8-6.4-.1-5.2 2.9-8.9 7.1-11.8.2-1.3-.7.4 0 0zM670.1 142c-.2 3.4-6.6 3.5-4.7 7.4 1.2 2.5 6 3.3 7.9 5.5.7.8 1.7 3.5 3.1 3.4 1.2-.1 2.4-1.9 1.9-3-.6-1.5-3.6-1.5-4.8-2.6-.9-.8-1.5-1.8-1.9-2.9-1.1-3.2.3-6.6 3.4-8 1.6-.7 2.9-.6 4.6-.2 1.9.4 3.9.6 5.8.9 3.6.6 4.8 4.5 1.7 6.8-2 1.4-7.2 1.5-5.5 5.3.6 1.4 2.9 1.4 3.7 2.9.8 1.7-.1 3.4-1.5 4.5-3.5 2.5-7.3-1.2-10.5-2.6-3.9-1.7-9.4-2.3-12.3-5.6-1.3-1.5-1.8-3.4-3.4-4.7-1-.9-2.2-1.2-3.1-2-3.3-3-1.9-5.4-1.7-9.3.2-3.7.5-5.9 4.6-7.1 3.7-1.2 6.7.1 8.5 3.6.7 1.3 1 2.4 1.8 3.7 1.2 1.6 2.5 1.7 2.4 4 0 .9.1-1.4 0 0zm131-363.6c-5.7-.4-10.7 2.1-16.2 2.8-3.4.4-3.9-1.4-6.5-2.7-2.2-1.1-4.6-.1-6.9-.3-2-.1-7.6 0-9.2-1.4-1.8-1.5-.3-4.1.7-5.8 3.3-5.5 10.4-3.9 15.8-3.1 5.8.8 11.8.4 17.7.4 5.6 0 10.5 1.8 16 2.7 1.9.3 5.9-.2 7.4 1.2 1.9 1.9-.5 4.3-1.9 5.8-2.4 2.5-3.3 1.9-6.7 1.2-3.3-.6-6.8-.8-10.2-.8-3.9-.3 4.7 0 0 0zm-166.8 102c0-4.9.7-9.1 3.8-13.1 2.8-3.6 4.4-4.5 8.8-4.8 4.6-.3 8.6.5 13.1 1.3 5.4.9 5.9 4.5 4.7 9.4-.7 2.7-1.5 4.9-3.8 6.6-3.3 2.4-6.6 1.4-10.2 2.2-3.5.8-6.6 3.1-10.2 4.2-5.7 1.5-6.2-.2-6.2-5.8-.1-2.5 0 .7 0 0zm471 218.5c2.4-.7 4.1.1 5.8 1.7 1.7 1.6 3.3 2.7 5.1 4.1 4 3.3 4.6 6.8 1.9 11.2-1.5 2.4-2.4 2.7-4.6 4-2.1 1.2-2.1 2.2-3.2 4.4-1.9 3.6-5.7 4.8-9.1 2.6-2.4-1.6-7.5-3.2-7.3-6.6.4-6 6.4-1.1 7.9-4.5 1.8-3.9-5.3-6.5-5.9-10-1-6 5.2-6.6 9.4-6.9 2.7-.8-1.9.2 0 0zM945.9-126.8c.3 2.8 2.5 8.6.3 10.9-2.4 2.5-6.3-.7-8.9-1.2-7.1-1.5-17.3-.6-17.1-10.3.1-8.1 7.6-13.7 15.4-11.5 3.6 1 5.7 2.1 8.3 4.7 2.6 2.7 3 3.7 2 7.4.1.9.7-2.3 0 0zm48.7 173.9c3.6 1.1 7.2-1 10.4 1.4 3 2.2 4.2 6.2 4.5 9.7.3 3.3 1.1 6.5-2.2 8.3-1.8.9-5.7 1.9-7.7 2-1.5.1-2.8-.6-4.2-.7-1.7-.1-7 2-6-2 .5-1.8 2.1-1.1 3.4-1.7 1.6-.8 1.4-1.2 2.1-3.1 1.8-5-.1-4.8-3.4-7.8-3.1-2.9-.6-5.7 3.1-6.1 2 .6-.7.1 0 0zm84.3 89c-3.3-.8-5.5-2.9-8.8-2.7-3.5.2-6.2-.3-7.1-4.5-.6-3 .7-5.8 3.5-7 4.3-1.9 5.7 2.8 9.2 2.6 2.2-.1 3-4.3 5.3-5.4 3.5-1.6 6.9 1.1 8.4 4.2.5 1.1 1.3 3.1.8 4.3-.7 1.8-2.9 1.8-3.9 3.3-.6.8-.4 2.5-1 3.1-1.3 1.4-4.5 1.6-6.4 2.1-.9-.2 1.9-.5 0 0zM651 188.5c7.9-.3 10.7 11 17.6 11.8 3.5.4 5.1-.3 7.1 3.4 1.4 2.7 2.2 6.2-1.9 5.9-2.9-.2-7.3-1.8-10.1-2.8-3.7-1.3-7.1-3.5-10.7-5.1-3.8-1.7-5-3.2-5.9-7.5-.7-3.5.5-4.7 3.9-5.7 1.7-.1-.3.1 0 0zm461.8-107.8c0-3.1-3-5-1.8-8.6.8-2.3 2.9-4 5.4-4 5.6 0 5.6 9.6 5.7 13.5.1 4 .1 10.9-5.8 10.3-6.5-.7-5.8-7.1-3.5-11.2 0-1.1-.4.7 0 0zM917.5 207.9c-2 0-5.9-.3-4.5-3.5.9-2.1 3.8-1.3 4.8-3.5 1-2.3-.8-4.9.5-7.4 1.1-2 3.2-3.2 5.5-3.1 3.8.3 9.4 7.4 9.4 11.1 0 5.4-11.9 6.1-15.7 6.4-.7 0 2-.2 0 0zM524.1 30.8c-.4 1.4-.9 5.4-2.2 6.4-1.4 1.2-3.9-.1-5.4-.6-1.5-.4-3.2-1.3-4.8-1-1.2.3-2.2 1.7-3.5 1.7-2.4.1-2.6-2.1-1.7-3.3.3-.4 1.6-.9 2-1.4.7-.9.9-2.7 1.1-3.7.5-1.9 1.1-7 3.2-7.8 2-.7 4 1.8 5.7 2.8 3.1 1.9 5.4 2.9 5.6 6.9-.2.7-.1-2.2 0 0z"/><path class="st1" d="M944 182.7c-.6 2.2-1.8 4.1-2.7 6.2-1 2.2-1.8 6.4-3.6 8-4.1 3.7-9.3-3.8-7.3-7.7 1-1.9 3-3.1 4.4-4.7 2.1-2.5.5-3.4 1.2-6.1.5-2.2 3.1-3.3 5.1-2.4 2.4 1.1 2.4 4.4 2.9 6.7-.2.7-.3-1.6 0 0zM792.3 27.8c0 9.4-14.6 10.2-15.5 1.1-.8-9.1 15.9-11 15.5-1.1 0 .5.1-3.2 0 0zM875-11c4.7.2 6.7 3.9 5.7 8.1-.6 2.9-.2 10.6-5.4 9-2.1-.6-2.2-2.2-3-4-.9-1.8-2.5-3.3-3.2-5.2-1.5-4.2 1.9-7.5 5.9-7.9 2.4.1-.4 0 0 0zM529.9 133.8c.4 6.9-7.5.5-9.3-.6-3.2-1.9-6.6-4.2-4.6-8.5 1.6-3.6 6.4-4.6 9.5-2.3 2.3 1.8 2 3.6 2.5 6.1.3 1.9 1.5 3.5 1.9 5.3.1 1.3-.1-.2 0 0zm298.4-92.4c.1 2.5-1 3.3-2.1 5.3-.8 1.6-.6 3.7-1.6 5.1-1.3 2-3.5 2.2-5.3.6-1.8-1.7-1.1-3.6-1.6-5.7-.6-2.5-2.4-4-1.4-6.8.6-1.8 1.9-3.1 3.7-3.6 4.2-1.4 7.3 1.4 8.3 5.1.1 1.7-.1-.3 0 0zM593.2 61c0 5.5-5.7 6.5-10 5.7-4.6-.9-6.2-2.9-4.3-7.3.4-.9 1.2-1.3 1.3-2.4.1-1-.8-1.9-.7-3 .2-2 2.1-3.2 4.1-2.8 1.9.4 4.1 3.1 5.7 4.2 2.2 1.5 3.9 2.7 3.9 5.6 0 3 0-2.4 0 0zm100.2 95.1c.2-7.5 13.4-9.6 15.4-2 1.1 4.2-4.7 4.9-7.6 5.9-3.7 1.2-7.9 1.2-7.8-3.9 0-1.2-.1 2.9 0 0zM470.2 76.2c7.4-.4 9.1 10.3 1.6 11.8-3.7.7-6.2-1.6-7.2-4.9-1.6-5.6.9-6.2 5.6-6.9 5.2-.3-1.1.1 0 0zM938.6-24.7c1.4-8.8 9.7 2.8 10.8 5.9 1.4 3.9-2.1 6.3-5.6 4.3-4.2-2.4-4.4-5.8-5.2-10.2.1-.8.3 1.5 0 0zm40.6 86.9c2.2.1 2.4 1.3 3.4 3 .9 1.4 2.8 2.8 3.5 4.2 1.6 3.3-2.2 3.7-4.8 4.3-1.4.3-3.9 1.4-5.2.5-2-1.3-.4-3-.1-4.6.3-2.6-1.4-7.5 3.2-7.4 1.2.1-2.1-.1 0 0zM795.1 53c-2.9 0-5.3.1-7.2-2.2-2-2.3-3.2-7.2 1.3-7.5 2.6-.2 6.4 3.8 8 5.3 2.7 2.6 1.2 4-2.1 4.4-1.3 0 .2-.1 0 0zm-70-192.3c2.2 0 6.1 1.7 5.7 4.4-.3 2.1-6.4 3.9-8.2 4-6.7.5-3.1-8.4 2.5-8.4 1.9-.1-.4 0 0 0zm169.5 351.6c-3.7-.8-1.8-4.4.5-5.9 2.6-1.6 4.8-.5 7.3.6 1.7.7 5.8 1.1 5.1 3.1-.6 1.5-11.5 1.9-12.9 2.2-.7-.2 4.1-.8 0 0zM692.3-3.2c.1 5.1-8.3 8.8-7.3 2 .2-1.5 1.4-6.2 2.9-6.9 2.5-1.2 4.3 3.1 4.4 4.9 0 2.6-.1-2 0 0zM603 68c1.9.2 7 2.6 4.2 5.2-1.6 1.5-8.5-.9-10.3-1.1-1.7-.2-6.1-.1-3.1-2.4.6-.5 2.6-.1 3.5-.2 1.9-.4 3.7-1.2 5.7-1.5 2.5.3-.6.1 0 0zM587.4 9.5c-3.5-.8-2.6 2.6-5 3.7-1.7.7-7-.9-7.5-2.7-1.1-4.2 5.8-2.5 7.7-2.6 1.4-.1 3.8-.9 5 0s1.8 1.9-.2 1.6c-.3-.1.3 0 0 0zm433.9 130.8c-1 3.1-5.8 6.8-7.4 1.7-1.5-5 7.1-6.4 7.4-1.7-.1.4-.1-1.5 0 0zM734.4 37c-2.9-.7-7.2-7.3-3.7-9.3 4.4-2.5 4.5 7.5 3.7 9.3zm-42 174.6c-1.1 3.5-7.2 2.3-8.4-.6-2.3-5.4 7.1-1.9 8.4.6-.1.3-.2-.3 0 0zm430.1-114.1c-.7 1.6.5 3.6-2 4.1-1.4.3-3.3-.9-3.2-2.5.1-.9 3.5-4.3 4.3-4.1.9.3.8 1.7.9 2.5-.3.8-.1-.8 0 0zm-568.8 42.1c.1 2.7-3.8 4.2-4.7 1.2-.8-3.1 4.6-4.4 4.7-1.2zm354.7-5.1c-3.3-.6-2.2-5.4.9-4.8 2.9.5 1.7 4.8-.9 4.8-.9-.2 1 0 0 0zM608 2.8c.1 3.1-4.3 3.3-4.4.2-.1-3 4.3-3.4 4.4-.2 0 1.5-.1-1.3 0 0zm283.6 148.7c2.9.1 2.5 4.3-.2 4.4-3.1.1-3-4.5.2-4.4 1.3 0-1.5-.1 0 0zM587.9 2.6c.2 2.7-3.8 3.6-4.4.8-.5-3 4.1-4.1 4.4-.8.1 1.3-.1-1.3 0 0zm216 40.9c0 2.9-5 3-4.7.1.1-2.4 4.7-2.9 4.7-.1 0 1.1 0-1 0 0zm200-2.3c-.4 2.9-5 2.5-4.7-.4.3-2.9 5.1-2.6 4.7.4-.2 1.3.1-1.1 0 0zm-193.6 1.5c2.9-.1 3.1 4.6.1 4.7-2.8 0-3.1-4.7-.1-4.7 1.3-.1-1.3 0 0 0zM596 151c-.3 3-4.1 3.1-4.3 0-.2-3.3 3.3-2.2 4.3 0-.1 1.2-.1-.3 0 0zM490.4 99.7c2.9-.3 3.2 4.5.2 4.6-2.6 0-2.9-4.4-.2-4.6 1.1-.2-1.1.1 0 0zM601.6 62c.1 2.9-4.6 3.1-4.7.1 0-2.9 4.6-3.2 4.7-.1 0 1.2 0-1.3 0 0zm95.2-75.2c.2 2.7-3.8 4.1-4.6 1.2-.9-2.5 4.3-3.8 4.6-1.2.1 1.1-.1-.8 0 0zM511.5 128.9c-3 .2-3.4-4.7-.2-4.4 2.5.2 3 4.2.2 4.4-1.4.1 1.6-.1 0 0zm162 4.5c-.3 2.8-5 3.2-4.7.1.3-2.6 5-2.8 4.7-.1-.1 1.5.1-.6 0 0zM863.8-1.4c2.9.2 3.1 4.9.1 4.6-2.5-.3-2.9-4.8-.1-4.6 1.4.1-.9-.1 0 0zm212.6 118c0 2.9-4.6 2.6-4.2-.2.3-2.4 4.2-2.5 4.2.2zM722-146.7c.2 2.5-3.9 2.8-4.3.3-.3-2.9 4.1-3.3 4.3-.3 0 1-.1-1.3 0 0zm370.7 262.2c-2.8-.1-3-4 0-4s3.1 4 0 4c-1 0 1.4 0 0 0zM596.9 51.1c.2 2.8-4.1 3.2-4.2.5-.1-2.4 4-3.1 4.2-.5.1 1.2-.1-1 0 0zM470.6 71.7c-2.6.2-2.6-3.8-.2-4.1 2.7-.4 3 3.9.2 4.1-1 .1 1.2-.1 0 0zm442.5 124.2c.3 2.6-3.8 2.6-4.1.2-.4-2.7 3.9-3 4.1-.2.1 1-.1-1.2 0 0zm15-218.5c.1-2.2 2.6 1.4 2.4 1.1.5.8 1.4 3.6.8 4.3-1.8 1.9-3.3-4.4-3.2-5.4 0-.1-.2 2.3 0 0zm-288.9-4.1c-.9 2.5-3.6 2.7-2.7-.7.8-2.5 2.5-1.5 2.7.7-.2.5-.1-.6 0 0zM908-24.4c1.5-1.2 2.9 2.9 2 3.6-1.6 1.3-2.1-2.7-2-3.6.1-.1-.2 1.3 0 0zM679.8 128.9c-2-1.1-1.4-3.4.9-2.2 2 1 .6 1.8-.9 2.2-.4-.2.5-.2 0 0zm-7.2-3.7c2 .8 1.3 1.9-.7 1.7-2-.3-.4-1.5.7-1.7.3.2-.5.1 0 0zm339.9-79.9c-.2.8-2.4 1.9-2.5.7-.1-1.3 1.9-1.4 2.5-.7-.2.8-.2-.2 0 0zm-345.6 64.8c-.2.6-2.6 2.2-3.1 1.1-.5-.9 2.5-2.3 3.1-1.1-.1.1-.1-.2 0 0zm-16.7 54.2c-.2.5-.5.4-.8-.2.2-.4.5-.3.8.2-.1.1-.2-.1 0 0zm5.9-50.5c.1.4-.5 1.1-.7.5.1-.4.3-.6.7-.5 0 .2-.2 0 0 0zM908.9-7.4c-.4-.1-.5-.3-.4-.7.4-.6.6.4.4.7-.1-.1.1-.2 0 0zM646.5 158.9c-.1.4-.1.4 0 0zm51.6-241.2c.2-.3.2-.4 0 0zM610 157.2c.2.4.2.4 0 0zm87 54.5c-.3.2-.5.3 0 0zM886.5 1.9c-.5-.1-.7-.3 0 0-.2 0 0 0 0 0zM621.3 213.4l1-1c-.1 0-.9.9-1 1z"/></g><path class="st1" d="M572.4 30.6l63.2 10.5c.6.1 1.2.2 1.8.2 5.2 0 9.7-3.5 10.9-8.6l24.6-102.3c.9-3.7-.1-7.5-2.7-10.3-2.1-2.2-5.1-3.5-8.2-3.5-.6 0-1.2 0-1.8.1-20.9 3.4-39.7 8.3-55.9 14.8-17.1 6.8-30.5 19.6-38 35.9l-13 28.7c-3.2 7-2.9 14.9.8 21.7 3.8 6.9 10.4 11.6 18.3 12.8zM557.1-2.1l13-28.7c7-15.4 19.7-27.4 35.7-33.8 16-6.4 34.5-11.3 55.1-14.6h1.1c1.9 0 3.8.8 5.2 2.3 1.6 1.7 2.2 4.1 1.7 6.4L644.3 31.8c-.8 3.2-3.6 5.4-6.8 5.4-.4 0-.8 0-1.2-.1L573 26.6c-6.6-1-12.2-4.9-15.3-10.7-3-5.6-3.3-12.2-.6-18zm373.7 134.7c-2.1-5.7-9.8-9.4-19.7-9.4-5.5 0-11.4 1.1-17.1 3.2-8.3 3.1-15.7 8.2-20.1 14-2.4 3-5.9 9-3.8 14.7 2.1 5.7 8.7 7.9 12.4 8.7 2.2.5 4.7.7 7.2.7 5.5 0 11.4-1.1 17.2-3.2 18.2-6.7 27-20.3 23.9-28.7zm-25.4 24.9c-7.7 2.8-15.7 3.7-22.1 2.3-2.9-.7-8-2.2-9.4-6.1-1.4-3.9 1.4-8.4 3.2-10.7 4-5.2 10.7-9.8 18.3-12.6 5.2-2 10.6-3 15.6-3 8 0 14.3 2.7 15.8 6.8 2.1 5.6-5 17.2-21.4 23.3zm27.1-124.7c1.2 5.1 5.7 8.6 10.9 8.6.6 0 1.2-.1 1.8-.2l63.2-10.5c7.9-1.2 14.5-5.9 18.3-12.8 3.7-6.8 4-14.7.8-21.7l-13-28.7c-7.4-16.4-20.9-29.1-38-35.9-16.3-6.5-35.1-11.5-55.9-14.8-.6-.1-1.2-.2-1.8-.2-3.1 0-6.1 1.3-8.2 3.6-2.6 2.8-3.6 6.6-2.7 10.3l24.6 102.3zM913.7-76.9c1.3-1.5 3.2-2.3 5.1-2.3.4 0 .7 0 1.1.1 20.6 3.3 39.1 8.2 55.1 14.6 16.1 6.4 28.7 18.4 35.7 33.8l13 28.7c2.6 5.8 2.4 12.4-.6 18-3.1 5.8-8.7 9.7-15.3 10.7l-63.2 10.5c-.4.1-.8.1-1.2.1-3.2 0-6.1-2.2-6.8-5.4L912-70.5c-.6-2.3.1-4.7 1.7-6.4z"/><path class="st1" d="M944 127.7c-6.4-17.2-30.5-23.6-54.9-14.5-10.9 4.1-20.3 10.7-26.4 18.7-7.1 9.2-9.1 19.2-5.8 28.1 3.3 9 11.4 15.2 22.7 17.6 3.2.7 6.7 1 10.2 1 7.1 0 14.7-1.4 22-4.1 24.4-9 38.6-29.6 32.2-46.8zm-33.7 42.9c-6.7 2.5-13.8 3.8-20.5 3.8-3.2 0-6.4-.3-9.3-.9-9.9-2-16.9-7.3-19.7-14.9-2.8-7.6-.9-16.2 5.2-24.2 5.6-7.4 14.3-13.5 24.5-17.3 7.1-2.6 14.1-3.9 20.6-3.9 13.8 0 25.1 5.8 28.9 16 5.6 14.9-7.5 33.2-29.7 41.4zm38.5-148.5l56.8-9.4h.1c2.2-.3 4.1-1.6 5.1-3.5.5-1 1.3-3 .2-5.4l-13-28.7c-5.5-12.1-15.5-21.5-28.1-26.5-12.3-4.9-26.2-8.9-41.6-11.9l20.5 85.4zm19.5-69.7c11.6 4.6 20.8 13.3 25.8 24.4l13 28.7c.1.2.4.9-.1 1.7-.4.7-1.1 1.2-2 1.3h-.2l-52.9 8.9-18.1-75.3c12.6 2.8 24.2 6.2 34.5 10.3zm-49.5-35.8zM652.7-63.3zm-77.4 76l56.9 9.4 20.5-85.4c-15.4 3-29.3 7-41.6 11.9-12.7 5-22.6 14.5-28.1 26.5L570 3.8c-1.1 2.4-.3 4.4.2 5.4 1 1.9 2.9 3.1 5.1 3.5zm-1.6-7.1l13-28.7c5-11.1 14.2-19.7 25.8-24.4 10.3-4.1 21.9-7.6 34.5-10.3l-18 75.2-53-8.8h-.2c-.9-.1-1.6-.6-2-1.3-.5-.8-.2-1.5-.1-1.7zm104.4 23.7c-.6 3.3.9 6.5 3.8 7.9.2 0 .3.1.5.2 5.4 2.4 18.6 6.5 38.2 9.9 16 2.8 41.9 6.1 74.7 6.1 56.1 0 94.9-11.9 104.1-16 .2 0 .3-.1.5-.2 2.8-1.4 4.4-4.6 3.8-7.9-2.9-16-12.8-69.8-21.5-91-2.6-6.4-6.8-11.8-12.3-15.8-5.5-4.1-12.3-6.6-19.5-7.2l-.6-.1c-.2 0-23.5-3-62.2-3-32.9 0-55.3 3-55.5 3l-.7.1c-6.9.6-13.4 2.9-18.8 6.7-5.9 4.1-10.2 9.6-13 16.3-8.7 21.2-18.6 75-21.5 91zm36.7-104.1c4.8-3.3 10.6-5.4 16.8-5.9h.5l.4-.1c.3 0 22.5-3 55-3 38.3 0 61.5 2.9 61.7 3h.9c6.4.6 12.5 2.8 17.4 6.4 4.9 3.6 8.6 8.4 10.9 14.1 8.5 20.8 18.4 74.3 21.2 90.2.2 1.4-.4 2.8-1.6 3.4-.1.1-.3.1-.4.2-8.9 4.1-46.9 15.7-102.3 15.7-32.5 0-58.2-3.3-74-6.1-19.2-3.3-32-7.3-37.2-9.6-.1-.1-.3-.1-.4-.2-1.2-.5-1.9-1.9-1.6-3.4 2.8-15.9 12.7-69.4 21.2-90.2 2.4-6 6.3-10.9 11.5-14.5z"/><path class="st1" d="M674.8 51.6c.3.1.6.3.9.4 8.4 3.9 24.2 8.1 42.1 11.2 16.6 2.9 43.6 6.4 77.5 6.4 53 0 95.3-10.5 110.6-17.6.3-.1.6-.3.9-.4 9.3-4.5 14.6-14.9 12.7-25.3-3.7-21-13.4-72.2-22.4-94.3-3.8-9.3-9.8-17-17.8-22.8-7.9-5.8-17.5-9.3-27.6-10.2-1.2-.2-25.3-3.2-64.3-3.2-33.4 0-56.5 3-57.7 3.2-9.6.9-18.8 4.1-26.5 9.5-8.4 5.9-14.7 13.8-18.7 23.5-9 22-18.7 73.3-22.4 94.3-1.8 10.3 3.4 20.8 12.7 25.3zM666.2 27c3.7-20.9 13.3-71.8 22.2-93.5 3.7-8.9 9.5-16.2 17.3-21.6 7.1-5 15.6-8 24.6-8.8h.1c.2 0 23.2-3.1 57.1-3.1 39.5 0 63.6 3.1 63.7 3.1h.1c9.4.8 18.3 4.1 25.6 9.4 7.4 5.4 12.9 12.4 16.4 21 8.9 21.7 18.5 72.6 22.2 93.5 1.5 8.5-2.7 17.1-10.4 20.8-.3.2-.5.3-.8.4-15.1 6.9-56.7 17.2-109 17.2-58.4 0-103.3-10.6-117.9-17.2-.3-.2-.5-.3-.8-.4-7.6-3.7-11.9-12.3-10.4-20.8zm25.6 86.2c-24.4-9.1-48.5-2.7-54.9 14.5-6.3 17.2 7.8 37.7 32.2 46.8 7.2 2.7 14.9 4.1 22 4.1 3.5 0 6.9-.3 10.2-1 11.3-2.4 19.4-8.7 22.7-17.6 3.3-8.9 1.2-18.9-5.8-28.1-6.1-8-15.5-14.6-26.4-18.7zm28.2 45.4c-2.8 7.5-9.8 12.8-19.7 14.9-2.9.6-6 .9-9.3.9-6.6 0-13.7-1.3-20.5-3.8-22.2-8.2-35.3-26.4-29.7-41.5 5.5-15 27.3-20.2 49.5-12 10.2 3.8 18.9 9.9 24.5 17.3 6.2 8.1 8 16.6 5.2 24.2zm-28.9 20zm198.6-14.1z"/><path class="st1" d="M686.8 126.4c-5.8-2.1-11.6-3.2-17.1-3.2-9.8 0-17.6 3.7-19.7 9.4-3.1 8.4 5.8 22 23.9 28.7 5.8 2.1 11.7 3.2 17.2 3.2 2.6 0 5-.2 7.1-.7 3.7-.8 10.3-3 12.4-8.7 2.2-5.7-1.4-11.7-3.7-14.7-4.4-5.8-11.7-10.9-20.1-14zm20.1 27.2c-1.5 3.9-6.5 5.5-9.4 6.1-6.4 1.4-14.5.5-22.1-2.3-16.4-6-23.5-17.7-21.4-23.3 1.5-4 7.8-6.7 15.8-6.7 5 0 10.4 1 15.6 2.9 7.7 2.8 14.3 7.4 18.3 12.6 1.8 2.3 4.6 6.8 3.2 10.7zm325.8-86.4zM612.8 182.1c-13.4 0-24.4 10.9-24.4 24.4 0 13.4 10.9 24.4 24.4 24.4 13.5 0 24.4-10.9 24.4-24.4 0-13.4-10.9-24.4-24.4-24.4zm0 44.6c-11.1 0-20.2-9.1-20.2-20.2.1-11.1 9.1-20.2 20.2-20.2s20.2 9.1 20.2 20.2c0 11.2-9 20.2-20.2 20.2z"/><path class="st1" d="M613.1 192.1c-7.9 0-14.3 6.4-14.3 14.3s6.4 14.3 14.3 14.3 14.3-6.4 14.3-14.3-6.4-14.3-14.3-14.3zm0 24.4c-5.6 0-10.1-4.5-10.1-10.1s4.5-10.1 10.1-10.1 10.1 4.5 10.1 10.1-4.5 10.1-10.1 10.1zm-123.2-42.4c0-.5-.1-1-.2-1.6-.9-4.5-2.3-8.4-4.3-11.9-.1 0-.1-.1-.1-.1-4.1-6.2-7.6-5.1-8.9-4.3-5 2.9-5 14.8.1 24.4v.1c1.5 2.5 3.1 4.2 4.8 5.3 1 .7 2.1 1 3.1 1 .4 0 .9-.1 1.5-.2 2.1-.6 3.4-2.4 4-5.3.4-2 .5-4.3.1-6.8-.1-.2-.1-.4-.1-.6zm-4.3 6.6c-.2 1.3-.6 2.1-1.1 2.2-.2 0-.6-.1-1-.4-1.2-.8-2.3-2-3.4-3.9-4.8-9.2-3.5-17.8-1.6-18.8.3-.1 1.5.4 3.2 3 1.8 3 3.1 6.6 3.8 10.5 0 .3.1.8.1 1.2.1.2.1.5.1.7v.1c.3 2 .2 3.8-.1 5.4zm299.3 40.6z"/><path class="st1" d="M1114.5 44.4c-7.9-7.7-24.5-10.2-39.6-10.8-4.8-37.6-20.6-89.4-68.7-125.5-12.3-9.2-31.6-17.4-57.3-24.3v-16.3c0-.4-.1-.8-.3-1.1-.2-.4-5.2-8.6-15.6-8.6s-15.4 7.7-15.6 8-.3.7-.3 1.1v9.7l-8.1-1.5v-11.9c0-7.7-4-14.6-10.6-18.1l-2.4-1.2V-169c1.1-.6 2-1.8 2.3-3.4.8-3.8-1.1-9.9-5-12.5-12.9-8.6-32.6-13.8-62.8-16.1-3.4-10.2-15.5-10-26.3-10H803v-8h9.7c3.8 0 6.4-1 7.9-3.4 1.3-2.3.9-5.8-.9-8-1.1-1.3-3.2-2.6-6.9-2.6H769c-2.2 0-4.3.5-6 2-2.8 2.4-3.3 6.2-1.2 9 1.1 1.4 3.2 3 7.2 3h11v8h-3.3c-11.6 0-22.6-.1-25.7 9.8-27.6 2-56.2 7.2-66.2 19.3-1.4 1.7-1.7 6.9-.9 9.1.6 1.6 1.4 2.4 2.1 3v13.7c-.7.4-1.5.7-2.2 1.1-6.5 3.5-10.6 10.4-10.6 18-.1 7-.1 8.1-.2 9.6 0 .5 0 1.1-.1 1.8-2.3.5-4.6 1-6.9 1.6v-9.2c0-.4 0-.8-.3-1.2-.2-.4-5.7-7.9-16-7.9-10.4 0-15.8 8.2-16 8.5s-.3.7-.3 1.1l-.2 18.2c-21 7.4-39.8 16.8-55.5 27.8-39 27.4-64.9 71.3-71.1 120.6-13.7.9-27.9 3.6-35 10.5-8.6 8.3-8.4 34.1-8.3 54.9v7.3c0 12 9.7 21.4 26.5 26 2.2.6 4.6 1.2 7.2 1.8v9.4c-9.5.7-19.2 1.9-22.1 2.7-2.7.8-4.9 2.3-6.7 4.6-2.2 2.8-3.5 6.2-4 10.3-.9 6.6.3 13.1 3.4 19.5 2.3 4.6 5.2 8.2 8.9 10.8 3 2.1 6 3.1 9.1 3.1 1.6 0 3.2-.2 4.7-.8.3-.1.5-.2.7-.4 7-5.8 29.5-24.3 32.2-27.4 2.8-2.9 3.8-7 2.8-11.3-1.1-4.9-4.5-9.1-8.8-10.7-.1 0-.1 0-.2-.1v-7.3c1.2 0 2.4.1 3.7.1 3.3 0 6.8-.2 10.4-.5 13.4 16.6 31.1 31 52.7 43.1-6.6 7.1-10.7 16.7-10.7 27.1 0 21.9 17.8 39.8 39.7 39.8 22 0 39.8-17.9 39.7-39.8 38 9.8 82.5 14.7 132.4 14.7 56.8 0 106.7-5.7 148.5-16.9 0 .7-.1 1.5-.1 2.2 0 21.9 17.8 39.8 39.7 39.8 21.9 0 39.8-17.9 39.7-39.8 0-10.4-4-19.9-10.6-27.1 21.6-12.1 39.3-26.6 52.7-43.1 3.7.3 7.2.5 10.6.5 1.3 0 2.5 0 3.7-.1v7.3c-.1 0-.1 0-.2.1-4.2 1.6-7.7 5.8-8.8 10.7-1 4.3 0 8.4 2.8 11.3 2.7 3.2 25.2 21.7 32.2 27.4.2.2.5.3.7.4 1.6.5 3.1.8 4.7.8 3.1 0 6.1-1 9.1-3.1 3.7-2.6 6.6-6.1 8.9-10.8 3.1-6.4 4.2-13 3.4-19.5-.5-4.1-1.8-7.5-4-10.3-1.8-2.3-4-3.8-6.7-4.6-3-.9-13.3-2.2-23.1-2.8v-9.1c3-.6 5.7-1.3 8.3-1.9 16.8-4.5 26.5-14 26.5-26v-7.3c0-20.8.2-46.7-8.4-55zM469.8 57.3c26.6 8.3 60.4 9.9 82.9 9.9 10 0 17.7-.3 21.7-.5-.1 1.1-.3 2.1-.4 3.2-50.4 2.5-85.7-.6-104.8-9.5.2-1.1.4-2.1.6-3.1zm109 9.7C623 80.4 695.5 96 794 96c78.8 0 150.2-10.3 212.5-30.6.2.3.4.5.7.7.1.8.2 1.6.3 2.5-.3 0-.7 0-1 .1-62.9 20.6-134.4 31.1-212.4 31.1-44.9 0-87.9-3.1-127.9-9.4-31.3-5-60.8-11.8-87.8-20.3.2-1 .3-2.1.4-3.1zm433.3 2.9c-.1-1.1-.2-2.1-.4-3.2 4.1.2 11.6.5 21 .5 22.6 0 56.6-1.6 83.4-10.1l.6 3-.6.3c-18.9 8.7-53.9 12-104 9.5zM1115 53.2c-38.1 12-91.7 10-103.9 9.4-.9-5.4-2.3-10.8-4.1-16.2 1.2-.8 5.2-2.5 14.4-4.4 9.1-1.8 20.1-3.2 31.1-3.9 29.6-1.9 51.1 1.4 59.1 9.2 1.4 1.3 2.5 3.4 3.4 5.9zm-55.4-19.6c4.5-3.5 7.7-7 9.8-9.6.6 3.3 1 6.4 1.4 9.5-4-.1-7.8 0-11.2.1zM932.9-138.1c6.9 0 10.8 4.5 11.8 6v14.9l-23.6-5.4v-9.9c1-1.4 5-5.6 11.8-5.6zm-164-84.8c-1.8 0-3.1-.4-3.8-1.4-.7-1.1-.5-2.6.6-3.5 1-.9 2.1-1.2 3.3-1.2v.2h43.7c1.7 0 2.9.3 3.7 1.2.7.8.9 2.4.4 3.3-.2.3-.8 1.4-4.1 1.4h-11.5c-.2-.1-.4-.1-.7-.1s-.5 0-.7.1h-17.2c-.2-.1-.4-.1-.6-.1s-.4 0-.6.1h-12.5zM784-219h14v8h-14v-8zm-7 12.1h27.3c10.7 0 18.4.4 21.5 5.6-11-.7-23.2-1.1-37-1.1-9.5 0-21.1.2-33.1.9 2.8-5.2 9.9-5.4 21.3-5.4zm-87 35.1c-.2-.3-.4-.6-.8-.9l-.1-.1c-.7-.4-1-.6-1.3-1.5-.3-.9-.1-4.1.3-5 10-12 45.9-18.9 98.7-18.9h2c14.7.1 27.6.5 39 1.2.3.2.8.4 1.2.4.2 0 .3.1.4 0 .2 0 .4-.1.6-.2 29.6 2.2 48.6 7.1 60.9 15.4 1.6 1.1 3 3.6 3.3 6.2.2 1.3 0 2.1-.2 2.4-1.2 0-2 .9-2 2.1v12.6c-33.5-15.5-77.2-17.9-101-17.9-23.7 0-66.7 2.3-100 17.4v-11.6c0-.7-.4-1.3-1-1.6zm-12.9 44.7c.1-1.5.2-2.8.2-9.8 0-6.1 3.2-11.6 8.4-14.4 14.3-7.7 47-20.6 105.3-20.6 58.4 0 91.2 12.9 105.5 20.6 5.2 2.8 8.4 8.3 8.4 14.4v11.2c-39.1-6.7-83.9-10.3-118-9.4-.7.1-2.1 0-4 0-38.2-.8-73.8 2.1-105.8 8.7v-.7zm-27.4-11c6.9 0 11.3 4.1 12.3 5.6v9.5l-24.7 7.2.2-16.1c1.2-1.5 5.3-6.2 12.2-6.2zm-69.4 54.6c15.5-10.9 33.9-20.1 54.7-27.3h.3c.5 0 1.1-.2 1.4-.6l26.8-7.8c.2 0 .3.1.5.1.6 0 1-.2 1.4-.6 3.2-.8 6.4-1.5 9.6-2.1.3 0 .5-.1.8-.2 32.4-6.7 68.3-9.8 107.3-9h4.2c34.2-.8 79.2 2.8 118.3 9.6.4.4.9.6 1.4.6.3 0 .6-.1.9-.2 3.5.6 6.9 1.3 10.3 1.9l28.5 6.5c25.8 6.9 45.1 15 57.1 24 40.5 30.4 57.5 72.3 64.4 106.8-1.2 1.8-6.5 9.5-16.2 15.5-.1.1-.3.2-.4.3-20.6 1.3-40.9 5.1-46.8 8.8-2.6 1.6-2.5 3.4-2.2 4.3 1.6 4.7 2.8 9.4 3.7 14.1-.2 0-.3 0-.5.1C943.9 81.5 872.6 91.8 794 91.8c-98.4 0-170.7-15.6-214.5-29 .9-5.3 2.3-10.5 4-15.7.3-.9.4-2.7-2.2-4.3-6.1-3.8-27.7-7.8-49-9-.2-.2-.4-.4-.6-.5-11-7-16.9-16.4-17-16.5-.2-.3-.4-.5-.6-.6 9.4-40.7 32.9-76.3 66.2-99.7zM512.9 21.6c2.1 2.8 6 7.4 11.8 11.9-4.2-.1-8.9-.1-13.7.1.5-4 1.2-8 1.9-12zm-38.5 25.7c5.4-5.3 17.1-8.6 33.4-9.5.1.1.3.1.4.1h.2c.3 0 .6-.1.9-.2 2.8-.1 5.8-.2 8.9-.2 4.8 0 9.9.2 15.4.6 10.9.7 22 2.1 31.1 3.9 9.2 1.9 13.2 3.5 14.4 4.4-1.8 5.3-3.1 10.7-4.1 16.1-10.9.6-65.3 3-104.1-9.2 1-2.6 2.1-4.6 3.5-6zM522 155.9c.7 2.9.1 5.7-1.7 7.5-.1 0-.1.1-.2.2-1.5 1.8-19.9 17.1-31.4 26.5-3.4 1-6.5.4-9.7-1.9-3.2-2.1-5.6-5.2-7.6-9.2-2.8-5.6-3.8-11.4-3.1-17.1.4-3.3 1.5-6 3.2-8.2 1.3-1.6 2.8-2.7 4.6-3.2 5.4-1.5 23.4-3 33.1-3 3.1 0 5.3.1 6.1.4.2.1.3.2.4.2 3 1.2 5.5 4.2 6.3 7.8zm-9-12.5c-3.1-.2-7.4-.2-12 .1v-8.4c3.7.7 7.7 1.2 12 1.5v6.8zm-22.2-14.9c-21.1-5.7-23.4-17.3-23.4-22v-7.3c-.1-10.9-.1-24 1.2-34.6 3.8 1.7 11.6 4.9 26.6 7.2 13.1 2.1 29.2 3.1 47.8 3.1 9.6 0 19.8-.3 30.7-.8-1.4 23 5 39.6 8.2 46.2 0 .2.1.4.2.6-8.3 2.1-12.4 3.2-15.5 4.1-4.9 1.4-7.6 2.2-20.6 4.9-24.8 5.2-41.8 2.2-55.2-1.4zm45.2 7.4c3.5-.5 7.1-1.1 11-1.9 13.1-2.7 16-3.6 20.8-4.9 3.4-.9 7.4-2 16.1-4.2.1.1.1.3.2.4 1.2 2.2 3.3 5.9 6.4 10.9 4.6 7.4 12 18.4 22.1 30.6-9.8.1-18.8 3.7-25.7 9.7-20.7-11.4-37.8-25.1-50.9-40.6zm76.8 106.3c-19.6 0-35.6-16-35.6-35.6s16-35.6 35.6-35.6c19.7 0 35.6 16 35.6 35.6s-16 35.6-35.6 35.6zm172-25c-50 0-94.7-5.1-132.6-15-2-18.1-16.1-32.6-34-35.1-16-18.9-26.1-35.7-30.2-43.3l.5-.1-1.4-2.4c-.1-.2-10.8-18.7-9.1-46.9 26.9 8.5 56.4 15.1 87.5 20.1 40.1 6.3 83.4 9.5 128.5 9.5 78.2 0 150-10.5 213.3-31.3.1.3.3.5.6.7 1.6 22.7-5 39.4-7.8 45.4-.3.4-.6.9-.9 1.5-.2.3-.3.7-.3 1.1l-1.4 2.3.3.1c-4.1 7.6-14.2 24.4-30.2 43.4-17.1 2.4-30.7 15.7-33.6 32.6-41.9 11.5-92 17.4-149.2 17.4zm188.2 25c-19.6 0-35.6-16-35.6-35.6 0-1.5.1-2.9.3-4.4.1-.2.1-.5.1-.7 2.5-17.2 17.4-30.5 35.2-30.5 19.6 0 35.6 16 35.6 35.6s-16 35.6-35.6 35.6zm26-65.7c-6.9-6-15.9-9.7-25.7-9.7 10.1-12.2 17.5-23.2 22.1-30.6 3.1-5 5.2-8.7 6.4-10.9.1-.2.2-.3.2-.5 8.9 2.2 13.1 3.3 16.4 4.3 4.8 1.3 7.7 2.1 20.8 4.9 3.7.8 7.3 1.4 10.8 1.9-13.2 15.6-30.3 29.2-51 40.6zm115.5-22.7c1.7 2.2 2.8 4.8 3.2 8.2.7 5.7-.4 11.5-3.1 17.1-2 4-4.5 7-7.6 9.2-3.2 2.3-6.3 2.9-9.7 1.9-11.5-9.4-29.9-24.7-31.4-26.5-.1 0-.1-.1-.2-.2-1.7-1.8-2.4-4.6-1.7-7.5.8-3.6 3.3-6.7 6.3-7.8.2-.1.3-.1.4-.2 3.3-1.3 32.1.5 39.2 2.6 1.8.6 3.3 1.6 4.6 3.2zm-30.5-10.4c-4.2-.2-8.1-.2-11 0v-6.8c3.9-.3 7.6-.8 11-1.3v8.1zm34.6-44.2v7.3c0 4.7-2.3 16.3-23.4 22-13.4 3.6-30.4 6.6-55.1 1.4-13-2.8-15.7-3.5-20.6-4.9-3.1-.8-7.2-2-15.6-4.1 2.9-6 9.8-23 8.5-46.7 10.6.5 20.6.7 30 .7 18.7 0 34.7-1 47.8-3.1 15.9-2.5 23.6-5.9 27.2-7.5 1.4 10.7 1.3 24 1.2 34.9z"/><path class="st1" d="M973 182.1c-13.4 0-24.4 10.9-24.4 24.4 0 13.4 10.9 24.4 24.4 24.4s24.4-10.9 24.4-24.4c0-13.4-11-24.4-24.4-24.4zm0 44.6c-11.2 0-20.2-9.1-20.2-20.2s9.1-20.2 20.2-20.2 20.2 9.1 20.2 20.2c0 11.2-9 20.2-20.2 20.2z"/><path class="st1" d="M972.8 192.1c-7.9 0-14.3 6.4-14.3 14.3s6.4 14.3 14.3 14.3 14.3-6.4 14.3-14.3-6.4-14.3-14.3-14.3zm0 24.4c-5.6 0-10.1-4.5-10.1-10.1s4.5-10.1 10.1-10.1 10.1 4.5 10.1 10.1-4.6 10.1-10.1 10.1zm127.6-21.7zM947.3-62.5c.2.1.4.1.6 0 1.3 0 2.5-.9 2.8-2.3.3-1.6-.7-3.1-2.3-3.4-1.6-.3-3.1.7-3.4 2.3-.3 1.6.7 3.1 2.3 3.4zm25.1 7.9c.4.2.8.3 1.2.3 1.1 0 2.1-.6 2.6-1.6.7-1.4.1-3.1-1.3-3.8-1.4-.7-3.1-.1-3.8 1.3s-.1 3.1 1.3 3.8zm22.7 16.5c.7 0 1.4-.2 1.9-.7 1.2-1.1 1.3-2.9.3-4.1s-2.8-1.3-4-.3c-1.2 1.1-1.3 2.9-.3 4.1.5.7 1.3 1 2.1 1zm13 23.6c.4 0 .7 0 1.1-.2 1.4-.7 2.1-2.3 1.5-3.8-.7-1.4-2.3-2.1-3.8-1.5-1.4.7-2.1 2.3-1.5 3.8.5 1.1 1.5 1.7 2.7 1.7zM732.4 51.4c-1.6-.2-3 .8-3.3 2.4-.2 1.6.8 3 2.4 3.3.2.1.3.1.5 0 1.4 0 2.6-1 2.8-2.4.2-1.6-.8-3-2.4-3.3zm25.3 3.2c-1.6-.1-3 1-3.1 2.6-.1 1.6 1 3 2.6 3.1h.2c1.5 0 2.8-1.1 2.9-2.6.1-1.6-1-3-2.6-3.1zm-75.3-13.5c-1.5-.4-3.1.5-3.5 2s.5 3.1 2 3.5c.3.1.5.1.7.1 1.3 0 2.4-.8 2.8-2.1.4-1.5-.5-3.1-2-3.5zm25 5.7c-1.6-.4-3.1.6-3.4 2.2-.4 1.6.6 3.1 2.2 3.4.2 0 .3 0 .6.1 1.3 0 2.5-.9 2.8-2.3.4-1.6-.6-3.1-2.2-3.4zM808.7 56c-1.6.1-2.9 1.4-2.8 3 0 1.6 1.3 2.8 2.9 2.8h.1c1.6-.1 2.9-1.4 2.8-3s-1.4-2.9-3-2.8zM921.2-67.1c.8 0 1.5-.4 2-.8.5-.5.8-1.3.8-2s-.3-1.5-.8-2-1.2-.8-2-.8c-.7 0-1.5.3-2 .8s-.8 1.3-.8 2 .3 1.5.8 2 1.2.8 2 .8zm1.6 22.5c.3 1.4 1.5 2.4 2.8 2.3h.5c1.5-.3 2.6-1.7 2.3-3.3-.3-1.5-1.7-2.6-3.3-2.3-1.5.3-2.6 1.7-2.3 3.3zM783.2 56c-1.6 0-3 1.2-3 2.8 0 1.6 1.2 3 2.8 3s2.9-1.2 3-2.8c0-1.6-1.2-3-2.8-3zm50.9-1.7c-1.6.1-2.8 1.5-2.6 3.1.1 1.5 1.4 2.6 2.8 2.6h.3c1.6-.1 2.8-1.5 2.6-3.1-.1-1.6-1.5-2.8-3.1-2.6zm4.2-240.3c.2.1.3.1.4.1 1.4 0 2.6-1.1 2.8-2.6.2-1.6-.9-3-2.5-3.2s-3 .9-3.2 2.5.9 3 2.5 3.2zm21.1 236.9c-1.6.3-2.7 1.7-2.4 3.3.2 1.4 1.4 2.4 2.8 2.4h.5c1.6-.3 2.7-1.7 2.4-3.3-.3-1.6-1.7-2.7-3.3-2.4zm-44.8-238.8h.1c1.6 0 2.8-.9 2.9-2.4.1-1.6-1.1-2.6-2.7-2.6-1.6-1-2.9.8-3 2.4-.1 1.6 1.1 2.6 2.7 2.6zm-23.8 0c1.6 0 2.9-1.4 2.9-2.9 0-1.6-1.3-3-2.9-3s-2.9 1.3-2.9 2.9c0 1.6 1.3 3 2.9 3zm-23.9.2h.1c1.6-.1 2.8-1.4 2.7-3-.1-1.6-1.4-2.8-3-2.7-1.6.1-2.8 1.4-2.7 3 0 1.5 1.3 2.7 2.9 2.7zm-26.8-.5c.2 1.5 1.4 2.5 2.8 2.5h.4c1.6-.2 2.7-1.6 2.5-3.2-.2-1.6-1.6-2.7-3.2-2.5s-2.7 1.6-2.5 3.2zm278 198.8h.3c1.6-.1 2.7-1.5 2.6-3.1-.1-1.6-1.5-2.7-3.1-2.6-1.6.1-2.7 1.5-2.6 3.1.1 1.5 1.3 2.6 2.8 2.6zm82.2 176.2c.4.1.8.2 1.3.2 1 0 2.1-.4 3.3-1 1.8-1.1 3.4-2.8 4.8-5.3v-.1c5-9.6 5.1-21.5.1-24.4-1.4-.8-4.9-1.9-8.9 4.3-.1 0-.1.1-.1.1-2 3.5-3.5 7.5-4.3 11.9-.1.5-.2 1.1-.2 1.6-.1.2-.1.4-.1.6-.4 2.5-.3 4.7.1 6.8.6 2.9 2 4.7 4 5.3zm0-11.6c.1-.3.1-.6.1-.8 0-.4 0-.8.1-1.2.8-3.9 2-7.5 3.8-10.5 1.8-2.7 3-3.2 3.3-3 1.8 1 3.1 9.7-1.7 18.8-1.1 1.9-2.2 3.2-3.4 3.9-.5.3-.8.5-1 .4-.4-.1-.8-.9-1.1-2.2-.4-1.6-.4-3.3-.1-5.4zm-95.5-43.9c-.7 0-1.5.3-2 .8s-.8 1.2-.8 2c0 .7.3 1.5.8 2s1.2.8 2 .8 1.5-.3 2-.8.8-1.3.8-2-.3-1.5-.8-2-1.2-.8-2-.8zM883.9-171.9c.8 0 1.5-.3 2-.8s.8-1.2.8-2c0-.7-.3-1.5-.8-2s-1.2-.8-2-.8c-.7 0-1.5.3-2 .8s-.8 1.2-.8 2c0 .7.3 1.5.8 2s1.2.8 2 .8zm-22.4-10c.3 0 .5.1.7.1 1.3 0 2.5-.8 2.8-2.1.4-1.5-.5-3.1-2-3.5-1.5-.4-3.1.5-3.5 2s.5 3.1 2 3.5zM936.1 1.5c-1.5.5-2.4 2.1-1.9 3.6.4 1.2 1.5 2 2.8 2 .2 0 .5 0 .8-.1 1.5-.5 2.4-2.1 1.9-3.6s-2.1-2.4-3.6-1.9zm8.3 24.2c-.7 0-1.5.3-2 .8s-.8 1.3-.8 2 .3 1.5.8 2 1.2.8 2 .8c.7 0 1.5-.3 2-.8s.8-1.3.8-2-.3-1.5-.8-2-1.2-.8-2-.8zm26.5-3.2c-1.5.2-2.7 1.6-2.5 3.2.2 1.5 1.4 2.6 2.9 2.5h.3c1.5-.2 2.7-1.6 2.5-3.2-.2-1.5-1.6-2.7-3.2-2.5zM719.4-181.3c.2 0 .4 0 .7-.1 1.5-.4 2.4-2 2-3.5s-2-2.4-3.5-2c-1.5.4-2.4 2-2 3.5.4 1.3 1.5 2.1 2.8 2.1zm278 199.5c-1.5.3-2.6 1.7-2.3 3.3.3 1.4 1.5 2.4 2.8 2.3h.5c1.5-.3 2.6-1.7 2.3-3.3-.3-1.5-1.7-2.6-3.3-2.3zm.5 126.8c-1.4-.9-3.1-.3-4 1s-.5 3.1.8 4c.5.3 1 .2 1.6.3.9 0 1.8-1.5 2.4-1.5.9-1 .5-2.9-.8-3.8zM697.6-171.7c.8 0 1.5-.3 2-.8s.8-1.3.8-2-.3-1.5-.8-2-1.2-.8-2-.8c-.7 0-1.5.3-2 .8s-.8 1.3-.8 2 .3 1.5.8 2 1.2.8 2 .8zm289.5 329.6c-.7 0-1.5.3-2 .8s-.8 1.2-.8 2c0 .7.3 1.5.8 2s1.2.8 2 .8 1.5-.3 2-.8.8-1.2.8-2c0-.7-.3-1.5-.8-2s-1.2-.8-2-.8zM930.4-23.2c-1.5.4-2.5 2-2.1 3.5.3 1.3 1.5 2.2 2.8 2.2.3 0 .5 0 .7-.1 1.5-.4 2.5-2 2.1-3.5-.4-1.5-2-2.5-3.5-2.1zm-39 148.3c.3 0 .7 0 1.1-.2 1.5-.7 2.1-2.3 1.5-3.8-.7-1.4-2.3-2.1-3.8-1.5-1.4.7-2.1 2.3-1.5 3.8.4 1.1 1.5 1.8 2.7 1.7zm17.2 37.6c-1.5.6-2.2 2.2-1.6 3.7.4 1.1 1.5 1.8 2.6 1.8.4 0 .8-.1 1.1-.2 1.5-.6 2.2-2.2 1.6-3.7s-2.2-2.2-3.7-1.6zm-22.4 3.3c-1.6-.2-3 1-3.1 2.6-.2 1.6 1 3 2.6 3.1h.2c1.5 0 2.8-1.1 2.9-2.6.2-1.6-1-3-2.6-3.1zm-287.1-2.5c.8 0 1.5-.3 2-.8s.8-1.2.8-2c0-.7-.3-1.5-.8-2s-1.3-.8-2-.8-1.5.3-2 .8-.8 1.2-.8 2c0 .7.3 1.5.8 2s1.2.8 2 .8zm-15.7-31.4c-.5-.5-1.2-.8-2-.8-.7 0-1.5.3-2 .8s-.8 1.3-.8 2 .3 1.5.8 2 1.2.8 2 .8 1.5-.3 2-.8.8-1.3.8-2-.3-1.5-.8-2zm350.5-5c-1.5.5-2.3 2.1-1.9 3.6.4 1.2 1.5 2 2.8 2 .3 0 .5 0 .8-.1 1.5-.5 2.3-2.1 1.9-3.6-.5-1.5-2.1-2.3-3.6-1.9zM590 150.4c.6 0 1.1-.2 1.6-.5 1.3-.9 1.7-2.7.8-4-.9-1.3-2.7-1.7-4-.8-1.3.9-1.7 2.7-.8 4 .5.9 1.4 1.3 2.4 1.3zm337.7.2c-1 1.1-.9 3 .3 4 .5.4 1.2.7 1.9.8.8 0 1.2-.4 2.2-1 1-1.2.9-3.1-.3-4.1-1.2-1-3.1-.9-4.1.3zM607.1-54.3c.5 0 .9-.1 1.3-.3 1.4-.7 2-2.4 1.3-3.8s-2.4-2-3.8-1.3-2 2.4-1.3 3.8c.5 1 1.5 1.6 2.5 1.6zm25.8-8c.2 0 .4-.1.6-.1 1.6-.3 2.6-1.8 2.3-3.4-.3-1.6-1.8-2.6-3.4-2.3-1.6.3-2.6 1.8-2.3 3.4.2 1.3 1.4 2.3 2.8 2.4zm21.7 20c.2.1.4.1.5.1 1.3 0 2.6-1 2.8-2.4.3-1.5-.7-3-2.3-3.3-1.5-.3-3 .7-3.3 2.3-.3 1.5.7 3 2.3 3.3zm-69 4.2c.8 0 1.6-.4 2.2-1 1-1.1.9-3-.3-4-1.1-1-3-.9-4 .3-1 1.1-.9 3 .3 4 .5.5 1.2.7 1.8.7zm-23.2 48.7h.2c1.5 0 2.8-1.1 2.9-2.6.1-1.6-1-3-2.6-3.1-1.6-.1-3 1-3.1 2.6-.1 1.6 1 3 2.6 3.1zm9.2-25.3l1.2.3c1.1 0 2.1-.7 2.6-1.8.6-1.5 0-3.2-1.5-3.8-1.5-.7-3.2 0-3.8 1.5s0 3.2 1.5 3.8zm100.8 177.1c-1.5-.6-3.2.1-3.8 1.6-.6 1.4.4 3.1 1.4 3.7 1 .2.9.3 1.2.2 1.2 0 2.4-.7 2.8-1.8.6-1.4-.1-3.1-1.6-3.7zm242.7-40.7c1.6 0 2.9-1 2.9-2.5 0-1.6-1.3-2.5-2.9-2.5-1.6 0-2.9.9-2.9 2.5s1.2 2.5 2.9 2.5zM864 155.8c-1.1 1.2-1.1 3 .1 4.1.5.5 1.2.8 2 .8s1.5-.3 2.1-.9c1.1-1.2 1-3-.1-4.1-1.2-1.1-3-1.1-4.1.1zm-151.2 1.4c-.5 1.5.2 3.1 1.7 3.7.3.1.6.2 1 .2 1.2 0 2.3-.7 2.7-1.9.5-1.5-.2-3.1-1.7-3.7-1.5-.5-3.1.2-3.7 1.7zm-5.5-23.8c-1.2 1.1-1.3 2.9-.2 4.1.5.6 1.3.9 2.2 1 .6 0 1.3-.3 1.9-.8 1.2-1.1 1.3-2.9.2-4.1-1.1-1.2-2.9-1.3-4.1-.2zm-12.4 32.5c-1.5.1-2.7 1.5-2.6 3.1.1 1.6 1.4 2.7 2.8 2.7h.2c1.6-.1 2.8-1.5 2.7-3.1-.1-1.6-1.5-2.8-3.1-2.7zm-6.7-41.4c.4.2.8.2 1 .2 1.2 0 2.3-.7 2.7-1.8.6-1.4-.1-3.1-1.6-3.7-1.4-.6-3.1.1-3.7 1.6-.6 1.4.1 3.1 1.6 3.7zM649 150.1c-1.1 1.1-1.2 2.9-.1 4.1.6.6 1.3.9 2.1.9.7 0 1.4-.3 2-.8 1.1-1.1 1.2-2.9.1-4.1-1.1-1.1-2.9-1.2-4.1-.1zm222.8-10.9c.8 0 1.5-.4 2.1-1 1.1-1.1 1-2.9-.2-4-1.1-1.1-2.9-1-4 .2s-1 3 .2 4.1c.5.5 1.2.7 1.9.7zm-206.5-17.3h.1c1.6 0 2.8-1.3 2.8-2.9s-1.3-2.8-2.9-2.8-2.8 1.3-2.8 2.9c.1 1.6 1.3 2.8 2.8 2.8zm-19.1 5.3c-1.5-.5-3.1.4-3.6 1.9s.4 3.1 1.9 3.5c.3.1.6.1.9.3 1.2 0 2.3-.9 2.7-2.1.5-1.5-.4-3.1-1.9-3.6zM885.5-61.4c.4 1.2 1.6 1.9 2.7 1.9.3 0 .6-.1.9-.2 1.5-.5 2.3-2.1 1.8-3.6s-2.1-2.3-3.6-1.8c-1.5.6-2.3 2.2-1.8 3.7zm-36.9-26.8c.2.1.4.1.6.1 1.3 0 2.5-1 2.8-2.3.3-1.5-.7-3.1-2.2-3.4-1.5-.3-3.1.7-3.4 2.2-.3 1.5.7 3.1 2.2 3.4zm23.1 7.9c.5.3 1 .5 1.6.5.9 0 1.8-.5 2.4-1.3.9-1.3.5-3.1-.8-4-1.3-.9-3.1-.5-4 .8-.9 1.3-.5 3.1.8 4zm-48.1-10.5h.1c1.6 0 2.8-1.2 2.9-2.7.1-1.6-1.1-2.9-2.7-3-1.6-.1-2.9 1.1-3 2.7-.1 1.6 1.1 2.9 2.7 3zm-50.9.4c1.7-.1 3-1.4 2.9-3-.1-1.6-1.4-2.9-3-2.8-1.6.1-2.9 1.4-2.8 3 .1 1.5 1.4 2.7 2.9 2.8zm25.4-.9c1.6 0 2.9-1.3 2.9-2.9 0-1.6-1.3-2.9-2.9-2.9s-2.9 1.3-2.9 2.9c0 1.5 1.3 2.8 2.9 2.9zM898.8-12c.3 1.3 1.5 2.2 2.8 2.3.2 0 .4-.1.6-.1 1.6-.3 2.6-1.9 2.2-3.4-.3-1.6-1.9-2.6-3.4-2.2-1.6.3-2.6 1.9-2.2 3.4zm5.4 25.1c.3 1.3 1.5 2.3 2.8 2.3.2 0 .4-.1.6-.1 1.5-.3 2.5-1.8 2.2-3.4-.3-1.5-1.8-2.5-3.4-2.2-1.5.3-2.5 1.8-2.2 3.4zm4.4 21.7c-1.4-.9-3.1-.5-4 .8s-.5 3.1.8 4c.5.3 1 .5 1.6.5.9 0 1.8-.5 2.4-1.3.9-1.3.5-3.1-.8-4zM747.1-89.5h.1c1.6-.1 2.9-1.4 2.8-3-.1-1.6-1.4-2.9-3-2.8-1.6.1-2.9 1.4-2.8 3 0 1.6 1.3 2.8 2.9 2.8zM884.3 46c-1.5.3-2.5 1.9-2.1 3.4.3 1.3 1.5 2.2 2.7 2.3.3 0 .5 0 .7-.1 1.5-.4 2.5-2 2.1-3.5-.3-1.5-1.9-2.5-3.4-2.1zm8.4-82.9c.3 1.3 1.5 2.1 2.8 2.2.2 0 .5 0 .7-.1 1.5-.4 2.4-2 2-3.5-.4-1.6-2-2.5-3.5-2.1-1.5.4-2.4 2-2 3.5zM636.4 25.7c-.7 0-1.5.3-2 .8s-.8 1.3-.8 2 .3 1.5.8 2 1.2.8 2 .8 1.5-.3 2-.8.8-1.3.8-2-.3-1.5-.8-2-1.2-.8-2-.8zm23.1-92.8c.8 0 1.5-.4 2-.8.5-.5.8-1.3.8-2s-.3-1.5-.8-2-1.2-.8-2-.8c-.7 0-1.5.3-2 .8s-.8 1.3-.8 2 .3 1.5.8 2 1.2.8 2 .8zm-49.6 89.7c-1.6-.2-3 .9-3.2 2.5-.2 1.6.9 3 2.5 3.2h.4c1.4.1 2.6-1 2.8-2.5.2-1.6-.9-3-2.5-3.2zm34.8-21.1c-1.5-.5-3.1.4-3.6 1.9s.4 3.1 1.9 3.6c.3.1.6.1.9.1 1.2 0 2.3-.8 2.7-2 .5-1.5-.4-3.1-1.9-3.6zm-61.4 16.7c-1.5-.3-3 .7-3.3 2.3-.3 1.6.7 3 2.3 3.3.2 0 .4.1.5.1 1.3 0 2.6-1 2.8-2.4.3-1.6-.7-3-2.3-3.3zm67.2-41.4c-1.6-.4-3.1.6-3.5 2.1-.4 1.6.6 3.1 2.1 3.5.2.1.4.1.7.1 1.3 0 2.5-.9 2.8-2.2.4-1.6-.6-3.1-2.1-3.5zm71.3-62.7c.1 0 .3-.1.5-.1 1.6-.3 2.6-1.8 2.3-3.4-.3-1.6-1.8-2.6-3.4-2.3s-2.6 1.8-2.3 3.4c.2 1.4 1.4 2.4 2.9 2.4zm-32.2 36.7c.2.1.5.1.9.1 1.2 0 2.3-.8 2.7-2 .5-1.5-.4-3.1-1.9-3.6s-3.1.4-3.6 1.9.4 3.1 1.9 3.6zm9-24c.6.4 1.2.6 1.8.5.9 0 1.7-.4 2.3-1.1.9-1.2.7-3-.6-4-1.2-.9-3-.7-4 .6-1 1.2-.8 3 .5 4zM674 26.2h.2c1.5 0 2.8-1.2 2.9-2.7.1-1.6-1.1-3-2.7-3.1-1.6-.1-3 1.1-3.1 2.7-.1 1.6 1.1 3 2.7 3.1zm9-50.6c.2.1.4.1.7.1 1.3 0 2.5-.9 2.8-2.2.4-1.6-.6-3.1-2.1-3.5-1.6-.4-3.1.6-3.5 2.1-.4 1.6.6 3.1 2.1 3.5zM677.4.8c.2 0 .4 0 .6.1 1.3 0 2.5-.9 2.8-2.3.3-1.6-.7-3.1-2.2-3.4-1.6-.4-3.1.6-3.4 2.2-.4 1.6.6 3.1 2.2 3.4z"/><g class="st2"><linearGradient id="SVGID_1_" gradientUnits="userSpaceOnUse" x1="1014.038" y1="-184.599" x2="1105.035" y2="-108.243" gradientTransform="rotate(180 1104.313 24.5)"><stop offset="0" stop-color="#FFFC99" stop-opacity="0"/><stop offset="1" stop-color="#FFFC99"/></linearGradient><path class="st3" d="M1097.3 187l24.6 79.4c107.4 3.6 82.6-118.2 82.6-118.2l-91.9 12s-4.8-10.4-11.7.5c-8 12.8-3.6 26.3-3.6 26.3z"/><linearGradient id="SVGID_2_" gradientUnits="userSpaceOnUse" x1="391.461" y1="-184.599" x2="481.359" y2="-109.165" gradientTransform="matrix(1 0 0 -1 0 49)"><stop offset="0" stop-color="#FFFC99" stop-opacity="0"/><stop offset="1" stop-color="#FFFC99"/></linearGradient><path class="st4" d="M488.7 187l-24.6 79.4c-107.4 3.6-82.6-118.2-82.6-118.2l93.2 13s4.2-8 11.4 2.9 2.6 22.9 2.6 22.9z"/></g><g id="blueprint"><path class="st5" d="M427 198.8h36v2h-36v-2z"/><g class="st2"><path class="st1" d="M444 57.5h1v128.2h-1V57.5z"/><path class="st1" d="M444.7 51.6c-1.1 3-3 6.6-5 8.9l5-1.8 5 1.8c-2-2.3-3.9-5.9-5-8.9zm0 140.4c-1.1-3-3-6.6-5-8.9l5 1.8 5-1.8c-2 2.2-3.9 5.9-5 8.9z"/></g><path class="st5" d="M906.1-175.5l-2.3-3.5 19.8-12.9H939v4h-14.1l-18.8 12.4zm-241 32.7l-22-27.4h-13.9v-4.2H645l23.4 29-3.3 2.6zm368.2 116.7l-2.3-3.4 29.7-20.2h11.3v4.1h-10l-28.7 19.5zM698.4 281.5l21.9-.3 47.7-48.5-2.5-3-46.1 47.5-21 .3v4zM976-82l-2.4-3.3 36.5-26.5h14.9v4h-13.6L976-82zm-419-28.8h41v4h-41v-4zm-1.4 74.7l-12.1-8.5H524v-4.1h20.9l13.1 9.3-2.4 3.3zM1021 206.8h26v4h-26v-4zM790-231h1v6h-1v-6zm1 436.8h-1v-11h1v11zm0-23h-1v-12h1v12zm0-24.1h-1v-12h1v12zm0-24h-1v-12h1v12zm0-24.1h-1v-12h1v12zm0-24h-1v-12h1v12zm0-23h-1v-12h1v12zm0-24.1h-1v-12h1v12zm0-24h-1v-12h1v12zm0-24.1h-1v-12h1v12zm0-24h-1v-12h1v12zm0-24.1h-1v-12h1v12zm0-24h-1v-12h1v12zm0-24.1h-1v-12h1v12zm0-24h-1v-12h1v12zm0-24h-1v-12h1v12zm0-24.1h-1v-12h1v12zm0-24h-1V-213h1v12.1zm-1 413.7h1v5h-1v-5zM527-15.1l.1 1-6.8.4-.1-1 6.8-.4zm13.6.4l-.1-1 13.5-.7.1 1-13.5.7zm500.5-.1l-13.5-.7.1-1 13.5.7-.1 1zm-473.5-1.4l-.1-1 13.5-.7.1 1-13.5.7zm446.4 0l-13.5-.7.1-1 13.5.7-.1 1zm-419.3-1.5l-.1-1 13.5-.7.1 1-13.5.7zm392.3 0l-13.5-.7.1-1 13.5.7-.1 1zm-365.3-1.4l-.1-1 13.5-.7.1 1-13.5.7zm338.2-.1l-13.5-.7.1-1 13.5.7-.1 1zm-311.1-1.4l-.1-1 13.5-.7.1 1-13.5.7zm284.1-.1l-13.5-.7.1-1 13.5.7-.1 1zm-257.1-1.4l-.1-1 13.5-.7.1 1-13.5.7zm230 0l-13.5-.7.1-1h.1l13.4.7-.1 1zm-202.9-1.8l-.1-1c4.2-.3 8.7-.6 13.5-.8l.1 1c-4.8.3-9.4.5-13.5.8zm175.9-.1c-4.2-.3-8.7-.5-13.5-.8l.1-1c4.8.2 9.3.5 13.5.8l-.1 1zm-148.9-1.3v-1c4.3-.2 8.9-.3 13.5-.4v1c-4.6.1-9.2.3-13.5.4zm121.9 0c-4.3-.2-8.9-.3-13.5-.4v-1c4.6.1 9.2.3 13.5.4v1zM757-26v-1c4.5-.1 9-.2 13.5-.2v1c-4.5 0-9.1.1-13.5.2zm67.7-.1c-4.4-.1-8.9-.1-13.5-.2v-1c4.6 0 9.2.1 13.5.2v1zm-40.6-.2v-1h13.6v1h-6.4c-2.5-.1-4.9 0-7.2 0zm270.6 11.2l6.8.4-.1 1-6.8-.4.1-1zm66.3 56.6h36v1h-36v-1zm0 84.2h36v1h-36v-1z"/><g class="st2"><path class="st1" d="M1137 57.5h2v53.1h-2V57.5z"/><path class="st1" d="M1138.5 51.6c-1.1 3-3 6.6-5 8.9l5-1.8 5 1.8c-2.1-2.3-3.9-5.9-5-8.9zm0 65.8c-1.1-3-3-6.6-5-8.9l5 1.8 5-1.8c-2.1 2.2-3.9 5.9-5 8.9z"/></g><g class="st2"><path class="st1" d="M535 183.8h36v1h-36v-1zm0 62.1h36v1h-36v-1zm17-45.1h1v30.1h-1v-30.1z"/><path class="st1" d="M552.9 194.6c-1.1 3-3 6.6-5 8.9l5-1.8 5 1.8c-2-2.3-3.9-5.9-5-8.9zm0 42.8c-1.1-3-3-6.6-5-8.9l5 1.8 5-1.8c-2 2.3-3.9 5.9-5 8.9z"/></g><path class="st5" d="M427 41.5h36v1h-36v-1z"/></g><path id="type" class="st1" d="M954.1-195c2.2 0 3.8 1.1 3.8 3.4s-1.6 3.6-3.8 3.6h-1.5v4.2H950V-195h4.1zm-.8 5c1 0 2-.3 2-1.5s-.9-1.5-2-1.5h-.7v3h.7zm9.8 4h3.8v2.2h-6.4V-195h2.5v9h.1zm17 2.2h-2.7l-.8-2.2h-4.3l-.8 2.2h-2.7l4.5-11.2h2.4l4.4 11.2zm-5.7-7.7l-1.3 3.3h2.5l-1.2-3.3zm8.2-3.5l2.3 3.6 2.3-3.6h3.1l-4.1 6.2v5h-2.5v-5l-4.1-6.2h3zm11.2 12.9h-2.1l5.6-13.3h2.1l-5.6 13.3zm12.3-12.9c2.2 0 3.8 1.1 3.8 3.4s-1.6 3.6-3.8 3.6h-1.5v4.2h-2.6V-195h4.1zm-.8 5c1 0 2-.3 2-1.5s-.9-1.5-2-1.5h-.7v3h.7zm16.6 6.2h-2.7l-.8-2.2h-4.3l-.8 2.2h-2.7l4.4-11.2h2.4l4.5 11.2zm-5.7-7.7l-1.3 3.3h2.5l-1.2-3.3zm16.2 3.8c0 2.8-1.5 4.2-4.4 4.2-2.8 0-4.4-1.4-4.4-4.2v-7.3h2.5v6.5c0 1.9.6 2.4 1.8 2.4s1.8-.5 1.8-2.4v-6.5h2.5v7.3h.2zm10.3-6.4l-1 2s-1.1-.8-2.3-.8c-.9 0-1.3.4-1.3 1s1.1 1.1 2.3 1.6 2.6 1.6 2.6 3.1c0 2.7-2 3.6-4.2 3.6-2.6 0-4.2-1.5-4.2-1.5l1.3-2.1s1.5 1.3 2.7 1.3c.6 0 1.6-.1 1.6-1.1 0-.8-1.2-1.2-2.5-1.8-1.3-.7-2.1-1.7-2.1-2.9 0-2.1 1.8-3.4 3.6-3.4 2.1-.1 3.5 1 3.5 1zm9.4 1.4h-3.8v2.2h3.7v2.2h-3.7v2.3h3.8v2.2h-6.4V-195h6.4v2.3zm-91.9 25.2h-2.7l-.8-2.2h-4.3l-.8 2.2h-2.7l4.5-11.2h2.4l4.4 11.2zm-5.7-7.7l-1.3 3.3h2.5l-1.2-3.3zm10.2 7.7h-2.5v-11.2h2.5l4.4 6.9v-6.9h2.5v11.2h-2.5l-4.4-6.9v6.9zm12.7 0h-2.5v-11.2h2.5v11.2zm11.8-6.6l-2.4 6.6h-1.5l-2.3-6.6-.5 6.6H980l1-11.2h2.7l2.5 6.5 2.5-6.5h2.7l1 11.2h-2.5l-.7-6.6zm15.8 6.6h-2.7l-.8-2.2h-4.3l-.8 2.2h-2.7l4.5-11.2h2.4l4.4 11.2zm-5.7-7.7L998-172h2.5l-1.2-3.2zm6.3-3.5h7.9v2.2h-2.7v9h-2.5v-9h-2.7v-2.2zm12.8 11.2h-2.5v-11.2h2.5v11.2zm8.2-11.4c3.1 0 5.6 2.5 5.6 5.8s-2.4 5.8-5.6 5.8c-3.3 0-5.6-2.5-5.6-5.8s2.6-5.8 5.6-5.8zm0 9.2c2 0 2.9-1.7 2.9-3.3 0-1.7-.9-3.3-2.9-3.3s-2.9 1.7-2.9 3.3c.1 1.6.9 3.3 2.9 3.3zm10.8 2.2h-2.5v-11.2h2.5l4.4 6.9v-6.9h2.5v11.2h-2.5l-4.4-6.9v6.9zm17.5-10.3l-1 2s-1.1-.8-2.3-.8c-.9 0-1.3.4-1.3 1s1.1 1.1 2.3 1.6 2.6 1.6 2.6 3.1c0 2.7-2 3.6-4.2 3.6-2.6 0-4.2-1.5-4.2-1.5l1.3-2.1s1.5 1.3 2.7 1.3c.6 0 1.6-.1 1.6-1.1 0-.8-1.2-1.2-2.5-1.8-1.3-.7-2.1-1.7-2.1-2.9 0-2.1 1.8-3.4 3.6-3.4 2-.1 3.5 1 3.5 1zm18.4 10.3h-2.7l-.8-2.2h-4.3l-.8 2.2h-2.7l4.5-11.2h2.4l4.4 11.2zm-5.7-7.7l-1.3 3.3h2.5l-1.2-3.3zm10.1 7.7h-2.5v-11.2h2.5l4.4 6.9v-6.9h2.5v11.2h-2.5l-4.4-6.9v6.9zm13.4-11.2c3.1 0 5.6 2.3 5.6 5.6s-2.6 5.6-5.6 5.6h-3.2v-11.2h3.2zm-.3 8.9c1.9 0 3.2-1.4 3.2-3.3s-1.3-3.3-3.2-3.3h-.4v6.6h.4zm-141.5 7.4h7.9v2.2h-2.7v9H952v-9h-2.7v-2.2zm14.3 0c2.1 0 3.6 1.1 3.6 3.3 0 1.7-.9 2.8-2.3 3.2l3.8 4.6h-3.2l-3.4-4.4v4.4h-2.5v-11.1h4zm-1.2 5c1 0 2.1-.1 2.1-1.5s-1.2-1.5-2.1-1.5h-.3v2.9h.3v.1zm18.6 6.2h-2.7l-.8-2.2h-4.3l-.8 2.2h-2.7l4.5-11.2h2.4l4.4 11.2zm-5.7-7.7l-1.3 3.3h2.5l-1.2-3.3zm10.2 7.7H983v-11.2h2.5l4.4 6.9v-6.9h2.5v11.2h-2.5l-4.4-6.9v6.9zm17.4-10.3l-1 2s-1.1-.8-2.3-.8c-.9 0-1.3.4-1.3 1s1.1 1.1 2.3 1.6 2.6 1.6 2.6 3.1c0 2.7-2 3.6-4.2 3.6-2.6 0-4.2-1.5-4.2-1.5l1.3-2.1s1.5 1.3 2.7 1.3c.6 0 1.6-.1 1.6-1.1 0-.8-1.2-1.2-2.5-1.8-1.3-.7-2.1-1.7-2.1-2.9 0-2.1 1.8-3.4 3.6-3.4 2.1-.1 3.5 1 3.5 1zm5.6 10.3h-2.5v-11.2h2.5v11.2zm1.7-11.2h7.9v2.2h-2.7v9h-2.5v-9h-2.7v-2.2zm12.9 11.2h-2.5v-11.2h2.5v11.2zm8.2-11.4c3.1 0 5.6 2.5 5.6 5.8s-2.4 5.8-5.6 5.8c-3.3 0-5.6-2.5-5.6-5.8s2.5-5.8 5.6-5.8zm0 9.1c2 0 2.9-1.7 2.9-3.3s-.9-3.3-2.9-3.3-2.9 1.7-2.9 3.3.8 3.3 2.9 3.3zm10.8 2.3h-2.5v-11.2h2.5l4.4 6.9v-6.9h2.5v11.2h-2.5l-4.4-6.9v6.9zm17.4-10.3l-1 2s-1.1-.8-2.3-.8c-.9 0-1.3.4-1.3 1s1.1 1.1 2.3 1.6 2.6 1.6 2.6 3.1c0 2.7-2 3.6-4.2 3.6-2.6 0-4.2-1.5-4.2-1.5l1.3-2.1s1.5 1.3 2.7 1.3c.6 0 1.6-.1 1.6-1.1 0-.8-1.2-1.2-2.5-1.8-1.3-.7-2.1-1.7-2.1-2.9 0-2.1 1.8-3.4 3.6-3.4 2.1-.1 3.5 1 3.5 1zm-18.9 46.4c2.1 0 3.6 1.1 3.6 3.3 0 1.7-.9 2.8-2.3 3.2l3.8 4.6h-3.2l-3.4-4.4v4.4h-2.5v-11.2l4 .1zm-1.2 5c1 0 2.1-.1 2.1-1.5s-1.2-1.5-2.1-1.5h-.3v2.9l.3.1zm14.7-2.8h-3.8v2.2h3.7v2.2h-3.7v2.3h3.8v2.2h-6.4v-11.2h6.4v2.3zm9.8 2.7l-1.8 6.3h-2.8l-3.2-11.2h2.8l1.9 7.7h.1l2-7.7h1.9l2 7.7h.1l1.9-7.7h2.8l-3.2 11.2h-2.8l-1.7-6.3zm12.4 6.3h-2.5v-11.2h2.5v11.2zm5.7 0h-2.5v-11.2h2.5l4.4 6.9v-6.9h2.5v11.2h-2.5l-4.4-6.9v6.9zm13.4-11.2c3.1 0 5.6 2.3 5.6 5.6s-2.6 5.6-5.6 5.6h-3.2v-11.2h3.2zm-.3 8.9c1.9 0 3.2-1.4 3.2-3.3s-1.3-3.3-3.2-3.3h-.4v6.6h.4zm-543.3-70.1H548v2.3h3.7v2.2H548v2.3h3.8v2.2h-6.4v-11.2h6.4v2.2zm6.2-2.2c3.1 0 5.6 2.3 5.6 5.6s-2.6 5.6-5.6 5.6h-3.2v-11.2h3.2zm-.3 8.9c1.9 0 3.2-1.4 3.2-3.3s-1.3-3.3-3.2-3.3h-.4v6.6h.4zm11.1 2.3h-2.5v-11.2h2.5v11.2zm1.8-11.2h7.9v2.2h-2.7v9h-2.5v-9h-2.7v-2.2zm19.8 11.2h-2.7l-.8-2.2h-4.3l-.8 2.2H579l4.5-11.2h2.4l4.5 11.2zm-5.7-7.8l-1.3 3.3h2.5l-1.2-3.3zm11.1-3.4c1.9 0 3.4.7 3.4 2.9 0 1-.4 1.9-1.4 2.4 1.4.2 2.4 1 2.4 2.8s-1.3 3.1-3.7 3.1h-4.2v-11.2h3.5zm-.7 4.4c1.1 0 1.7-.3 1.7-1.3 0-.8-.6-1.1-1.7-1.1h-.2v2.4h.2zm.6 4.8c1.2 0 1.9-.4 1.9-1.2 0-1-.7-1.4-1.9-1.4h-.8v2.6h.8zm9.7-.3h3.8v2.2h-6.4v-11.1h2.5l.1 8.9zm13-6.7h-3.8v2.3h3.7v2.2h-3.7v2.3h3.8v2.2H612v-11.2h6.4v2.2zM528.3-151l-4.1-4.7v4.7h-2.5v-11.2h2.5v4.6l3.8-4.6h3.1l-4.5 5.3 5.2 5.9h-3.5zm11.9-9h-3.8v2.2h3.7v2.2h-3.7v2.3h3.8v2.3h-6.4v-11.2h6.4v2.2zm4.8-2.2l2.3 3.6 2.3-3.6h3.1l-4.1 6.2v5H546v-5l-4.1-6.2h3.1zm16 2.2h-3.9v2.2h3.6v2.2h-3.6v4.6h-2.5v-11.2h6.5l-.1 2.2zm6.8-2.2c2.1 0 3.6 1.1 3.6 3.3 0 1.7-.9 2.8-2.3 3.2l3.9 4.7h-3.2l-3.4-4.4v4.4h-2.5v-11.2h3.9zm-1.2 4.9c1 0 2.1-.1 2.1-1.5s-1.2-1.5-2.1-1.5h-.3v2.9h.3v.1zm18.5 6.3h-2.7l-.8-2.2h-4.3l-.8 2.2h-2.7l4.5-11.2h2.4l4.4 11.2zm-5.6-7.8l-1.3 3.3h2.5l-1.2-3.3zm16.3 1.1l-2.4 6.6h-1.5l-2.3-6.6h-.1l-.5 6.7h-2.5l1-11.2h2.7l2.5 6.5 2.5-6.5h2.7l1 11.2h-2.5l-.6-6.7zm12-2.3H604v2.2h3.7v2.2H604v2.3h3.8v2.3h-6.4v-11.2h6.4v2.2zm10.5-1.4l-1 2s-1.1-.8-2.3-.8c-.9 0-1.3.4-1.3 1s1.1 1.1 2.3 1.6c1.2.5 2.6 1.6 2.6 3.1 0 2.7-2 3.6-4.2 3.6-2.6 0-4.2-1.5-4.2-1.5l1.3-2.1s1.5 1.3 2.7 1.3c.6 0 1.6-.1 1.6-1.1 0-.8-1.2-1.2-2.5-1.8-1.3-.7-2.1-1.7-2.1-2.9 0-2.1 1.8-3.4 3.6-3.4 2.1 0 3.5 1 3.5 1zM1089.5-44l1.1 2.2s-1.2 1-3.7 1c-3.2 0-6.1-2.6-6.1-5.8s2.9-5.8 6.1-5.8c2.4 0 3.7 1 3.7 1l-1.1 2.2s-.9-.7-2.2-.7c-2.6 0-3.7 1.8-3.7 3.3s1.1 3.3 3.7 3.3c1.3 0 2.2-.7 2.2-.7zm11.2-7.4l-1 2s-1.1-.8-2.3-.8c-.9 0-1.3.4-1.3 1s1.1 1.1 2.3 1.6 2.6 1.6 2.6 3.1c0 2.7-2 3.6-4.2 3.6-2.6 0-4.2-1.5-4.2-1.5l1.3-2.1s1.5 1.3 2.7 1.3c.6 0 1.6-.1 1.6-1.1 0-.8-1.2-1.2-2.5-1.8-1.3-.7-2.1-1.7-2.1-2.9 0-2.1 1.8-3.4 3.6-3.4 2 0 3.5 1 3.5 1zm10.3 0l-1 2s-1.1-.8-2.3-.8c-.9 0-1.3.4-1.3 1s1.1 1.1 2.3 1.6c1.2.5 2.6 1.6 2.6 3.1 0 2.7-2 3.6-4.2 3.6-2.6 0-4.2-1.5-4.2-1.5l1.3-2.1s1.5 1.3 2.7 1.3c.6 0 1.6-.1 1.6-1.1 0-.8-1.2-1.2-2.5-1.8-1.3-.7-2.1-1.7-2.1-2.9 0-2.1 1.8-3.4 3.6-3.4 2.1 0 3.5 1 3.5 1zm14.7 1.4h-3.9v2.2h3.6v2.2h-3.6v4.5h-2.5v-11.2h6.5l-.1 2.3zm5.2 9h-2.5v-11.2h2.5V-41zm5.7-2.2h3.8v2.2h-6.4v-11.2h2.5l.1 9zm5.2-9h7.9v2.2h-2.7v9h-2.5v-9h-2.7v-2.2zm16.7 2.2h-3.8v2.2h3.7v2.2h-3.7v2.3h3.8v2.2h-6.4v-11.2h6.4v2.3zm6.9-2.2c2.1 0 3.6 1.1 3.6 3.3 0 1.7-.9 2.8-2.3 3.2l3.8 4.6h-3.2l-3.4-4.4v4.4h-2.5v-11.2l4 .1zm-1.1 5c1 0 2.1-.1 2.1-1.5s-1.2-1.5-2.1-1.5h-.3v2.9h.3v.1zm-76.5 13.5h-3.8v2.2h3.7v2.2h-3.7v2.3h3.8v2.2h-6.4V-36h6.4v2.3zm6.2-2.2c3.1 0 5.6 2.3 5.6 5.6s-2.6 5.6-5.6 5.6h-3.2v-11.2h3.2zm-.3 8.9c1.9 0 3.2-1.4 3.2-3.3s-1.3-3.3-3.2-3.3h-.4v6.6h.4zm11.1 2.3h-2.5v-11.2h2.5v11.2zm1.7-11.2h7.9v2.2h-2.7v9h-2.5v-9h-2.7v-2.2zm15-.2c3.1 0 5.6 2.5 5.6 5.8s-2.4 5.8-5.6 5.8c-3.3 0-5.6-2.5-5.6-5.8s2.5-5.8 5.6-5.8zm0 9.1c2 0 2.9-1.7 2.9-3.3s-.9-3.3-2.9-3.3-2.9 1.7-2.9 3.3.8 3.3 2.9 3.3zm12.3-8.9c2.1 0 3.6 1.1 3.6 3.3 0 1.7-.9 2.8-2.3 3.2l3.8 4.6h-3.2l-3.4-4.4v4.4h-2.5V-36h4v.1zm-1.2 4.9c1 0 2.1-.1 2.1-1.5s-1.2-1.5-2.1-1.5h-.3v2.9h.3v.1zm-700.5-9.5h-2.7l-.8-2.2h-4.3l-.8 2.2h-2.7l4.5-11.2h2.4l4.4 11.2zm-5.7-7.7l-1.3 3.3h2.5l-1.2-3.3zm10.2 7.7H434v-11.2h2.5l4.4 6.9v-6.9h2.5v11.2h-2.5l-4.4-6.9v6.9h.1zm12.7 0h-2.5v-11.2h2.5v11.2zm11.8-6.6l-2.4 6.6h-1.5l-2.3-6.6h-.1l-.5 6.6h-2.5l1-11.2h2.7l2.5 6.5 2.5-6.5h2.7l1 11.2h-2.5l-.6-6.6zm15.8 6.6h-2.7l-.8-2.2h-4.3l-.8 2.2h-2.7l4.5-11.2h2.4l4.4 11.2zm-5.7-7.7l-1.3 3.3h2.5l-1.2-3.3zm6.3-3.5h7.9v2.2h-2.7v9h-2.5v-9h-2.7v-2.2zm12.8 11.2h-2.5v-11.2h2.5v11.2zm8.2-11.4c3.1 0 5.6 2.5 5.6 5.8s-2.4 5.8-5.6 5.8c-3.3 0-5.6-2.5-5.6-5.8s2.6-5.8 5.6-5.8zm0 9.1c2 0 2.9-1.7 2.9-3.3s-.9-3.3-2.9-3.3-2.9 1.7-2.9 3.3.8 3.3 2.9 3.3zm10.8 2.3h-2.5v-11.2h2.5l4.4 6.9v-6.9h2.5v11.2h-2.5l-4.4-6.9v6.9zm-79.4 5.1c3.1 0 5.6 2.3 5.6 5.6s-2.6 5.6-5.6 5.6h-3.2v-11.2h3.2zm-.3 8.9c1.9 0 3.2-1.4 3.2-3.3s-1.3-3.3-3.2-3.3h-.4v6.6h.4zm15-6.7h-3.8v2.2h3.7v2.2h-3.7v2.3h3.8v2.2h-6.4v-11.2h6.4v2.3zm2.2-2.2h7.9v2.2H452v9h-2.5v-9h-2.7v-2.2zm16.7 2.2h-3.8v2.2h3.7v2.2h-3.7v2.3h3.8v2.2h-6.4v-11.2h6.4v2.3zm11.1 6l1.1 2.2s-1.2 1-3.7 1c-3.2 0-6.1-2.6-6.1-5.8s2.9-5.8 6.1-5.8c2.4 0 3.7 1 3.7 1l-1.1 2.2s-.9-.7-2.2-.7c-2.6 0-3.7 1.8-3.7 3.3s1.1 3.3 3.7 3.3c1.3 0 2.2-.7 2.2-.7zm2.9-8.2h7.9v2.2h-2.7v9h-2.5v-9h-2.7v-2.2zm12.8 11.2h-2.5v-11.2h2.5v11.2zm8.2-11.4c3.1 0 5.6 2.5 5.6 5.8s-2.4 5.8-5.6 5.8c-3.3 0-5.6-2.5-5.6-5.8s2.6-5.8 5.6-5.8zm0 9.1c2 0 2.9-1.7 2.9-3.3s-.9-3.3-2.9-3.3-2.9 1.7-2.9 3.3.8 3.3 2.9 3.3zm10.8 2.3h-2.5v-11.2h2.5l4.4 6.9v-6.9h2.5v11.2h-2.5l-4.4-6.9v6.9zm546.9 227.7h7.9v2.2h-2.7v9h-2.5v-9h-2.7v-2.2zm12.8 11.2h-2.5v-11.2h2.5v11.2zm11.8-6.6l-2.4 6.6h-1.4l-2.3-6.6h-.1l-.5 6.6h-2.5l1-11.2h2.7l2.5 6.5 2.5-6.5h2.7l1 11.2h-2.5l-.7-6.6zm12-2.3h-3.8v2.2h3.7v2.2h-3.7v2.3h3.8v2.2h-6.4v-11.2h6.4v2.3zm5.5 6.7h3.8v2.2h-6.4v-11.2h2.5l.1 9zm9.2 2.2h-2.5v-11.2h2.5v11.2zm5.7 0h-2.5v-11.2h2.5l4.4 6.9v-6.9h2.5v11.2h-2.5l-4.4-6.9v6.9zm16.5-8.9h-3.8v2.2h3.7v2.2h-3.7v2.3h3.8v2.2h-6.4v-11.2h6.4v2.3zm-65.2 14.9l-1 2s-1.1-.8-2.3-.8c-.9 0-1.3.4-1.3 1s1.1 1.1 2.3 1.6 2.6 1.6 2.6 3.1c0 2.7-2 3.6-4.2 3.6-2.6 0-4.2-1.5-4.2-1.5l1.3-2.1s1.5 1.3 2.7 1.3c.6 0 1.6-.1 1.6-1.1 0-.8-1.2-1.2-2.5-1.8-1.3-.7-2.1-1.7-2.1-2.9 0-2.1 1.8-3.4 3.6-3.4 2.1-.1 3.5 1 3.5 1zm10.7 7.3l1.1 2.2s-1.2 1-3.7 1c-3.2 0-6.1-2.6-6.1-5.8 0-3.2 2.9-5.8 6.1-5.8 2.4 0 3.7 1 3.7 1l-1.1 2.2s-.9-.7-2.2-.7c-2.6 0-3.7 1.8-3.7 3.3s1.1 3.3 3.7 3.3c1.3 0 2.2-.7 2.2-.7zm7.6-8.2c2.1 0 3.6 1.1 3.6 3.3 0 1.7-.9 2.8-2.3 3.2l3.8 4.6h-3.2l-3.4-4.4v4.4h-2.5v-11.2h4v.1zm-1.2 5c1 0 2.1-.1 2.1-1.5s-1.2-1.5-2.1-1.5h-.3v2.9h.3v.1zm16.9 2.2c0 2.8-1.5 4.2-4.4 4.2-2.8 0-4.4-1.4-4.4-4.2v-7.2h2.5v6.5c0 1.9.6 2.4 1.8 2.4s1.8-.5 1.8-2.4v-6.5h2.5v7.2h.2zm6.5-7.2c1.9 0 3.4.7 3.4 2.9 0 1-.4 1.9-1.4 2.4 1.4.2 2.4 1 2.4 2.8s-1.3 3.1-3.7 3.1h-4.2v-11.2h3.5zm-.7 4.4c1.1 0 1.7-.3 1.7-1.3 0-.8-.6-1.1-1.7-1.1h-.2v2.4h.2zm.6 4.8c1.2 0 1.9-.4 1.9-1.2 0-1-.7-1.4-1.9-1.4h-.8v2.6h.8zm10.6-9.2c1.9 0 3.4.7 3.4 2.9 0 1-.4 1.9-1.4 2.4 1.4.2 2.4 1 2.4 2.8s-1.3 3.1-3.7 3.1h-4.2v-11.2h3.5zm-.7 4.4c1.1 0 1.7-.3 1.7-1.3 0-.8-.6-1.1-1.7-1.1h-.2v2.4h.2zm.6 4.8c1.2 0 1.9-.4 1.9-1.2 0-1-.7-1.4-1.9-1.4h-.8v2.6h.8zm9.7 2h-2.5v-11.2h2.5V231zm5.7 0h-2.5v-11.2h2.5l4.4 6.9v-6.9h2.5V231h-2.5l-4.4-6.9v6.9zm20.2-3.8c-.6 2.8-3 4-5.2 4-3 0-5.4-2.6-5.4-5.8 0-3.2 2.3-5.8 5.4-5.8 2 0 3.3.7 4.3 1.9l-1.7 1.8c-.7-1-1.5-1.4-2.5-1.4-1.6 0-2.8 1.6-2.8 3.5s1.3 3.4 2.8 3.4c1.2 0 2.4-.8 2.4-2.2h-2.6v-2h5.2l.1 2.6zM450.1-112.5h-3.8v2.2h3.7v2.2h-3.7v2.3h3.8v2.2h-6.4v-11.2h6.4v2.3zm4.8-2.2l2.3 3.6 2.3-3.6h3.1l-4.1 6.2v5H456v-5l-4.1-6.2h3zm16 2.2H467v2.2h3.7v2.2H467v2.3h3.8v2.2h-6.4v-11.2h6.4v2.3h.1zm6.2-2.2c3.1 0 5.6 2.3 5.6 5.6s-2.6 5.6-5.6 5.6h-3.2v-11.2h3.2zm-.3 8.9c1.9 0 3.2-1.4 3.2-3.3s-1.3-3.3-3.2-3.3h-.4v6.6h.4zm12.5-8.9c2.1 0 3.6 1.1 3.6 3.3 0 1.7-.9 2.8-2.3 3.2l3.8 4.6h-3.2l-3.4-4.4v4.4h-2.5v-11.2l4 .1zm-1.1 5c1 0 2.1-.1 2.1-1.5s-1.2-1.5-2.1-1.5h-.3v2.9l.3.1zm13.5-5.2c3.1 0 5.6 2.5 5.6 5.8s-2.4 5.8-5.6 5.8c-3.3 0-5.6-2.5-5.6-5.8s2.5-5.8 5.6-5.8zm0 9.1c2 0 2.9-1.7 2.9-3.3s-.9-3.3-2.9-3.3-2.9 1.7-2.9 3.3.8 3.3 2.9 3.3zm12.3-8.9c2.2 0 3.8 1.1 3.8 3.4s-1.6 3.6-3.8 3.6h-1.5v4.2H510v-11.2h4zm-.8 5c1 0 2-.3 2-1.5s-.9-1.5-2-1.5h-.7v3h.7zm11.3-5c2.2 0 3.8 1.1 3.8 3.4s-1.6 3.6-3.8 3.6H523v4.2h-2.5v-11.2h4zm-.8 5c1 0 2-.3 2-1.5s-.9-1.5-2-1.5h-.7v3h.7zm13.6-2.8h-3.8v2.2h3.7v2.2h-3.7v2.3h3.8v2.2h-6.4v-11.2h6.4v2.3zm7-2.2c2.1 0 3.6 1.1 3.6 3.3 0 1.7-.9 2.8-2.3 3.2l3.8 4.6h-3.2l-3.4-4.4v4.4h-2.5v-11.2l4 .1zm-1.2 5c1 0 2.1-.1 2.1-1.5s-1.2-1.5-2.1-1.5h-.3v2.9l.3.1zm-22.2 390.5l1.1 2.2s-1.2 1-3.7 1c-3.2 0-6.1-2.6-6.1-5.8s2.9-5.8 6.1-5.8c2.4 0 3.7 1 3.7 1l-1.1 2.2s-.9-.7-2.2-.7c-2.6 0-3.7 1.8-3.7 3.3s1.1 3.3 3.7 3.3c1.3 0 2.2-.7 2.2-.7zm12.2-1c0 2.8-1.5 4.2-4.4 4.2-2.8 0-4.4-1.4-4.4-4.2v-7.2h2.5v6.5c0 1.9.6 2.4 1.8 2.4 1.2 0 1.8-.5 1.8-2.4v-6.5h2.5v7.2h.2zm6.4-7.2c1.9 0 3.4.7 3.4 2.9 0 1-.4 1.9-1.4 2.4 1.4.2 2.4 1 2.4 2.8s-1.3 3.1-3.7 3.1H536v-11.2h3.5zm-.7 4.4c1.1 0 1.7-.3 1.7-1.3 0-.8-.6-1.1-1.7-1.1h-.2v2.4h.2zm.6 4.8c1.2 0 1.9-.4 1.9-1.2 0-1-.7-1.4-1.9-1.4h-.8v2.6h.8zm9.7 2h-2.5v-11.2h2.5v11.2zm10.9-3l1.1 2.2s-1.2 1-3.7 1c-3.2 0-6.1-2.6-6.1-5.8s2.9-5.8 6.1-5.8c2.4 0 3.7 1 3.7 1l-1.1 2.2s-.9-.7-2.2-.7c-2.6 0-3.7 1.8-3.7 3.3s1.1 3.3 3.7 3.3c1.3 0 2.2-.7 2.2-.7zm12.2-8.2c1.9 0 3.4.7 3.4 2.9 0 1-.4 1.9-1.4 2.4 1.4.2 2.4 1 2.4 2.8s-1.3 3.1-3.7 3.1h-4.2v-11.2h3.5zm-.7 4.4c1.1 0 1.7-.3 1.7-1.3 0-.8-.6-1.1-1.7-1.1h-.2v2.4h.2zm.5 4.8c1.2 0 1.9-.4 1.9-1.2 0-1-.7-1.4-1.9-1.4h-.8v2.6h.8zm13.6-7h-3.8v2.2h3.7v2.2h-3.7v2.3h3.8v2.2h-6.4v-11.2h6.4v2.3zm6.8 6.8h5.2v2.2H588l5.5-9h-4.7v-2.2h9.2l-5.6 9zm10.6 2.2h-2.5v-11.2h2.5v11.2zm9.5-9h-3.8v2.2h3.7v2.2h-3.7v2.3h3.8v2.2h-6.4v-11.2h6.4v2.3zm7-2.2c2.1 0 3.6 1.1 3.6 3.3 0 1.7-.9 2.8-2.3 3.2l3.8 4.6h-3.2l-3.4-4.4v4.4h-2.5v-11.2h4v.1zm-1.2 5c1 0 2.1-.1 2.1-1.5s-1.2-1.5-2.1-1.5h-.3v2.9h.3v.1zm20-2.8h-3.8v2.2h3.7v2.2h-3.7v2.3h3.8v2.2h-6.4v-11.2h6.4v2.3zm6.2-2.2c3.1 0 5.6 2.3 5.6 5.6s-2.6 5.6-5.6 5.6h-3.2v-11.2h3.2zm-.3 8.9c1.9 0 3.2-1.4 3.2-3.3s-1.3-3.3-3.2-3.3h-.4v6.6h.4zm11.1 2.3h-2.5v-11.2h2.5v11.2zm1.7-11.2h7.9v2.2h-2.7v9h-2.5v-9H657v-2.2zm15-.2c3.1 0 5.6 2.5 5.6 5.8s-2.4 5.8-5.6 5.8c-3.3 0-5.6-2.5-5.6-5.8s2.5-5.8 5.6-5.8zm0 9.1c2 0 2.9-1.7 2.9-3.3 0-1.7-.9-3.3-2.9-3.3s-2.9 1.7-2.9 3.3c0 1.7.8 3.3 2.9 3.3zm12.2-8.9c2.1 0 3.6 1.1 3.6 3.3 0 1.7-.9 2.8-2.3 3.2l3.8 4.6h-3.2l-3.4-4.4v4.4h-2.5v-11.2h4v.1zm-1.1 5c1 0 2.1-.1 2.1-1.5s-1.2-1.5-2.1-1.5h-.3v2.9h.3v.1z"/></svg>