<svg xmlns="http://www.w3.org/2000/svg" viewBox="-22.4 21.5 28 28"><circle cx="-8.4" cy="35.5" r="13.5"/><path fill="currentColor" d="M-12.5 35.1c2.2-.7 7.7-1.2 8.9-2.3.4-.2.8-.5 1.1-.8.7-1-.7-3-.8-3.1-.5-.4-.9-.8-1.2-1.4.6.3.9.9 1.5 1.1-.1-.4-.1-.3-.5-.6.4.1.5-.2.5-.6h.4c.1-.1.2-.3.3-.5 0 .1.1.1.2.1v-.1c-.1-.4-.3-.8-.5-1.2.2.4.5.9.8 1.2.1-.1.1-.2.1-.3.4.6.8 1.2 1.4 1.7 1.9 4.3.6 7.1-3.9 8.7-1.9.4-7.3 1.1-7.8 3.6-.6 3 8.4 5 8.5-1.3 0-1.9 6.1.5 1.6 5.4-.8.9-2.5 1.5-3.9 1.7-5.5.8-13.6-.9-11.6-6.7.8-2.6 3.3-3.9 4.9-4.6z"/></svg>
