	<svg xmlns="http://www.w3.org/2000/svg" viewBox="-20 12 28 28"><circle cx="-6" cy="26" r="13.5"/><path fill="currentColor" d="M-13.5 28.1c.8-.8 1.6-1.3 2.7-1.7 1.1-.3 1.4-1.1 1.6-2.2 0-.2.3-1.2.1-1.4-.2-.2-1.3 0-1.6.1-1 .2-1.7.9-2.1 1.8-.4 1-.5 2-1.2 2.9-2.7 3.4-.3 5.8.9 6.4-2.8-2.8-1.1-5.1-.4-5.9zM2 27.6c-.7-.9-.8-1.8-1.2-2.9-.4-.9-1.1-1.5-2.1-1.8-.3-.1-1.4-.3-1.6-.1-.2.2.1 1.2.1 1.4.2 1.1.5 1.8 1.6 2.2 1.1.3 1.9.8 2.7 1.7.7.8 2.4 3-.3 5.9 1.2-.6 3.6-3 .8-6.4z"/><path fill="currentColor" d="M-.4 30.8c1.2 2.3-1.8 3.7-2.6 1.7 1.6.9 2.2-.8 2.1-.7-1.3 1.3-2.3-.9-2.4-1.8-.1-1.1-1-1.9-.9-3 0-1.7.2-4.2.7-4.6.5-.5 1.1-.9 1.6-1.5s.9-.7.5-1.4c-.3-.6-4.2-4.8-4.6-4.8s-4.3 4.3-4.6 4.8c-.3.7 0 .8.5 1.4.5.5 1.1 1 1.6 1.5s.7 2.9.7 4.6c0 1.1-.8 2-.9 3-.1.9-1.1 3.1-2.4 1.8-.1-.1.5 1.6 2.1.7-.9 2-3.9.6-2.6-1.7-1.9 1.3.1 5.8 3.9 3.1-1 1.1-2.1 1.9-3.9 1.1 1.5 1.9 4.7.4 5-.4-.3 1-.6 1.6-1.7 2.3C-6.8 36.7-6 36-6 36h.1c.7 0 .7.7 2.2.9-1.1-.7-1.4-1.3-1.7-2.3.3.8 3.5 2.4 5 .4-1.8.8-2.9 0-3.9-1.1 3.8 2.7 5.9-1.9 3.9-3.1z"/></svg>
