	<svg xmlns="http://www.w3.org/2000/svg" viewBox="-20 12 28 28"><circle cx="-6" cy="26" r="13.5"/><path fill="currentColor" d="M5.1 30.7c-5.5 5.5-11.9 4.8-13.5 2.7-.5-.7-.8-1.4-.9-2.2 0-.1.1-.3.2-.4.6-.7 1.5-1 2.4-.7.7.2 1.3.6 2 .8 1.6.6 3.3.8 4.9.2 1.5-.5 2.4-1.6 2.7-3.1.2-.6.1-2.5 1.2-4l1-1c-.4 0-.8 0-1.1.1-1.5.3-2.4 1.3-2.9 2.7-.2.6-.7 3.8-.8 4-.3.6-.8.8-1.5.8-.9 0-1.7-.3-2.5-.6-1.1-.4-2.1-.8-3.3-1-.7-.1-1.7-.2-2 .1.2-.4.4-.8.7-1.2 2.4-3.7 6.5-.8 5.5.9-.3.5-.8.7-1.2.5-.4-.1-1.2-.7.1-1.3-.2-.2-.7 0-.9.3-.2.3-.1.7.2.9.5.4 1.1.4 1.6.1.8-.6 1.6-2 .3-3.3-5.2-4-7.7 3.6-7.7 3.6 0-.7.5-2.8 1.3-4.3.3-.7.7-1.4 1.2-2 2-2.7 1.8-5.4 1.5-6-.4-.9-1.1-1.1-2-.7-.6.3-1.1.7-1.4 1.3-.2.3-.2.6 0 .8.2.2.6.2.9.1.4-.1.7-.4.8-.8 0-.1 0-.4-.1-.4-.1-.1-.8 0-.8.5.1-.4.6-.5.7-.3 0 .5-.7.8-1 .7-.1 0-.1-.1-.1-.2s0-.2.1-.3c.4-.6 1-1 1.8-1 .3 0 .5.1.6.4.3 1.6-1.1 4.3-1.3 4.3 0 0-.2-.2-.2-.3-.2-1.4-1.5-2.3-2.7-2.3-1 0-1.8.4-2.4 1.2-.1.1-.1.2-.2.3h-.1c-.3-.4-.3-.9-.2-1.3h-.1c-.1.1-.1.2-.2.4-.1.4 0 .8.1 1.2v.5c0 .3-.1.6-.1.8 0 .1.1.4.2.4.2 0 .4-.1.5-.2.2-.3.2-.6.1-.9-.1-.3 0-.4.1-.6.5-.6 1.1-1 1.9-1.1 2.6.3 2 3.1 1.8 3.4-.8.8-3.7 5.3-2 10.4-2.5-1.6-1.8-7.1-3.4-8.7.3.2.4.3.7.2l-.5-.2c-.1-.1-.4-.4-.4-.5-.3-.5-.7-1-1.3-1.1-.1 0-.3-.1-.4-.1-.2 0-.5.2-.7.4 0 .1-.1.3-.1.5.1.2.2.4.4.6.5.3 1 .3 1.6.2.3 0 .4.1.5.4.3 1 .3 1.9.4 2.9.3 4.1.8 5.9 2.9 8.1.5.4.9.7 1.4 1 .3.2.6.3.9.4 1.2.4 2.4.6 3.8.6 4.9-.1 9.2-3.2 11-7.6zm-22.3-6.4c-.1-.1-.3-.3-.3-.4 0-.2.2-.3.4-.4.4-.1.7.1 1 .4.2.2.3.4.5.6-.6 0-1.2 0-1.6-.2z"/></svg>
