	<svg xmlns="http://www.w3.org/2000/svg" viewBox="-22.4 21.5 28 28"><circle cx="-8.4" cy="35.5" r="13.5"/><path fill="currentColor" d="M-11 30.2h1.1c-.3.2-.6.5-.9.8.5-.3.9-.6 1.5-.7h.1c.4.1.9.2 1.2.4-.3.1-.7.2-1 .4.5-.1 1-.1 1.4-.2h.1c.6.3 1.3 1.1 1.6 1.7 0 .1.1.2 0 .3v.1s0 .1-.1.1h-.3c-.1 0-.2.1-.3.1l.9.6c.6.2 1.7.2 2.3-.1 1.2-.5 3-3.1 4.6-2.5.3.1.6.2.9.4l.1.1c-.1.3-.1.3-.2.3-.3 0-1-.1-1.4 0 .3 0 .6.1.9.1-.1 0-.2.1-.3.1-.4.2-.9.3-1.4.4.3 0 .7-.1 1 0-.6.9-1.5 1.4-2.4 1.9 1.1.3 1.8.1 2.8.9-.2.1-.4.2-.7.3.3.2.5.3.8.2.1 0 .2-.1.4-.1h.1c.1 0 .2.1.4.1-.2.2-.4.4-.6.5.6-.2 1-.5 1.6-.4v.1c-.2.4-.8.9-1.2 1-1.7.6-3.5-.5-4.9-1.2-.4-.2-.7-.3-1.2-.3-.3 0-.9.3-1.2.6h.2c.3 0 .6.2.8.4.1.1.1.1.1.2 0 .3 0 .5-.1.8-.1.1-.1.2-.2.3-.4 0-.8-.1-1.2 0 .3.1.7.2 1 .3 0 .1-.1.1-.1.1 0 .1-.1.1-.1.1-.5-.1-1-.2-1.4-.2.4.2.8.4 1.3.5-.1.1-.2.1-.3.2h-.2c-.4-.1-1.4-.5-1.8-.6.3.2.6.4.9.5-.5 0-1-.2-1.5-.4H-8c-1.8.7-3.2.9-5.2.8.2.3.4.6.7.8h-.1l-.4-.1c-.3-.2-.6-.5-.9-.7 0 .6.7 1.7 1.1 2.1v.1c0 .1-.1.2 0 .4-.6-.2-.9-1-1.2-1.5 0 .4.4 1 .7 1.4-.1.1-.2.4-.3.5l-.3-.3c-.7-.9-.5-1.9-.8-2.9 0-.1 0-.1-.1-.1s-1.3-.4-1.7-.6c-.3-.1-.6-.3-.8-.6-.4-.4-.6-.9-.8-1.4 0 0 0-.1-.1-.1 0 0-.1 0-.1-.1-.1-.1 0-.2.2-.3.5.1.8.6 1.3.8-.4-.4-.7-.8-1.1-1.2-.1-.1 0-.1 0-.2 0-.2.1-.5.2-.7.2-.3.4-.6.6-.8.1-.1.1-.3.2-.4.1-.6 2.5-.8 2.9-1.1.5-.5 1.3-1.2 1.9-1.4l-.3.6v.1c.4-.5.9-1 1.4-1.3.4 0 0 0 0 0zm-5.9 6.4z"/></svg>
