<svg xmlns="http://www.w3.org/2000/svg" viewBox="-20 12 28 28"><circle cx="-6" cy="26" r="13.5"/><path fill="currentColor" d="M1.9 22.9c2-.8-3.8-6.6-4.6-4.6.8-2-7.3-2-6.5 0-.8-2-6.6 3.8-4.6 4.6-2-.8-2 7.3 0 6.5-2 .8 3.8 6.6 4.6 4.6-.8 2 7.3 2 6.5 0 .8 2 6.6-3.8 4.6-4.6 1.9.8 1.9-7.3 0-6.5zm-12.6 1.4c.7 0 .7 1.2 0 1.2-.8 0-.7-1.2 0-1.2zm0 3.5c-.7 0-.8-1.2 0-1.2.6 0 .7 1.2 0 1.2zm1.1 2c-.7 0-.9-1.2 0-1.2.6.1.7 1.2 0 1.2zm-.1-6.3c-.8 0-.6-1.2.1-1.2.8 0 .6 1.2-.1 1.2zm1.9 7.6c-.7 0-.9-1.1-.1-1.1s.9 1.1.1 1.1zm0-8.9c-.8 0-.6-1.1.1-1.1.8-.1.6 1.1-.1 1.1zm2.2 9.2c-.8 0-.6-1.3.2-1.1.7.2.5 1.1-.2 1.1zm.2-9.5c-.7 0-1-.9-.2-1.1.7-.2 1 1.1.2 1.1zm2 8.8c-.8 0-.6-1.2.1-1.2.8 0 .6 1.2-.1 1.2zm.1-8c-.7 0-.9-1.2-.1-1.2.7.1.9 1.2.1 1.2zm1.5.5c.7 0 .8 1.2 0 1.2-.7.1-.8-1.2 0-1.2zm-.1 5.8c-.8 0-.6-1.3.2-1.1.7.1.4 1.1-.2 1.1zm.6-2.2c-1.4 0 0-2.3.5-.8.2.7-.2.8-.5.8z"/></svg>
