<svg xmlns="http://www.w3.org/2000/svg" viewBox="0 0 368 50"><path d="M351.4 22.3c0 .9 1 1 1 0s-1-.9-1 0zM312.4 20c0 .9-1.4.9-1.4 0 0-.8 1.4-.9 1.4 0zM263.2 16.3c0 1-1.3 1-1.3 0s1.3-1 1.3 0z"/><!--<g id="_x34_gMkcz.tif">--><path d="M159.4 2.3c1.3 2.1-2.4 3.9-3.3 1.5-.7-2 2.2-3.3 3.3-1.5zM173.7 1.3c1 0 1.6 1.1 1.4 2-.2 1-1.6 1.4-2.4 1.1-2-.6-.6-3.1 1-3.1zM6.4 48c-1-.1-2.3.1-3.1-.5-.6-.5-1-1.5-.3-2.1.6-.6 1.8.3 2.5.4 1 .1 2-.1 2.9-.5.9-.5 1.6-1.5 2.6-1.8.8-.3 1.6.6 1.3 1.5-.3.9-1.8 1.6-2.6 2-1.1.5-2.2.8-3.3 1-.9-.1 2-.3 0 0zM140.4 5.1c-1.8-1.8 2.1-4 3.6-2.1.7.9.4 2-.5 2.6-1 .7-2.2.3-3.1-.5zM96.3 9.8c-2.8 0-2.1-4.1.5-3.8 2.4.3 1.8 3.8-.5 3.8zM111 8c-2.6 0-2.4-3.8.2-3.6 1.1.1 1.8.9 1.8 2s-.9 1.6-2 1.6zM128 7.7c-2.6 0-2.2-3.5.2-3.5 1 0 1.7.8 1.7 1.8 0 1.1-.8 1.7-1.9 1.7zM79.1 26.7c1.2.2 2.2.7 3 1.5.4.4.7.8 1 1.3.4.8.2 1 .1 1.8-1.1-.5-1.8-1.1-2.6-1.9-.8-.8-1.6-1.5-2.2-2.5.2 0 .5-.1.7-.2.4.1-.2.1 0 0zM68.5 22.5c1-.8 2.3-.5 3.4-.2.9.3 2.6 1 2.9 2 .6 1.7-2 .4-2.5.1-1.3-.6-2.6-1.2-3.8-1.9.8-.7.4.3 0 0zM189.3 4.9c-.9 0-1.6-.7-1.6-1.6-.1-.9.6-1.4 1.4-1.6 2.3-.4 2.6 3.1.2 3.2zM83.5 42.9c0-.6.9-1.4 1.4-1.5.9-.2 1.4.8 1.3 1.6-.1.6-.5 1.6-1.3 1.6-.7 0-1.4-1-1.4-1.7zM199.5 2c1.9 0 1.8 2.8-.1 2.6-1.5-.2-1.4-2.6.1-2.6zM79.7 44.5c1.7-.1 1 2.4-.5 2.4-2 0-.9-2.4.5-2.4.8-.1-.6 0 0 0zM207.5 4.1c-1.6.1-1.7-2.5 0-2.4 1.4.2 1.5 2.4 0 2.4zM317.6 17.4c-1.5 0-1-2.3.3-2.1 1.4.1 1.1 2.1-.3 2.1-.6 0 .7 0 0 0zM4 39.2c0 1.3-2.1 2-2.1.4.1-1.1 2.1-2 2.1-.4zM250.8 9.7c0 1.2-2.5.9-2.1-.5.4-1.4 2.1-.8 2.1.5 0 .5 0-.8 0 0zM256.7 11.3c-1.3-.2-1.1-2.2.4-2 1.4.2 1 2.1-.4 2-.5-.1.7.1 0 0zM6.3 34.8c1.3 0 .6 2.1-.4 2.2-1.5.1-.9-2.2.4-2.2.4 0-.7 0 0 0zM74.1 48.5c-1.4 0-.8-2.3.6-1.9.5.2 1 .8.7 1.4-.1.5-.8.5-1.3.5-.3 0 .9 0 0 0zM292.7 15.5c-1.5 0-1.2-2.2.2-2 1.3.2 1.1 2.1-.2 2zM304.2 16.4c-1.1 0-.7-2.2.7-2 1.5.3.5 2-.7 2-.3 0 .9 0 0 0zM322.3 16.6c.1-1.3 2.1-1.1 1.9.3-.1 1.4-1.9 1-1.9-.3.1-.5 0 .7 0 0zM243.1 6.4c1.4.2 1.2 2.1-.2 1.9-.6-.1-1-.5-.9-1.1.1-.6.6-.7 1.1-.8.6.1-.6.1 0 0zM298.3 15.9c-1.3.1-1.4-1.8-.2-1.9 1.4-.3 1.4 2.1.2 1.9-.7 0 .7.1 0 0zM218.6 2.8c0 1.2-1.9 1.4-2.1.3-.2-1.2 2-1.7 2.1-.3 0 .7-.1-.7 0 0zM235.8 6c-.1 1.1-2.2.8-1.9-.3.2-1.4 1.9-1 1.9.3-.1.4 0-.7 0 0zM346.2 18.3c0 .5-.1.9-.5 1.1-.4.2-.9.1-1.1-.3-.2-.4-.1-1 .2-1.3.6-.3 1 .2 1.4.5.1.9-.1-.1 0 0z"/></g><path d="M258.1 15.9c0 1-1.5 1-1.5 0-.1-1 1.5-1 1.5 0zM268.5 16.7c0 1-1.5 1-1.5 0 0-.9 1.5-.9 1.5 0zM274 17.1c0 .9-1.4.9-1.4 0-.1-.9 1.4-.9 1.4 0zM280.3 18.3c0 1-1.3 0-1.3 0 .1-1 1.3-1 1.3 0zM287.2 18.3c0 1-1.2 1-1.2 0s1.2-1 1.2 0zM287.1 14.3c0 1-1.8 1-1.8 0s1.8-1 1.8 0zM280.3 12.8c0 1.4-2.1 1.3-2.1 0 .1-1.3 2.1-1.4 2.1 0zM274.6 12c0 1.3-2.1 1.3-2.1 0s2.1-1.3 2.1 0zM268.8 11.3c0 2-1.9 2-1.9 0 .1-1 1.9-1 1.9 0zM263.9 11c0 1.3-2.1 1.3-2.1 0 .1-1.3 2.1-1.4 2.1 0zM227.5 4.3c0 1-1.8 1-1.8 0s1.8-1 1.8 0zM69.9 49.2c0 1-1.5 1-1.5 0-.1-.9 1.5-.9 1.5 0zM15 42.3c0 1-1.6 1-1.6 0s1.6-1 1.6 0zM294 19.3c0 1-1.2 1-1.2 0s1.2-1 1.2 0zM299.5 19.3c0 1-1.3 1-1.3 0s1.3-1 1.3 0zM1.7 43c0 .9-1.4.9-1.4 0-.1-.9 1.4-.9 1.4 0zM311.9 16.3c0 1-2 1-2 0s2-1 2 0zM319.1 20.2c0 .9-1.4.9-1.4 0s1.4-.9 1.4 0zM305.5 19.7c0 .9-1.4.9-1.4 0 .1-.9 1.4-.9 1.4 0zM325.1 20.3c0 1-1.1.8-1.1 0-.1-.9 1.1-1 1.1 0zM332.3 20.3c0 1-1.1.8-1.1 0s1.1-1 1.1 0zM332.3 17.3c0 1-1.9 1-1.9 0s1.9-1 1.9 0zM339.5 18.3c0 1-2 1-2 0 0-2 2-2 2 0zM339.9 21.3c0 1-1.1 1-1.1 0s1.1-1 1.1 0zM346.3 21.3c0 1-.8.8-.8 0s.8-1 .8 0zM358 19.3c0 1-1.8 1-1.8 0s1.8-1 1.8 0zM352.6 19.3c0 1-1.7 1-1.7 0s1.7-1 1.7 0zM363.1 19.3c0 1-1.3 1-1.3 0s1.3-1 1.3 0zM367.9 19.3c0 1-1.3 1-1.3 0s1.3-1 1.3 0z"/></svg>
