<svg xmlns="http://www.w3.org/2000/svg" viewBox="0 0 439.6 285.1" class="lumi"><path d="M63.4 0c.8.3 1.5.3 2.2.8.7.7 1.4 1.5 2 2.2 1.3 1.5 2 3.3 3.1 5 1 1.7 2.2 3.3 3.4 4.9 1.2 1.6 2.4 3.2 3.9 4.6 2.8 2.6 6 4.9 9 7.3 3.2 2.6 6.8 4.4 10.2 6.7 6.9 4.6 14.4 8.1 22.4 10.4 4.1 1.1 8 2.5 12.1 3.5s8.3 1.7 12.4 2.5c4.7 1 9.6 1.6 14.4 1.9 2.5.2 4.9.4 7.4.7 1.1.2 2.3.1 3.4.3.9.2 1.7.9 2.6.9-.4 2-2.6 1.7-4.2 1.3-.5-.1-1.1-.4-1.6-.4s-.9.1-1.4.1c-1.3.1-2.5-.1-3.8-.3-4.9-.7-9.7-1-14.6-1.8-4.7-.7-9.5-1.5-14.1-2.9-4.5-1.4-8.9-3.3-13.4-4.8-4.6-1.5-9.2-2.7-13.9-4-4.6-1.3-9.2-2.8-13.7-4.4-4.5-1.6-8.7-3.9-12.9-6.2-2-1.1-4.1-2.1-6-3.4-1.9-1.3-3.5-2.8-5.3-4.1-1.9-1.4-3.8-2.6-5.1-4.6-1.3-1.9-2.4-4.1-3.2-6.2-.8-2.3-1.1-5-.5-7.3.3-1.1.7-1.9 1.7-2.5.9-.4 2.2-.2 3.5-.2.7.3-.9 0 0 0zM0 218.6c.6-.9 1.4-1.6 2.5-1.5 1 .1 1.8.8 1.6 1.8-.2 1-1.2 1.7-2.2 1.7-.5 0-1-.2-1.4-.5-.6-.5-.5-.8-.5-1.5.9-1.4 0 .3 0 0zM170.6 222.7c1.4-.2 2.2 1.7 2.2 2.8 0 1.3-1.4 2.7-2.7 2.6-1.4-.1-2.3-1.6-2.3-2.9 0-1.5 1.5-2.5 2.8-2.5 1.3-.2-1.5 0 0 0zM182.7 231.7c-1.3 0-2.3-.4-2.6-1.8-.3-1.4.6-3.2 2.2-3.4 1-.1 2.2 1.2 2.7 2.1.3.6.3 1.3-.1 1.9-.6.9-1.3 1.1-2.2 1.2-1.8 0 .3 0 0 0zM217.6 240.8c0 3.2-5 2.3-4.7-.6.1-1.4 1.5-2.2 2.8-2 1.3.3 1.9 1.3 1.9 2.6zM206.6 236.6c0 3.1-4.9 2.9-4.7-.1.1-1.3 1.6-2.4 2.9-2.3 1.3.1 1.8 1.2 1.8 2.4zM192.9 234.9c-1.3 0-2.4-.8-2.2-2.1.2-1.2 1.2-2.4 2.5-2.4 2.7.2 2.5 4.5-.3 4.5-1.3 0 1.3 0 0 0zM224.8 245c-2.8 0-3.3-4.5-.3-4.3 2.6.1 3.3 4.3.3 4.3-1.3 0 1.3 0 0 0zM172.2 53.2c.4-.7 1.1-1 2-1.1.5 0 1.3.2 1.7-.1.3-.4 0-.4.5-.5.5-.1 1 0 1.5 0 1.1 0 2.3.1 3.4.5-.5 1.5-1.4 1.8-2.9 1.7-2.1-.3-4.1-.2-6.2-.5.7-1.1.3.1 0 0zM158.8 223.6c-1.1 0-2.3-.7-2.2-2 .1-1.1 1-1.9 2.1-2 2.7-.1 2.9 4 .1 4zM149.6 217.8c.4 2.3-4.1 2.5-4.2.1-.2-2.8 4.2-2.9 4.2-.1.2 1.1 0-1.2 0 0zM134.7 216c-2.8 0-2-4.2.7-3.7 1 .2 1.4.8 1.4 1.8.1 1.2-.9 1.9-2.1 1.9zM372.1 253.2c-.1-2.3 3.3-2.8 3.9-.5.5 2-3.9 3.3-3.9.5-.1-1.3 0 .9 0 0zM93.8 208.8c-2.5-.1-1.7-3.3.4-3.4.9-.1 2 .7 1.9 1.7-.2 1.1-1.4 1.8-2.3 1.7zM407.3 278.5c0 1.1-.6 1.8-1.7 1.8s-1.7-.7-1.7-1.7c0-1.2.8-1.9 1.9-1.8 1.2 0 1.5.7 1.5 1.7zM233.3 242.7c2.8 0 1.7 4.3-.4 3.4-1-.4-1.4-1.3-1.2-2.3.2-.9.7-1.1 1.6-1.1zM122.6 213.3c-2 0-2.2-3.4-.1-3.4 2.3 0 2.5 3.4.1 3.4zM85.3 208.5c-.8 0-1.8-1.1-1.6-1.9.1-.7 1.2-1.4 1.9-1.5 1-.1 1.7.9 1.7 1.8 0 1-1 1.6-2 1.6zM378.5 269.9c0-2.6 3.7-1.7 3.2.7-.2.9-1 1.2-1.8 1.2-1-.1-1.4-.9-1.4-1.9 0-.9 0 1.3 0 0zM398.9 276.1c0 2.1-3.7 2.5-3.6 0 .1-1.9 3.6-1.9 3.6 0 0 .9 0-.8 0 0zM102.9 206.1c2.4 0 2 3.2-.2 3.2-.8 0-1.7-.9-1.7-1.7 0-.9 1-1.5 1.9-1.5zM71 204.7c2.3 0 1.7 3.1-.3 3.2-2.3.2-1.8-3.2.3-3.2zM373.9 267.5c.4 1.9-3.3 2-3.2-.1 0-2 3.2-2 3.2.1.1.9 0-1 0 0zM45 209.4c0 .8-.8 1.7-1.5 1.8-.8.2-1.8-.6-1.7-1.4.3-1.7 3.1-2.7 3.2-.4zM16.7 217.5c-.8 0-2-.7-1.8-1.6.2-.8 1.3-1.4 2.1-1.3 2 .2 1.6 2.9-.3 2.9zM110.7 209.8c0-1.7 2.7-2.5 3.2-.6.4 2.1-3.2 2.7-3.2.6zM191.2 52.1c.6 0 1.2 0 1.9.1s.8.3.4.9c-.6.9-1.7.9-2.7.8-.6-.1-.8-.4-1.3-.7-.2-.1-.7 0-.8-.2-.2-.4.6-.8.8-.9.5-.1 1.2 0 1.7 0 .7-.1-.6 0 0 0zM36.9 212.8c-.7 0-1.4-.9-1.4-1.5.1-.7 1.1-1.5 1.8-1.5s1.4.9 1.4 1.6c0 .8-1.1 1.4-1.8 1.4zM415.6 280.4c0 2.1-3.3 1.7-3-.3.4-1.8 3-1.5 3 .3 0 .9 0-1 0 0zM423.3 283.3c-2.1 0-2-2.8 0-2.9 2.1 0 2 3 0 2.9zM78.2 204.9c.8 0 1.8.5 1.7 1.4-.1.8-1.2 1.3-1.9 1.3-2.1 0-1.7-2.7.2-2.7zM64.3 207.7c-.8 0-1.7-.4-1.8-1.3-.1-.8.7-1.5 1.5-1.5.7 0 1.6.3 1.7 1.1.1.7-.6 1.8-1.4 1.7zM56.9 208.5c-2.2 0-1.5-3.1.3-2.9 1.8.2 1.6 2.9-.3 2.9-.8 0 1.1 0 0 0zM31.3 211.4c1.9 0 2 2.7 0 2.7-1.9-.1-1.8-2.8 0-2.7zM49.8 209.7c-1.8-.1-.8-2.8.7-2.7.8.1 1.3.9 1.1 1.7-.2.8-1.1 1-1.8 1-.5 0 1.2 0 0 0zM388.4 274.5c-1.7 0-1.8-3.1-.2-2.9 1.6.3 2.1 2.9.2 2.9zM431.6 283.9c-1.6 0-1.4-2.6.2-2.5 1.6 0 1.3 2.5-.2 2.5zM184.2 53.2c1.1-1.5 2.5-.6 3.8-.4-.6 1.4-1.5 1.5-3.8.4zM26.3 212.8c1.3-.1 1.3 2.3-.2 2.2-1.5-.2-1.4-2.2.2-2.2.7-.1-.8 0 0 0zM439.6 284.2c.2 1.3-2.2 1.2-1.9-.2.2-1.4 1.9-1.2 1.9.2.1.7 0-.7 0 0z"/></g></svg>
