<svg class="lumi" xmlns="http://www.w3.org/2000/svg" viewBox="0 0 368 50"><path d="M351.4 22.3c0 .9 1 1 1 0s-1-.9-1 0zm-39-2.3c0 .9-1.4.9-1.4 0 0-.8 1.4-.9 1.4 0zm-49.2-3.7c0 1-1.3 1-1.3 0s1.3-1 1.3 0zm-103.8-14c1.3 2.1-2.4 3.9-3.3 1.5-.7-2 2.2-3.3 3.3-1.5zm14.3-1c1 0 1.6 1.1 1.4 2-.2 1-1.6 1.4-2.4 1.1-2-.6-.6-3.1 1-3.1zM6.4 48c-1-.1-2.3.1-3.1-.5-.6-.5-1-1.5-.3-2.1.6-.6 1.8.3 2.5.4 1 .1 2-.1 2.9-.5.9-.5 1.6-1.5 2.6-1.8.8-.3 1.6.6 1.3 1.5-.3.9-1.8 1.6-2.6 2-1.1.5-2.2.8-3.3 1-.9-.1 2-.3 0 0zm134-42.9c-1.8-1.8 2.1-4 3.6-2.1.7.9.4 2-.5 2.6-1 .7-2.2.3-3.1-.5zM96.3 9.8c-2.8 0-2.1-4.1.5-3.8 2.4.3 1.8 3.8-.5 3.8zM111 8c-2.6 0-2.4-3.8.2-3.6 1.1.1 1.8.9 1.8 2s-.9 1.6-2 1.6zm17-.3c-2.6 0-2.2-3.5.2-3.5 1 0 1.7.8 1.7 1.8 0 1.1-.8 1.7-1.9 1.7zm-48.9 19c1.2.2 2.2.7 3 1.5.4.4.7.8 1 1.3.4.8.2 1 .1 1.8-1.1-.5-1.8-1.1-2.6-1.9-.8-.8-1.6-1.5-2.2-2.5.2 0 .5-.1.7-.2.4.1-.2.1 0 0zm-10.6-4.2c1-.8 2.3-.5 3.4-.2.9.3 2.6 1 2.9 2 .6 1.7-2 .4-2.5.1-1.3-.6-2.6-1.2-3.8-1.9.8-.7.4.3 0 0zM189.3 4.9c-.9 0-1.6-.7-1.6-1.6-.1-.9.6-1.4 1.4-1.6 2.3-.4 2.6 3.1.2 3.2zm-105.8 38c0-.6.9-1.4 1.4-1.5.9-.2 1.4.8 1.3 1.6-.1.6-.5 1.6-1.3 1.6-.7 0-1.4-1-1.4-1.7zM199.5 2c1.9 0 1.8 2.8-.1 2.6-1.5-.2-1.4-2.6.1-2.6zM79.7 44.5c1.7-.1 1 2.4-.5 2.4-2 0-.9-2.4.5-2.4.8-.1-.6 0 0 0zM207.5 4.1c-1.6.1-1.7-2.5 0-2.4 1.4.2 1.5 2.4 0 2.4zm110.1 13.3c-1.5 0-1-2.3.3-2.1 1.4.1 1.1 2.1-.3 2.1-.6 0 .7 0 0 0zM4 39.2c0 1.3-2.1 2-2.1.4.1-1.1 2.1-2 2.1-.4zM250.8 9.7c0 1.2-2.5.9-2.1-.5.4-1.4 2.1-.8 2.1.5 0 .5 0-.8 0 0zm5.9 1.6c-1.3-.2-1.1-2.2.4-2 1.4.2 1 2.1-.4 2-.5-.1.7.1 0 0zM6.3 34.8c1.3 0 .6 2.1-.4 2.2-1.5.1-.9-2.2.4-2.2.4 0-.7 0 0 0zm67.8 13.7c-1.4 0-.8-2.3.6-1.9.5.2 1 .8.7 1.4-.1.5-.8.5-1.3.5-.3 0 .9 0 0 0zm218.6-33c-1.5 0-1.2-2.2.2-2 1.3.2 1.1 2.1-.2 2zm11.5.9c-1.1 0-.7-2.2.7-2 1.5.3.5 2-.7 2-.3 0 .9 0 0 0zm18.1.2c.1-1.3 2.1-1.1 1.9.3-.1 1.4-1.9 1-1.9-.3.1-.5 0 .7 0 0zM243.1 6.4c1.4.2 1.2 2.1-.2 1.9-.6-.1-1-.5-.9-1.1.1-.6.6-.7 1.1-.8.6.1-.6.1 0 0zm55.2 9.5c-1.3.1-1.4-1.8-.2-1.9 1.4-.3 1.4 2.1.2 1.9-.7 0 .7.1 0 0zM218.6 2.8c0 1.2-1.9 1.4-2.1.3-.2-1.2 2-1.7 2.1-.3 0 .7-.1-.7 0 0zM235.8 6c-.1 1.1-2.2.8-1.9-.3.2-1.4 1.9-1 1.9.3-.1.4 0-.7 0 0zm110.4 12.3c0 .5-.1.9-.5 1.1-.4.2-.9.1-1.1-.3-.2-.4-.1-1 .2-1.3.6-.3 1 .2 1.4.5.1.9-.1-.1 0 0zm-88.1-2.4c0 1-1.5 1-1.5 0-.1-1 1.5-1 1.5 0zm10.4.8c0 1-1.5 1-1.5 0 0-.9 1.5-.9 1.5 0zm5.5.4c0 .9-1.4.9-1.4 0-.1-.9 1.4-.9 1.4 0zm6.3 1.2c0 1-1.3 0-1.3 0 .1-1 1.3-1 1.3 0zm6.9 0c0 1-1.2 1-1.2 0s1.2-1 1.2 0zm-.1-4c0 1-1.8 1-1.8 0s1.8-1 1.8 0zm-6.8-1.5c0 1.4-2.1 1.3-2.1 0 .1-1.3 2.1-1.4 2.1 0zm-5.7-.8c0 1.3-2.1 1.3-2.1 0s2.1-1.3 2.1 0zm-5.8-.7c0 2-1.9 2-1.9 0 .1-1 1.9-1 1.9 0zm-4.9-.3c0 1.3-2.1 1.3-2.1 0 .1-1.3 2.1-1.4 2.1 0zm-36.4-6.7c0 1-1.8 1-1.8 0s1.8-1 1.8 0zM69.9 49.2c0 1-1.5 1-1.5 0-.1-.9 1.5-.9 1.5 0zM15 42.3c0 1-1.6 1-1.6 0s1.6-1 1.6 0zm279-23c0 1-1.2 1-1.2 0s1.2-1 1.2 0zm5.5 0c0 1-1.3 1-1.3 0s1.3-1 1.3 0zM1.7 43c0 .9-1.4.9-1.4 0-.1-.9 1.4-.9 1.4 0zm310.2-26.7c0 1-2 1-2 0s2-1 2 0zm7.2 3.9c0 .9-1.4.9-1.4 0s1.4-.9 1.4 0zm-13.6-.5c0 .9-1.4.9-1.4 0 .1-.9 1.4-.9 1.4 0zm19.6.6c0 1-1.1.8-1.1 0-.1-.9 1.1-1 1.1 0zm7.2 0c0 1-1.1.8-1.1 0s1.1-1 1.1 0zm0-3c0 1-1.9 1-1.9 0s1.9-1 1.9 0zm7.2 1c0 1-2 1-2 0 0-2 2-2 2 0zm.4 3c0 1-1.1 1-1.1 0s1.1-1 1.1 0zm6.4 0c0 1-.8.8-.8 0s.8-1 .8 0zm11.7-2c0 1-1.8 1-1.8 0s1.8-1 1.8 0zm-5.4 0c0 1-1.7 1-1.7 0s1.7-1 1.7 0zm10.5 0c0 1-1.3 1-1.3 0s1.3-1 1.3 0zm4.8 0c0 1-1.3 1-1.3 0s1.3-1 1.3 0z"/></svg>