<svg class="lumi" xmlns="http://www.w3.org/2000/svg" viewBox="0 0 424 784"><path class="st0" d="M12.5 16.2c12.4 2.4 23.8 7.8 34.7 14.1 3.5 2 26.4 14.9 20.6 21.1.8.7 7.7 5.6 7.4 6.9-.1.7-8.8-6.8-9.9-7.4-9.4-4.9-18.9-7.6-29.5-9-5.1-.7-10.6-.1-15.1-2.8-1.5-.9-2.1-2.4-4-3.8-1.4-1.1-3.6-1.4-4.6-3.1-1.6-2.5-1.6-6.2-3.1-9-2.6-5-3.5-7 3.5-7 .8.1-1.6 0 0 0zm62.3 43.3c3.2-2 5 6 2.5 4.6-2.2-1.4-1.5-2.5-2.5-4.6.6-.4.2.2 0 0z"/><path d="M192.3 397.8c-.4 2.2-1.4 3.9-1.6 5.4-.4 2.6-.2 4.9-1.3 7.2-.8 1.8-3.6 4.2-4.8 5.9-.1.1.7.9 0 1.6-1.8 1.9-6.5 3.5-9 4.1-7.5 1.7-15-1.2-22.5.8-2.4.6-21 11.3-20.9 11.4-.6-.6 6.6-10.1 7.6-11.2 4.5-5.4 10.4-10.3 16.3-14.1 10.5-6.7 23.6-11.1 36.2-11.1 0 .3-.1 0 0 0zm-63.6 40.6c5-5.3 0 3.2 0 0 .4-.4 0 .1 0 0z"/><path d="M130.8 435.7c.6-.6.8-.6 1.5 0-.5.6-.9.6-1.5 0z"/></svg>