<svg class="lumi" xmlns="http://www.w3.org/2000/svg" viewBox="0 0 69 51"><g><path d="M69 .4L66.9 4c.3.3.5.6.9.9-.2.2-.4.5-.6.7-1 1-.9 2.3-.6 3.5 0 .1 0 .2.1.3 1 1.6.1 2.7-.9 3.8-1.6 1.7-3.1 3.4-4.6 5.2-.6.8-.6 1.3.2 1.8-.2.3-.4.7-.7 1-.9 1.3-2.2 1.8-3.8 2-.7.1-1.4.3-2.1.5-.3.1-.6.5-.9.7-.5.3-1.1.8-1.6.9-1.4.3-2.9.4-4.3.6-.8.1-1.7.2-2.5.1-2.3-.1-4.6-.3-6.9-.5-.7-.1-1.4-.1-2.1-.1-1.2-.1-2.4-.2-3.6-.1-1.3.1-2.6.5-3.9.7-3.3.5-6.3 2-9.4 3.1-1.8.7-3.3 1.9-4.9 3-2.3 1.6-4.6 3.3-6.9 5-.4.3-.7.6-1.1.9-.2.1-.3.3-.5.4-.4.2-.7.2-1-.2-.3-.4-.2-.6 0-1 1.1-1.3 2.2-2.6 3.2-4 1-1.3 1.8-2.8 2.8-4.1.3-.4.7-.7 1.1-1 .4-.4 1-.6.8-1.4 0-.1.1-.4.2-.5 1.8-1.7 3.5-3.4 5.3-5.2.6-.6 1.2-1.1 1.8-1.7 3.1-2.9 6.4-5.5 10-7.6 2.4-1.4 4.7-2.9 7.2-4.2 4-2.1 8.2-3.7 12.7-4.6 2.4-.5 4.8-.9 7.2-1.4.5-.1 1.1-.1 1.6-.1 2.9 0 5.7-.2 8.5-1.1.2-.1.5-.1.7-.2.3 0 .8-.3.7.3zM1.2 42.4l1.6-1.6c.2-.2.7-.1.9 0 .4.2.3.5.1.9-.2.3-.3.6-.4.8-.4.7-1.2.8-1.7.1 0 0-.2-.1-.5-.2zM1.5 45.2c-.6 0-.5.8-1.1.8-.1 0-.3-.1-.4-.1 0-.1.1-.2.2-.4 0-.1.1-.1.2-.2.2-.7.4-.7 1.1-.1zM3.6 39.5c.6-.6.8-.6 1.6 0-.5.6-.9.6-1.6 0z"/></g></svg>